<?xml version="1.0" encoding="utf-8" standalone="no"?>
<!DOCTYPE svg PUBLIC "-//W3C//DTD SVG 1.1//EN"
  "http://www.w3.org/Graphics/SVG/1.1/DTD/svg11.dtd">
<!-- Created with matplotlib (http://matplotlib.org/) -->
<svg height="187pt" version="1.1" viewBox="0 0 424 187" width="424pt" xmlns="http://www.w3.org/2000/svg" xmlns:xlink="http://www.w3.org/1999/xlink">
 <defs>
  <style type="text/css">
*{stroke-linecap:butt;stroke-linejoin:round;stroke-miterlimit:100000;}
  </style>
 </defs>
 <g id="figure_1">
  <g id="patch_1">
   <path d="M 0 187.2 
L 424.8 187.2 
L 424.8 0 
L 0 0 
z
" style="fill:#ffffff;"/>
  </g>
  <g id="axes_1">
   <g id="patch_2">
    <path d="M 138.092774 139.911956 
L 267.871193 139.911956 
L 267.871193 5.616 
L 138.092774 5.616 
z
" style="fill:#ffffff;"/>
   </g>
   <g id="line2d_1">
    <path clip-path="url(#pe9aa1863e7)" d="M 221.4592 130.679109 
L 221.4592 115.570814 
L 235.831939 115.570814 
L 235.831939 130.679109 
L 221.4592 130.679109 
" style="fill:none;stroke:#000000;stroke-linecap:square;"/>
   </g>
   <g id="line2d_2">
    <path clip-path="url(#pe9aa1863e7)" d="M 221.4592 123.124962 
L 204.53079 123.124962 
" style="fill:none;stroke:#000000;stroke-dasharray:6.000000,6.000000;stroke-dashoffset:0.0;"/>
   </g>
   <g id="line2d_3">
    <path clip-path="url(#pe9aa1863e7)" d="M 235.831939 123.124962 
L 256.66636 123.124962 
" style="fill:none;stroke:#000000;stroke-dasharray:6.000000,6.000000;stroke-dashoffset:0.0;"/>
   </g>
   <g id="line2d_4">
    <path clip-path="url(#pe9aa1863e7)" d="M 204.53079 126.902036 
L 204.53079 119.347888 
" style="fill:none;stroke:#000000;stroke-linecap:square;"/>
   </g>
   <g id="line2d_5">
    <path clip-path="url(#pe9aa1863e7)" d="M 256.66636 126.902036 
L 256.66636 119.347888 
" style="fill:none;stroke:#000000;stroke-linecap:square;"/>
   </g>
   <g id="line2d_6">
    <path clip-path="url(#pe9aa1863e7)" d="M 228.547063 130.679109 
L 228.547063 115.570814 
" style="fill:none;stroke:#000000;stroke-linecap:square;"/>
   </g>
   <g id="line2d_7">
    <defs>
     <path d="M -3 0 
L 3 0 
M 0 3 
L 0 -3 
" id="mb29971f352" style="stroke:#000000;stroke-width:0.5;"/>
    </defs>
    <g clip-path="url(#pe9aa1863e7)">
     <use style="fill:#0000ff;stroke:#000000;stroke-width:0.5;" x="196.7653943" xlink:href="#mb29971f352" y="123.124961817"/>
     <use style="fill:#0000ff;stroke:#000000;stroke-width:0.5;" x="188.843384077" xlink:href="#mb29971f352" y="123.124961817"/>
     <use style="fill:#0000ff;stroke:#000000;stroke-width:0.5;" x="198.96435099" xlink:href="#mb29971f352" y="123.124961817"/>
     <use style="fill:#0000ff;stroke:#000000;stroke-width:0.5;" x="177.379311312" xlink:href="#mb29971f352" y="123.124961817"/>
     <use style="fill:#0000ff;stroke:#000000;stroke-width:0.5;" x="265.226854985" xlink:href="#mb29971f352" y="123.124961817"/>
     <use style="fill:#0000ff;stroke:#000000;stroke-width:0.5;" x="264.211783255" xlink:href="#mb29971f352" y="123.124961817"/>
    </g>
   </g>
   <g id="line2d_8">
    <path clip-path="url(#pe9aa1863e7)" d="M 208.449907 97.10512 
L 208.449907 81.996825 
L 232.858271 81.996825 
L 232.858271 97.10512 
L 208.449907 97.10512 
" style="fill:none;stroke:#000000;stroke-linecap:square;"/>
   </g>
   <g id="line2d_9">
    <path clip-path="url(#pe9aa1863e7)" d="M 208.449907 89.550973 
L 180.341079 89.550973 
" style="fill:none;stroke:#000000;stroke-dasharray:6.000000,6.000000;stroke-dashoffset:0.0;"/>
   </g>
   <g id="line2d_10">
    <path clip-path="url(#pe9aa1863e7)" d="M 232.858271 89.550973 
L 268.28034 89.550973 
" style="fill:none;stroke:#000000;stroke-dasharray:6.000000,6.000000;stroke-dashoffset:0.0;"/>
   </g>
   <g id="line2d_11">
    <path clip-path="url(#pe9aa1863e7)" d="M 180.341079 93.328046 
L 180.341079 85.773899 
" style="fill:none;stroke:#000000;stroke-linecap:square;"/>
   </g>
   <g id="line2d_12">
    <path clip-path="url(#pe9aa1863e7)" d="M 268.28034 93.328046 
L 268.28034 85.773899 
" style="fill:none;stroke:#000000;stroke-linecap:square;"/>
   </g>
   <g id="line2d_13">
    <path clip-path="url(#pe9aa1863e7)" d="M 220.074 97.10512 
L 220.074 81.996825 
" style="fill:none;stroke:#000000;stroke-linecap:square;"/>
   </g>
   <g id="line2d_14">
    <g clip-path="url(#pe9aa1863e7)">
     <use style="fill:#0000ff;stroke:#000000;stroke-width:0.5;" x="168.513410515" xlink:href="#mb29971f352" y="89.5509727265"/>
     <use style="fill:#0000ff;stroke:#000000;stroke-width:0.5;" x="162.999664318" xlink:href="#mb29971f352" y="89.5509727265"/>
     <use style="fill:#0000ff;stroke:#000000;stroke-width:0.5;" x="141.803785341" xlink:href="#mb29971f352" y="89.5509727265"/>
     <use style="fill:#0000ff;stroke:#000000;stroke-width:0.5;" x="166.275821728" xlink:href="#mb29971f352" y="89.5509727265"/>
     <use style="fill:#0000ff;stroke:#000000;stroke-width:0.5;" x="309.279502719" xlink:href="#mb29971f352" y="89.5509727265"/>
     <use style="fill:#0000ff;stroke:#000000;stroke-width:0.5;" x="281.019051072" xlink:href="#mb29971f352" y="89.5509727265"/>
     <use style="fill:#0000ff;stroke:#000000;stroke-width:0.5;" x="279.474625789" xlink:href="#mb29971f352" y="89.5509727265"/>
    </g>
   </g>
   <g id="line2d_15">
    <path clip-path="url(#pe9aa1863e7)" d="M 219.167025 63.531131 
L 219.167025 48.422836 
L 232.166881 48.422836 
L 232.166881 63.531131 
L 219.167025 63.531131 
" style="fill:none;stroke:#000000;stroke-linecap:square;"/>
   </g>
   <g id="line2d_16">
    <path clip-path="url(#pe9aa1863e7)" d="M 219.167025 55.976984 
L 201.108167 55.976984 
" style="fill:none;stroke:#000000;stroke-dasharray:6.000000,6.000000;stroke-dashoffset:0.0;"/>
   </g>
   <g id="line2d_17">
    <path clip-path="url(#pe9aa1863e7)" d="M 232.166881 55.976984 
L 249.004824 55.976984 
" style="fill:none;stroke:#000000;stroke-dasharray:6.000000,6.000000;stroke-dashoffset:0.0;"/>
   </g>
   <g id="line2d_18">
    <path clip-path="url(#pe9aa1863e7)" d="M 201.108167 59.754057 
L 201.108167 52.19991 
" style="fill:none;stroke:#000000;stroke-linecap:square;"/>
   </g>
   <g id="line2d_19">
    <path clip-path="url(#pe9aa1863e7)" d="M 249.004824 59.754057 
L 249.004824 52.19991 
" style="fill:none;stroke:#000000;stroke-linecap:square;"/>
   </g>
   <g id="line2d_20">
    <path clip-path="url(#pe9aa1863e7)" d="M 226.09335 63.531131 
L 226.09335 48.422836 
" style="fill:none;stroke:#000000;stroke-linecap:square;"/>
   </g>
   <g id="line2d_21">
    <g clip-path="url(#pe9aa1863e7)">
     <use style="fill:#0000ff;stroke:#000000;stroke-width:0.5;" x="192.782769572" xlink:href="#mb29971f352" y="55.9769836359"/>
     <use style="fill:#0000ff;stroke:#000000;stroke-width:0.5;" x="187.957402042" xlink:href="#mb29971f352" y="55.9769836359"/>
     <use style="fill:#0000ff;stroke:#000000;stroke-width:0.5;" x="179.873548141" xlink:href="#mb29971f352" y="55.9769836359"/>
     <use style="fill:#0000ff;stroke:#000000;stroke-width:0.5;" x="252.765864283" xlink:href="#mb29971f352" y="55.9769836359"/>
    </g>
   </g>
   <g id="line2d_22">
    <path clip-path="url(#pe9aa1863e7)" d="M 219.155692 29.957142 
L 219.155692 14.848847 
L 233.36209 14.848847 
L 233.36209 29.957142 
L 219.155692 29.957142 
" style="fill:none;stroke:#000000;stroke-linecap:square;"/>
   </g>
   <g id="line2d_23">
    <path clip-path="url(#pe9aa1863e7)" d="M 219.155692 22.402995 
L 200.15863 22.402995 
" style="fill:none;stroke:#000000;stroke-dasharray:6.000000,6.000000;stroke-dashoffset:0.0;"/>
   </g>
   <g id="line2d_24">
    <path clip-path="url(#pe9aa1863e7)" d="M 233.36209 22.402995 
L 246.463799 22.402995 
" style="fill:none;stroke:#000000;stroke-dasharray:6.000000,6.000000;stroke-dashoffset:0.0;"/>
   </g>
   <g id="line2d_25">
    <path clip-path="url(#pe9aa1863e7)" d="M 200.15863 26.180068 
L 200.15863 18.625921 
" style="fill:none;stroke:#000000;stroke-linecap:square;"/>
   </g>
   <g id="line2d_26">
    <path clip-path="url(#pe9aa1863e7)" d="M 246.463799 26.180068 
L 246.463799 18.625921 
" style="fill:none;stroke:#000000;stroke-linecap:square;"/>
   </g>
   <g id="line2d_27">
    <path clip-path="url(#pe9aa1863e7)" d="M 226.4602 29.957142 
L 226.4602 14.848847 
" style="fill:none;stroke:#000000;stroke-linecap:square;"/>
   </g>
   <g id="line2d_28">
    <g clip-path="url(#pe9aa1863e7)">
     <use style="fill:#0000ff;stroke:#000000;stroke-width:0.5;" x="193.851638359" xlink:href="#mb29971f352" y="22.4029945453"/>
     <use style="fill:#0000ff;stroke:#000000;stroke-width:0.5;" x="196.001421363" xlink:href="#mb29971f352" y="22.4029945453"/>
     <use style="fill:#0000ff;stroke:#000000;stroke-width:0.5;" x="160.470737789" xlink:href="#mb29971f352" y="22.4029945453"/>
     <use style="fill:#0000ff;stroke:#000000;stroke-width:0.5;" x="262.328147634" xlink:href="#mb29971f352" y="22.4029945453"/>
    </g>
   </g>
   <g id="patch_3">
    <path d="M 138.092774 5.616 
L 267.871193 5.616 
" style="fill:none;stroke:#000000;stroke-linecap:square;stroke-linejoin:miter;"/>
   </g>
   <g id="patch_4">
    <path d="M 267.871193 139.911956 
L 267.871193 5.616 
" style="fill:none;stroke:#000000;stroke-linecap:square;stroke-linejoin:miter;"/>
   </g>
   <g id="patch_5">
    <path d="M 138.092774 139.911956 
L 267.871193 139.911956 
" style="fill:none;stroke:#000000;stroke-linecap:square;stroke-linejoin:miter;"/>
   </g>
   <g id="patch_6">
    <path d="M 138.092774 139.911956 
L 138.092774 5.616 
" style="fill:none;stroke:#000000;stroke-linecap:square;stroke-linejoin:miter;"/>
   </g>
   <g id="matplotlib.axis_1">
    <g id="xtick_1">
     <g id="line2d_29">
      <defs>
       <path d="M 0 0 
L 0 -4 
" id="m91c281a868" style="stroke:#000000;stroke-width:0.5;"/>
      </defs>
      <g>
       <use style="stroke:#000000;stroke-width:0.5;" x="157.177835453" xlink:href="#m91c281a868" y="139.911956362"/>
      </g>
     </g>
     <g id="line2d_30">
      <defs>
       <path d="M 0 0 
L 0 4 
" id="mbfdeeac8b3" style="stroke:#000000;stroke-width:0.5;"/>
      </defs>
      <g>
       <use style="stroke:#000000;stroke-width:0.5;" x="157.177835453" xlink:href="#mbfdeeac8b3" y="5.616"/>
      </g>
     </g>
     <g id="text_1">
      <!-- $0$ -->
      <defs>
       <path d="M 26.296875 69 
C 10.796875 69 2.90625 56.6875 2.90625 32.453125 
C 2.90625 20.71875 5 10.625 8.5 5.71875 
C 12 0.796875 17.59375 -2 23.796875 -2 
C 38.90625 -2 46.5 11.015625 46.5 36.65625 
C 46.5 58.578125 40 69 26.296875 69 
M 24.5 65.5 
C 34.203125 65.5 38.09375 55.6875 38.09375 31.640625 
C 38.09375 10.328125 34.296875 1.5 25.09375 1.5 
C 15.40625 1.5 11.296875 11.625 11.296875 36.0625 
C 11.296875 57.1875 15 65.5 24.5 65.5 
" id="URW_Palladio_L_Roman-48"/>
      </defs>
      <g transform="translate(154.189043423 152.465832087)scale(0.12 -0.12)">
       <use transform="scale(0.996264009963)" xlink:href="#URW_Palladio_L_Roman-48"/>
      </g>
     </g>
    </g>
    <g id="xtick_2">
     <g id="line2d_31">
      <g>
       <use style="stroke:#000000;stroke-width:0.5;" x="195.347958915" xlink:href="#m91c281a868" y="139.911956362"/>
      </g>
     </g>
     <g id="line2d_32">
      <g>
       <use style="stroke:#000000;stroke-width:0.5;" x="195.347958915" xlink:href="#mbfdeeac8b3" y="5.616"/>
      </g>
     </g>
     <g id="text_2">
      <!-- $50$ -->
      <defs>
       <path d="M 12.703125 60.578125 
C 25.59375 60.578125 31.203125 60.578125 43.203125 60.578125 
L 43.703125 61.046875 
C 43.5 62.75 43.5 63.5 43.5 64.75 
C 43.5 66.078125 43.5 66.828125 43.703125 68.53125 
L 43.203125 69 
C 35.703125 69 31.203125 69 25.796875 69 
C 20.296875 69 15.90625 69 8.40625 69 
L 7.90625 68.796875 
C 8 62.671875 8.09375 58.265625 8.09375 55.046875 
C 8.09375 46.515625 7.796875 36.875 7.5 32.453125 
L 9.5 31.84375 
C 14.203125 36.578125 16.90625 38 21.796875 38 
C 31.40625 38 37.40625 31.140625 37.40625 20.25 
C 37.40625 9.0625 31 2.5 20.09375 2.5 
C 14.703125 2.5 9.703125 4.328125 8.296875 6.9375 
L 3.703125 15.203125 
L 1.296875 13.796875 
C 3.59375 8.0625 4.796875 4.84375 6.203125 0.421875 
C 9 -1.109375 13 -2 17.296875 -2 
C 24 -2 31.09375 0.921875 36.59375 5.75 
C 42.703125 11.1875 45.90625 18.03125 45.90625 25.46875 
C 45.90625 36.859375 37.796875 44.90625 26.40625 44.90625 
C 21.59375 44.90625 18 43.609375 11.796875 39.90625 
z
" id="URW_Palladio_L_Roman-53"/>
      </defs>
      <g transform="translate(189.370374855 152.465832087)scale(0.12 -0.12)">
       <use transform="scale(0.996264009963)" xlink:href="#URW_Palladio_L_Roman-53"/>
       <use transform="translate(49.8132004981 0.0)scale(0.996264009963)" xlink:href="#URW_Palladio_L_Roman-48"/>
      </g>
     </g>
    </g>
    <g id="xtick_3">
     <g id="line2d_33">
      <g>
       <use style="stroke:#000000;stroke-width:0.5;" x="233.518082377" xlink:href="#m91c281a868" y="139.911956362"/>
      </g>
     </g>
     <g id="line2d_34">
      <g>
       <use style="stroke:#000000;stroke-width:0.5;" x="233.518082377" xlink:href="#mbfdeeac8b3" y="5.616"/>
      </g>
     </g>
     <g id="text_3">
      <!-- $100$ -->
      <defs>
       <path d="M 6.703125 56 
L 7.703125 56 
L 20.59375 61.8125 
C 20.703125 61.90625 20.796875 61.90625 20.90625 61.90625 
C 21.5 61.90625 21.703125 61.015625 21.703125 58.609375 
L 21.703125 9.578125 
C 21.703125 4.3125 20.59375 3.203125 15.203125 3.203125 
L 9.59375 3.203125 
L 9.59375 0 
C 25 0 25 0 26.09375 0 
C 27.40625 0 29.59375 0 33 0 
C 34.203125 0 37.703125 0 41.796875 0 
L 41.796875 3.203125 
L 36.59375 3.203125 
C 31.09375 3.203125 30.09375 4.3125 30.09375 9.5625 
L 30.09375 69.421875 
L 28.703125 69.921875 
C 22.203125 66.515625 15.09375 63.515625 6 60.3125 
z
" id="URW_Palladio_L_Roman-49"/>
      </defs>
      <g transform="translate(224.551706287 152.465832087)scale(0.12 -0.12)">
       <use transform="scale(0.996264009963)" xlink:href="#URW_Palladio_L_Roman-49"/>
       <use transform="translate(49.8132004981 0.0)scale(0.996264009963)" xlink:href="#URW_Palladio_L_Roman-48"/>
       <use transform="translate(99.6264009963 0.0)scale(0.996264009963)" xlink:href="#URW_Palladio_L_Roman-48"/>
      </g>
     </g>
    </g>
    <g id="text_4">
     <!-- H0 (km/s/Mpc) -->
     <defs>
      <path d="M 1.796875 40.078125 
L 5.5 40.078125 
C 9.5 40.078125 9.90625 39.375 9.90625 32.71875 
L 9.90625 10.046875 
C 9.90625 3.703125 9.59375 3 6.203125 3 
L 1.59375 3 
L 1.59375 -0.109375 
C 11.203125 -0.109375 11.5 -0.109375 14.296875 -0.109375 
C 17.09375 -0.109375 19.703125 -0.109375 26.203125 -0.109375 
L 26.203125 2.796875 
L 22 3.203125 
C 18.59375 3.203125 18.296875 3.90625 18.296875 10.21875 
L 18.296875 31.46875 
C 18.296875 35.96875 24.90625 40.875 30.90625 40.875 
C 36.296875 40.875 40 35.734375 40 28.09375 
L 40 10.046875 
C 40 3.703125 39.703125 3 36.296875 3 
L 31.703125 3 
L 31.703125 -0.109375 
C 41.703125 -0.109375 41.703125 -0.109375 44.203125 -0.109375 
C 46.703125 -0.109375 46.703125 -0.109375 56.703125 -0.109375 
L 56.703125 3 
L 52.09375 3 
C 48.703125 3 48.40625 3.703125 48.40625 10.046875 
L 48.40625 31.421875 
C 48.40625 35.9375 55 40.875 61 40.875 
C 66.40625 40.875 70.09375 35.796875 70.09375 28.21875 
L 70.09375 -0.109375 
C 76.203125 -0.109375 76.296875 -0.109375 78 -0.109375 
C 79.296875 -0.109375 79.296875 -0.109375 86.90625 -0.109375 
L 86.90625 3 
L 82.203125 3 
C 78.796875 3 78.5 3.703125 78.5 10.046875 
L 78.5 30.78125 
C 78.5 40.75 72.703125 47 63.5 47 
C 60 47 57.09375 46.09375 55.296875 44.484375 
L 47.703125 37.6875 
C 44.5 44.28125 40.40625 47 33.5 47 
C 29.796875 47 27 46.09375 25.203125 44.484375 
L 18.296875 38.078125 
L 18.296875 46.59375 
L 17.40625 47 
C 12.296875 44.890625 7.09375 43.484375 1.796875 42.890625 
z
" id="URW_Palladio_L_Roman-109"/>
      <path d="M 1 40.078125 
L 4.703125 40.078125 
C 8.703125 40.078125 9.09375 39.375 9.09375 32.734375 
L 9.09375 -17.84375 
C 9.09375 -24.1875 8.796875 -24.890625 5.40625 -24.890625 
L 0.796875 -24.890625 
L 0.796875 -28 
C 10.796875 -28 10.796875 -28 13.296875 -28 
C 15.796875 -28 15.796875 -28 25.796875 -28 
L 25.796875 -24.890625 
L 21.203125 -24.890625 
C 17.796875 -24.890625 17.5 -24.171875 17.5 -17.78125 
L 17.5 1.390625 
C 20.5 -0.40625 23.703125 -1.109375 28.203125 -1.109375 
C 31.09375 -1.109375 33.703125 -0.5 35.296875 0.5 
L 46.703125 7.890625 
C 50.703125 10.5 55.40625 20.78125 55.40625 27.1875 
C 55.40625 38.296875 46.203125 47 34.59375 47 
C 30.90625 47 27.296875 45.984375 25.703125 44.484375 
L 17.5 36.984375 
L 17.5 46.59375 
L 16.59375 47 
C 11.5 44.890625 6.296875 43.484375 1 42.890625 
z
M 17.5 30.6875 
C 17.5 32.078125 18 33.1875 19.296875 34.890625 
C 22.203125 38.578125 26.296875 40.484375 31.296875 40.484375 
C 40.703125 40.484375 46.703125 33.890625 46.703125 23.5 
C 46.703125 12.296875 40 4 31 4 
C 25.5 4 21.40625 5.8125 17.5 9.890625 
z
" id="URW_Palladio_L_Roman-112"/>
      <path d="M 4.09375 14.328125 
C 4.09375 7.421875 3.796875 4.40625 3 0.40625 
C 8.203125 -1.296875 12.09375 -2 16.703125 -2 
C 29.796875 -2 39.09375 5.015625 39.09375 14.828125 
C 39.09375 17.9375 38.203125 20.234375 36.296875 22.25 
C 33.703125 24.75 30.40625 25.953125 21.59375 27.65625 
C 13.40625 29.265625 10.703125 31.265625 10.703125 35.875 
C 10.703125 40.875 14.203125 43.6875 20.296875 43.6875 
C 27 43.6875 32.09375 40.1875 32.09375 35.46875 
L 32.09375 33.171875 
L 34.90625 33.171875 
C 35 38.984375 35.09375 41.375 35.40625 44.484375 
C 30.09375 46.296875 26.5 47 22.40625 47 
C 10.796875 47 3.703125 41.484375 3.703125 32.46875 
C 3.703125 27.65625 5.90625 24.25 10.5 22.140625 
C 13.203125 20.9375 18.5 19.34375 25.296875 17.828125 
C 29.796875 16.828125 31.703125 14.734375 31.703125 10.921875 
C 31.703125 5.515625 26.703125 1.703125 19.59375 1.703125 
C 12.296875 1.703125 7.09375 5.203125 7.09375 10.21875 
L 7.09375 14.328125 
z
" id="URW_Palladio_L_Roman-115"/>
      <path d="M 2.296875 66.5 
L 7.90625 66.5 
C 9.703125 66.5 10.40625 65.390625 10.40625 62.375 
L 10.40625 10.171875 
C 10.40625 3.8125 10.09375 3.109375 6.703125 3.109375 
L 2.09375 3.109375 
L 2.09375 0 
C 12.09375 0 12.09375 0 14.703125 0 
C 17.5 0 18 0 26.90625 0 
L 26.90625 3.109375 
L 22.5 3.109375 
C 19.09375 3.109375 18.796875 3.8125 18.796875 10.1875 
L 18.796875 24.15625 
L 45.296875 -1 
L 54.90625 1.90625 
L 54.90625 4.21875 
C 52.5 4.21875 49.59375 5.921875 46.40625 9 
L 33.796875 21.46875 
C 30.203125 24.953125 29.09375 26.265625 27.40625 28.25 
L 40.296875 38.265625 
C 45 41.828125 47.703125 43 51.09375 43 
L 51.09375 46 
L 41.09375 46 
C 34.703125 39.625 30 35.234375 26.09375 32.140625 
L 18.796875 26.25 
L 18.796875 72.203125 
L 17.90625 73.015625 
C 13.5 71.3125 10.203125 70.5 2.296875 69.296875 
z
" id="URW_Palladio_L_Roman-107"/>
      <path d="M 39.90625 31.15625 
C 39.90625 35.765625 40.40625 39.875 41.296875 43.484375 
C 37.296875 45.890625 33.796875 47 29.703125 47 
C 24.90625 47 19.296875 45.09375 13.296875 41.28125 
C 6.296875 36.875 2.59375 29.859375 2.59375 21.046875 
C 2.59375 7.515625 12.09375 -2 25.5 -2 
C 30.703125 -2 38.203125 -0.09375 39.203125 1.40625 
L 41.296875 4.609375 
L 40.296875 6.109375 
C 36.59375 4.109375 33.40625 3.203125 29.796875 3.203125 
C 18.703125 3.203125 11.40625 11.828125 11.40625 25.046875 
C 11.40625 35.765625 16.40625 41.78125 25.40625 41.78125 
C 29.796875 41.78125 34.59375 39.78125 36.40625 37.28125 
L 37.09375 31.15625 
z
" id="URW_Palladio_L_Roman-99"/>
      <path d="M 51.90625 72.5 
L 45.90625 72.5 
L 8.703125 -12 
L 14.703125 -12 
z
" id="URW_Palladio_L_Roman-47"/>
      <path d="M 61.59375 12.078125 
C 61.59375 4.015625 61.09375 3.203125 56.5 3.203125 
L 51.703125 3.203125 
L 51.703125 0 
C 57.59375 0 61.09375 0 66.296875 0 
C 71.5 0 75.09375 0 81 0 
L 81 3.203125 
L 76.203125 3.203125 
C 71.59375 3.203125 71.09375 4 71.09375 11.96875 
L 71.09375 57.234375 
C 71.09375 65.1875 71.59375 66 76.203125 66 
L 81 66 
L 81 69.109375 
C 73.703125 69.109375 71.5 69.109375 66.296875 69.109375 
C 61.296875 69.109375 58.90625 69.109375 51.703125 69.109375 
L 51.703125 66 
L 56.5 66 
C 61.09375 66 61.59375 65.1875 61.59375 57.3125 
L 61.59375 39.515625 
C 59.5 39.515625 57.40625 39.515625 53.296875 39.515625 
L 29.90625 39.515625 
C 25.796875 39.515625 23.59375 39.515625 21.59375 39.515625 
L 21.59375 57.3125 
C 21.59375 65.1875 22.09375 66 26.703125 66 
L 31.5 66 
L 31.5 69.109375 
C 24.203125 69.109375 22 69.109375 16.796875 69.109375 
C 11.796875 69.109375 9.40625 69.109375 2.203125 69.109375 
L 2.203125 66 
L 7 66 
C 11.59375 66 12.09375 65.1875 12.09375 57.234375 
L 12.09375 11.96875 
C 12.09375 4 11.59375 3.203125 7 3.203125 
L 2.203125 3.203125 
L 2.203125 0 
C 8.09375 0 11.59375 0 16.796875 0 
C 22 0 25.59375 0 31.5 0 
L 31.5 3.203125 
L 26.703125 3.203125 
C 22.09375 3.203125 21.59375 4.015625 21.59375 12.078125 
L 21.59375 34.796875 
C 24.296875 35 25.90625 35 29.90625 35 
L 53.296875 35 
C 57.296875 35 58.90625 35 61.59375 34.796875 
z
" id="URW_Palladio_L_Roman-72"/>
      <path d="M 73.203125 12.234375 
C 73.203125 4.3125 72.796875 3.609375 68.09375 3.203125 
L 64.703125 2.90625 
L 64.703125 0 
C 69.296875 0 72.296875 0 77.5 0 
C 83.09375 0 86.703125 0 92.59375 0 
L 92.59375 3.203125 
L 87.796875 3.203125 
C 83.203125 3.203125 82.703125 4 82.703125 11.96875 
L 82.703125 57.234375 
C 82.703125 65.09375 83.203125 66 87.796875 66 
L 92 66.5 
L 92 69.3125 
C 84.40625 69.3125 84.40625 69.3125 82.703125 69.3125 
C 81.203125 69.3125 81.203125 69.3125 73.203125 69.3125 
L 47 13.8125 
L 20.59375 69.3125 
C 12.59375 69.3125 12.59375 69.3125 11.09375 69.3125 
C 9.59375 69.3125 9.59375 69.3125 1.59375 69.3125 
L 1.59375 66.203125 
L 6 66.203125 
C 10.59375 66.203125 11.09375 65.28125 11.09375 57.40625 
L 11.09375 12 
C 11.09375 4.109375 10.59375 3.203125 6 3.203125 
L 1.59375 3.203125 
L 1.59375 0 
C 11.5 0 11.5 0 13.203125 0 
C 14.703125 0 14.703125 0 25.203125 0 
L 25.203125 3.203125 
L 20.796875 3.203125 
C 16.203125 3.203125 15.703125 4.09375 15.703125 11.96875 
L 15.703125 58.09375 
L 43.59375 -1 
L 45.59375 -1 
C 46.296875 0.5 46.90625 2.09375 47.5 3.59375 
C 49.09375 7.5 50.296875 10.28125 51 11.6875 
L 68.796875 49.484375 
C 70.203125 52.390625 71.40625 54.6875 73.203125 58.09375 
z
" id="URW_Palladio_L_Roman-77"/>
      <path d="M 30.09375 -19.4375 
C 22.90625 -10.515625 20.296875 -5.71875 17.703125 3.3125 
C 15.59375 10.515625 14.59375 18.140625 14.59375 26.65625 
C 14.59375 34.96875 15.59375 42.078125 17.5 48.59375 
C 20.09375 56.90625 22.796875 61.625 30.09375 70.140625 
L 28.203125 72.75 
C 17.796875 63.421875 13.703125 57.921875 9.90625 48.09375 
C 7.296875 41.375 6 34.265625 6 26.65625 
C 6 15.9375 8.5 5.8125 13.296875 -3.203125 
C 16.796875 -9.921875 20 -13.828125 28.203125 -21.546875 
z
" id="URW_Palladio_L_Roman-40"/>
      <path d="M 5.09375 -21.546875 
C 12 -15.03125 14.90625 -11.71875 18 -6.8125 
C 24.09375 2.90625 27.296875 14.53125 27.296875 26.546875 
C 27.296875 34.265625 26 41.375 23.40625 48.09375 
C 19.59375 57.8125 15.5 63.328125 5.09375 72.75 
L 3.203125 70.140625 
C 10.5 61.515625 13.203125 56.8125 15.703125 48.59375 
C 17.703125 42.078125 18.703125 34.96875 18.703125 26.65625 
C 18.703125 18.140625 17.703125 10.515625 15.59375 3.3125 
C 13 -5.71875 10.40625 -10.515625 3.203125 -19.4375 
z
" id="URW_Palladio_L_Roman-41"/>
     </defs>
     <g transform="translate(159.262288361 169.390991888)scale(0.12 -0.12)">
      <use transform="scale(0.996264009963)" xlink:href="#URW_Palladio_L_Roman-72"/>
      <use transform="translate(82.8886609297 0.0)scale(0.996264009963)" xlink:href="#URW_Palladio_L_Roman-48"/>
      <use transform="translate(157.608461677 0.0)scale(0.996264009963)" xlink:href="#URW_Palladio_L_Roman-40"/>
      <use transform="translate(190.783691406 0.0)scale(0.996264009963)" xlink:href="#URW_Palladio_L_Roman-107"/>
      <use transform="translate(246.17536837 0.0)scale(0.996264009963)" xlink:href="#URW_Palladio_L_Roman-109"/>
      <use transform="translate(334.145042638 0.0)scale(0.996264009963)" xlink:href="#URW_Palladio_L_Roman-47"/>
      <use transform="translate(394.518054853 0.0)scale(0.996264009963)" xlink:href="#URW_Palladio_L_Roman-115"/>
      <use transform="translate(436.75952118 0.0)scale(0.996264009963)" xlink:href="#URW_Palladio_L_Roman-47"/>
      <use transform="translate(497.132533395 0.0)scale(0.996264009963)" xlink:href="#URW_Palladio_L_Roman-77"/>
      <use transform="translate(591.378734774 0.0)scale(0.996264009963)" xlink:href="#URW_Palladio_L_Roman-112"/>
      <use transform="translate(651.253128527 0.0)scale(0.996264009963)" xlink:href="#URW_Palladio_L_Roman-99"/>
      <use transform="translate(695.486697224 0.0)scale(0.996264009963)" xlink:href="#URW_Palladio_L_Roman-41"/>
     </g>
    </g>
   </g>
   <g id="matplotlib.axis_2">
    <g id="ytick_1">
     <g id="line2d_35">
      <defs>
       <path d="M 0 0 
L 4 0 
" id="m5b693dc865" style="stroke:#000000;stroke-width:0.5;"/>
      </defs>
      <g>
       <use style="stroke:#000000;stroke-width:0.5;" x="138.092773722" xlink:href="#m5b693dc865" y="123.124961817"/>
      </g>
     </g>
     <g id="line2d_36">
      <defs>
       <path d="M 0 0 
L -4 0 
" id="m6dfef389cb" style="stroke:#000000;stroke-width:0.5;"/>
      </defs>
      <g>
       <use style="stroke:#000000;stroke-width:0.5;" x="267.871193493" xlink:href="#m6dfef389cb" y="123.124961817"/>
      </g>
     </g>
     <g id="text_5">
      <!-- Haloes in clusters with -->
      <defs>
       <path d="M 41.296875 47 
C 33.09375 27.9375 31.59375 24.546875 25.40625 10.578125 
L 17 38.1875 
C 16.703125 39.09375 16.59375 39.890625 16.59375 40.6875 
C 16.59375 42.1875 17.90625 43 20.40625 43 
L 24.40625 43 
L 24.40625 45.8125 
C 14.5 45.8125 14.5 45.8125 12.5 45.8125 
C 10.5 45.8125 10.5 45.8125 0.59375 45.8125 
L 0.59375 43.203125 
L 3.40625 43 
C 6.203125 42.796875 7.5 40.8125 10 33.03125 
L 20.203125 -0.5 
L 24.90625 -0.5 
L 34.703125 22.453125 
C 35.203125 23.65625 36.296875 26.046875 37.90625 29.4375 
L 39.90625 33.625 
L 53.5 -0.5 
L 58.09375 -0.5 
C 58.796875 1.59375 59.59375 3.890625 60.40625 6.078125 
C 62.40625 11.984375 64.59375 18.15625 65 18.765625 
L 71.796875 34.3125 
C 74.796875 41.015625 76 42.703125 78.203125 43 
L 80.796875 43.203125 
L 80.796875 45.8125 
C 72.59375 45.8125 72.59375 45.8125 71 45.8125 
C 69.40625 45.8125 69.40625 45.8125 61.203125 45.8125 
L 61.203125 43 
L 64.59375 43 
C 67.09375 43 68.5 41.796875 68.5 39.984375 
C 68.5 38.890625 68.296875 37.6875 67.796875 36.390625 
L 62.796875 22.390625 
C 62 20.1875 61.203125 18.171875 58 9.96875 
L 46.5 38.90625 
C 45.09375 42.296875 44.40625 44.296875 43.59375 47 
z
" id="URW_Palladio_L_Roman-119"/>
       <path d="M 2.296875 66.5 
L 7.90625 66.5 
C 9.703125 66.5 10.40625 65.390625 10.40625 62.375 
L 10.40625 10.171875 
C 10.40625 3.8125 10.09375 3.109375 6.703125 3.109375 
L 2.09375 3.109375 
L 2.09375 0 
C 12.09375 0 12.09375 0 14.59375 0 
C 17.09375 0 17.09375 0 27.09375 0 
L 27.09375 3.109375 
L 22.5 3.109375 
C 19.09375 3.109375 18.796875 3.8125 18.796875 10.15625 
L 18.796875 72.203125 
L 17.90625 73.015625 
C 13.5 71.3125 10.203125 70.5 2.296875 69.296875 
z
" id="URW_Palladio_L_Roman-108"/>
       <path d="M 27.90625 47 
C 13.296875 47 3.203125 36.671875 3.203125 21.75 
C 3.203125 7.609375 12.09375 -2 25 -2 
C 40.40625 -2 51.40625 8.71875 51.40625 23.75 
C 51.40625 37.28125 41.59375 47 27.90625 47 
M 26.09375 43.6875 
C 35.296875 43.6875 42.09375 33.671875 42.09375 20.046875 
C 42.09375 8.515625 37 1.296875 28.90625 1.296875 
C 19.09375 1.296875 12.5 10.921875 12.5 25.15625 
C 12.5 37.171875 17.296875 43.6875 26.09375 43.6875 
" id="URW_Palladio_L_Roman-111"/>
       <path d="M 41 -0.109375 
C 47.09375 -0.109375 47.203125 -0.109375 48.90625 -0.109375 
C 50.296875 -0.109375 50.296875 -0.109375 57.203125 -0.109375 
L 57.203125 2.796875 
L 53.09375 3.203125 
C 49.703125 3.203125 49.40625 3.8125 49.40625 10.21875 
L 49.40625 29.5625 
C 49.40625 41.28125 43.90625 47 32.703125 47 
C 29 47 26.90625 46.296875 24.796875 44.484375 
L 17.203125 37.875 
L 17.203125 46.59375 
L 16.296875 47 
C 11.203125 44.890625 6 43.484375 0.703125 42.890625 
L 0.703125 40.078125 
L 4.40625 40.078125 
C 8.40625 40.078125 8.796875 39.375 8.796875 32.71875 
L 8.796875 10.046875 
C 8.796875 3.703125 8.5 3 5.09375 3 
L 0.59375 3 
L 0.59375 -0.109375 
C 7.40625 -0.109375 10.09375 -0.109375 13 -0.109375 
C 15.90625 -0.109375 18.59375 -0.109375 25.40625 -0.109375 
L 25.40625 3 
L 20.90625 3 
C 17.5 3 17.203125 3.703125 17.203125 10.046875 
L 17.203125 31.421875 
C 17.203125 35.9375 23.796875 40.875 29.90625 40.875 
C 36.59375 40.875 41 35.890625 41 28.21875 
z
" id="URW_Palladio_L_Roman-110"/>
       <path d="M 43.703125 6.984375 
L 42.40625 7.984375 
C 36 4.203125 33.703125 3.3125 29.40625 3.3125 
C 22.90625 3.3125 17.5 6.21875 14.703125 11.109375 
C 12.796875 14.390625 12.09375 17.203125 11.90625 23 
L 26.5 23 
C 33.40625 23 37.703125 23 44.59375 24.125 
C 44.703125 25.53125 44.796875 26.453125 44.796875 27.671875 
C 44.796875 39.375 37.40625 47 26.203125 47 
C 22.5 47 18.203125 45.6875 14.09375 43.28125 
C 5.90625 38.578125 2.59375 32.359375 2.59375 21.9375 
C 2.59375 15.625 4.09375 10.21875 6.796875 6.40625 
C 10.796875 1.109375 17.5 -2 25 -2 
C 28.703125 -2 32.40625 -1.203125 36.5 0.578125 
C 39.203125 1.6875 41.296875 2.984375 41.703125 3.59375 
z
M 35.90625 26.40625 
C 30.703125 26.40625 28.296875 26.40625 24.703125 26.40625 
C 20.09375 26.40625 17.5 26.40625 12.09375 26.90625 
C 12.09375 31.671875 12.5 33.890625 13.796875 36.515625 
C 15.90625 40.96875 20.203125 43.6875 25 43.6875 
C 28.296875 43.6875 30.90625 42.359375 32.703125 39.59375 
C 34.90625 36.234375 35.59375 33.265625 35.90625 26.40625 
" id="URW_Palladio_L_Roman-101"/>
       <path d="M 2.296875 40.078125 
L 6 40.078125 
C 10 40.078125 10.40625 39.375 10.40625 32.71875 
L 10.40625 10.046875 
C 10.40625 3.703125 10.09375 3 6.703125 3 
L 2.09375 3 
L 2.09375 -0.109375 
C 9.296875 -0.109375 11.90625 -0.109375 14.40625 -0.109375 
C 16.40625 -0.109375 16.40625 -0.109375 28.703125 -0.109375 
L 28.703125 3 
L 23.5 3 
C 19 3 18.796875 3.296875 18.796875 9.96875 
L 18.796875 27.359375 
C 18.796875 33.421875 22.796875 38.484375 27.703125 38.484375 
C 30.703125 38.484375 32.796875 37.078125 34.40625 33.890625 
L 36.5 33.890625 
L 37.40625 45.890625 
C 36.296875 46.59375 34.5 47 32.703125 47 
C 29.703125 47 26.5 45.390625 24.40625 42.890625 
L 18.796875 36.28125 
L 18.796875 46.59375 
L 17.90625 47 
C 12.796875 44.890625 7.59375 43.484375 2.296875 42.890625 
z
" id="URW_Palladio_L_Roman-114"/>
       <path d="M 50.296875 47.015625 
L 49.40625 47.421875 
C 44.296875 45.3125 39.09375 43.90625 33.796875 43.3125 
L 33.796875 40.5 
L 37.5 40.5 
C 41.5 40.5 41.90625 39.796875 41.90625 33.140625 
L 41.90625 16.71875 
C 41.90625 14.5 40.5 11.671875 38.203125 9.359375 
C 35.40625 6.53125 32.203125 5.109375 28.296875 5.109375 
C 24.796875 5.109375 22 6.21875 20.40625 8.140625 
C 19 9.75 18.296875 12.875 18.296875 17.296875 
L 18.296875 47.015625 
L 17.40625 47.421875 
C 12.296875 45.3125 7.09375 43.90625 1.796875 43.3125 
L 1.796875 40.5 
L 5.5 40.5 
C 9.5 40.5 9.90625 39.796875 9.90625 33.15625 
L 9.90625 16.234375 
C 9.90625 9.171875 10.5 6.046875 12.296875 3.546875 
C 14.5 0.515625 18.296875 -1 24 -1 
C 28.5 -1 32.5 0.40625 35.203125 2.90625 
L 41.90625 9.140625 
C 41.90625 6.265625 41.796875 4.65625 41.5 0 
C 48.203125 0 48.296875 0 49.796875 0 
C 51.203125 0 51.203125 0 58.09375 0 
L 58.09375 2.90625 
L 54 3.3125 
C 50.59375 3.3125 50.296875 3.921875 50.296875 10.375 
z
" id="URW_Palladio_L_Roman-117"/>
       <path d="M 18.796875 46.765625 
L 17.90625 47.171875 
C 12.796875 45.0625 7.59375 43.640625 2.296875 43.046875 
L 2.296875 40.25 
L 6 40.25 
C 10 40.25 10.40625 39.546875 10.40625 32.890625 
L 10.40625 10.171875 
C 10.40625 3.8125 10.09375 3.109375 6.703125 3.109375 
L 2.09375 3.109375 
L 2.09375 0 
C 12.09375 0 12.09375 0 14.59375 0 
C 17.09375 0 17.09375 0 27.09375 0 
L 27.09375 3.109375 
L 22.5 3.109375 
C 19.09375 3.109375 18.796875 3.8125 18.796875 10.171875 
z
M 14.203125 69 
C 11.203125 69 8.59375 66.390625 8.59375 63.375 
C 8.59375 60.46875 11.203125 57.875 14.09375 57.875 
C 17 57.875 19.703125 60.46875 19.703125 63.375 
C 19.703125 66.1875 17 69 14.203125 69 
" id="URW_Palladio_L_Roman-105"/>
       <path d="M 0.703125 66.375 
L 6.296875 66.375 
C 8.09375 66.375 8.796875 65.265625 8.796875 62.25 
L 8.796875 10.046875 
C 8.796875 3.703125 8.5 3 5.09375 3 
L 0.59375 3 
L 0.59375 -0.109375 
C 7.40625 -0.109375 10.09375 -0.109375 13 -0.109375 
C 15.90625 -0.109375 18.59375 -0.109375 25.40625 -0.109375 
L 25.40625 3 
L 20.90625 3 
C 17.5 3 17.203125 3.703125 17.203125 10.046875 
L 17.203125 31.421875 
C 17.203125 35.9375 23.796875 40.875 29.90625 40.875 
C 36.59375 40.875 41 35.890625 41 28.21875 
L 41 -0.109375 
C 47.09375 -0.109375 47.203125 -0.109375 48.90625 -0.109375 
C 50.296875 -0.109375 50.296875 -0.109375 57.203125 -0.109375 
L 57.203125 2.796875 
L 53.09375 3.203125 
C 49.703125 3.203125 49.40625 3.8125 49.40625 10.21875 
L 49.40625 29.5625 
C 49.40625 41.28125 43.90625 47 32.703125 47 
C 29 47 26.90625 46.296875 24.796875 44.484375 
L 17.203125 37.875 
L 17.203125 72.078125 
L 16.296875 72.890625 
C 11.90625 71.1875 8.59375 70.375 0.703125 69.171875 
z
" id="URW_Palladio_L_Roman-104"/>
       <path d="M 9.796875 38.6875 
L 9.796875 9.671875 
C 9.796875 2.21875 13.09375 -1 20.796875 -1 
C 23.09375 -1 25.5 -0.5 26.09375 0.203125 
L 30.90625 5.515625 
L 29.59375 7.234375 
C 27.09375 5.8125 25.59375 5.3125 23.703125 5.3125 
C 19.796875 5.3125 18.203125 7.34375 18.203125 12.3125 
L 18.203125 38.890625 
L 31 38.890625 
L 31.90625 44 
L 18.203125 44 
L 18.203125 47.75 
C 18.203125 51.890625 18.5 55.421875 19.296875 61.734375 
L 18.09375 62.828125 
C 15.703125 61.328125 12.703125 60.03125 9.59375 59.03125 
C 9.90625 56.015625 10 54.109375 10 51.109375 
L 10 44.09375 
L 2.203125 40.59375 
L 2.203125 38.6875 
z
" id="URW_Palladio_L_Roman-116"/>
       <path d="M 32.40625 8.40625 
L 31.90625 -0.015625 
C 38.40625 -0.015625 38.40625 -0.015625 39.703125 -0.015625 
C 40.203125 -0.015625 42.703125 -0.015625 47.09375 -0.015625 
L 47.09375 3 
L 43.203125 3 
C 40.796875 3 40.40625 3.8125 40.40625 8.71875 
L 40.40625 27.046875 
C 40.40625 41.6875 36.203125 47 24.59375 47 
C 20.296875 47 16.296875 45.890625 12.5 43.609375 
L 7.203125 40.390625 
L 7.203125 33.921875 
L 9.796875 33.21875 
L 11.09375 36.296875 
C 13.203125 40.984375 14.203125 41.6875 18.796875 41.6875 
C 28.203125 41.6875 32.09375 37.984375 32.40625 28.9375 
L 22.5 27.125 
C 8.90625 24.640625 3.203125 19.953125 3.203125 11.28125 
C 3.203125 3.5 7.90625 -1 15.796875 -1 
C 17.59375 -1 19.296875 -0.703125 20 -0.203125 
z
M 32.40625 12.59375 
C 29.5 8.5 23.203125 4.71875 19.296875 4.71875 
C 15.296875 4.71875 11.796875 8.40625 11.796875 12.6875 
C 11.796875 16.375 13.796875 19.859375 16.796875 21.75 
C 19.296875 23.25 24.796875 24.640625 32.40625 25.75 
z
" id="URW_Palladio_L_Roman-97"/>
      </defs>
      <g transform="translate(13.1797577125 110.461259903)scale(0.12 -0.12)">
       <use transform="scale(0.996264009963)" xlink:href="#URW_Palladio_L_Roman-72"/>
       <use transform="translate(82.8886609297 0.0)scale(0.996264009963)" xlink:href="#URW_Palladio_L_Roman-97"/>
       <use transform="translate(132.701861428 0.0)scale(0.996264009963)" xlink:href="#URW_Palladio_L_Roman-108"/>
       <use transform="translate(161.69222289 0.0)scale(0.996264009963)" xlink:href="#URW_Palladio_L_Roman-111"/>
       <use transform="translate(216.087803063 0.0)scale(0.996264009963)" xlink:href="#URW_Palladio_L_Roman-101"/>
       <use transform="translate(263.808098172 0.0)scale(0.996264009963)" xlink:href="#URW_Palladio_L_Roman-115"/>
       <use transform="translate(330.956164748 0.0)scale(0.996264009963)" xlink:href="#URW_Palladio_L_Roman-105"/>
       <use transform="translate(359.94652621 0.0)scale(0.996264009963)" xlink:href="#URW_Palladio_L_Roman-110"/>
       <use transform="translate(442.83518714 0.0)scale(0.996264009963)" xlink:href="#URW_Palladio_L_Roman-99"/>
       <use transform="translate(487.068755837 0.0)scale(0.996264009963)" xlink:href="#URW_Palladio_L_Roman-108"/>
       <use transform="translate(516.059117299 0.0)scale(0.996264009963)" xlink:href="#URW_Palladio_L_Roman-117"/>
       <use transform="translate(576.132852025 0.0)scale(0.996264009963)" xlink:href="#URW_Palladio_L_Roman-115"/>
       <use transform="translate(618.374318352 0.0)scale(0.996264009963)" xlink:href="#URW_Palladio_L_Roman-116"/>
       <use transform="translate(650.851406226 0.0)scale(0.996264009963)" xlink:href="#URW_Palladio_L_Roman-101"/>
       <use transform="translate(698.571701335 0.0)scale(0.996264009963)" xlink:href="#URW_Palladio_L_Roman-114"/>
       <use transform="translate(737.923597666 0.0)scale(0.996264009963)" xlink:href="#URW_Palladio_L_Roman-115"/>
       <use transform="translate(805.071664242 0.0)scale(0.996264009963)" xlink:href="#URW_Palladio_L_Roman-119"/>
       <use transform="translate(888.159757355 0.0)scale(0.996264009963)" xlink:href="#URW_Palladio_L_Roman-105"/>
       <use transform="translate(917.150118817 0.0)scale(0.996264009963)" xlink:href="#URW_Palladio_L_Roman-116"/>
       <use transform="translate(949.627206691 0.0)scale(0.996264009963)" xlink:href="#URW_Palladio_L_Roman-104"/>
      </g>
      <!-- all members less massive -->
      <defs>
       <path d="M 15 72.1875 
L 14.09375 73 
C 9.703125 71.296875 6.40625 70.484375 -1.5 69.28125 
L -1.5 66.484375 
L 4.09375 66.484375 
C 5.90625 66.484375 6.59375 65.375 6.59375 62.359375 
L 6.59375 15.453125 
C 6.59375 9.234375 6.5 6.5 5.796875 -0.515625 
L 7.40625 -1.109375 
L 11.40625 2.5 
C 15.40625 -0.109375 19 -1.109375 24.296875 -1.109375 
C 28.203125 -1.109375 30.796875 -0.40625 32.90625 1.09375 
L 42.90625 8.296875 
C 47.296875 11.484375 50.796875 19.78125 50.796875 27.078125 
C 50.796875 38.6875 43.296875 47 32.703125 47 
C 28 47 23.09375 45.1875 20.5 42.578125 
L 15 36.984375 
z
M 15 30.890625 
C 15 32.28125 16 34.078125 17.59375 35.890625 
C 20.40625 38.78125 24.296875 40.484375 28.40625 40.484375 
C 36.796875 40.484375 42.09375 33.6875 42.09375 23 
C 42.09375 11.796875 36.09375 4 27.59375 4 
C 22.40625 4 15 7.1875 15 9.390625 
z
" id="URW_Palladio_L_Roman-98"/>
       <path d="M 53.90625 43 
L 53.90625 45.8125 
C 47.90625 45.8125 46.09375 45.8125 44.5 45.8125 
C 42.90625 45.8125 41.09375 45.8125 35.09375 45.8125 
L 35.09375 43 
L 39.203125 43 
C 40.796875 43 41.59375 42.09375 41.59375 40.484375 
C 41.59375 38.890625 40.90625 36.203125 39.703125 33.1875 
L 35.5 22.578125 
C 34.296875 19.671875 33.09375 16.875 29.296875 8.578125 
L 17.40625 37.390625 
C 16.796875 38.78125 16.5 40.09375 16.5 41.1875 
C 16.5 42.296875 17.40625 43 19 43 
L 23.90625 43 
L 23.90625 45.8125 
C 14.09375 45.8125 14.09375 45.8125 12.203125 45.8125 
C 10.296875 45.8125 5.5 45.8125 0.59375 45.8125 
L 0.59375 43 
L 4 43 
C 5.5 42.796875 6 42.203125 7.09375 39.703125 
L 24.296875 -0.5 
L 29.296875 -0.5 
C 29.90625 1.203125 30.90625 3.796875 30.90625 4 
C 32 6.984375 33.296875 10.375 33.40625 10.375 
L 45.203125 36.3125 
C 47.40625 41.015625 48.796875 42.796875 50.796875 43 
z
" id="URW_Palladio_L_Roman-118"/>
      </defs>
      <g transform="translate(1.248334777 124.097194849)scale(0.12 -0.12)">
       <use transform="scale(0.996264009963)" xlink:href="#URW_Palladio_L_Roman-97"/>
       <use transform="translate(49.8132004981 0.0)scale(0.996264009963)" xlink:href="#URW_Palladio_L_Roman-108"/>
       <use transform="translate(78.80356196 0.0)scale(0.996264009963)" xlink:href="#URW_Palladio_L_Roman-108"/>
       <use transform="translate(132.700523671 0.0)scale(0.996264009963)" xlink:href="#URW_Palladio_L_Roman-109"/>
       <use transform="translate(220.670197939 0.0)scale(0.996264009963)" xlink:href="#URW_Palladio_L_Roman-101"/>
       <use transform="translate(268.390493049 0.0)scale(0.996264009963)" xlink:href="#URW_Palladio_L_Roman-109"/>
       <use transform="translate(356.360167317 0.0)scale(0.996264009963)" xlink:href="#URW_Palladio_L_Roman-98"/>
       <use transform="translate(411.452566791 0.0)scale(0.996264009963)" xlink:href="#URW_Palladio_L_Roman-101"/>
       <use transform="translate(459.1728619 0.0)scale(0.996264009963)" xlink:href="#URW_Palladio_L_Roman-114"/>
       <use transform="translate(498.524758231 0.0)scale(0.996264009963)" xlink:href="#URW_Palladio_L_Roman-115"/>
       <use transform="translate(565.672824807 0.0)scale(0.996264009963)" xlink:href="#URW_Palladio_L_Roman-108"/>
       <use transform="translate(594.663186269 0.0)scale(0.996264009963)" xlink:href="#URW_Palladio_L_Roman-101"/>
       <use transform="translate(642.383481378 0.0)scale(0.996264009963)" xlink:href="#URW_Palladio_L_Roman-115"/>
       <use transform="translate(684.624947706 0.0)scale(0.996264009963)" xlink:href="#URW_Palladio_L_Roman-115"/>
       <use transform="translate(751.773014282 0.0)scale(0.996264009963)" xlink:href="#URW_Palladio_L_Roman-109"/>
       <use transform="translate(839.742688551 0.0)scale(0.996264009963)" xlink:href="#URW_Palladio_L_Roman-97"/>
       <use transform="translate(889.555889049 0.0)scale(0.996264009963)" xlink:href="#URW_Palladio_L_Roman-115"/>
       <use transform="translate(931.797355376 0.0)scale(0.996264009963)" xlink:href="#URW_Palladio_L_Roman-115"/>
       <use transform="translate(974.038821704 0.0)scale(0.996264009963)" xlink:href="#URW_Palladio_L_Roman-105"/>
       <use transform="translate(1003.02918317 0.0)scale(0.996264009963)" xlink:href="#URW_Palladio_L_Roman-118"/>
       <use transform="translate(1059.31709641 0.0)scale(0.996264009963)" xlink:href="#URW_Palladio_L_Roman-101"/>
      </g>
      <!-- than $8^{11}~M_{\astrosun}$ -->
      <defs>
       <path d="M 72.21875 25 
C 72.21875 43.4375 57.21875 58.359375 38.90625 58.359375 
C 20.3125 58.359375 5.5 43.234375 5.5 25 
C 5.5 6.5625 20.5 -8.359375 38.8125 -8.359375 
C 57.421875 -8.359375 72.21875 6.765625 72.21875 25 
M 38.90625 -5.859375 
C 21.703125 -5.859375 8 8.0625 8 25 
C 8 42.234375 22 55.859375 38.8125 55.859375 
C 56.015625 55.859375 69.71875 41.9375 69.71875 25 
C 69.71875 7.765625 55.71875 -5.859375 38.90625 -5.859375 
M 45.703125 25 
C 45.703125 28.796875 42.59375 31.90625 38.90625 31.90625 
C 34.90625 31.90625 32 28.59375 32 25 
C 32 21.203125 35.09375 18.09375 38.796875 18.09375 
C 42.796875 18.09375 45.703125 21.40625 45.703125 25 
" id="CMSY10-12"/>
       <path d="M 16.796875 34.546875 
C 12.703125 32.65625 11 31.546875 8.796875 29.4375 
C 5 25.640625 3 21.125 3 15.921875 
C 3 5.609375 11.296875 -2 22.59375 -2 
C 35.59375 -2 46.40625 8.21875 46.40625 20.625 
C 46.40625 28.640625 42.703125 32.953125 31.296875 38.15625 
C 40.40625 44.375 43.59375 48.578125 43.59375 54.578125 
C 43.59375 63.1875 36.5 69 25.90625 69 
C 14 69 5.296875 61.390625 5.296875 50.890625 
C 5.296875 44.078125 8 40.265625 16.796875 34.546875 
M 28.40625 29.546875 
C 34.703125 26.734375 38.5 21.828125 38.5 16.4375 
C 38.5 8.015625 32.203125 1.40625 24.09375 1.40625 
C 15.59375 1.40625 10.09375 7.421875 10.09375 16.734375 
C 10.09375 24.03125 13 28.640625 20.40625 33.15625 
z
M 22.296875 42.375 
C 16 45.46875 12.796875 49.484375 12.796875 54.484375 
C 12.796875 61.09375 17.59375 65.59375 24.703125 65.59375 
C 32 65.59375 36.796875 60.796875 36.796875 53.46875 
C 36.796875 47.78125 34.296875 43.875 27.796875 39.65625 
z
" id="URW_Palladio_L_Roman-56"/>
       <path d="M 93.703125 66.109375 
L 94 69 
L 91.203125 69 
C 88.40625 69 86.90625 69 85.59375 69 
L 83.203125 69 
L 77.296875 69 
L 75.703125 65.921875 
C 73 60.859375 71.09375 57.46875 68.796875 53.5 
L 44.203125 11.5625 
L 29.203125 69 
L 26.40625 69 
C 23.59375 69 22.09375 69 20.796875 69 
L 18.40625 69 
L 12.5 69 
L 12.203125 66.3125 
L 14.796875 66.109375 
C 20 65.703125 21.796875 64.71875 21.796875 62.125 
C 21.796875 61.53125 21.703125 60.828125 21.5 60.140625 
L 7 9.546875 
C 5.40625 4.375 3.90625 3.078125 -1.59375 2.59375 
L -1.90625 0 
L 2 0 
C 5.40625 0 7.90625 0 9.296875 0 
C 10.703125 0 13.296875 0 16.796875 0 
L 20.296875 0 
L 20.59375 2.6875 
L 16.796875 3.09375 
C 13.59375 3.09375 11.90625 4.09375 11.90625 5.59375 
C 11.90625 6.578125 12.09375 7.875 12.59375 9.6875 
L 25 55.953125 
L 39.90625 -1.5 
L 42.203125 -1.5 
L 47.90625 8.84375 
C 55.703125 22.859375 65.09375 38.953125 71.796875 50 
L 77 58.640625 
L 73.296875 6.875 
C 72.90625 4.125 71.703125 3.4375 66.59375 3.03125 
L 63.5 2.75 
L 63.203125 0 
L 67.90625 0 
C 72.09375 0 75.09375 0 76.59375 0 
C 78.203125 0 81.203125 0 85.296875 0 
L 89.90625 0 
L 90.203125 2.6875 
L 86.5 2.984375 
C 82.90625 3.296875 81.09375 4.390625 81.09375 6.484375 
L 81.203125 10.15625 
L 85.296875 63.203125 
C 85.5 65.109375 87 66.109375 89.90625 66.109375 
z
" id="URW_Palladio_L_Italic-77"/>
      </defs>
      <g transform="translate(67.100920661 140.971255379)scale(0.12 -0.12)">
       <use transform="translate(0.0 26.2017465024)scale(0.996264009963)" xlink:href="#URW_Palladio_L_Roman-116"/>
       <use transform="translate(32.4770878736 26.2017465024)scale(0.996264009963)" xlink:href="#URW_Palladio_L_Roman-104"/>
       <use transform="translate(90.4591485542 26.2017465024)scale(0.996264009963)" xlink:href="#URW_Palladio_L_Roman-97"/>
       <use transform="translate(140.272349052 26.2017465024)scale(0.996264009963)" xlink:href="#URW_Palladio_L_Roman-110"/>
       <use transform="translate(223.161009982 26.2017465024)scale(0.996264009963)" xlink:href="#URW_Palladio_L_Roman-56"/>
       <use transform="translate(272.97421048 62.3661179026)scale(0.75715517493)" xlink:href="#URW_Palladio_L_Roman-49"/>
       <use transform="translate(310.831969227 62.3661179026)scale(0.75715517493)" xlink:href="#URW_Palladio_L_Roman-49"/>
       <use transform="translate(379.822963083 26.2017465024)scale(0.996264009963)" xlink:href="#URW_Palladio_L_Italic-77"/>
       <use transform="translate(474.866482745 0.0)scale(1.03810691596)" xlink:href="#CMSY10-12"/>
      </g>
     </g>
    </g>
    <g id="ytick_2">
     <g id="line2d_37">
      <g>
       <use style="stroke:#000000;stroke-width:0.5;" x="138.092773722" xlink:href="#m5b693dc865" y="89.5509727265"/>
      </g>
     </g>
     <g id="line2d_38">
      <g>
       <use style="stroke:#000000;stroke-width:0.5;" x="267.871193493" xlink:href="#m6dfef389cb" y="89.5509727265"/>
      </g>
     </g>
     <g id="text_6">
      <!-- Haloes in clusters -->
      <g transform="translate(40.473037795 92.1422685507)scale(0.12 -0.12)">
       <use transform="scale(0.996264009963)" xlink:href="#URW_Palladio_L_Roman-72"/>
       <use transform="translate(82.8886609297 0.0)scale(0.996264009963)" xlink:href="#URW_Palladio_L_Roman-97"/>
       <use transform="translate(132.701861428 0.0)scale(0.996264009963)" xlink:href="#URW_Palladio_L_Roman-108"/>
       <use transform="translate(161.69222289 0.0)scale(0.996264009963)" xlink:href="#URW_Palladio_L_Roman-111"/>
       <use transform="translate(216.087803063 0.0)scale(0.996264009963)" xlink:href="#URW_Palladio_L_Roman-101"/>
       <use transform="translate(263.808098172 0.0)scale(0.996264009963)" xlink:href="#URW_Palladio_L_Roman-115"/>
       <use transform="translate(330.956164748 0.0)scale(0.996264009963)" xlink:href="#URW_Palladio_L_Roman-105"/>
       <use transform="translate(359.94652621 0.0)scale(0.996264009963)" xlink:href="#URW_Palladio_L_Roman-110"/>
       <use transform="translate(442.83518714 0.0)scale(0.996264009963)" xlink:href="#URW_Palladio_L_Roman-99"/>
       <use transform="translate(487.068755837 0.0)scale(0.996264009963)" xlink:href="#URW_Palladio_L_Roman-108"/>
       <use transform="translate(516.059117299 0.0)scale(0.996264009963)" xlink:href="#URW_Palladio_L_Roman-117"/>
       <use transform="translate(576.132852025 0.0)scale(0.996264009963)" xlink:href="#URW_Palladio_L_Roman-115"/>
       <use transform="translate(618.374318352 0.0)scale(0.996264009963)" xlink:href="#URW_Palladio_L_Roman-116"/>
       <use transform="translate(650.851406226 0.0)scale(0.996264009963)" xlink:href="#URW_Palladio_L_Roman-101"/>
       <use transform="translate(698.571701335 0.0)scale(0.996264009963)" xlink:href="#URW_Palladio_L_Roman-114"/>
       <use transform="translate(737.923597666 0.0)scale(0.996264009963)" xlink:href="#URW_Palladio_L_Roman-115"/>
      </g>
     </g>
    </g>
    <g id="ytick_3">
     <g id="line2d_39">
      <g>
       <use style="stroke:#000000;stroke-width:0.5;" x="138.092773722" xlink:href="#m5b693dc865" y="55.9769836359"/>
      </g>
     </g>
     <g id="line2d_40">
      <g>
       <use style="stroke:#000000;stroke-width:0.5;" x="267.871193493" xlink:href="#m6dfef389cb" y="55.9769836359"/>
      </g>
     </g>
     <g id="text_7">
      <!-- Haloes outside clusters -->
      <defs>
       <path d="M 41.203125 43.78125 
C 35.59375 46.1875 32.796875 47 29.296875 47 
C 26.59375 47 24.203125 46.390625 21.703125 45.109375 
L 12.90625 40.515625 
C 7.203125 37.515625 3.5 30.234375 3.5 21.75 
C 3.5 13.765625 6.203125 7.1875 11.09375 3.1875 
C 14.5 0.296875 19.203125 -1 25.703125 -1 
C 27.703125 -1 30 -0.59375 30.5 -0.203125 
L 41.59375 9.109375 
L 41.09375 -0.109375 
C 46 -0.109375 47.59375 -0.109375 48.796875 -0.109375 
C 49.59375 -0.109375 51 -0.109375 53.09375 -0.109375 
C 53.796875 -0.109375 55.796875 -0.109375 57.90625 -0.109375 
L 57.90625 3 
L 53.296875 3 
C 49.90625 3 49.59375 3.703125 49.59375 10.046875 
L 49.59375 71.984375 
L 48.703125 72.796875 
C 44.296875 71.09375 41 70.28125 33.09375 69.078125 
L 33.09375 66.28125 
L 38.703125 66.28125 
C 40.5 66.28125 41.203125 65.171875 41.203125 62.15625 
z
M 41.203125 22.25 
C 41.203125 15.765625 41 14.78125 39.703125 12.484375 
C 36.90625 7.796875 32 4.71875 27.296875 4.71875 
C 18.5 4.71875 12.203125 13.1875 12.203125 25.046875 
C 12.203125 35.90625 17.59375 42.28125 26.59375 42.28125 
C 30.40625 42.28125 34.40625 40.984375 37.90625 38.59375 
C 40 37.203125 41.203125 35.90625 41.203125 35.09375 
z
" id="URW_Palladio_L_Roman-100"/>
      </defs>
      <g transform="translate(11.6973255003 58.5682794601)scale(0.12 -0.12)">
       <use transform="scale(0.996264009963)" xlink:href="#URW_Palladio_L_Roman-72"/>
       <use transform="translate(82.8886609297 0.0)scale(0.996264009963)" xlink:href="#URW_Palladio_L_Roman-97"/>
       <use transform="translate(132.701861428 0.0)scale(0.996264009963)" xlink:href="#URW_Palladio_L_Roman-108"/>
       <use transform="translate(161.69222289 0.0)scale(0.996264009963)" xlink:href="#URW_Palladio_L_Roman-111"/>
       <use transform="translate(216.087803063 0.0)scale(0.996264009963)" xlink:href="#URW_Palladio_L_Roman-101"/>
       <use transform="translate(263.808098172 0.0)scale(0.996264009963)" xlink:href="#URW_Palladio_L_Roman-115"/>
       <use transform="translate(330.956164748 0.0)scale(0.996264009963)" xlink:href="#URW_Palladio_L_Roman-111"/>
       <use transform="translate(385.351744921 0.0)scale(0.996264009963)" xlink:href="#URW_Palladio_L_Roman-117"/>
       <use transform="translate(445.425479647 0.0)scale(0.996264009963)" xlink:href="#URW_Palladio_L_Roman-116"/>
       <use transform="translate(477.90256752 0.0)scale(0.996264009963)" xlink:href="#URW_Palladio_L_Roman-115"/>
       <use transform="translate(520.144033848 0.0)scale(0.996264009963)" xlink:href="#URW_Palladio_L_Roman-105"/>
       <use transform="translate(549.13439531 0.0)scale(0.996264009963)" xlink:href="#URW_Palladio_L_Roman-100"/>
       <use transform="translate(610.006025987 0.0)scale(0.996264009963)" xlink:href="#URW_Palladio_L_Roman-101"/>
       <use transform="translate(682.632921345 0.0)scale(0.996264009963)" xlink:href="#URW_Palladio_L_Roman-99"/>
       <use transform="translate(726.866490042 0.0)scale(0.996264009963)" xlink:href="#URW_Palladio_L_Roman-108"/>
       <use transform="translate(755.856851504 0.0)scale(0.996264009963)" xlink:href="#URW_Palladio_L_Roman-117"/>
       <use transform="translate(815.930586229 0.0)scale(0.996264009963)" xlink:href="#URW_Palladio_L_Roman-115"/>
       <use transform="translate(858.172052557 0.0)scale(0.996264009963)" xlink:href="#URW_Palladio_L_Roman-116"/>
       <use transform="translate(890.64914043 0.0)scale(0.996264009963)" xlink:href="#URW_Palladio_L_Roman-101"/>
       <use transform="translate(938.36943554 0.0)scale(0.996264009963)" xlink:href="#URW_Palladio_L_Roman-114"/>
       <use transform="translate(977.721331871 0.0)scale(0.996264009963)" xlink:href="#URW_Palladio_L_Roman-115"/>
      </g>
     </g>
    </g>
    <g id="ytick_4">
     <g id="line2d_41">
      <g>
       <use style="stroke:#000000;stroke-width:0.5;" x="138.092773722" xlink:href="#m5b693dc865" y="22.4029945453"/>
      </g>
     </g>
     <g id="line2d_42">
      <g>
       <use style="stroke:#000000;stroke-width:0.5;" x="267.871193493" xlink:href="#m6dfef389cb" y="22.4029945453"/>
      </g>
     </g>
     <g id="text_8">
      <!-- All haloes -->
      <defs>
       <path d="M 40.796875 70.5 
L 37.59375 70.5 
C 35.796875 66.171875 34.296875 62.46875 33.703125 60.96875 
L 28.40625 48.8125 
L 10.59375 8.15625 
C 9.40625 5.234375 7.40625 3.421875 5.203125 3.21875 
L 1.5 2.921875 
L 1.5 0 
C 10.796875 0 10.796875 0 12.40625 0 
C 13.703125 0 13.703125 0 24.5 0 
L 24.5 2.921875 
L 20.796875 3.21875 
C 17.296875 3.53125 16 4.21875 16 5.796875 
C 16 7.09375 17.40625 11.359375 19.5 16.34375 
L 22.296875 23 
L 51.09375 23 
L 55.703125 11.453125 
C 57.40625 7.234375 57.796875 5.921875 57.796875 5.03125 
C 57.796875 3.921875 56.203125 3.21875 53.703125 3.015625 
L 49 3.015625 
L 49 0 
C 61.296875 0 61.296875 0 62.90625 0 
C 64.796875 0 64.796875 0 75.59375 0 
L 75.59375 2.921875 
L 72.203125 3.21875 
C 69.59375 3.625 68.5 5.328125 65 13.453125 
z
M 24 27 
L 36.703125 57.078125 
L 49.296875 27 
z
" id="URW_Palladio_L_Roman-65"/>
      </defs>
      <g transform="translate(81.1081773838 24.9942903695)scale(0.12 -0.12)">
       <use transform="scale(0.996264009963)" xlink:href="#URW_Palladio_L_Roman-65"/>
       <use transform="translate(77.5083701014 0.0)scale(0.996264009963)" xlink:href="#URW_Palladio_L_Roman-108"/>
       <use transform="translate(106.498731563 0.0)scale(0.996264009963)" xlink:href="#URW_Palladio_L_Roman-108"/>
       <use transform="translate(160.395693274 0.0)scale(0.996264009963)" xlink:href="#URW_Palladio_L_Roman-104"/>
       <use transform="translate(218.377753955 0.0)scale(0.996264009963)" xlink:href="#URW_Palladio_L_Roman-97"/>
       <use transform="translate(268.190954453 0.0)scale(0.996264009963)" xlink:href="#URW_Palladio_L_Roman-108"/>
       <use transform="translate(297.181315915 0.0)scale(0.996264009963)" xlink:href="#URW_Palladio_L_Roman-111"/>
       <use transform="translate(351.576896088 0.0)scale(0.996264009963)" xlink:href="#URW_Palladio_L_Roman-101"/>
       <use transform="translate(399.297191197 0.0)scale(0.996264009963)" xlink:href="#URW_Palladio_L_Roman-115"/>
      </g>
     </g>
    </g>
   </g>
  </g>
  <g id="axes_2">
   <g id="patch_7">
    <path d="M 283.259346 139.911956 
L 413.037766 139.911956 
L 413.037766 5.616 
L 283.259346 5.616 
z
" style="fill:#ffffff;"/>
   </g>
   <g id="line2d_43">
    <path clip-path="url(#pf061e82ef9)" d="M 366.390486 130.679109 
L 366.390486 115.570814 
L 374.84271 115.570814 
L 374.84271 130.679109 
L 366.390486 130.679109 
" style="fill:none;stroke:#000000;stroke-linecap:square;"/>
   </g>
   <g id="line2d_44">
    <path clip-path="url(#pf061e82ef9)" d="M 366.390486 123.124962 
L 355.67255 123.124962 
" style="fill:none;stroke:#000000;stroke-dasharray:6.000000,6.000000;stroke-dashoffset:0.0;"/>
   </g>
   <g id="line2d_45">
    <path clip-path="url(#pf061e82ef9)" d="M 374.84271 123.124962 
L 386.596064 123.124962 
" style="fill:none;stroke:#000000;stroke-dasharray:6.000000,6.000000;stroke-dashoffset:0.0;"/>
   </g>
   <g id="line2d_46">
    <path clip-path="url(#pf061e82ef9)" d="M 355.67255 126.902036 
L 355.67255 119.347888 
" style="fill:none;stroke:#000000;stroke-linecap:square;"/>
   </g>
   <g id="line2d_47">
    <path clip-path="url(#pf061e82ef9)" d="M 386.596064 126.902036 
L 386.596064 119.347888 
" style="fill:none;stroke:#000000;stroke-linecap:square;"/>
   </g>
   <g id="line2d_48">
    <path clip-path="url(#pf061e82ef9)" d="M 371.0339 130.679109 
L 371.0339 115.570814 
" style="fill:none;stroke:#000000;stroke-linecap:square;"/>
   </g>
   <g id="line2d_49">
    <g clip-path="url(#pf061e82ef9)">
     <use style="fill:#0000ff;stroke:#000000;stroke-width:0.5;" x="308.653263818" xlink:href="#mb29971f352" y="123.124961817"/>
     <use style="fill:#0000ff;stroke:#000000;stroke-width:0.5;" x="335.64540872" xlink:href="#mb29971f352" y="123.124961817"/>
     <use style="fill:#0000ff;stroke:#000000;stroke-width:0.5;" x="348.226891561" xlink:href="#mb29971f352" y="123.124961817"/>
     <use style="fill:#0000ff;stroke:#000000;stroke-width:0.5;" x="301.165731465" xlink:href="#mb29971f352" y="123.124961817"/>
     <use style="fill:#0000ff;stroke:#000000;stroke-width:0.5;" x="346.444624701" xlink:href="#mb29971f352" y="123.124961817"/>
     <use style="fill:#0000ff;stroke:#000000;stroke-width:0.5;" x="394.054566855" xlink:href="#mb29971f352" y="123.124961817"/>
     <use style="fill:#0000ff;stroke:#000000;stroke-width:0.5;" x="397.532534258" xlink:href="#mb29971f352" y="123.124961817"/>
     <use style="fill:#0000ff;stroke:#000000;stroke-width:0.5;" x="394.238322366" xlink:href="#mb29971f352" y="123.124961817"/>
     <use style="fill:#0000ff;stroke:#000000;stroke-width:0.5;" x="390.99697626" xlink:href="#mb29971f352" y="123.124961817"/>
     <use style="fill:#0000ff;stroke:#000000;stroke-width:0.5;" x="390.707732161" xlink:href="#mb29971f352" y="123.124961817"/>
     <use style="fill:#0000ff;stroke:#000000;stroke-width:0.5;" x="392.092558455" xlink:href="#mb29971f352" y="123.124961817"/>
    </g>
   </g>
   <g id="line2d_50">
    <path clip-path="url(#pf061e82ef9)" d="M 353.428804 97.10512 
L 353.428804 81.996825 
L 375.399435 81.996825 
L 375.399435 97.10512 
L 353.428804 97.10512 
" style="fill:none;stroke:#000000;stroke-linecap:square;"/>
   </g>
   <g id="line2d_51">
    <path clip-path="url(#pf061e82ef9)" d="M 353.428804 89.550973 
L 326.725279 89.550973 
" style="fill:none;stroke:#000000;stroke-dasharray:6.000000,6.000000;stroke-dashoffset:0.0;"/>
   </g>
   <g id="line2d_52">
    <path clip-path="url(#pf061e82ef9)" d="M 375.399435 89.550973 
L 394.329556 89.550973 
" style="fill:none;stroke:#000000;stroke-dasharray:6.000000,6.000000;stroke-dashoffset:0.0;"/>
   </g>
   <g id="line2d_53">
    <path clip-path="url(#pf061e82ef9)" d="M 326.725279 93.328046 
L 326.725279 85.773899 
" style="fill:none;stroke:#000000;stroke-linecap:square;"/>
   </g>
   <g id="line2d_54">
    <path clip-path="url(#pf061e82ef9)" d="M 394.329556 93.328046 
L 394.329556 85.773899 
" style="fill:none;stroke:#000000;stroke-linecap:square;"/>
   </g>
   <g id="line2d_55">
    <path clip-path="url(#pf061e82ef9)" d="M 365.905613 97.10512 
L 365.905613 81.996825 
" style="fill:none;stroke:#000000;stroke-linecap:square;"/>
   </g>
   <g id="line2d_56">
    <g clip-path="url(#pf061e82ef9)">
     <use style="fill:#0000ff;stroke:#000000;stroke-width:0.5;" x="289.025607104" xlink:href="#mb29971f352" y="89.5509727265"/>
     <use style="fill:#0000ff;stroke:#000000;stroke-width:0.5;" x="311.084283409" xlink:href="#mb29971f352" y="89.5509727265"/>
     <use style="fill:#0000ff;stroke:#000000;stroke-width:0.5;" x="181.778599304" xlink:href="#mb29971f352" y="89.5509727265"/>
     <use style="fill:#0000ff;stroke:#000000;stroke-width:0.5;" x="311.860418277" xlink:href="#mb29971f352" y="89.5509727265"/>
     <use style="fill:#0000ff;stroke:#000000;stroke-width:0.5;" x="153.048474" xlink:href="#mb29971f352" y="89.5509727265"/>
     <use style="fill:#0000ff;stroke:#000000;stroke-width:0.5;" x="102.949766134" xlink:href="#mb29971f352" y="89.5509727265"/>
     <use style="fill:#0000ff;stroke:#000000;stroke-width:0.5;" x="507.554780371" xlink:href="#mb29971f352" y="89.5509727265"/>
    </g>
   </g>
   <g id="line2d_57">
    <path clip-path="url(#pf061e82ef9)" d="M 368.266623 63.531131 
L 368.266623 48.422836 
L 375.150615 48.422836 
L 375.150615 63.531131 
L 368.266623 63.531131 
" style="fill:none;stroke:#000000;stroke-linecap:square;"/>
   </g>
   <g id="line2d_58">
    <path clip-path="url(#pf061e82ef9)" d="M 368.266623 55.976984 
L 359.445818 55.976984 
" style="fill:none;stroke:#000000;stroke-dasharray:6.000000,6.000000;stroke-dashoffset:0.0;"/>
   </g>
   <g id="line2d_59">
    <path clip-path="url(#pf061e82ef9)" d="M 375.150615 55.976984 
L 380.100161 55.976984 
" style="fill:none;stroke:#000000;stroke-dasharray:6.000000,6.000000;stroke-dashoffset:0.0;"/>
   </g>
   <g id="line2d_60">
    <path clip-path="url(#pf061e82ef9)" d="M 359.445818 59.754057 
L 359.445818 52.19991 
" style="fill:none;stroke:#000000;stroke-linecap:square;"/>
   </g>
   <g id="line2d_61">
    <path clip-path="url(#pf061e82ef9)" d="M 380.100161 59.754057 
L 380.100161 52.19991 
" style="fill:none;stroke:#000000;stroke-linecap:square;"/>
   </g>
   <g id="line2d_62">
    <path clip-path="url(#pf061e82ef9)" d="M 371.512578 63.531131 
L 371.512578 48.422836 
" style="fill:none;stroke:#000000;stroke-linecap:square;"/>
   </g>
   <g id="line2d_63">
    <g clip-path="url(#pf061e82ef9)">
     <use style="fill:#0000ff;stroke:#000000;stroke-width:0.5;" x="354.565869141" xlink:href="#mb29971f352" y="55.9769836359"/>
     <use style="fill:#0000ff;stroke:#000000;stroke-width:0.5;" x="317.810993477" xlink:href="#mb29971f352" y="55.9769836359"/>
     <use style="fill:#0000ff;stroke:#000000;stroke-width:0.5;" x="352.695270572" xlink:href="#mb29971f352" y="55.9769836359"/>
     <use style="fill:#0000ff;stroke:#000000;stroke-width:0.5;" x="308.289125264" xlink:href="#mb29971f352" y="55.9769836359"/>
     <use style="fill:#0000ff;stroke:#000000;stroke-width:0.5;" x="394.418390914" xlink:href="#mb29971f352" y="55.9769836359"/>
    </g>
   </g>
   <g id="line2d_64">
    <path clip-path="url(#pf061e82ef9)" d="M 366.677183 29.957142 
L 366.677183 14.848847 
L 374.608101 14.848847 
L 374.608101 29.957142 
L 366.677183 29.957142 
" style="fill:none;stroke:#000000;stroke-linecap:square;"/>
   </g>
   <g id="line2d_65">
    <path clip-path="url(#pf061e82ef9)" d="M 366.677183 22.402995 
L 355.022934 22.402995 
" style="fill:none;stroke:#000000;stroke-dasharray:6.000000,6.000000;stroke-dashoffset:0.0;"/>
   </g>
   <g id="line2d_66">
    <path clip-path="url(#pf061e82ef9)" d="M 374.608101 22.402995 
L 385.040298 22.402995 
" style="fill:none;stroke:#000000;stroke-dasharray:6.000000,6.000000;stroke-dashoffset:0.0;"/>
   </g>
   <g id="line2d_67">
    <path clip-path="url(#pf061e82ef9)" d="M 355.022934 26.180068 
L 355.022934 18.625921 
" style="fill:none;stroke:#000000;stroke-linecap:square;"/>
   </g>
   <g id="line2d_68">
    <path clip-path="url(#pf061e82ef9)" d="M 385.040298 26.180068 
L 385.040298 18.625921 
" style="fill:none;stroke:#000000;stroke-linecap:square;"/>
   </g>
   <g id="line2d_69">
    <path clip-path="url(#pf061e82ef9)" d="M 370.865933 29.957142 
L 370.865933 14.848847 
" style="fill:none;stroke:#000000;stroke-linecap:square;"/>
   </g>
   <g id="line2d_70">
    <g clip-path="url(#pf061e82ef9)">
     <use style="fill:#0000ff;stroke:#000000;stroke-width:0.5;" x="349.924833084" xlink:href="#mb29971f352" y="22.4029945453"/>
     <use style="fill:#0000ff;stroke:#000000;stroke-width:0.5;" x="349.946655594" xlink:href="#mb29971f352" y="22.4029945453"/>
     <use style="fill:#0000ff;stroke:#000000;stroke-width:0.5;" x="327.61555644" xlink:href="#mb29971f352" y="22.4029945453"/>
     <use style="fill:#0000ff;stroke:#000000;stroke-width:0.5;" x="348.226891561" xlink:href="#mb29971f352" y="22.4029945453"/>
     <use style="fill:#0000ff;stroke:#000000;stroke-width:0.5;" x="-1.0" xlink:href="#mb29971f352" y="22.4029945453"/>
     <use style="fill:#0000ff;stroke:#000000;stroke-width:0.5;" x="-1.0" xlink:href="#mb29971f352" y="22.4029945453"/>
     <use style="fill:#0000ff;stroke:#000000;stroke-width:0.5;" x="353.406592512" xlink:href="#mb29971f352" y="22.4029945453"/>
     <use style="fill:#0000ff;stroke:#000000;stroke-width:0.5;" x="393.020390438" xlink:href="#mb29971f352" y="22.4029945453"/>
    </g>
   </g>
   <g id="patch_8">
    <path d="M 283.259346 5.616 
L 413.037766 5.616 
" style="fill:none;stroke:#000000;stroke-linecap:square;stroke-linejoin:miter;"/>
   </g>
   <g id="patch_9">
    <path d="M 413.037766 139.911956 
L 413.037766 5.616 
" style="fill:none;stroke:#000000;stroke-linecap:square;stroke-linejoin:miter;"/>
   </g>
   <g id="patch_10">
    <path d="M 283.259346 139.911956 
L 413.037766 139.911956 
" style="fill:none;stroke:#000000;stroke-linecap:square;stroke-linejoin:miter;"/>
   </g>
   <g id="patch_11">
    <path d="M 283.259346 139.911956 
L 283.259346 5.616 
" style="fill:none;stroke:#000000;stroke-linecap:square;stroke-linejoin:miter;"/>
   </g>
   <g id="matplotlib.axis_3">
    <g id="xtick_4">
     <g id="line2d_71">
      <g>
       <use style="stroke:#000000;stroke-width:0.5;" x="283.259346107" xlink:href="#m91c281a868" y="139.911956362"/>
      </g>
     </g>
     <g id="line2d_72">
      <g>
       <use style="stroke:#000000;stroke-width:0.5;" x="283.259346107" xlink:href="#mbfdeeac8b3" y="5.616"/>
      </g>
     </g>
     <g id="text_9">
      <!-- $-4$ -->
      <defs>
       <path d="M 65.90625 23 
C 67.59375 23 69.40625 23 69.40625 25 
C 69.40625 27 67.59375 27 65.90625 27 
L 11.796875 27 
C 10.09375 27 8.296875 27 8.296875 25 
C 8.296875 23 10.09375 23 11.796875 23 
z
" id="CMSY10-0"/>
       <path d="M 28 18 
L 28 10.515625 
C 28 4.515625 26.90625 3.109375 22 3.109375 
L 15.796875 3.109375 
L 15.796875 0 
C 29.09375 0 29.09375 0 31.5 0 
C 33.90625 0 33.90625 0 47.203125 0 
L 47.203125 3.109375 
L 42.40625 3.109375 
C 37.5 3.109375 36.40625 4.40625 36.40625 10.453125 
L 36.40625 18 
C 42.296875 18 44.40625 18 47.203125 17.703125 
L 47.203125 24.8125 
C 42.5 24.421875 40.59375 24.421875 39.09375 24.421875 
L 38.796875 24.421875 
L 36.40625 24.421875 
L 36.40625 38.390625 
C 36.40625 56.25 36.59375 64.875 37.09375 69 
L 35.90625 69.5 
L 28.5 66.796875 
L 0.203125 20.296875 
L 1.296875 18 
z
M 28 24.421875 
L 6.5 24.421875 
L 28 59.78125 
z
" id="URW_Palladio_L_Roman-52"/>
      </defs>
      <g transform="translate(275.354054427 152.465832087)scale(0.12 -0.12)">
       <use transform="scale(1.03810691596)" xlink:href="#CMSY10-0"/>
       <use transform="translate(81.9416963 0.0)scale(0.996264009963)" xlink:href="#URW_Palladio_L_Roman-52"/>
      </g>
     </g>
    </g>
    <g id="xtick_5">
     <g id="line2d_73">
      <g>
       <use style="stroke:#000000;stroke-width:0.5;" x="299.481648578" xlink:href="#m91c281a868" y="139.911956362"/>
      </g>
     </g>
     <g id="line2d_74">
      <g>
       <use style="stroke:#000000;stroke-width:0.5;" x="299.481648578" xlink:href="#mbfdeeac8b3" y="5.616"/>
      </g>
     </g>
     <g id="text_10">
      <!-- $-3$ -->
      <defs>
       <path d="M 4.296875 49.953125 
L 7.40625 49.953125 
L 9.203125 55.53125 
C 10.296875 58.90625 16.59375 62.296875 21.796875 62.296875 
C 28.296875 62.296875 33.59375 57.015625 33.59375 50.75 
C 33.59375 43.28125 27.703125 37 20.59375 37 
C 19.796875 37 18.703125 37 17.40625 37.203125 
L 15.90625 37.203125 
L 14.703125 31.984375 
L 15.40625 31.375 
C 19.203125 33.09375 21.09375 33.59375 23.796875 33.59375 
C 32.09375 33.59375 36.90625 28.265625 36.90625 19.09375 
C 36.90625 8.84375 30.796875 2.109375 21.5 2.109375 
C 16.90625 2.109375 12.796875 3.609375 9.796875 6.421875 
C 7.40625 8.640625 6.09375 10.953125 4.203125 16.390625 
L 1.5 15.390625 
C 3.59375 9.265625 4.40625 5.640625 5 0.609375 
C 10.296875 -1.203125 14.703125 -2 18.40625 -2 
C 26.40625 -2 35.59375 2.515625 41.09375 9.265625 
C 44.5 13.390625 46.203125 17.8125 46.203125 22.53125 
C 46.203125 27.359375 44.203125 31.59375 40.59375 34.09375 
C 38.09375 35.90625 35.796875 36.71875 30.796875 37.609375 
C 38.796875 43.796875 41.796875 48.375 41.796875 54.25 
C 41.796875 63.125 34.40625 69 23.296875 69 
C 16.5 69 12 67.109375 7.203125 62.328125 
z
" id="URW_Palladio_L_Roman-51"/>
      </defs>
      <g transform="translate(291.576356898 152.465832087)scale(0.12 -0.12)">
       <use transform="scale(1.03810691596)" xlink:href="#CMSY10-0"/>
       <use transform="translate(81.9416963 0.0)scale(0.996264009963)" xlink:href="#URW_Palladio_L_Roman-51"/>
      </g>
     </g>
    </g>
    <g id="xtick_6">
     <g id="line2d_75">
      <g>
       <use style="stroke:#000000;stroke-width:0.5;" x="315.70395105" xlink:href="#m91c281a868" y="139.911956362"/>
      </g>
     </g>
     <g id="line2d_76">
      <g>
       <use style="stroke:#000000;stroke-width:0.5;" x="315.70395105" xlink:href="#mbfdeeac8b3" y="5.616"/>
      </g>
     </g>
     <g id="text_11">
      <!-- $-2$ -->
      <defs>
       <path d="M 1.59375 2.5 
L 1.59375 0 
C 20.296875 0 20.296875 0 23.90625 0 
C 27.5 0 27.5 0 46.796875 0 
C 46.59375 1.953125 46.59375 2.90625 46.59375 4.203125 
C 46.59375 5.4375 46.59375 6.359375 46.796875 8.421875 
C 35.296875 8.421875 30.703125 8.421875 12.203125 8.421875 
L 30.40625 27.515625 
C 40.09375 37.71875 43.09375 43.171875 43.09375 50.59375 
C 43.09375 61.96875 35.296875 69 22.59375 69 
C 15.40625 69 10.5 67 5.59375 62.015625 
L 3.90625 48.421875 
L 6.796875 48.421875 
L 8.09375 53.015625 
C 9.703125 58.796875 13.296875 61.296875 20 61.296875 
C 28.59375 61.296875 34.09375 55.890625 34.09375 47.421875 
C 34.09375 39.921875 29.90625 32.546875 18.59375 20.5625 
z
" id="URW_Palladio_L_Roman-50"/>
      </defs>
      <g transform="translate(307.79865937 152.465832087)scale(0.12 -0.12)">
       <use transform="scale(1.03810691596)" xlink:href="#CMSY10-0"/>
       <use transform="translate(81.9416963 0.0)scale(0.996264009963)" xlink:href="#URW_Palladio_L_Roman-50"/>
      </g>
     </g>
    </g>
    <g id="xtick_7">
     <g id="line2d_77">
      <g>
       <use style="stroke:#000000;stroke-width:0.5;" x="331.926253521" xlink:href="#m91c281a868" y="139.911956362"/>
      </g>
     </g>
     <g id="line2d_78">
      <g>
       <use style="stroke:#000000;stroke-width:0.5;" x="331.926253521" xlink:href="#mbfdeeac8b3" y="5.616"/>
      </g>
     </g>
     <g id="text_12">
      <!-- $-1$ -->
      <g transform="translate(324.020961841 152.465832087)scale(0.12 -0.12)">
       <use transform="scale(1.03810691596)" xlink:href="#CMSY10-0"/>
       <use transform="translate(81.9416963 0.0)scale(0.996264009963)" xlink:href="#URW_Palladio_L_Roman-49"/>
      </g>
     </g>
    </g>
    <g id="xtick_8">
     <g id="line2d_79">
      <g>
       <use style="stroke:#000000;stroke-width:0.5;" x="348.148555992" xlink:href="#m91c281a868" y="139.911956362"/>
      </g>
     </g>
     <g id="line2d_80">
      <g>
       <use style="stroke:#000000;stroke-width:0.5;" x="348.148555992" xlink:href="#mbfdeeac8b3" y="5.616"/>
      </g>
     </g>
     <g id="text_13">
      <!-- $0$ -->
      <g transform="translate(345.159763962 152.465832087)scale(0.12 -0.12)">
       <use transform="scale(0.996264009963)" xlink:href="#URW_Palladio_L_Roman-48"/>
      </g>
     </g>
    </g>
    <g id="xtick_9">
     <g id="line2d_81">
      <g>
       <use style="stroke:#000000;stroke-width:0.5;" x="364.370858464" xlink:href="#m91c281a868" y="139.911956362"/>
      </g>
     </g>
     <g id="line2d_82">
      <g>
       <use style="stroke:#000000;stroke-width:0.5;" x="364.370858464" xlink:href="#mbfdeeac8b3" y="5.616"/>
      </g>
     </g>
     <g id="text_14">
      <!-- $1$ -->
      <g transform="translate(361.382066434 152.465832087)scale(0.12 -0.12)">
       <use transform="scale(0.996264009963)" xlink:href="#URW_Palladio_L_Roman-49"/>
      </g>
     </g>
    </g>
    <g id="xtick_10">
     <g id="line2d_83">
      <g>
       <use style="stroke:#000000;stroke-width:0.5;" x="380.593160935" xlink:href="#m91c281a868" y="139.911956362"/>
      </g>
     </g>
     <g id="line2d_84">
      <g>
       <use style="stroke:#000000;stroke-width:0.5;" x="380.593160935" xlink:href="#mbfdeeac8b3" y="5.616"/>
      </g>
     </g>
     <g id="text_15">
      <!-- $2$ -->
      <g transform="translate(377.604368905 152.465832087)scale(0.12 -0.12)">
       <use transform="scale(0.996264009963)" xlink:href="#URW_Palladio_L_Roman-50"/>
      </g>
     </g>
    </g>
    <g id="xtick_11">
     <g id="line2d_85">
      <g>
       <use style="stroke:#000000;stroke-width:0.5;" x="396.815463407" xlink:href="#m91c281a868" y="139.911956362"/>
      </g>
     </g>
     <g id="line2d_86">
      <g>
       <use style="stroke:#000000;stroke-width:0.5;" x="396.815463407" xlink:href="#mbfdeeac8b3" y="5.616"/>
      </g>
     </g>
     <g id="text_16">
      <!-- $3$ -->
      <g transform="translate(393.826671377 152.465832087)scale(0.12 -0.12)">
       <use transform="scale(0.996264009963)" xlink:href="#URW_Palladio_L_Roman-51"/>
      </g>
     </g>
    </g>
    <g id="xtick_12">
     <g id="line2d_87">
      <g>
       <use style="stroke:#000000;stroke-width:0.5;" x="413.037765878" xlink:href="#m91c281a868" y="139.911956362"/>
      </g>
     </g>
     <g id="line2d_88">
      <g>
       <use style="stroke:#000000;stroke-width:0.5;" x="413.037765878" xlink:href="#mbfdeeac8b3" y="5.616"/>
      </g>
     </g>
     <g id="text_17">
      <!-- $4$ -->
      <g transform="translate(410.048973848 152.465832087)scale(0.12 -0.12)">
       <use transform="scale(0.996264009963)" xlink:href="#URW_Palladio_L_Roman-52"/>
      </g>
     </g>
    </g>
    <g id="text_18">
     <!-- Distance to Hubble -->
     <defs>
      <path d="M 5.703125 2.203125 
L 5.703125 0 
C 17.296875 0 17.296875 0 19.59375 0 
C 21.40625 0 23 0 24.796875 0 
C 32.703125 0 32.703125 0 34.09375 0 
C 46.90625 0 56.5 3.265625 63.5 10.125 
C 70.703125 17.171875 75.09375 27.890625 75.09375 38.515625 
C 75.09375 56.984375 61.296875 69 40.203125 69 
C 39.5 69 38.203125 69 36.40625 69 
C 31.40625 69 27.09375 69 22.796875 69 
C 19.09375 69 13.59375 69 2.203125 69 
L 2.203125 66.1875 
L 6.203125 65.6875 
C 10.796875 65.6875 11.296875 64.78125 11.296875 57 
L 11.296875 9.6875 
C 11.296875 6.796875 10.40625 4.59375 8.796875 3.8125 
z
M 20.796875 64.390625 
C 23.40625 64.890625 26.90625 65.1875 31.90625 65.1875 
C 39.203125 65.1875 47.203125 63.90625 51.40625 62 
C 53.59375 61.109375 55.5 59.71875 57.296875 57.921875 
C 62.09375 53.15625 64.40625 45.984375 64.40625 36.03125 
C 64.40625 24.90625 61 16.34375 54.40625 10.96875 
C 48.40625 6.09375 42.40625 4.40625 31.09375 4.40625 
C 26.5 4.40625 23.40625 4.40625 20.796875 5.109375 
z
" id="URW_Palladio_L_Roman-68"/>
     </defs>
     <g transform="translate(297.321837461 169.390991888)scale(0.12 -0.12)">
      <use transform="scale(0.996264009963)" xlink:href="#URW_Palladio_L_Roman-68"/>
      <use transform="translate(77.1107522815 0.0)scale(0.996264009963)" xlink:href="#URW_Palladio_L_Roman-105"/>
      <use transform="translate(106.101113743 0.0)scale(0.996264009963)" xlink:href="#URW_Palladio_L_Roman-115"/>
      <use transform="translate(148.342580071 0.0)scale(0.996264009963)" xlink:href="#URW_Palladio_L_Roman-116"/>
      <use transform="translate(180.819667944 0.0)scale(0.996264009963)" xlink:href="#URW_Palladio_L_Roman-97"/>
      <use transform="translate(230.632868443 0.0)scale(0.996264009963)" xlink:href="#URW_Palladio_L_Roman-110"/>
      <use transform="translate(288.614929123 0.0)scale(0.996264009963)" xlink:href="#URW_Palladio_L_Roman-99"/>
      <use transform="translate(332.848497821 0.0)scale(0.996264009963)" xlink:href="#URW_Palladio_L_Roman-101"/>
      <use transform="translate(405.475393179 0.0)scale(0.996264009963)" xlink:href="#URW_Palladio_L_Roman-116"/>
      <use transform="translate(437.952481052 0.0)scale(0.996264009963)" xlink:href="#URW_Palladio_L_Roman-111"/>
      <use transform="translate(517.254661475 0.0)scale(0.996264009963)" xlink:href="#URW_Palladio_L_Roman-72"/>
      <use transform="translate(600.143322404 0.0)scale(0.996264009963)" xlink:href="#URW_Palladio_L_Roman-117"/>
      <use transform="translate(660.21705713 0.0)scale(0.996264009963)" xlink:href="#URW_Palladio_L_Roman-98"/>
      <use transform="translate(715.309456603 0.0)scale(0.996264009963)" xlink:href="#URW_Palladio_L_Roman-98"/>
      <use transform="translate(770.401856077 0.0)scale(0.996264009963)" xlink:href="#URW_Palladio_L_Roman-108"/>
      <use transform="translate(799.392217539 0.0)scale(0.996264009963)" xlink:href="#URW_Palladio_L_Roman-101"/>
     </g>
     <!-- flow zero point (Mpc) -->
     <defs>
      <path d="M 35.59375 66.28125 
L 39.796875 66.28125 
C 41.40625 66.28125 42.296875 64.375 42.296875 60.75 
L 42.296875 10.140625 
C 42.296875 3.8125 42 3.109375 38.59375 3.109375 
L 34 3.109375 
L 34 0 
C 44 0 44 0 46.5 0 
C 49 0 49 0 59 0 
L 59 3.109375 
L 54.40625 3.109375 
C 51 3.109375 50.703125 3.8125 50.703125 10.140625 
L 50.703125 71.796875 
L 49.796875 72.796875 
C 45.59375 71.28125 42.296875 70.484375 35.59375 69.09375 
L 35.59375 71.890625 
C 34.5 72.09375 34.40625 72.1875 33.40625 72.390625 
C 31.296875 72.796875 30.40625 73 29.40625 73 
C 26.296875 73 22.796875 71.296875 20.59375 68.8125 
L 14.796875 62.265625 
C 11.90625 58.984375 10.59375 54.53125 10.59375 47.96875 
L 10.59375 43.796875 
L 3.703125 40.6875 
L 3.703125 38.6875 
L 10.59375 38.6875 
L 10.59375 10.171875 
C 10.59375 3.8125 10.296875 3.109375 6.90625 3.109375 
L 2.296875 3.109375 
L 2.296875 0 
C 12.296875 0 12.296875 0 14.90625 0 
C 17.296875 0 20.09375 0 27.90625 0 
L 27.90625 3.109375 
L 22.703125 3.109375 
C 19.296875 3.109375 19 3.828125 19 10.203125 
L 19 38.890625 
L 31.40625 38.890625 
L 32.09375 44 
L 19 44 
L 19 52.3125 
C 19 63.546875 20.296875 66.28125 25.90625 66.28125 
C 28.5 66.28125 30.40625 65.609375 33.40625 63.609375 
L 35.59375 64.203125 
z
" id="URW_Palladio_L_Roman-3"/>
      <path d="M 45.5 43.1875 
L 45.5 46 
C 38.5 46 35.5 46 31.703125 46 
L 6.90625 46 
C 6.703125 41 6.59375 39.828125 6 33.046875 
L 9 33.046875 
L 10.203125 39.796875 
C 10.59375 41.890625 12.40625 42.390625 19.796875 42.390625 
L 34.09375 42.390625 
C 32 39.109375 30.296875 36.828125 27.59375 33.453125 
L 10.59375 12.40625 
C 8.203125 9.515625 6.796875 7.828125 1.59375 1.984375 
L 2.203125 0 
C 12.59375 0 13.203125 0 17.5 0 
L 45.09375 0 
C 45.09375 2.265625 45.296875 4.640625 46 9.40625 
L 46.59375 14.046875 
L 43.59375 14.046875 
L 41.796875 6.203125 
C 41.40625 4.40625 37.203125 3.703125 27.59375 3.703125 
L 14.09375 3.703125 
z
" id="URW_Palladio_L_Roman-122"/>
     </defs>
     <g transform="translate(290.50729647 183.026926834)scale(0.12 -0.12)">
      <use transform="scale(0.996264009963)" xlink:href="#URW_Palladio_L_Roman-3"/>
      <use transform="translate(60.572444398 0.0)scale(0.996264009963)" xlink:href="#URW_Palladio_L_Roman-111"/>
      <use transform="translate(114.968024571 0.0)scale(0.996264009963)" xlink:href="#URW_Palladio_L_Roman-119"/>
      <use transform="translate(222.962717933 0.0)scale(0.996264009963)" xlink:href="#URW_Palladio_L_Roman-122"/>
      <use transform="translate(272.775918431 0.0)scale(0.996264009963)" xlink:href="#URW_Palladio_L_Roman-101"/>
      <use transform="translate(320.49621354 0.0)scale(0.996264009963)" xlink:href="#URW_Palladio_L_Roman-114"/>
      <use transform="translate(358.055530895 0.0)scale(0.996264009963)" xlink:href="#URW_Palladio_L_Roman-111"/>
      <use transform="translate(437.357711317 0.0)scale(0.996264009963)" xlink:href="#URW_Palladio_L_Roman-112"/>
      <use transform="translate(497.23210507 0.0)scale(0.996264009963)" xlink:href="#URW_Palladio_L_Roman-111"/>
      <use transform="translate(551.627685243 0.0)scale(0.996264009963)" xlink:href="#URW_Palladio_L_Roman-105"/>
      <use transform="translate(580.618046705 0.0)scale(0.996264009963)" xlink:href="#URW_Palladio_L_Roman-110"/>
      <use transform="translate(638.600107385 0.0)scale(0.996264009963)" xlink:href="#URW_Palladio_L_Roman-116"/>
      <use transform="translate(695.983795508 0.0)scale(0.996264009963)" xlink:href="#URW_Palladio_L_Roman-40"/>
      <use transform="translate(729.159025237 0.0)scale(0.996264009963)" xlink:href="#URW_Palladio_L_Roman-77"/>
      <use transform="translate(823.405226616 0.0)scale(0.996264009963)" xlink:href="#URW_Palladio_L_Roman-112"/>
      <use transform="translate(883.279620369 0.0)scale(0.996264009963)" xlink:href="#URW_Palladio_L_Roman-99"/>
      <use transform="translate(927.513189066 0.0)scale(0.996264009963)" xlink:href="#URW_Palladio_L_Roman-41"/>
     </g>
    </g>
   </g>
   <g id="matplotlib.axis_4">
    <g id="ytick_5">
     <g id="line2d_89">
      <g>
       <use style="stroke:#000000;stroke-width:0.5;" x="283.259346107" xlink:href="#m5b693dc865" y="123.124961817"/>
      </g>
     </g>
     <g id="line2d_90">
      <g>
       <use style="stroke:#000000;stroke-width:0.5;" x="413.037765878" xlink:href="#m6dfef389cb" y="123.124961817"/>
      </g>
     </g>
    </g>
    <g id="ytick_6">
     <g id="line2d_91">
      <g>
       <use style="stroke:#000000;stroke-width:0.5;" x="283.259346107" xlink:href="#m5b693dc865" y="89.5509727265"/>
      </g>
     </g>
     <g id="line2d_92">
      <g>
       <use style="stroke:#000000;stroke-width:0.5;" x="413.037765878" xlink:href="#m6dfef389cb" y="89.5509727265"/>
      </g>
     </g>
    </g>
    <g id="ytick_7">
     <g id="line2d_93">
      <g>
       <use style="stroke:#000000;stroke-width:0.5;" x="283.259346107" xlink:href="#m5b693dc865" y="55.9769836359"/>
      </g>
     </g>
     <g id="line2d_94">
      <g>
       <use style="stroke:#000000;stroke-width:0.5;" x="413.037765878" xlink:href="#m6dfef389cb" y="55.9769836359"/>
      </g>
     </g>
    </g>
    <g id="ytick_8">
     <g id="line2d_95">
      <g>
       <use style="stroke:#000000;stroke-width:0.5;" x="283.259346107" xlink:href="#m5b693dc865" y="22.4029945453"/>
      </g>
     </g>
     <g id="line2d_96">
      <g>
       <use style="stroke:#000000;stroke-width:0.5;" x="413.037765878" xlink:href="#m6dfef389cb" y="22.4029945453"/>
      </g>
     </g>
    </g>
   </g>
  </g>
 </g>
 <defs>
  <clipPath id="pe9aa1863e7">
   <rect height="134.295956362" width="129.778419771" x="138.092773722" y="5.616"/>
  </clipPath>
  <clipPath id="pf061e82ef9">
   <rect height="134.295956362" width="129.778419771" x="283.259346107" y="5.616"/>
  </clipPath>
 </defs>
</svg>
