<?xml version="1.0" encoding="utf-8" standalone="no"?>
<!DOCTYPE svg PUBLIC "-//W3C//DTD SVG 1.1//EN"
  "http://www.w3.org/Graphics/SVG/1.1/DTD/svg11.dtd">
<!-- Created with matplotlib (http://matplotlib.org/) -->
<svg height="187pt" version="1.1" viewBox="0 0 424 187" width="424pt" xmlns="http://www.w3.org/2000/svg" xmlns:xlink="http://www.w3.org/1999/xlink">
 <defs>
  <style type="text/css">
*{stroke-linecap:butt;stroke-linejoin:round;stroke-miterlimit:100000;}
  </style>
 </defs>
 <g id="figure_1">
  <g id="patch_1">
   <path d="M 0 187.2 
L 424.8 187.2 
L 424.8 0 
L 0 0 
z
" style="fill:#ffffff;"/>
  </g>
  <g id="axes_1">
   <g id="patch_2">
    <path d="M 110.793734 178.976821 
C 133.435932 178.976821 155.153812 169.980981 171.164263 153.970529 
C 187.174715 137.960078 196.170555 116.242198 196.170555 93.6 
C 196.170555 70.957802 187.174715 49.239922 171.164263 33.229471 
C 155.153812 17.219019 133.435932 8.223179 110.793734 8.223179 
C 88.151536 8.223179 66.433656 17.219019 50.423205 33.229471 
C 34.412753 49.239922 25.416913 70.957802 25.416913 93.6 
C 25.416913 116.242198 34.412753 137.960078 50.423205 153.970529 
C 66.433656 169.980981 88.151536 178.976821 110.793734 178.976821 
z
" style="fill:#ffffff;"/>
   </g>
   <g id="line2d_1">
    <path clip-path="url(#p47cf546661)" d="M 193.083491 86.400579 
L 189.957422 72.388154 
L 183.954558 59.484547 
L 177.74159 46.722607 
L 170.073261 34.320473 
L 157.485981 26.916561 
L 142.949666 24.641381 
L 130.942997 18.401929 
L 117.50563 16.882682 
L 104.171572 17.908346 
L 91.697462 22.331742 
L 79.254821 25.964582 
L 69.048103 33.98106 
L 59.625464 42.431729 
L 46.177364 48.355131 
L 37.399033 59.375489 
L 33.956098 73.011417 
L 38.607537 87.284526 
" style="fill:none;stroke:#0000ff;stroke-linecap:square;"/>
   </g>
   <g id="patch_3">
    <path d="M 110.793734 178.976821 
C 133.435932 178.976821 155.153812 169.980981 171.164263 153.970529 
C 187.174715 137.960078 196.170555 116.242198 196.170555 93.6 
C 196.170555 70.957802 187.174715 49.239922 171.164263 33.229471 
C 155.153812 17.219019 133.435932 8.223179 110.793734 8.223179 
C 88.151536 8.223179 66.433656 17.219019 50.423205 33.229471 
C 34.412753 49.239922 25.416913 70.957802 25.416913 93.6 
C 25.416913 116.242198 34.412753 137.960078 50.423205 153.970529 
C 66.433656 169.980981 88.151536 178.976821 110.793734 178.976821 
L 110.793734 178.976821 
z
" style="fill:none;stroke:#000000;stroke-linecap:square;stroke-linejoin:miter;"/>
   </g>
   <g id="matplotlib.axis_1">
    <g id="xtick_1">
     <g id="line2d_2">
      <path clip-path="url(#p47cf546661)" d="M 110.793734 93.6 
L 196.170555 93.6 
" style="fill:none;stroke:#000000;stroke-dasharray:1.000000,3.000000;stroke-dashoffset:0.0;stroke-width:0.5;"/>
     </g>
     <g id="text_1">
      <!-- $0^\circ$ -->
      <defs>
       <path d="M 44.40625 25 
C 44.40625 35.578125 35.5 44.1875 25 44.1875 
C 14.203125 44.1875 5.5 35.375 5.5 25 
C 5.5 14.53125 14.203125 5.8125 25 5.8125 
C 35.5 5.8125 44.40625 14.421875 44.40625 25 
M 25 9.8125 
C 16.296875 9.8125 9.5 16.71875 9.5 25 
C 9.5 33.28125 16.40625 40.1875 25 40.1875 
C 33.296875 40.1875 40.40625 33.46875 40.40625 25 
C 40.40625 16.53125 33.296875 9.8125 25 9.8125 
" id="CMSY10-14"/>
       <path d="M 26.296875 69 
C 10.796875 69 2.90625 56.6875 2.90625 32.453125 
C 2.90625 20.71875 5 10.625 8.5 5.71875 
C 12 0.796875 17.59375 -2 23.796875 -2 
C 38.90625 -2 46.5 11.015625 46.5 36.65625 
C 46.5 58.578125 40 69 26.296875 69 
M 24.5 65.5 
C 34.203125 65.5 38.09375 55.6875 38.09375 31.640625 
C 38.09375 10.328125 34.296875 1.5 25.09375 1.5 
C 15.40625 1.5 11.296875 11.625 11.296875 36.0625 
C 11.296875 57.1875 15 65.5 24.5 65.5 
" id="URW_Palladio_L_Roman-48"/>
      </defs>
      <g transform="translate(199.327665442 96.1912958243)scale(0.12 -0.12)">
       <use transform="scale(0.996264009963)" xlink:href="#URW_Palladio_L_Roman-48"/>
       <use transform="translate(50.7596178637 36.1643714002)scale(0.788955479452)" xlink:href="#CMSY10-14"/>
      </g>
     </g>
    </g>
    <g id="xtick_2">
     <g id="line2d_3">
      <path clip-path="url(#p47cf546661)" d="M 110.793734 93.6 
L 171.164263 33.229471 
" style="fill:none;stroke:#000000;stroke-dasharray:1.000000,3.000000;stroke-dashoffset:0.0;stroke-width:0.5;"/>
     </g>
     <g id="text_2">
      <!-- $45^\circ$ -->
      <defs>
       <path d="M 12.703125 60.578125 
C 25.59375 60.578125 31.203125 60.578125 43.203125 60.578125 
L 43.703125 61.046875 
C 43.5 62.75 43.5 63.5 43.5 64.75 
C 43.5 66.078125 43.5 66.828125 43.703125 68.53125 
L 43.203125 69 
C 35.703125 69 31.203125 69 25.796875 69 
C 20.296875 69 15.90625 69 8.40625 69 
L 7.90625 68.796875 
C 8 62.671875 8.09375 58.265625 8.09375 55.046875 
C 8.09375 46.515625 7.796875 36.875 7.5 32.453125 
L 9.5 31.84375 
C 14.203125 36.578125 16.90625 38 21.796875 38 
C 31.40625 38 37.40625 31.140625 37.40625 20.25 
C 37.40625 9.0625 31 2.5 20.09375 2.5 
C 14.703125 2.5 9.703125 4.328125 8.296875 6.9375 
L 3.703125 15.203125 
L 1.296875 13.796875 
C 3.59375 8.0625 4.796875 4.84375 6.203125 0.421875 
C 9 -1.109375 13 -2 17.296875 -2 
C 24 -2 31.09375 0.921875 36.59375 5.75 
C 42.703125 11.1875 45.90625 18.03125 45.90625 25.46875 
C 45.90625 36.859375 37.796875 44.90625 26.40625 44.90625 
C 21.59375 44.90625 18 43.609375 11.796875 39.90625 
z
" id="URW_Palladio_L_Roman-53"/>
       <path d="M 28 18 
L 28 10.515625 
C 28 4.515625 26.90625 3.109375 22 3.109375 
L 15.796875 3.109375 
L 15.796875 0 
C 29.09375 0 29.09375 0 31.5 0 
C 33.90625 0 33.90625 0 47.203125 0 
L 47.203125 3.109375 
L 42.40625 3.109375 
C 37.5 3.109375 36.40625 4.40625 36.40625 10.453125 
L 36.40625 18 
C 42.296875 18 44.40625 18 47.203125 17.703125 
L 47.203125 24.8125 
C 42.5 24.421875 40.59375 24.421875 39.09375 24.421875 
L 38.796875 24.421875 
L 36.40625 24.421875 
L 36.40625 38.390625 
C 36.40625 56.25 36.59375 64.875 37.09375 69 
L 35.90625 69.5 
L 28.5 66.796875 
L 0.203125 20.296875 
L 1.296875 18 
z
M 28 24.421875 
L 6.5 24.421875 
L 28 59.78125 
z
" id="URW_Palladio_L_Roman-52"/>
      </defs>
      <g transform="translate(168.831952223 29.7837136318)scale(0.12 -0.12)">
       <use transform="scale(0.996264009963)" xlink:href="#URW_Palladio_L_Roman-52"/>
       <use transform="translate(49.8132004981 0.0)scale(0.996264009963)" xlink:href="#URW_Palladio_L_Roman-53"/>
       <use transform="translate(100.572818362 36.1643714002)scale(0.788955479452)" xlink:href="#CMSY10-14"/>
      </g>
     </g>
    </g>
    <g id="xtick_3">
     <g id="line2d_4">
      <path clip-path="url(#p47cf546661)" d="M 110.793734 93.6 
L 110.793734 8.223179 
" style="fill:none;stroke:#000000;stroke-dasharray:1.000000,3.000000;stroke-dashoffset:0.0;stroke-width:0.5;"/>
     </g>
     <g id="text_3">
      <!-- $90^\circ$ -->
      <defs>
       <path d="M 9.59375 -1.65625 
C 20.703125 1.953125 25.5 4.25 30.90625 8.84375 
C 40.59375 17.15625 45.703125 28.671875 45.703125 42.078125 
C 45.703125 59 37.59375 69.296875 24.40625 69.296875 
C 11.59375 69.296875 2 59.296875 2 45.90625 
C 2 34.390625 9.5 26 19.90625 26 
C 23.296875 26 27.203125 27.09375 29 28.59375 
L 36 34.40625 
C 35.203125 17.578125 24.296875 5.25 6.203125 0.84375 
L 6.203125 0.046875 
z
M 24 66 
C 28.5 66 31.796875 64.09375 34 60.09375 
C 35.796875 56.890625 37 52 37 47.5 
C 37 38.296875 31.703125 32.109375 24 32.109375 
C 16 32.109375 10.59375 39.203125 10.59375 49.59375 
C 10.59375 59.703125 15.796875 66 24 66 
" id="URW_Palladio_L_Roman-57"/>
      </defs>
      <g transform="translate(102.424370031 2.27679244324)scale(0.12 -0.12)">
       <use transform="scale(0.996264009963)" xlink:href="#URW_Palladio_L_Roman-57"/>
       <use transform="translate(49.8132004981 0.0)scale(0.996264009963)" xlink:href="#URW_Palladio_L_Roman-48"/>
       <use transform="translate(100.572818362 36.1643714002)scale(0.788955479452)" xlink:href="#CMSY10-14"/>
      </g>
     </g>
    </g>
    <g id="xtick_4">
     <g id="line2d_5">
      <path clip-path="url(#p47cf546661)" d="M 110.793734 93.6 
L 50.423205 33.229471 
" style="fill:none;stroke:#000000;stroke-dasharray:1.000000,3.000000;stroke-dashoffset:0.0;stroke-width:0.5;"/>
     </g>
     <g id="text_4">
      <!-- $135^\circ$ -->
      <defs>
       <path d="M 4.296875 49.953125 
L 7.40625 49.953125 
L 9.203125 55.53125 
C 10.296875 58.90625 16.59375 62.296875 21.796875 62.296875 
C 28.296875 62.296875 33.59375 57.015625 33.59375 50.75 
C 33.59375 43.28125 27.703125 37 20.59375 37 
C 19.796875 37 18.703125 37 17.40625 37.203125 
L 15.90625 37.203125 
L 14.703125 31.984375 
L 15.40625 31.375 
C 19.203125 33.09375 21.09375 33.59375 23.796875 33.59375 
C 32.09375 33.59375 36.90625 28.265625 36.90625 19.09375 
C 36.90625 8.84375 30.796875 2.109375 21.5 2.109375 
C 16.90625 2.109375 12.796875 3.609375 9.796875 6.421875 
C 7.40625 8.640625 6.09375 10.953125 4.203125 16.390625 
L 1.5 15.390625 
C 3.59375 9.265625 4.40625 5.640625 5 0.609375 
C 10.296875 -1.203125 14.703125 -2 18.40625 -2 
C 26.40625 -2 35.59375 2.515625 41.09375 9.265625 
C 44.5 13.390625 46.203125 17.8125 46.203125 22.53125 
C 46.203125 27.359375 44.203125 31.59375 40.59375 34.09375 
C 38.09375 35.90625 35.796875 36.71875 30.796875 37.609375 
C 38.796875 43.796875 41.796875 48.375 41.796875 54.25 
C 41.796875 63.125 34.40625 69 23.296875 69 
C 16.5 69 12 67.109375 7.203125 62.328125 
z
" id="URW_Palladio_L_Roman-51"/>
       <path d="M 6.703125 56 
L 7.703125 56 
L 20.59375 61.8125 
C 20.703125 61.90625 20.796875 61.90625 20.90625 61.90625 
C 21.5 61.90625 21.703125 61.015625 21.703125 58.609375 
L 21.703125 9.578125 
C 21.703125 4.3125 20.59375 3.203125 15.203125 3.203125 
L 9.59375 3.203125 
L 9.59375 0 
C 25 0 25 0 26.09375 0 
C 27.40625 0 29.59375 0 33 0 
C 34.203125 0 37.703125 0 41.796875 0 
L 41.796875 3.203125 
L 36.59375 3.203125 
C 31.09375 3.203125 30.09375 4.3125 30.09375 9.5625 
L 30.09375 69.421875 
L 28.703125 69.921875 
C 22.203125 66.515625 15.09375 63.515625 6 60.3125 
z
" id="URW_Palladio_L_Roman-49"/>
      </defs>
      <g transform="translate(33.0279958085 29.7837136318)scale(0.12 -0.12)">
       <use transform="scale(0.996264009963)" xlink:href="#URW_Palladio_L_Roman-49"/>
       <use transform="translate(49.8132004981 0.0)scale(0.996264009963)" xlink:href="#URW_Palladio_L_Roman-51"/>
       <use transform="translate(99.6264009963 0.0)scale(0.996264009963)" xlink:href="#URW_Palladio_L_Roman-53"/>
       <use transform="translate(150.38601886 36.1643714002)scale(0.788955479452)" xlink:href="#CMSY10-14"/>
      </g>
     </g>
    </g>
    <g id="xtick_5">
     <g id="line2d_6">
      <path clip-path="url(#p47cf546661)" d="M 110.793734 93.6 
L 25.416913 93.6 
" style="fill:none;stroke:#000000;stroke-dasharray:1.000000,3.000000;stroke-dashoffset:0.0;stroke-width:0.5;"/>
     </g>
     <g id="text_5">
      <!-- $180^\circ$ -->
      <defs>
       <path d="M 16.796875 34.546875 
C 12.703125 32.65625 11 31.546875 8.796875 29.4375 
C 5 25.640625 3 21.125 3 15.921875 
C 3 5.609375 11.296875 -2 22.59375 -2 
C 35.59375 -2 46.40625 8.21875 46.40625 20.625 
C 46.40625 28.640625 42.703125 32.953125 31.296875 38.15625 
C 40.40625 44.375 43.59375 48.578125 43.59375 54.578125 
C 43.59375 63.1875 36.5 69 25.90625 69 
C 14 69 5.296875 61.390625 5.296875 50.890625 
C 5.296875 44.078125 8 40.265625 16.796875 34.546875 
M 28.40625 29.546875 
C 34.703125 26.734375 38.5 21.828125 38.5 16.4375 
C 38.5 8.015625 32.203125 1.40625 24.09375 1.40625 
C 15.59375 1.40625 10.09375 7.421875 10.09375 16.734375 
C 10.09375 24.03125 13 28.640625 20.40625 33.15625 
z
M 22.296875 42.375 
C 16 45.46875 12.796875 49.484375 12.796875 54.484375 
C 12.796875 61.09375 17.59375 65.59375 24.703125 65.59375 
C 32 65.59375 36.796875 60.796875 36.796875 53.46875 
C 36.796875 47.78125 34.296875 43.875 27.796875 39.65625 
z
" id="URW_Palladio_L_Roman-56"/>
      </defs>
      <g transform="translate(5.52107461994 96.1912958243)scale(0.12 -0.12)">
       <use transform="scale(0.996264009963)" xlink:href="#URW_Palladio_L_Roman-49"/>
       <use transform="translate(49.8132004981 0.0)scale(0.996264009963)" xlink:href="#URW_Palladio_L_Roman-56"/>
       <use transform="translate(99.6264009963 0.0)scale(0.996264009963)" xlink:href="#URW_Palladio_L_Roman-48"/>
       <use transform="translate(150.38601886 36.1643714002)scale(0.788955479452)" xlink:href="#CMSY10-14"/>
      </g>
     </g>
    </g>
    <g id="xtick_6">
     <g id="line2d_7">
      <path clip-path="url(#p47cf546661)" d="M 110.793734 93.6 
L 50.423205 153.970529 
" style="fill:none;stroke:#000000;stroke-dasharray:1.000000,3.000000;stroke-dashoffset:0.0;stroke-width:0.5;"/>
     </g>
     <g id="text_6">
      <!-- $225^\circ$ -->
      <defs>
       <path d="M 1.59375 2.5 
L 1.59375 0 
C 20.296875 0 20.296875 0 23.90625 0 
C 27.5 0 27.5 0 46.796875 0 
C 46.59375 1.953125 46.59375 2.90625 46.59375 4.203125 
C 46.59375 5.4375 46.59375 6.359375 46.796875 8.421875 
C 35.296875 8.421875 30.703125 8.421875 12.203125 8.421875 
L 30.40625 27.515625 
C 40.09375 37.71875 43.09375 43.171875 43.09375 50.59375 
C 43.09375 61.96875 35.296875 69 22.59375 69 
C 15.40625 69 10.5 67 5.59375 62.015625 
L 3.90625 48.421875 
L 6.796875 48.421875 
L 8.09375 53.015625 
C 9.703125 58.796875 13.296875 61.296875 20 61.296875 
C 28.59375 61.296875 34.09375 55.890625 34.09375 47.421875 
C 34.09375 39.921875 29.90625 32.546875 18.59375 20.5625 
z
" id="URW_Palladio_L_Roman-50"/>
      </defs>
      <g transform="translate(33.0279958085 162.598878017)scale(0.12 -0.12)">
       <use transform="scale(0.996264009963)" xlink:href="#URW_Palladio_L_Roman-50"/>
       <use transform="translate(49.8132004981 0.0)scale(0.996264009963)" xlink:href="#URW_Palladio_L_Roman-50"/>
       <use transform="translate(99.6264009963 0.0)scale(0.996264009963)" xlink:href="#URW_Palladio_L_Roman-53"/>
       <use transform="translate(150.38601886 36.1643714002)scale(0.788955479452)" xlink:href="#CMSY10-14"/>
      </g>
     </g>
    </g>
    <g id="xtick_7">
     <g id="line2d_8">
      <path clip-path="url(#p47cf546661)" d="M 110.793734 93.6 
L 110.793734 178.976821 
" style="fill:none;stroke:#000000;stroke-dasharray:1.000000,3.000000;stroke-dashoffset:0.0;stroke-width:0.5;"/>
     </g>
     <g id="text_7">
      <!-- $270^\circ$ -->
      <defs>
       <path d="M 5.59375 0.5 
L 6.5 -0.796875 
C 10.40625 -0.5 10.40625 -0.5 11.09375 -0.5 
C 11.796875 -0.5 11.796875 -0.5 15.703125 -0.796875 
C 19.90625 10.140625 24.796875 20.578125 31.40625 32.609375 
L 49.703125 65.609375 
L 49.703125 68.3125 
C 38.90625 68.3125 35.40625 68.3125 27.296875 68.3125 
C 20 68.3125 15.09375 68.3125 5.40625 68.3125 
L 4.40625 68.109375 
C 4.703125 58.59375 4.703125 58.59375 4.703125 57.578125 
C 4.703125 56.46875 4.703125 56.46875 4.40625 47.359375 
L 7.40625 47.359375 
L 8.09375 52.96875 
C 8.90625 59.203125 9.59375 60 14.203125 60 
L 40.90625 60 
C 36.90625 51.765625 33.796875 45.953125 30 39.828125 
z
" id="URW_Palladio_L_Roman-55"/>
      </defs>
      <g transform="translate(99.435578001 190.105799205)scale(0.12 -0.12)">
       <use transform="scale(0.996264009963)" xlink:href="#URW_Palladio_L_Roman-50"/>
       <use transform="translate(49.8132004981 0.0)scale(0.996264009963)" xlink:href="#URW_Palladio_L_Roman-55"/>
       <use transform="translate(99.6264009963 0.0)scale(0.996264009963)" xlink:href="#URW_Palladio_L_Roman-48"/>
       <use transform="translate(150.38601886 36.1643714002)scale(0.788955479452)" xlink:href="#CMSY10-14"/>
      </g>
     </g>
    </g>
    <g id="xtick_8">
     <g id="line2d_9">
      <path clip-path="url(#p47cf546661)" d="M 110.793734 93.6 
L 171.164263 153.970529 
" style="fill:none;stroke:#000000;stroke-dasharray:1.000000,3.000000;stroke-dashoffset:0.0;stroke-width:0.5;"/>
     </g>
     <g id="text_8">
      <!-- $315^\circ$ -->
      <g transform="translate(165.843160193 162.598878017)scale(0.12 -0.12)">
       <use transform="scale(0.996264009963)" xlink:href="#URW_Palladio_L_Roman-51"/>
       <use transform="translate(49.8132004981 0.0)scale(0.996264009963)" xlink:href="#URW_Palladio_L_Roman-49"/>
       <use transform="translate(99.6264009963 0.0)scale(0.996264009963)" xlink:href="#URW_Palladio_L_Roman-53"/>
       <use transform="translate(150.38601886 36.1643714002)scale(0.788955479452)" xlink:href="#CMSY10-14"/>
      </g>
     </g>
    </g>
   </g>
   <g id="matplotlib.axis_2">
    <g id="ytick_1">
     <g id="line2d_10">
      <path clip-path="url(#p47cf546661)" d="M 129.353913 93.6 
L 129.252238 91.659933 
L 128.948328 89.741122 
L 128.445513 87.864589 
L 127.749301 86.050895 
L 126.86732 84.319911 
L 125.809234 82.690601 
L 124.586635 81.180816 
L 123.212918 79.807099 
L 121.703133 78.5845 
L 120.073823 77.526414 
L 118.342839 76.644433 
L 116.529145 75.948221 
L 114.652612 75.445406 
L 112.733801 75.141496 
L 110.793734 75.039821 
L 108.853667 75.141496 
L 106.934856 75.445406 
L 105.058324 75.948221 
L 103.244629 76.644433 
L 101.513645 77.526414 
L 99.884335 78.5845 
L 98.374551 79.807099 
L 97.000833 81.180816 
L 95.778234 82.690601 
L 94.720148 84.319911 
L 93.838167 86.050895 
L 93.141955 87.864589 
L 92.63914 89.741122 
L 92.33523 91.659933 
L 92.233556 93.6 
L 92.33523 95.540067 
L 92.63914 97.458878 
L 93.141955 99.335411 
L 93.838167 101.149105 
L 94.720148 102.880089 
L 95.778234 104.509399 
L 97.000833 106.019184 
L 98.374551 107.392901 
L 99.884335 108.6155 
L 101.513645 109.673586 
L 103.244629 110.555567 
L 105.058324 111.251779 
L 106.934856 111.754594 
L 108.853667 112.058504 
L 110.793734 112.160179 
L 112.733801 112.058504 
L 114.652612 111.754594 
L 116.529145 111.251779 
L 118.342839 110.555567 
L 120.073823 109.673586 
L 121.703133 108.6155 
L 123.212918 107.392901 
L 124.586635 106.019184 
L 125.809234 104.509399 
L 126.86732 102.880089 
L 127.749301 101.149105 
L 128.445513 99.335411 
L 128.948328 97.458878 
L 129.252238 95.540067 
L 129.353913 93.6 
L 129.353913 93.6 
" style="fill:none;stroke:#000000;stroke-dasharray:1.000000,3.000000;stroke-dashoffset:0.0;stroke-width:0.5;"/>
     </g>
     <g id="text_9">
      <!-- $20$ -->
      <g transform="translate(127.941103189 83.1260430971)scale(0.12 -0.12)">
       <use transform="scale(0.996264009963)" xlink:href="#URW_Palladio_L_Roman-50"/>
       <use transform="translate(49.8132004981 0.0)scale(0.996264009963)" xlink:href="#URW_Palladio_L_Roman-48"/>
      </g>
     </g>
    </g>
    <g id="ytick_2">
     <g id="line2d_11">
      <path clip-path="url(#p47cf546661)" d="M 147.914091 93.6 
L 147.891478 92.304518 
L 147.823668 91.010615 
L 147.552838 88.433845 
L 147.102922 85.882244 
L 146.476112 83.368243 
L 145.67546 80.90409 
L 144.704868 78.501791 
L 143.569064 76.173048 
L 142.273582 73.929208 
L 140.824734 71.781202 
L 139.229577 69.739494 
L 137.495884 67.814033 
L 135.632101 66.014199 
L 133.647308 64.348759 
L 131.551174 62.825829 
L 129.353913 61.452828 
L 127.066228 60.236444 
L 124.699265 59.182604 
L 122.264555 58.296443 
L 119.773961 57.582276 
L 117.239616 57.043585 
L 114.673868 56.682992 
L 112.089216 56.502256 
L 109.498252 56.502256 
L 106.9136 56.682992 
L 104.347852 57.043585 
L 101.813507 57.582276 
L 99.322913 58.296443 
L 96.888204 59.182604 
L 94.521241 60.236444 
L 92.233556 61.452828 
L 90.036294 62.825829 
L 87.94016 64.348759 
L 85.955367 66.014199 
L 84.091584 67.814033 
L 82.357891 69.739494 
L 80.762734 71.781202 
L 79.313886 73.929208 
L 78.018404 76.173048 
L 76.882601 78.501791 
L 75.912009 80.90409 
L 75.111357 83.368243 
L 74.484546 85.882244 
L 74.03463 88.433845 
L 73.7638 91.010615 
L 73.673377 93.6 
L 73.7638 96.189385 
L 74.03463 98.766155 
L 74.484546 101.317756 
L 75.111357 103.831757 
L 75.912009 106.29591 
L 76.882601 108.698209 
L 78.018404 111.026952 
L 79.313886 113.270792 
L 80.762734 115.418798 
L 82.357891 117.460506 
L 84.091584 119.385967 
L 85.955367 121.185801 
L 87.94016 122.851241 
L 90.036294 124.374171 
L 92.233556 125.747172 
L 94.521241 126.963556 
L 96.888204 128.017396 
L 99.322913 128.903557 
L 101.813507 129.617724 
L 104.347852 130.156415 
L 106.9136 130.517008 
L 109.498252 130.697744 
L 112.089216 130.697744 
L 114.673868 130.517008 
L 117.239616 130.156415 
L 119.773961 129.617724 
L 122.264555 128.903557 
L 124.699265 128.017396 
L 127.066228 126.963556 
L 129.353913 125.747172 
L 131.551174 124.374171 
L 133.647308 122.851241 
L 135.632101 121.185801 
L 137.495884 119.385967 
L 139.229577 117.460506 
L 140.824734 115.418798 
L 142.273582 113.270792 
L 143.569064 111.026952 
L 144.704868 108.698209 
L 145.67546 106.29591 
L 146.476112 103.831757 
L 147.102922 101.317756 
L 147.552838 98.766155 
L 147.823668 96.189385 
L 147.914091 93.6 
L 147.914091 93.6 
" style="fill:none;stroke:#000000;stroke-dasharray:1.000000,3.000000;stroke-dashoffset:0.0;stroke-width:0.5;"/>
     </g>
     <g id="text_10">
      <!-- $40$ -->
      <g transform="translate(145.088472256 76.0233702704)scale(0.12 -0.12)">
       <use transform="scale(0.996264009963)" xlink:href="#URW_Palladio_L_Roman-52"/>
       <use transform="translate(49.8132004981 0.0)scale(0.996264009963)" xlink:href="#URW_Palladio_L_Roman-48"/>
      </g>
     </g>
    </g>
    <g id="ytick_3">
     <g id="line2d_12">
      <path clip-path="url(#p47cf546661)" d="M 166.47427 93.6 
L 166.440351 91.656777 
L 166.338635 89.715922 
L 165.932391 85.850767 
L 165.257516 82.023366 
L 164.3173 78.252364 
L 163.116323 74.556135 
L 161.660434 70.952686 
L 159.956729 67.459572 
L 158.013506 64.093812 
L 155.840234 60.871802 
L 153.447499 57.809242 
L 150.846959 54.92105 
L 148.051285 52.221298 
L 145.074095 49.723139 
L 141.929894 47.438744 
L 138.634002 45.379242 
L 135.202474 43.554666 
L 131.65203 41.973906 
L 127.999966 40.644664 
L 124.264075 39.573414 
L 120.462558 38.765377 
L 116.613935 38.224488 
L 112.736957 37.953383 
L 108.850511 37.953383 
L 104.973533 38.224488 
L 101.124911 38.765377 
L 97.323393 39.573414 
L 93.587502 40.644664 
L 89.935438 41.973906 
L 86.384994 43.554666 
L 82.953466 45.379242 
L 79.657574 47.438744 
L 76.513373 49.723139 
L 73.536184 52.221298 
L 70.740509 54.92105 
L 68.139969 57.809242 
L 65.747235 60.871802 
L 63.573962 64.093812 
L 61.630739 67.459572 
L 59.927034 70.952686 
L 58.471146 74.556135 
L 57.270168 78.252364 
L 56.329952 82.023366 
L 55.655078 85.850767 
L 55.248834 89.715922 
L 55.113199 93.6 
L 55.248834 97.484078 
L 55.655078 101.349233 
L 56.329952 105.176634 
L 57.270168 108.947636 
L 58.471146 112.643865 
L 59.927034 116.247314 
L 61.630739 119.740428 
L 63.573962 123.106188 
L 65.747235 126.328198 
L 68.139969 129.390758 
L 70.740509 132.27895 
L 73.536184 134.978702 
L 76.513373 137.476861 
L 79.657574 139.761256 
L 82.953466 141.820758 
L 86.384994 143.645334 
L 89.935438 145.226094 
L 93.587502 146.555336 
L 97.323393 147.626586 
L 101.124911 148.434623 
L 104.973533 148.975512 
L 108.850511 149.246617 
L 112.736957 149.246617 
L 116.613935 148.975512 
L 120.462558 148.434623 
L 124.264075 147.626586 
L 127.999966 146.555336 
L 131.65203 145.226094 
L 135.202474 143.645334 
L 138.634002 141.820758 
L 141.929894 139.761256 
L 145.074095 137.476861 
L 148.051285 134.978702 
L 150.846959 132.27895 
L 153.447499 129.390758 
L 155.840234 126.328198 
L 158.013506 123.106188 
L 159.956729 119.740428 
L 161.660434 116.247314 
L 163.116323 112.643865 
L 164.3173 108.947636 
L 165.257516 105.176634 
L 165.932391 101.349233 
L 166.338635 97.484078 
L 166.47427 93.6 
L 166.47427 93.6 
" style="fill:none;stroke:#000000;stroke-dasharray:1.000000,3.000000;stroke-dashoffset:0.0;stroke-width:0.5;"/>
     </g>
     <g id="text_11">
      <!-- $60$ -->
      <defs>
       <path d="M 41.59375 67.34375 
L 37.90625 69.046875 
C 28.296875 65.84375 24.203125 63.84375 19.09375 59.4375 
C 8.796875 50.71875 3.203125 38.5 3.203125 24.765625 
C 3.203125 8.21875 11.203125 -2 24.09375 -2 
C 37.09375 -2 46.796875 8.3125 46.796875 21.953125 
C 46.796875 33.484375 39.90625 41 29.296875 41 
C 24.296875 41 21.296875 39.6875 15.40625 34.984375 
C 14.296875 34.078125 14.203125 33.984375 13.09375 33.1875 
C 15.203125 51.3125 23.59375 61.140625 41.59375 66.546875 
z
M 25.5 34.984375 
C 33.09375 34.984375 38.203125 28.375 38.203125 18.453125 
C 38.203125 8.015625 33.09375 1.296875 25.40625 1.296875 
C 16.90625 1.296875 12.296875 8.609375 12.296875 22.0625 
C 12.296875 25.5625 12.703125 27.46875 13.796875 29.171875 
C 16 32.578125 20.703125 34.984375 25.5 34.984375 
" id="URW_Palladio_L_Roman-54"/>
      </defs>
      <g transform="translate(162.235841323 68.9206974438)scale(0.12 -0.12)">
       <use transform="scale(0.996264009963)" xlink:href="#URW_Palladio_L_Roman-54"/>
       <use transform="translate(49.8132004981 0.0)scale(0.996264009963)" xlink:href="#URW_Palladio_L_Roman-48"/>
      </g>
     </g>
    </g>
    <g id="ytick_4">
     <g id="line2d_13">
      <path clip-path="url(#p47cf546661)" d="M 185.034448 93.6 
L 184.989223 91.009036 
L 184.853602 88.42123 
L 184.311943 83.26769 
L 183.412111 78.164488 
L 182.158489 73.136486 
L 180.557185 68.20818 
L 178.616001 63.403581 
L 176.344394 58.746096 
L 173.75343 54.258415 
L 170.855734 49.962403 
L 167.665421 45.878989 
L 164.198035 42.028066 
L 160.470468 38.428397 
L 156.500882 35.097519 
L 152.308615 32.051659 
L 147.914091 29.305656 
L 143.338721 26.872888 
L 138.604795 24.765209 
L 133.735376 22.992885 
L 128.754188 21.564552 
L 123.685499 20.487169 
L 118.554002 19.765984 
L 113.384698 19.404511 
L 108.202771 19.404511 
L 103.033466 19.765984 
L 97.901969 20.487169 
L 92.83328 21.564552 
L 87.852092 22.992885 
L 82.982673 24.765209 
L 78.248747 26.872888 
L 73.673377 29.305656 
L 69.278854 32.051659 
L 65.086587 35.097519 
L 61.117 38.428397 
L 57.389434 42.028066 
L 53.922048 45.878989 
L 50.731735 49.962403 
L 47.834038 54.258415 
L 45.243074 58.746096 
L 42.971467 63.403581 
L 41.030283 68.20818 
L 39.428979 73.136486 
L 38.175358 78.164488 
L 37.275526 83.26769 
L 36.733867 88.42123 
L 36.55302 93.6 
L 36.733867 98.77877 
L 37.275526 103.93231 
L 38.175358 109.035512 
L 39.428979 114.063514 
L 41.030283 118.99182 
L 42.971467 123.796419 
L 45.243074 128.453904 
L 47.834038 132.941585 
L 50.731735 137.237597 
L 53.922048 141.321011 
L 57.389434 145.171934 
L 61.117 148.771603 
L 65.086587 152.102481 
L 69.278854 155.148341 
L 73.673377 157.894344 
L 78.248747 160.327112 
L 82.982673 162.434791 
L 87.852092 164.207115 
L 92.83328 165.635448 
L 97.901969 166.712831 
L 103.033466 167.434016 
L 108.202771 167.795489 
L 113.384698 167.795489 
L 118.554002 167.434016 
L 123.685499 166.712831 
L 128.754188 165.635448 
L 133.735376 164.207115 
L 138.604795 162.434791 
L 143.338721 160.327112 
L 147.914091 157.894344 
L 152.308615 155.148341 
L 156.500882 152.102481 
L 160.470468 148.771603 
L 164.198035 145.171934 
L 167.665421 141.321011 
L 170.855734 137.237597 
L 173.75343 132.941585 
L 176.344394 128.453904 
L 178.616001 123.796419 
L 180.557185 118.99182 
L 182.158489 114.063514 
L 183.412111 109.035512 
L 184.311943 103.93231 
L 184.853602 98.77877 
L 185.034448 93.6 
L 185.034448 93.6 
" style="fill:none;stroke:#000000;stroke-dasharray:1.000000,3.000000;stroke-dashoffset:0.0;stroke-width:0.5;"/>
     </g>
     <g id="text_12">
      <!-- $80$ -->
      <g transform="translate(179.383210391 61.8180246172)scale(0.12 -0.12)">
       <use transform="scale(0.996264009963)" xlink:href="#URW_Palladio_L_Roman-56"/>
       <use transform="translate(49.8132004981 0.0)scale(0.996264009963)" xlink:href="#URW_Palladio_L_Roman-48"/>
      </g>
     </g>
    </g>
   </g>
  </g>
  <g id="axes_2">
   <g id="patch_4">
    <path d="M 318.414734 178.976821 
C 341.056932 178.976821 362.774812 169.980981 378.785263 153.970529 
C 394.795715 137.960078 403.791555 116.242198 403.791555 93.6 
C 403.791555 70.957802 394.795715 49.239922 378.785263 33.229471 
C 362.774812 17.219019 341.056932 8.223179 318.414734 8.223179 
C 295.772536 8.223179 274.054656 17.219019 258.044205 33.229471 
C 242.033753 49.239922 233.037913 70.957802 233.037913 93.6 
C 233.037913 116.242198 242.033753 137.960078 258.044205 153.970529 
C 274.054656 169.980981 295.772536 178.976821 318.414734 178.976821 
z
" style="fill:#ffffff;"/>
   </g>
   <g id="line2d_14">
    <path clip-path="url(#p0a8e5895d9)" d="M 387.017643 87.598023 
L 400.791052 71.527332 
L 390.387084 60.038742 
L 382.153015 48.969975 
L 368.39317 43.621564 
L 356.336222 39.442503 
L 342.576272 41.785415 
L 336.494145 26.126721 
L 322.318404 48.980846 
L 315.238166 57.291656 
L 311.437527 67.560709 
L 312.864553 81.697597 
M 313.715202 88.900468 
" style="fill:none;stroke:#0000ff;stroke-linecap:square;"/>
   </g>
   <g id="patch_5">
    <path d="M 318.414734 178.976821 
C 341.056932 178.976821 362.774812 169.980981 378.785263 153.970529 
C 394.795715 137.960078 403.791555 116.242198 403.791555 93.6 
C 403.791555 70.957802 394.795715 49.239922 378.785263 33.229471 
C 362.774812 17.219019 341.056932 8.223179 318.414734 8.223179 
C 295.772536 8.223179 274.054656 17.219019 258.044205 33.229471 
C 242.033753 49.239922 233.037913 70.957802 233.037913 93.6 
C 233.037913 116.242198 242.033753 137.960078 258.044205 153.970529 
C 274.054656 169.980981 295.772536 178.976821 318.414734 178.976821 
L 318.414734 178.976821 
z
" style="fill:none;stroke:#000000;stroke-linecap:square;stroke-linejoin:miter;"/>
   </g>
   <g id="matplotlib.axis_3">
    <g id="xtick_9">
     <g id="line2d_15">
      <path clip-path="url(#p0a8e5895d9)" d="M 318.414734 93.6 
L 403.791555 93.6 
" style="fill:none;stroke:#000000;stroke-dasharray:1.000000,3.000000;stroke-dashoffset:0.0;stroke-width:0.5;"/>
     </g>
     <g id="text_13">
      <!-- $0^\circ$ -->
      <g transform="translate(406.948665442 96.1912958243)scale(0.12 -0.12)">
       <use transform="scale(0.996264009963)" xlink:href="#URW_Palladio_L_Roman-48"/>
       <use transform="translate(50.7596178637 36.1643714002)scale(0.788955479452)" xlink:href="#CMSY10-14"/>
      </g>
     </g>
    </g>
    <g id="xtick_10">
     <g id="line2d_16">
      <path clip-path="url(#p0a8e5895d9)" d="M 318.414734 93.6 
L 378.785263 33.229471 
" style="fill:none;stroke:#000000;stroke-dasharray:1.000000,3.000000;stroke-dashoffset:0.0;stroke-width:0.5;"/>
     </g>
     <g id="text_14">
      <!-- $45^\circ$ -->
      <g transform="translate(376.452952223 29.7837136318)scale(0.12 -0.12)">
       <use transform="scale(0.996264009963)" xlink:href="#URW_Palladio_L_Roman-52"/>
       <use transform="translate(49.8132004981 0.0)scale(0.996264009963)" xlink:href="#URW_Palladio_L_Roman-53"/>
       <use transform="translate(100.572818362 36.1643714002)scale(0.788955479452)" xlink:href="#CMSY10-14"/>
      </g>
     </g>
    </g>
    <g id="xtick_11">
     <g id="line2d_17">
      <path clip-path="url(#p0a8e5895d9)" d="M 318.414734 93.6 
L 318.414734 8.223179 
" style="fill:none;stroke:#000000;stroke-dasharray:1.000000,3.000000;stroke-dashoffset:0.0;stroke-width:0.5;"/>
     </g>
     <g id="text_15">
      <!-- $90^\circ$ -->
      <g transform="translate(310.045370031 2.27679244324)scale(0.12 -0.12)">
       <use transform="scale(0.996264009963)" xlink:href="#URW_Palladio_L_Roman-57"/>
       <use transform="translate(49.8132004981 0.0)scale(0.996264009963)" xlink:href="#URW_Palladio_L_Roman-48"/>
       <use transform="translate(100.572818362 36.1643714002)scale(0.788955479452)" xlink:href="#CMSY10-14"/>
      </g>
     </g>
    </g>
    <g id="xtick_12">
     <g id="line2d_18">
      <path clip-path="url(#p0a8e5895d9)" d="M 318.414734 93.6 
L 258.044205 33.229471 
" style="fill:none;stroke:#000000;stroke-dasharray:1.000000,3.000000;stroke-dashoffset:0.0;stroke-width:0.5;"/>
     </g>
     <g id="text_16">
      <!-- $135^\circ$ -->
      <g transform="translate(240.648995808 29.7837136318)scale(0.12 -0.12)">
       <use transform="scale(0.996264009963)" xlink:href="#URW_Palladio_L_Roman-49"/>
       <use transform="translate(49.8132004981 0.0)scale(0.996264009963)" xlink:href="#URW_Palladio_L_Roman-51"/>
       <use transform="translate(99.6264009963 0.0)scale(0.996264009963)" xlink:href="#URW_Palladio_L_Roman-53"/>
       <use transform="translate(150.38601886 36.1643714002)scale(0.788955479452)" xlink:href="#CMSY10-14"/>
      </g>
     </g>
    </g>
    <g id="xtick_13">
     <g id="line2d_19">
      <path clip-path="url(#p0a8e5895d9)" d="M 318.414734 93.6 
L 233.037913 93.6 
" style="fill:none;stroke:#000000;stroke-dasharray:1.000000,3.000000;stroke-dashoffset:0.0;stroke-width:0.5;"/>
     </g>
     <g id="text_17">
      <!-- $180^\circ$ -->
      <g transform="translate(213.14207462 96.1912958243)scale(0.12 -0.12)">
       <use transform="scale(0.996264009963)" xlink:href="#URW_Palladio_L_Roman-49"/>
       <use transform="translate(49.8132004981 0.0)scale(0.996264009963)" xlink:href="#URW_Palladio_L_Roman-56"/>
       <use transform="translate(99.6264009963 0.0)scale(0.996264009963)" xlink:href="#URW_Palladio_L_Roman-48"/>
       <use transform="translate(150.38601886 36.1643714002)scale(0.788955479452)" xlink:href="#CMSY10-14"/>
      </g>
     </g>
    </g>
    <g id="xtick_14">
     <g id="line2d_20">
      <path clip-path="url(#p0a8e5895d9)" d="M 318.414734 93.6 
L 258.044205 153.970529 
" style="fill:none;stroke:#000000;stroke-dasharray:1.000000,3.000000;stroke-dashoffset:0.0;stroke-width:0.5;"/>
     </g>
     <g id="text_18">
      <!-- $225^\circ$ -->
      <g transform="translate(240.648995808 162.598878017)scale(0.12 -0.12)">
       <use transform="scale(0.996264009963)" xlink:href="#URW_Palladio_L_Roman-50"/>
       <use transform="translate(49.8132004981 0.0)scale(0.996264009963)" xlink:href="#URW_Palladio_L_Roman-50"/>
       <use transform="translate(99.6264009963 0.0)scale(0.996264009963)" xlink:href="#URW_Palladio_L_Roman-53"/>
       <use transform="translate(150.38601886 36.1643714002)scale(0.788955479452)" xlink:href="#CMSY10-14"/>
      </g>
     </g>
    </g>
    <g id="xtick_15">
     <g id="line2d_21">
      <path clip-path="url(#p0a8e5895d9)" d="M 318.414734 93.6 
L 318.414734 178.976821 
" style="fill:none;stroke:#000000;stroke-dasharray:1.000000,3.000000;stroke-dashoffset:0.0;stroke-width:0.5;"/>
     </g>
     <g id="text_19">
      <!-- $270^\circ$ -->
      <g transform="translate(307.056578001 190.105799205)scale(0.12 -0.12)">
       <use transform="scale(0.996264009963)" xlink:href="#URW_Palladio_L_Roman-50"/>
       <use transform="translate(49.8132004981 0.0)scale(0.996264009963)" xlink:href="#URW_Palladio_L_Roman-55"/>
       <use transform="translate(99.6264009963 0.0)scale(0.996264009963)" xlink:href="#URW_Palladio_L_Roman-48"/>
       <use transform="translate(150.38601886 36.1643714002)scale(0.788955479452)" xlink:href="#CMSY10-14"/>
      </g>
     </g>
    </g>
    <g id="xtick_16">
     <g id="line2d_22">
      <path clip-path="url(#p0a8e5895d9)" d="M 318.414734 93.6 
L 378.785263 153.970529 
" style="fill:none;stroke:#000000;stroke-dasharray:1.000000,3.000000;stroke-dashoffset:0.0;stroke-width:0.5;"/>
     </g>
     <g id="text_20">
      <!-- $315^\circ$ -->
      <g transform="translate(373.464160193 162.598878017)scale(0.12 -0.12)">
       <use transform="scale(0.996264009963)" xlink:href="#URW_Palladio_L_Roman-51"/>
       <use transform="translate(49.8132004981 0.0)scale(0.996264009963)" xlink:href="#URW_Palladio_L_Roman-49"/>
       <use transform="translate(99.6264009963 0.0)scale(0.996264009963)" xlink:href="#URW_Palladio_L_Roman-53"/>
       <use transform="translate(150.38601886 36.1643714002)scale(0.788955479452)" xlink:href="#CMSY10-14"/>
      </g>
     </g>
    </g>
   </g>
   <g id="matplotlib.axis_4">
    <g id="ytick_5">
     <g id="line2d_23">
      <path clip-path="url(#p0a8e5895d9)" d="M 335.490098 93.6 
L 335.396558 91.815138 
L 335.116961 90.049832 
L 334.654371 88.323422 
L 334.013856 86.654824 
L 333.202433 85.062318 
L 332.228994 83.563353 
L 331.104203 82.174351 
L 329.840383 80.910531 
L 328.451381 79.78574 
L 326.952416 78.812301 
L 325.35991 78.000879 
L 323.691312 77.360364 
L 321.964902 76.897773 
L 320.199596 76.618176 
L 318.414734 76.524636 
L 316.629873 76.618176 
L 314.864566 76.897773 
L 313.138156 77.360364 
L 311.469558 78.000879 
L 309.877052 78.812301 
L 308.378087 79.78574 
L 306.989085 80.910531 
L 305.725266 82.174351 
L 304.600474 83.563353 
L 303.627035 85.062318 
L 302.815613 86.654824 
L 302.175098 88.323422 
L 301.712508 90.049832 
L 301.432911 91.815138 
L 301.33937 93.6 
L 301.432911 95.384862 
L 301.712508 97.150168 
L 302.175098 98.876578 
L 302.815613 100.545176 
L 303.627035 102.137682 
L 304.600474 103.636647 
L 305.725266 105.025649 
L 306.989085 106.289469 
L 308.378087 107.41426 
L 309.877052 108.387699 
L 311.469558 109.199121 
L 313.138156 109.839636 
L 314.864566 110.302227 
L 316.629873 110.581824 
L 318.414734 110.675364 
L 320.199596 110.581824 
L 321.964902 110.302227 
L 323.691312 109.839636 
L 325.35991 109.199121 
L 326.952416 108.387699 
L 328.451381 107.41426 
L 329.840383 106.289469 
L 331.104203 105.025649 
L 332.228994 103.636647 
L 333.202433 102.137682 
L 334.013856 100.545176 
L 334.654371 98.876578 
L 335.116961 97.150168 
L 335.396558 95.384862 
L 335.490098 93.6 
L 335.490098 93.6 
" style="fill:none;stroke:#000000;stroke-dasharray:1.000000,3.000000;stroke-dashoffset:0.0;stroke-width:0.5;"/>
     </g>
     <g id="text_21">
      <!-- $0.5$ -->
      <defs>
       <path d="M 12.40625 11.625 
C 9.40625 11.625 6.703125 8.8125 6.703125 5.8125 
C 6.703125 2.796875 9.40625 0 12.296875 0 
C 15.5 0 18.296875 2.703125 18.296875 5.8125 
C 18.296875 8.8125 15.5 11.625 12.40625 11.625 
" id="URW_Palladio_L_Roman-46"/>
      </defs>
      <g transform="translate(334.190313664 83.6942569232)scale(0.12 -0.12)">
       <use transform="scale(0.996264009963)" xlink:href="#URW_Palladio_L_Roman-48"/>
       <use transform="translate(49.8132004981 0.0)scale(0.996264009963)" xlink:href="#URW_Palladio_L_Roman-46"/>
       <use transform="translate(74.7198007472 0.0)scale(0.996264009963)" xlink:href="#URW_Palladio_L_Roman-53"/>
      </g>
     </g>
    </g>
    <g id="ytick_6">
     <g id="line2d_24">
      <path clip-path="url(#p0a8e5895d9)" d="M 352.565463 93.6 
L 352.544659 92.408157 
L 352.482273 91.217766 
L 352.23311 88.847137 
L 351.819187 86.499664 
L 351.242521 84.186783 
L 350.505922 81.919763 
L 349.612977 79.709647 
L 348.568038 77.567204 
L 347.376194 75.502871 
L 346.043254 73.526705 
L 344.57571 71.648335 
L 342.980712 69.876911 
L 341.266032 68.221063 
L 339.440022 66.688859 
L 337.511579 65.287763 
L 335.490098 64.024602 
L 333.385428 62.905529 
L 331.207822 61.935996 
L 328.96789 61.120727 
L 326.676543 60.463694 
L 324.344946 59.968098 
L 321.984457 59.636353 
L 319.606577 59.470075 
L 317.222891 59.470075 
L 314.845011 59.636353 
L 312.484522 59.968098 
L 310.152925 60.463694 
L 307.861579 61.120727 
L 305.621646 61.935996 
L 303.44404 62.905529 
L 301.33937 64.024602 
L 299.317889 65.287763 
L 297.389446 66.688859 
L 295.563436 68.221063 
L 293.848756 69.876911 
L 292.253758 71.648335 
L 290.786214 73.526705 
L 289.453274 75.502871 
L 288.261431 77.567204 
L 287.216491 79.709647 
L 286.323547 81.919763 
L 285.586947 84.186783 
L 285.010281 86.499664 
L 284.596358 88.847137 
L 284.347195 91.217766 
L 284.264006 93.6 
L 284.347195 95.982234 
L 284.596358 98.352863 
L 285.010281 100.700336 
L 285.586947 103.013217 
L 286.323547 105.280237 
L 287.216491 107.490353 
L 288.261431 109.632796 
L 289.453274 111.697129 
L 290.786214 113.673295 
L 292.253758 115.551665 
L 293.848756 117.323089 
L 295.563436 118.978937 
L 297.389446 120.511141 
L 299.317889 121.912237 
L 301.33937 123.175398 
L 303.44404 124.294471 
L 305.621646 125.264004 
L 307.861579 126.079273 
L 310.152925 126.736306 
L 312.484522 127.231902 
L 314.845011 127.563647 
L 317.222891 127.729925 
L 319.606577 127.729925 
L 321.984457 127.563647 
L 324.344946 127.231902 
L 326.676543 126.736306 
L 328.96789 126.079273 
L 331.207822 125.264004 
L 333.385428 124.294471 
L 335.490098 123.175398 
L 337.511579 121.912237 
L 339.440022 120.511141 
L 341.266032 118.978937 
L 342.980712 117.323089 
L 344.57571 115.551665 
L 346.043254 113.673295 
L 347.376194 111.697129 
L 348.568038 109.632796 
L 349.612977 107.490353 
L 350.505922 105.280237 
L 351.242521 103.013217 
L 351.819187 100.700336 
L 352.23311 98.352863 
L 352.482273 95.982234 
L 352.565463 93.6 
L 352.565463 93.6 
" style="fill:none;stroke:#000000;stroke-dasharray:1.000000,3.000000;stroke-dashoffset:0.0;stroke-width:0.5;"/>
     </g>
     <g id="text_22">
      <!-- $1.0$ -->
      <g transform="translate(349.965893206 77.1597979227)scale(0.12 -0.12)">
       <use transform="scale(0.996264009963)" xlink:href="#URW_Palladio_L_Roman-49"/>
       <use transform="translate(49.8132004981 0.0)scale(0.996264009963)" xlink:href="#URW_Palladio_L_Roman-46"/>
       <use transform="translate(74.7198007472 0.0)scale(0.996264009963)" xlink:href="#URW_Palladio_L_Roman-48"/>
      </g>
     </g>
    </g>
    <g id="ytick_7">
     <g id="line2d_25">
      <path clip-path="url(#p0a8e5895d9)" d="M 369.640827 93.6 
L 369.609621 91.812235 
L 369.516043 90.026648 
L 369.142298 86.470706 
L 368.521414 82.949496 
L 367.656415 79.480175 
L 366.551515 76.079644 
L 365.212098 72.764471 
L 363.644689 69.550806 
L 361.856925 66.454307 
L 359.857514 63.490058 
L 357.656198 60.672502 
L 355.263701 58.015366 
L 352.691681 55.531594 
L 349.952666 53.233288 
L 347.060002 51.131644 
L 344.02778 49.236902 
L 340.870775 47.558293 
L 337.604366 46.103994 
L 334.244467 44.881091 
L 330.807448 43.895541 
L 327.310052 43.152147 
L 323.769319 42.654529 
L 320.202499 42.405113 
L 316.626969 42.405113 
L 313.060149 42.654529 
L 309.519416 43.152147 
L 306.022021 43.895541 
L 302.585001 44.881091 
L 299.225102 46.103994 
L 295.958693 47.558293 
L 292.801688 49.236902 
L 289.769467 51.131644 
L 286.876802 53.233288 
L 284.137788 55.531594 
L 281.565767 58.015366 
L 279.17327 60.672502 
L 276.971955 63.490058 
L 274.972544 66.454307 
L 273.184779 69.550806 
L 271.61737 72.764471 
L 270.277953 76.079644 
L 269.173053 79.480175 
L 268.308054 82.949496 
L 267.68717 86.470706 
L 267.313426 90.026648 
L 267.188641 93.6 
L 267.313426 97.173352 
L 267.68717 100.729294 
L 268.308054 104.250504 
L 269.173053 107.719825 
L 270.277953 111.120356 
L 271.61737 114.435529 
L 273.184779 117.649194 
L 274.972544 120.745693 
L 276.971955 123.709942 
L 279.17327 126.527498 
L 281.565767 129.184634 
L 284.137788 131.668406 
L 286.876802 133.966712 
L 289.769467 136.068356 
L 292.801688 137.963098 
L 295.958693 139.641707 
L 299.225102 141.096006 
L 302.585001 142.318909 
L 306.022021 143.304459 
L 309.519416 144.047853 
L 313.060149 144.545471 
L 316.626969 144.794887 
L 320.202499 144.794887 
L 323.769319 144.545471 
L 327.310052 144.047853 
L 330.807448 143.304459 
L 334.244467 142.318909 
L 337.604366 141.096006 
L 340.870775 139.641707 
L 344.02778 137.963098 
L 347.060002 136.068356 
L 349.952666 133.966712 
L 352.691681 131.668406 
L 355.263701 129.184634 
L 357.656198 126.527498 
L 359.857514 123.709942 
L 361.856925 120.745693 
L 363.644689 117.649194 
L 365.212098 114.435529 
L 366.551515 111.120356 
L 367.656415 107.719825 
L 368.521414 104.250504 
L 369.142298 100.729294 
L 369.516043 97.173352 
L 369.640827 93.6 
L 369.640827 93.6 
" style="fill:none;stroke:#000000;stroke-dasharray:1.000000,3.000000;stroke-dashoffset:0.0;stroke-width:0.5;"/>
     </g>
     <g id="text_23">
      <!-- $1.5$ -->
      <g transform="translate(365.741472747 70.6253389222)scale(0.12 -0.12)">
       <use transform="scale(0.996264009963)" xlink:href="#URW_Palladio_L_Roman-49"/>
       <use transform="translate(49.8132004981 0.0)scale(0.996264009963)" xlink:href="#URW_Palladio_L_Roman-46"/>
       <use transform="translate(74.7198007472 0.0)scale(0.996264009963)" xlink:href="#URW_Palladio_L_Roman-53"/>
      </g>
     </g>
    </g>
    <g id="ytick_8">
     <g id="line2d_26">
      <path clip-path="url(#p0a8e5895d9)" d="M 386.716191 93.6 
L 386.674584 91.216314 
L 386.549812 88.835531 
L 386.051486 84.094274 
L 385.22364 79.399329 
L 384.070309 74.773567 
L 382.597109 70.239526 
L 380.81122 65.819295 
L 378.721341 61.534408 
L 376.337655 57.405742 
L 373.671774 53.453411 
L 370.736686 49.69667 
L 367.546691 46.153821 
L 364.117329 42.842126 
L 360.46531 39.777717 
L 356.608424 36.975526 
L 352.565463 34.449203 
L 348.356122 32.211057 
L 344.00091 30.271992 
L 339.521045 28.641454 
L 334.938352 27.327388 
L 330.275158 26.336196 
L 325.55418 25.672706 
L 320.798421 25.34015 
L 316.031048 25.34015 
L 311.275288 25.672706 
L 306.554311 26.336196 
L 301.891116 27.327388 
L 297.308423 28.641454 
L 292.828558 30.271992 
L 288.473346 32.211057 
L 284.264006 34.449203 
L 280.221044 36.975526 
L 276.364158 39.777717 
L 272.712139 42.842126 
L 269.282778 46.153821 
L 266.092783 49.69667 
L 263.157695 53.453411 
L 260.491814 57.405742 
L 258.108127 61.534408 
L 256.018248 65.819295 
L 254.232359 70.239526 
L 252.75916 74.773567 
L 251.605828 79.399329 
L 250.777982 84.094274 
L 250.279656 88.835531 
L 250.113277 93.6 
L 250.279656 98.364469 
L 250.777982 103.105726 
L 251.605828 107.800671 
L 252.75916 112.426433 
L 254.232359 116.960474 
L 256.018248 121.380705 
L 258.108127 125.665592 
L 260.491814 129.794258 
L 263.157695 133.746589 
L 266.092783 137.50333 
L 269.282778 141.046179 
L 272.712139 144.357874 
L 276.364158 147.422283 
L 280.221044 150.224474 
L 284.264006 152.750797 
L 288.473346 154.988943 
L 292.828558 156.928008 
L 297.308423 158.558546 
L 301.891116 159.872612 
L 306.554311 160.863804 
L 311.275288 161.527294 
L 316.031048 161.85985 
L 320.798421 161.85985 
L 325.55418 161.527294 
L 330.275158 160.863804 
L 334.938352 159.872612 
L 339.521045 158.558546 
L 344.00091 156.928008 
L 348.356122 154.988943 
L 352.565463 152.750797 
L 356.608424 150.224474 
L 360.46531 147.422283 
L 364.117329 144.357874 
L 367.546691 141.046179 
L 370.736686 137.50333 
L 373.671774 133.746589 
L 376.337655 129.794258 
L 378.721341 125.665592 
L 380.81122 121.380705 
L 382.597109 116.960474 
L 384.070309 112.426433 
L 385.22364 107.800671 
L 386.051486 103.105726 
L 386.549812 98.364469 
L 386.716191 93.6 
L 386.716191 93.6 
" style="fill:none;stroke:#000000;stroke-dasharray:1.000000,3.000000;stroke-dashoffset:0.0;stroke-width:0.5;"/>
     </g>
     <g id="text_24">
      <!-- $2.0$ -->
      <g transform="translate(381.517052289 64.0908799217)scale(0.12 -0.12)">
       <use transform="scale(0.996264009963)" xlink:href="#URW_Palladio_L_Roman-50"/>
       <use transform="translate(49.8132004981 0.0)scale(0.996264009963)" xlink:href="#URW_Palladio_L_Roman-46"/>
       <use transform="translate(74.7198007472 0.0)scale(0.996264009963)" xlink:href="#URW_Palladio_L_Roman-48"/>
      </g>
     </g>
    </g>
    <g id="ytick_9">
     <g id="line2d_27">
      <path clip-path="url(#p0a8e5895d9)" d="M 403.791555 93.6 
L 403.739546 90.620392 
L 403.583582 87.644414 
L 402.960674 81.717843 
L 401.925867 75.849161 
L 400.484202 70.066959 
L 398.642703 64.399407 
L 396.410341 58.874118 
L 393.797993 53.51801 
L 390.818385 48.357178 
L 387.486033 43.416764 
L 383.817174 38.720837 
L 379.82968 34.292276 
L 375.542978 30.152657 
L 370.977954 26.322147 
L 366.156847 22.819407 
L 361.103145 19.661504 
L 355.841469 16.863821 
L 350.397454 14.43999 
L 344.797623 12.401818 
L 339.069257 10.759235 
L 333.240264 9.520245 
L 327.339042 8.690882 
L 321.394342 8.275188 
L 315.435126 8.275188 
L 309.490426 8.690882 
L 303.589205 9.520245 
L 297.760212 10.759235 
L 292.031845 12.401818 
L 286.432014 14.43999 
L 280.987999 16.863821 
L 275.726323 19.661504 
L 270.672622 22.819407 
L 265.851514 26.322147 
L 261.28649 30.152657 
L 256.999789 34.292276 
L 253.012295 38.720837 
L 249.343435 43.416764 
L 246.011083 48.357178 
L 243.031475 53.51801 
L 240.419127 58.874118 
L 238.186765 64.399407 
L 236.345266 70.066959 
L 234.903601 75.849161 
L 233.868794 81.717843 
L 233.245887 87.644414 
L 233.037913 93.6 
L 233.245887 99.555586 
L 233.868794 105.482157 
L 234.903601 111.350839 
L 236.345266 117.133041 
L 238.186765 122.800593 
L 240.419127 128.325882 
L 243.031475 133.68199 
L 246.011083 138.842822 
L 249.343435 143.783236 
L 253.012295 148.479163 
L 256.999789 152.907724 
L 261.28649 157.047343 
L 265.851514 160.877853 
L 270.672622 164.380593 
L 275.726323 167.538496 
L 280.987999 170.336179 
L 286.432014 172.76001 
L 292.031845 174.798182 
L 297.760212 176.440765 
L 303.589205 177.679755 
L 309.490426 178.509118 
L 315.435126 178.924812 
L 321.394342 178.924812 
L 327.339042 178.509118 
L 333.240264 177.679755 
L 339.069257 176.440765 
L 344.797623 174.798182 
L 350.397454 172.76001 
L 355.841469 170.336179 
L 361.103145 167.538496 
L 366.156847 164.380593 
L 370.977954 160.877853 
L 375.542978 157.047343 
L 379.82968 152.907724 
L 383.817174 148.479163 
L 387.486033 143.783236 
L 390.818385 138.842822 
L 393.797993 133.68199 
L 396.410341 128.325882 
L 398.642703 122.800593 
L 400.484202 117.133041 
L 401.925867 111.350839 
L 402.960674 105.482157 
L 403.583582 99.555586 
L 403.791555 93.6 
L 403.791555 93.6 
" style="fill:none;stroke:#000000;stroke-dasharray:1.000000,3.000000;stroke-dashoffset:0.0;stroke-width:0.5;"/>
     </g>
     <g id="text_25">
      <!-- $2.5$ -->
      <g transform="translate(397.292631831 57.5564209212)scale(0.12 -0.12)">
       <use transform="scale(0.996264009963)" xlink:href="#URW_Palladio_L_Roman-50"/>
       <use transform="translate(49.8132004981 0.0)scale(0.996264009963)" xlink:href="#URW_Palladio_L_Roman-46"/>
       <use transform="translate(74.7198007472 0.0)scale(0.996264009963)" xlink:href="#URW_Palladio_L_Roman-53"/>
      </g>
     </g>
    </g>
   </g>
  </g>
 </g>
 <defs>
  <clipPath id="p47cf546661">
   <path d="M 110.793734 178.976821 
C 133.435932 178.976821 155.153812 169.980981 171.164263 153.970529 
C 187.174715 137.960078 196.170555 116.242198 196.170555 93.6 
C 196.170555 70.957802 187.174715 49.239922 171.164263 33.229471 
C 155.153812 17.219019 133.435932 8.223179 110.793734 8.223179 
C 88.151536 8.223179 66.433656 17.219019 50.423205 33.229471 
C 34.412753 49.239922 25.416913 70.957802 25.416913 93.6 
C 25.416913 116.242198 34.412753 137.960078 50.423205 153.970529 
C 66.433656 169.980981 88.151536 178.976821 110.793734 178.976821 
z
"/>
  </clipPath>
  <clipPath id="p0a8e5895d9">
   <path d="M 318.414734 178.976821 
C 341.056932 178.976821 362.774812 169.980981 378.785263 153.970529 
C 394.795715 137.960078 403.791555 116.242198 403.791555 93.6 
C 403.791555 70.957802 394.795715 49.239922 378.785263 33.229471 
C 362.774812 17.219019 341.056932 8.223179 318.414734 8.223179 
C 295.772536 8.223179 274.054656 17.219019 258.044205 33.229471 
C 242.033753 49.239922 233.037913 70.957802 233.037913 93.6 
C 233.037913 116.242198 242.033753 137.960078 258.044205 153.970529 
C 274.054656 169.980981 295.772536 178.976821 318.414734 178.976821 
z
"/>
  </clipPath>
 </defs>
</svg>
