<?xml version="1.0" encoding="utf-8" standalone="no"?>
<!DOCTYPE svg PUBLIC "-//W3C//DTD SVG 1.1//EN"
  "http://www.w3.org/Graphics/SVG/1.1/DTD/svg11.dtd">
<!-- Created with matplotlib (http://matplotlib.org/) -->
<svg height="468pt" version="1.1" viewBox="0 0 381 468" width="381pt" xmlns="http://www.w3.org/2000/svg" xmlns:xlink="http://www.w3.org/1999/xlink">
 <defs>
  <style type="text/css">
*{stroke-linecap:butt;stroke-linejoin:round;stroke-miterlimit:100000;}
  </style>
 </defs>
 <g id="figure_1">
  <g id="patch_1">
   <path d="M 0 468 
L 381.6 468 
L 381.6 0 
L 0 0 
z
" style="fill:#ffffff;"/>
  </g>
  <g id="axes_1">
   <g id="patch_2">
    <path d="M 27.719651 423.32929 
L 361.915218 423.32929 
L 361.915218 18.326322 
L 27.719651 18.326322 
z
" style="fill:#ffffff;"/>
   </g>
   <g id="patch_3">
    <path clip-path="url(#p5c211e9684)" d="M 29.99006 423.32929 
L 60.898144 423.32929 
L 60.898144 342.328696 
L 29.99006 342.328696 
z
" style="fill:#0000ff;stroke:#000000;stroke-linejoin:miter;"/>
   </g>
   <g id="patch_4">
    <path clip-path="url(#p5c211e9684)" d="M 60.898144 423.32929 
L 91.806229 423.32929 
L 91.806229 91.226856 
L 60.898144 91.226856 
z
" style="fill:#0000ff;stroke:#000000;stroke-linejoin:miter;"/>
   </g>
   <g id="patch_5">
    <path clip-path="url(#p5c211e9684)" d="M 91.806229 423.32929 
L 122.714314 423.32929 
L 122.714314 42.6265 
L 91.806229 42.6265 
z
" style="fill:#0000ff;stroke:#000000;stroke-linejoin:miter;"/>
   </g>
   <g id="patch_6">
    <path clip-path="url(#p5c211e9684)" d="M 122.714314 423.32929 
L 153.622398 423.32929 
L 153.622398 285.628281 
L 122.714314 285.628281 
z
" style="fill:#0000ff;stroke:#000000;stroke-linejoin:miter;"/>
   </g>
   <g id="patch_7">
    <path clip-path="url(#p5c211e9684)" d="M 153.622398 423.32929 
L 184.530483 423.32929 
L 184.530483 407.129171 
L 153.622398 407.129171 
z
" style="fill:#0000ff;stroke:#000000;stroke-linejoin:miter;"/>
   </g>
   <g id="patch_8">
    <path clip-path="url(#p5c211e9684)" d="M 184.530483 423.32929 
L 215.438568 423.32929 
L 215.438568 399.029112 
L 184.530483 399.029112 
z
" style="fill:#0000ff;stroke:#000000;stroke-linejoin:miter;"/>
   </g>
   <g id="patch_9">
    <path clip-path="url(#p5c211e9684)" d="M 215.438568 423.32929 
L 246.346653 423.32929 
L 246.346653 415.22923 
L 215.438568 415.22923 
z
" style="fill:#0000ff;stroke:#000000;stroke-linejoin:miter;"/>
   </g>
   <g id="patch_10">
    <path clip-path="url(#p5c211e9684)" d="M 246.346653 423.32929 
L 277.254737 423.32929 
L 277.254737 407.129171 
L 246.346653 407.129171 
z
" style="fill:#0000ff;stroke:#000000;stroke-linejoin:miter;"/>
   </g>
   <g id="patch_11">
    <path clip-path="url(#p5c211e9684)" d="M 277.254737 423.32929 
L 308.162822 423.32929 
L 308.162822 423.32929 
L 277.254737 423.32929 
z
" style="fill:#0000ff;stroke:#000000;stroke-linejoin:miter;"/>
   </g>
   <g id="patch_12">
    <path clip-path="url(#p5c211e9684)" d="M 308.162822 423.32929 
L 339.070907 423.32929 
L 339.070907 399.029112 
L 308.162822 399.029112 
z
" style="fill:#0000ff;stroke:#000000;stroke-linejoin:miter;"/>
   </g>
   <g id="patch_13">
    <path d="M 27.719651 18.326322 
L 361.915218 18.326322 
" style="fill:none;stroke:#000000;stroke-linecap:square;stroke-linejoin:miter;"/>
   </g>
   <g id="patch_14">
    <path d="M 361.915218 423.32929 
L 361.915218 18.326322 
" style="fill:none;stroke:#000000;stroke-linecap:square;stroke-linejoin:miter;"/>
   </g>
   <g id="patch_15">
    <path d="M 27.719651 423.32929 
L 361.915218 423.32929 
" style="fill:none;stroke:#000000;stroke-linecap:square;stroke-linejoin:miter;"/>
   </g>
   <g id="patch_16">
    <path d="M 27.719651 423.32929 
L 27.719651 18.326322 
" style="fill:none;stroke:#000000;stroke-linecap:square;stroke-linejoin:miter;"/>
   </g>
   <g id="matplotlib.axis_1">
    <g id="xtick_1">
     <g id="line2d_1">
      <defs>
       <path d="M 0 0 
L 0 -4 
" id="mfc9094aa50" style="stroke:#000000;stroke-width:0.5;"/>
      </defs>
      <g>
       <use style="stroke:#000000;stroke-width:0.5;" x="27.7196513076" xlink:href="#mfc9094aa50" y="423.329289615"/>
      </g>
     </g>
     <g id="line2d_2">
      <defs>
       <path d="M 0 0 
L 0 4 
" id="m5d62b3f1b4" style="stroke:#000000;stroke-width:0.5;"/>
      </defs>
      <g>
       <use style="stroke:#000000;stroke-width:0.5;" x="27.7196513076" xlink:href="#m5d62b3f1b4" y="18.3263219105"/>
      </g>
     </g>
     <g id="text_1">
      <!-- $0.5$ -->
      <defs>
       <path d="M 12.40625 11.625 
C 9.40625 11.625 6.703125 8.8125 6.703125 5.8125 
C 6.703125 2.796875 9.40625 0 12.296875 0 
C 15.5 0 18.296875 2.703125 18.296875 5.8125 
C 18.296875 8.8125 15.5 11.625 12.40625 11.625 
" id="URW_Palladio_L_Roman-46"/>
       <path d="M 12.703125 60.578125 
C 25.59375 60.578125 31.203125 60.578125 43.203125 60.578125 
L 43.703125 61.046875 
C 43.5 62.75 43.5 63.5 43.5 64.75 
C 43.5 66.078125 43.5 66.828125 43.703125 68.53125 
L 43.203125 69 
C 35.703125 69 31.203125 69 25.796875 69 
C 20.296875 69 15.90625 69 8.40625 69 
L 7.90625 68.796875 
C 8 62.671875 8.09375 58.265625 8.09375 55.046875 
C 8.09375 46.515625 7.796875 36.875 7.5 32.453125 
L 9.5 31.84375 
C 14.203125 36.578125 16.90625 38 21.796875 38 
C 31.40625 38 37.40625 31.140625 37.40625 20.25 
C 37.40625 9.0625 31 2.5 20.09375 2.5 
C 14.703125 2.5 9.703125 4.328125 8.296875 6.9375 
L 3.703125 15.203125 
L 1.296875 13.796875 
C 3.59375 8.0625 4.796875 4.84375 6.203125 0.421875 
C 9 -1.109375 13 -2 17.296875 -2 
C 24 -2 31.09375 0.921875 36.59375 5.75 
C 42.703125 11.1875 45.90625 18.03125 45.90625 25.46875 
C 45.90625 36.859375 37.796875 44.90625 26.40625 44.90625 
C 21.59375 44.90625 18 43.609375 11.796875 39.90625 
z
" id="URW_Palladio_L_Roman-53"/>
       <path d="M 26.296875 69 
C 10.796875 69 2.90625 56.6875 2.90625 32.453125 
C 2.90625 20.71875 5 10.625 8.5 5.71875 
C 12 0.796875 17.59375 -2 23.796875 -2 
C 38.90625 -2 46.5 11.015625 46.5 36.65625 
C 46.5 58.578125 40 69 26.296875 69 
M 24.5 65.5 
C 34.203125 65.5 38.09375 55.6875 38.09375 31.640625 
C 38.09375 10.328125 34.296875 1.5 25.09375 1.5 
C 15.40625 1.5 11.296875 11.625 11.296875 36.0625 
C 11.296875 57.1875 15 65.5 24.5 65.5 
" id="URW_Palladio_L_Roman-48"/>
      </defs>
      <g transform="translate(20.2476712329 435.883165339)scale(0.12 -0.12)">
       <use transform="scale(0.996264009963)" xlink:href="#URW_Palladio_L_Roman-48"/>
       <use transform="translate(49.8132004981 0.0)scale(0.996264009963)" xlink:href="#URW_Palladio_L_Roman-46"/>
       <use transform="translate(74.7198007472 0.0)scale(0.996264009963)" xlink:href="#URW_Palladio_L_Roman-53"/>
      </g>
     </g>
    </g>
    <g id="xtick_2">
     <g id="line2d_3">
      <g>
       <use style="stroke:#000000;stroke-width:0.5;" x="83.4189124118" xlink:href="#mfc9094aa50" y="423.329289615"/>
      </g>
     </g>
     <g id="line2d_4">
      <g>
       <use style="stroke:#000000;stroke-width:0.5;" x="83.4189124118" xlink:href="#m5d62b3f1b4" y="18.3263219105"/>
      </g>
     </g>
     <g id="text_2">
      <!-- $1.0$ -->
      <defs>
       <path d="M 6.703125 56 
L 7.703125 56 
L 20.59375 61.8125 
C 20.703125 61.90625 20.796875 61.90625 20.90625 61.90625 
C 21.5 61.90625 21.703125 61.015625 21.703125 58.609375 
L 21.703125 9.578125 
C 21.703125 4.3125 20.59375 3.203125 15.203125 3.203125 
L 9.59375 3.203125 
L 9.59375 0 
C 25 0 25 0 26.09375 0 
C 27.40625 0 29.59375 0 33 0 
C 34.203125 0 37.703125 0 41.796875 0 
L 41.796875 3.203125 
L 36.59375 3.203125 
C 31.09375 3.203125 30.09375 4.3125 30.09375 9.5625 
L 30.09375 69.421875 
L 28.703125 69.921875 
C 22.203125 66.515625 15.09375 63.515625 6 60.3125 
z
" id="URW_Palladio_L_Roman-49"/>
      </defs>
      <g transform="translate(75.9469323371 435.883165339)scale(0.12 -0.12)">
       <use transform="scale(0.996264009963)" xlink:href="#URW_Palladio_L_Roman-49"/>
       <use transform="translate(49.8132004981 0.0)scale(0.996264009963)" xlink:href="#URW_Palladio_L_Roman-46"/>
       <use transform="translate(74.7198007472 0.0)scale(0.996264009963)" xlink:href="#URW_Palladio_L_Roman-48"/>
      </g>
     </g>
    </g>
    <g id="xtick_3">
     <g id="line2d_5">
      <g>
       <use style="stroke:#000000;stroke-width:0.5;" x="139.118173516" xlink:href="#mfc9094aa50" y="423.329289615"/>
      </g>
     </g>
     <g id="line2d_6">
      <g>
       <use style="stroke:#000000;stroke-width:0.5;" x="139.118173516" xlink:href="#m5d62b3f1b4" y="18.3263219105"/>
      </g>
     </g>
     <g id="text_3">
      <!-- $1.5$ -->
      <g transform="translate(131.646193441 435.883165339)scale(0.12 -0.12)">
       <use transform="scale(0.996264009963)" xlink:href="#URW_Palladio_L_Roman-49"/>
       <use transform="translate(49.8132004981 0.0)scale(0.996264009963)" xlink:href="#URW_Palladio_L_Roman-46"/>
       <use transform="translate(74.7198007472 0.0)scale(0.996264009963)" xlink:href="#URW_Palladio_L_Roman-53"/>
      </g>
     </g>
    </g>
    <g id="xtick_4">
     <g id="line2d_7">
      <g>
       <use style="stroke:#000000;stroke-width:0.5;" x="194.81743462" xlink:href="#mfc9094aa50" y="423.329289615"/>
      </g>
     </g>
     <g id="line2d_8">
      <g>
       <use style="stroke:#000000;stroke-width:0.5;" x="194.81743462" xlink:href="#m5d62b3f1b4" y="18.3263219105"/>
      </g>
     </g>
     <g id="text_4">
      <!-- $2.0$ -->
      <defs>
       <path d="M 1.59375 2.5 
L 1.59375 0 
C 20.296875 0 20.296875 0 23.90625 0 
C 27.5 0 27.5 0 46.796875 0 
C 46.59375 1.953125 46.59375 2.90625 46.59375 4.203125 
C 46.59375 5.4375 46.59375 6.359375 46.796875 8.421875 
C 35.296875 8.421875 30.703125 8.421875 12.203125 8.421875 
L 30.40625 27.515625 
C 40.09375 37.71875 43.09375 43.171875 43.09375 50.59375 
C 43.09375 61.96875 35.296875 69 22.59375 69 
C 15.40625 69 10.5 67 5.59375 62.015625 
L 3.90625 48.421875 
L 6.796875 48.421875 
L 8.09375 53.015625 
C 9.703125 58.796875 13.296875 61.296875 20 61.296875 
C 28.59375 61.296875 34.09375 55.890625 34.09375 47.421875 
C 34.09375 39.921875 29.90625 32.546875 18.59375 20.5625 
z
" id="URW_Palladio_L_Roman-50"/>
      </defs>
      <g transform="translate(187.345454545 435.883165339)scale(0.12 -0.12)">
       <use transform="scale(0.996264009963)" xlink:href="#URW_Palladio_L_Roman-50"/>
       <use transform="translate(49.8132004981 0.0)scale(0.996264009963)" xlink:href="#URW_Palladio_L_Roman-46"/>
       <use transform="translate(74.7198007472 0.0)scale(0.996264009963)" xlink:href="#URW_Palladio_L_Roman-48"/>
      </g>
     </g>
    </g>
    <g id="xtick_5">
     <g id="line2d_9">
      <g>
       <use style="stroke:#000000;stroke-width:0.5;" x="250.516695724" xlink:href="#mfc9094aa50" y="423.329289615"/>
      </g>
     </g>
     <g id="line2d_10">
      <g>
       <use style="stroke:#000000;stroke-width:0.5;" x="250.516695724" xlink:href="#m5d62b3f1b4" y="18.3263219105"/>
      </g>
     </g>
     <g id="text_5">
      <!-- $2.5$ -->
      <g transform="translate(243.04471565 435.883165339)scale(0.12 -0.12)">
       <use transform="scale(0.996264009963)" xlink:href="#URW_Palladio_L_Roman-50"/>
       <use transform="translate(49.8132004981 0.0)scale(0.996264009963)" xlink:href="#URW_Palladio_L_Roman-46"/>
       <use transform="translate(74.7198007472 0.0)scale(0.996264009963)" xlink:href="#URW_Palladio_L_Roman-53"/>
      </g>
     </g>
    </g>
    <g id="xtick_6">
     <g id="line2d_11">
      <g>
       <use style="stroke:#000000;stroke-width:0.5;" x="306.215956829" xlink:href="#mfc9094aa50" y="423.329289615"/>
      </g>
     </g>
     <g id="line2d_12">
      <g>
       <use style="stroke:#000000;stroke-width:0.5;" x="306.215956829" xlink:href="#m5d62b3f1b4" y="18.3263219105"/>
      </g>
     </g>
     <g id="text_6">
      <!-- $3.0$ -->
      <defs>
       <path d="M 4.296875 49.953125 
L 7.40625 49.953125 
L 9.203125 55.53125 
C 10.296875 58.90625 16.59375 62.296875 21.796875 62.296875 
C 28.296875 62.296875 33.59375 57.015625 33.59375 50.75 
C 33.59375 43.28125 27.703125 37 20.59375 37 
C 19.796875 37 18.703125 37 17.40625 37.203125 
L 15.90625 37.203125 
L 14.703125 31.984375 
L 15.40625 31.375 
C 19.203125 33.09375 21.09375 33.59375 23.796875 33.59375 
C 32.09375 33.59375 36.90625 28.265625 36.90625 19.09375 
C 36.90625 8.84375 30.796875 2.109375 21.5 2.109375 
C 16.90625 2.109375 12.796875 3.609375 9.796875 6.421875 
C 7.40625 8.640625 6.09375 10.953125 4.203125 16.390625 
L 1.5 15.390625 
C 3.59375 9.265625 4.40625 5.640625 5 0.609375 
C 10.296875 -1.203125 14.703125 -2 18.40625 -2 
C 26.40625 -2 35.59375 2.515625 41.09375 9.265625 
C 44.5 13.390625 46.203125 17.8125 46.203125 22.53125 
C 46.203125 27.359375 44.203125 31.59375 40.59375 34.09375 
C 38.09375 35.90625 35.796875 36.71875 30.796875 37.609375 
C 38.796875 43.796875 41.796875 48.375 41.796875 54.25 
C 41.796875 63.125 34.40625 69 23.296875 69 
C 16.5 69 12 67.109375 7.203125 62.328125 
z
" id="URW_Palladio_L_Roman-51"/>
      </defs>
      <g transform="translate(298.743976754 435.883165339)scale(0.12 -0.12)">
       <use transform="scale(0.996264009963)" xlink:href="#URW_Palladio_L_Roman-51"/>
       <use transform="translate(49.8132004981 0.0)scale(0.996264009963)" xlink:href="#URW_Palladio_L_Roman-46"/>
       <use transform="translate(74.7198007472 0.0)scale(0.996264009963)" xlink:href="#URW_Palladio_L_Roman-48"/>
      </g>
     </g>
    </g>
    <g id="xtick_7">
     <g id="line2d_13">
      <g>
       <use style="stroke:#000000;stroke-width:0.5;" x="361.915217933" xlink:href="#mfc9094aa50" y="423.329289615"/>
      </g>
     </g>
     <g id="line2d_14">
      <g>
       <use style="stroke:#000000;stroke-width:0.5;" x="361.915217933" xlink:href="#m5d62b3f1b4" y="18.3263219105"/>
      </g>
     </g>
     <g id="text_7">
      <!-- $3.5$ -->
      <g transform="translate(354.443237858 435.883165339)scale(0.12 -0.12)">
       <use transform="scale(0.996264009963)" xlink:href="#URW_Palladio_L_Roman-51"/>
       <use transform="translate(49.8132004981 0.0)scale(0.996264009963)" xlink:href="#URW_Palladio_L_Roman-46"/>
       <use transform="translate(74.7198007472 0.0)scale(0.996264009963)" xlink:href="#URW_Palladio_L_Roman-53"/>
      </g>
     </g>
    </g>
    <g id="text_8">
     <!-- $H_{0,onAxis}/H_{0,offAxis}$ -->
     <defs>
      <path d="M 27.796875 48 
C 23.5 48 18.796875 46.296875 14.296875 43.140625 
C 6.203125 37.359375 1.703125 27.328125 1.703125 15.203125 
C 1.703125 4.65625 6.203125 -1 14.5 -1 
C 20 -1 26 1.59375 30.5 5.75 
C 36.703125 11.609375 41.09375 22.953125 41.09375 32.984375 
C 41.09375 42.34375 36.09375 48 27.796875 48 
M 24.09375 44.21875 
C 30.203125 44.21875 33.5 39.75 33.5 31.40625 
C 33.5 21.859375 30.40625 11.328125 26 6.0625 
C 24.203125 3.984375 21.59375 2.78125 18.5 2.78125 
C 12.703125 2.78125 9.296875 7.25 9.296875 15.09375 
C 9.296875 26.328125 13.203125 38.546875 18.09375 42.515625 
C 19.40625 43.609375 21.703125 44.21875 24.09375 44.21875 
" id="URW_Palladio_L_Italic-111"/>
      <path d="M 2.40625 38.609375 
L 3.09375 36.609375 
L 6.296875 38.703125 
C 10 41.015625 10.296875 41.203125 11 41.203125 
C 12.09375 41.203125 12.796875 40.21875 12.796875 38.71875 
C 12.796875 33.625 8.703125 14.359375 4.59375 0.09375 
L 5.296875 -1 
C 7.796875 -0.3125 10.09375 0.28125 12.296875 0.6875 
C 14.203125 13.265625 16.296875 19.75 20.90625 26.640625 
C 26.296875 35.015625 33.796875 41.203125 38.296875 41.203125 
C 39.40625 41.203125 40 40.3125 40 38.8125 
C 40 37.015625 39.703125 34.921875 38.90625 31.734375 
L 33.703125 10.578125 
C 32.796875 6.875 32.40625 4.59375 32.40625 3 
C 32.40625 0.484375 33.5 -1 35.40625 -1 
C 38 -1 41.59375 1.078125 51.40625 8.375 
L 50.40625 10.171875 
L 47.796875 8.484375 
C 44.90625 6.578125 42.703125 5.484375 41.703125 5.484375 
C 41 5.484375 40.40625 6.375 40.40625 7.46875 
C 40.40625 7.96875 40.5 9.078125 40.59375 9.484375 
L 47.203125 37.015625 
C 47.90625 39.921875 48.296875 42.703125 48.296875 44.390625 
C 48.296875 46.703125 47.203125 48 45.203125 48 
C 41 48 34.09375 44.21875 28.203125 38.71875 
C 24.40625 35.21875 21.59375 31.828125 16.40625 24.546875 
L 20.203125 40.609375 
C 20.59375 42.40625 20.796875 43.59375 20.796875 44.703125 
C 20.796875 46.796875 20 48 18.5 48 
C 16.40625 48 12.5 45.8125 5.203125 40.609375 
z
" id="URW_Palladio_L_Italic-110"/>
      <path d="M 2.09375 8.84375 
C 2.09375 6.84375 1.90625 5.578125 1.296875 2.390625 
C 1.09375 1.203125 1 0.90625 0.90625 0.203125 
C 2.40625 -0.609375 4 -1 5.203125 -1 
C 8.5 -1 12.40625 1.890625 15.5 6.546875 
L 23.09375 18.1875 
L 24.203125 11.328125 
C 25.5 2.875 27.796875 -1 31.40625 -1 
C 33.59375 -1 36.796875 0.6875 40 3.578125 
L 44.90625 7.953125 
L 44 9.84375 
C 40.40625 6.859375 37.90625 5.375 36.296875 5.375 
C 34.796875 5.375 33.5 6.375 32.5 8.34375 
C 31.59375 10.234375 30.5 13.90625 30 16.796875 
L 28.203125 26.8125 
L 31.703125 31.6875 
C 36.40625 38.140625 39.09375 40.421875 42.203125 40.421875 
C 43.796875 40.421875 45 39.625 45.5 38.140625 
L 46.90625 38.53125 
L 48.40625 47 
C 47.203125 47.703125 46.296875 48 45.40625 48 
C 41.40625 48 37.40625 44.40625 31.203125 35.265625 
L 27.5 29.796875 
L 26.90625 34.5625 
C 25.703125 44.40625 23 48 17.09375 48 
C 14.5 48 12.296875 47.203125 11.40625 45.90625 
L 5.59375 37.640625 
L 7.296875 36.65625 
C 10.296875 40.03125 12.296875 41.421875 14.203125 41.421875 
C 17.5 41.421875 19.703125 37.359375 21.40625 27.609375 
L 22.5 21.453125 
L 18.5 15.265625 
C 14.203125 8.578125 10.796875 5.375 8 5.375 
C 6.5 5.375 5.40625 5.796875 5.203125 6.296875 
L 4.09375 9.140625 
z
" id="URW_Palladio_L_Italic-120"/>
      <path d="M 46.203125 70.5 
L 8.90625 11.375 
C 5.296875 5.78125 3.5 4.1875 0.09375 3.390625 
L -1.90625 2.890625 
L -1.90625 0 
C 7.296875 0 7.296875 0 9.296875 0 
C 11.203125 0 11.40625 0 20 0 
L 20 2.890625 
L 14.796875 2.890625 
C 13.203125 2.890625 11.703125 3.890625 11.703125 4.90625 
C 11.703125 5.703125 12.40625 7.109375 14.296875 10.421875 
L 24.5 28 
L 49.09375 28 
L 51.59375 9.046875 
L 51.59375 8.75 
C 51.59375 8.65625 51.703125 8.34375 51.796875 7.84375 
C 51.90625 7.03125 52 6.015625 52 5.625 
C 52 4.015625 50.5 3.09375 47.703125 2.890625 
L 43.296875 2.890625 
L 43.296875 0 
C 53.5 0 53.5 0 55.5 0 
C 57.5 0 57.5 0 67.703125 0 
L 67.703125 2.6875 
L 65.09375 2.984375 
C 60.40625 3.6875 60.296875 3.6875 59.5 8.171875 
L 50.796875 70.5 
z
M 44.90625 60.265625 
L 48.59375 31.59375 
L 27 31.59375 
z
" id="URW_Palladio_L_Italic-65"/>
      <path d="M 22.09375 38.390625 
L 26.296875 61.125 
C 27 65.015625 27.703125 65.609375 31.40625 65.921875 
L 35.59375 66.21875 
L 35.90625 69 
L 33.5 69 
L 24.5 69 
C 22.90625 69 21.09375 69 16.796875 69 
L 10.40625 69 
L 10.09375 66.21875 
L 14.796875 66.21875 
C 17.203125 66.21875 18.296875 65.421875 18.296875 63.625 
C 18.296875 62.234375 17.90625 59.125 17.40625 56.046875 
L 10 12.765625 
C 8.296875 3.578125 8.203125 3.484375 4.203125 3.078125 
L 0.09375 2.78125 
L -0.296875 0 
L 3.90625 0 
C 8.703125 0 11 0 12.90625 0 
L 22.59375 0 
L 25.203125 0 
L 25.5 2.796875 
L 20.59375 2.796875 
C 17.90625 3 17 3.703125 17 5.8125 
C 17 6.703125 17.09375 7.40625 17.40625 9.3125 
L 21.59375 34 
L 27.703125 34 
C 33.90625 34 38.09375 34 40 34 
C 41.90625 34 46 34 52.296875 34 
L 58.40625 34 
L 54.40625 12.5 
C 53.5 7.59375 52.796875 4.8125 52.296875 4.203125 
C 51.90625 3.40625 50.796875 3 48.59375 2.796875 
L 43.59375 2.796875 
L 43.203125 0 
L 48.796875 0 
C 53.203125 0 56.203125 0 57.296875 0 
C 58.90625 0 62 0 66.296875 0 
L 70.5 0 
L 70.796875 2.796875 
L 65 2.796875 
C 62.40625 2.796875 61.40625 3.59375 61.40625 5.703125 
C 61.40625 6.59375 61.5 7.484375 61.796875 9.1875 
L 71 61.125 
C 71.703125 65 72.296875 65.5 76.09375 65.90625 
L 79.703125 66.203125 
L 80 69 
L 78.40625 69 
L 69.296875 69 
C 67.796875 69 65.703125 69 61.296875 69 
L 55 69 
L 54.703125 66.21875 
L 59.5 66.21875 
C 61.90625 66.21875 63 65.40625 63 63.59375 
C 63 62.1875 62.59375 58.953125 62.09375 55.9375 
L 59.09375 38.390625 
z
" id="URW_Palladio_L_Italic-72"/>
      <path d="M 51.90625 72.5 
L 45.90625 72.5 
L 8.703125 -12 
L 14.703125 -12 
z
" id="URW_Palladio_L_Roman-47"/>
      <path d="M 3.09375 14.796875 
C 2.59375 9.734375 2 6.25 0.90625 1.6875 
C 4.703125 -0.109375 8.09375 -1 11.59375 -1 
C 16.5 -1 21.09375 0.796875 26.203125 4.765625 
C 31.296875 8.734375 33.40625 12.40625 33.40625 17.390625 
C 33.40625 22.75 30.203125 25.625 22.796875 27.015625 
L 18.5 27.8125 
C 12.5 28.90625 10.59375 30.609375 10.59375 34.671875 
C 10.59375 39.953125 15.09375 44.015625 20.796875 44.015625 
C 24.90625 44.015625 28.703125 42.21875 30.296875 39.546875 
L 30.296875 34.078125 
L 32.59375 34.078125 
C 33 37.5625 33.40625 40.234375 34.5 45.3125 
C 30.59375 47.203125 27.796875 48 24.5 48 
C 19.296875 48 13.203125 45.015625 8.40625 40.25 
C 5.796875 37.5625 4.703125 35.078125 4.703125 31.5 
C 4.703125 25.9375 7.796875 22.75 14.40625 21.46875 
L 20.703125 20.28125 
C 25.09375 19.484375 26.703125 17.6875 26.703125 13.8125 
C 26.703125 7.34375 22.09375 2.984375 15 2.984375 
C 11.5 2.984375 8.40625 4.078125 5.59375 6.453125 
L 5.59375 14.796875 
z
" id="URW_Palladio_L_Italic-115"/>
      <path d="M 20.40625 12.328125 
C 17.703125 11.421875 15.90625 10.828125 10.59375 9.3125 
C 9.90625 1.703125 7.40625 -4.8125 1.59375 -14.421875 
L 3 -15.53125 
L 7.09375 -13.625 
C 15.203125 -3.109375 19 3.203125 21.796875 10.921875 
z
" id="URW_Palladio_L_Roman-44"/>
      <path d="M 3.40625 38.609375 
L 4.09375 36.609375 
L 7.296875 38.703125 
C 11 41.015625 11.296875 41.203125 12 41.203125 
C 13 41.203125 13.796875 40.21875 13.796875 38.90625 
C 13.796875 38.203125 13.40625 35.921875 13 34.5 
L 6.40625 10.5625 
C 5.59375 7.46875 5.09375 4.78125 5.09375 2.875 
C 5.09375 0.484375 6.203125 -1 8.09375 -1 
C 10.703125 -1 14.296875 1.078125 24.09375 8.375 
L 23.09375 10.171875 
L 20.5 8.484375 
C 17.59375 6.578125 15.296875 5.484375 14.40625 5.484375 
C 13.703125 5.484375 13.09375 6.484375 13.09375 7.46875 
C 13.09375 8.46875 13.296875 9.375 13.796875 11.46875 
L 21.5 41.8125 
C 21.90625 43.5 22.09375 44.609375 22.09375 45.40625 
C 22.09375 47.09375 21.203125 48 19.59375 48 
C 17.40625 48 13.703125 45.90625 6.203125 40.609375 
z
M 22.796875 70.765625 
C 19.90625 70.765625 17 67.46875 17 64.09375 
C 17 61.59375 18.5 60 20.90625 60 
C 24 60 26.40625 62.890625 26.40625 66.671875 
C 26.40625 69.0625 24.90625 70.765625 22.796875 70.765625 
" id="URW_Palladio_L_Italic-105"/>
      <path d="M 28.59375 38.625 
C 29 40.515625 29.703125 42.8125 30.296875 44.203125 
L 29.90625 44.890625 
L 29.203125 44.703125 
C 26.796875 44.09375 25.703125 44 20.796875 44 
L 19.203125 44 
L 21.296875 55.15625 
C 22.90625 63.71875 25.703125 67.5 30.296875 67.5 
C 33.296875 67.5 36 66 37.5 63.609375 
L 38.5 64 
C 39 65.59375 40 68.703125 40.796875 70.703125 
L 41.296875 72.203125 
C 39.703125 72.90625 36.59375 73.5 34.296875 73.5 
C 33.203125 73.5 31.59375 73.203125 30.796875 72.8125 
C 28.40625 71.71875 20.203125 65.640625 17.90625 63.234375 
C 15.703125 61.046875 14.5 58.0625 13.40625 52.375 
L 11.90625 44.5 
C 7.796875 42.5 5.796875 41.703125 3.296875 40.8125 
L 2.796875 38.625 
L 10.90625 38.625 
L 10 33.046875 
C 7 13.625 3.296875 -4.890625 1.09375 -11.765625 
C -0.703125 -17.640625 -3.703125 -20.71875 -7.296875 -20.71875 
C -9.59375 -20.71875 -10.703125 -20.03125 -12.5 -17.828125 
L -13.90625 -18.21875 
C -14.296875 -20.515625 -15.703125 -25.3125 -16.203125 -26.203125 
C -15.296875 -26.703125 -13.796875 -27 -12.703125 -27 
C -8.59375 -27 -3.203125 -23.90625 0.703125 -19.234375 
C 6.796875 -12.0625 9 -5.09375 16.296875 29.859375 
C 16.59375 31.0625 17.40625 34.84375 18.203125 38.625 
z
" id="URW_Palladio_L_Italic-102"/>
     </defs>
     <g transform="translate(144.238178304 454.192128189)scale(0.12 -0.12)">
      <use transform="translate(0.0 20.8493661465)scale(0.996264009963)" xlink:href="#URW_Palladio_L_Italic-72"/>
      <use transform="translate(76.264013003 1.24928247587)scale(0.75715517493)" xlink:href="#URW_Palladio_L_Roman-48"/>
      <use transform="translate(114.121771749 1.24928247587)scale(0.75715517493)" xlink:href="#URW_Palladio_L_Roman-44"/>
      <use transform="translate(133.997068488 1.24928247587)scale(0.75715517493)" xlink:href="#URW_Palladio_L_Italic-111"/>
      <use transform="translate(170.264796807 1.24928247587)scale(0.75715517493)" xlink:href="#URW_Palladio_L_Italic-110"/>
      <use transform="translate(218.041323309 1.24928247587)scale(0.75715517493)" xlink:href="#URW_Palladio_L_Italic-65"/>
      <use transform="translate(275.887966512 1.24928247587)scale(0.75715517493)" xlink:href="#URW_Palladio_L_Italic-120"/>
      <use transform="translate(315.865020942 1.24928247587)scale(0.75715517493)" xlink:href="#URW_Palladio_L_Italic-105"/>
      <use transform="translate(339.336040872 1.24928247587)scale(0.75715517493)" xlink:href="#URW_Palladio_L_Italic-115"/>
      <use transform="translate(371.479236798 20.8493661465)scale(0.996264009963)" xlink:href="#URW_Palladio_L_Roman-47"/>
      <use transform="translate(438.12926258 20.8493661465)scale(0.996264009963)" xlink:href="#URW_Palladio_L_Italic-72"/>
      <use transform="translate(514.393275583 0.0)scale(0.75715517493)" xlink:href="#URW_Palladio_L_Roman-48"/>
      <use transform="translate(552.251034329 0.0)scale(0.75715517493)" xlink:href="#URW_Palladio_L_Roman-44"/>
      <use transform="translate(572.126331068 0.0)scale(0.75715517493)" xlink:href="#URW_Palladio_L_Italic-111"/>
      <use transform="translate(618.237091863 0.0)scale(0.75715517493)" xlink:href="#URW_Palladio_L_Italic-102"/>
      <use transform="translate(659.880626484 0.0)scale(0.75715517493)" xlink:href="#URW_Palladio_L_Italic-102"/>
      <use transform="translate(696.829774697 0.0)scale(0.75715517493)" xlink:href="#URW_Palladio_L_Italic-65"/>
      <use transform="translate(754.676417901 0.0)scale(0.75715517493)" xlink:href="#URW_Palladio_L_Italic-120"/>
      <use transform="translate(794.65347233 0.0)scale(0.75715517493)" xlink:href="#URW_Palladio_L_Italic-105"/>
      <use transform="translate(818.12449226 0.0)scale(0.75715517493)" xlink:href="#URW_Palladio_L_Italic-115"/>
     </g>
    </g>
   </g>
   <g id="matplotlib.axis_2">
    <g id="ytick_1">
     <g id="line2d_15">
      <defs>
       <path d="M 0 0 
L 4 0 
" id="mf024163659" style="stroke:#000000;stroke-width:0.5;"/>
      </defs>
      <g>
       <use style="stroke:#000000;stroke-width:0.5;" x="27.7196513076" xlink:href="#mf024163659" y="423.329289615"/>
      </g>
     </g>
     <g id="line2d_16">
      <defs>
       <path d="M 0 0 
L -4 0 
" id="m945ca50826" style="stroke:#000000;stroke-width:0.5;"/>
      </defs>
      <g>
       <use style="stroke:#000000;stroke-width:0.5;" x="361.915217933" xlink:href="#m945ca50826" y="423.329289615"/>
      </g>
     </g>
     <g id="text_9">
      <!-- $0$ -->
      <g transform="translate(17.7420672478 425.920585439)scale(0.12 -0.12)">
       <use transform="scale(0.996264009963)" xlink:href="#URW_Palladio_L_Roman-48"/>
      </g>
     </g>
    </g>
    <g id="ytick_2">
     <g id="line2d_17">
      <g>
       <use style="stroke:#000000;stroke-width:0.5;" x="27.7196513076" xlink:href="#mf024163659" y="342.328696074"/>
      </g>
     </g>
     <g id="line2d_18">
      <g>
       <use style="stroke:#000000;stroke-width:0.5;" x="361.915217933" xlink:href="#m945ca50826" y="342.328696074"/>
      </g>
     </g>
     <g id="text_10">
      <!-- $10$ -->
      <g transform="translate(11.764483188 344.919991898)scale(0.12 -0.12)">
       <use transform="scale(0.996264009963)" xlink:href="#URW_Palladio_L_Roman-49"/>
       <use transform="translate(49.8132004981 0.0)scale(0.996264009963)" xlink:href="#URW_Palladio_L_Roman-48"/>
      </g>
     </g>
    </g>
    <g id="ytick_3">
     <g id="line2d_19">
      <g>
       <use style="stroke:#000000;stroke-width:0.5;" x="27.7196513076" xlink:href="#mf024163659" y="261.328102533"/>
      </g>
     </g>
     <g id="line2d_20">
      <g>
       <use style="stroke:#000000;stroke-width:0.5;" x="361.915217933" xlink:href="#m945ca50826" y="261.328102533"/>
      </g>
     </g>
     <g id="text_11">
      <!-- $20$ -->
      <g transform="translate(11.764483188 263.919398357)scale(0.12 -0.12)">
       <use transform="scale(0.996264009963)" xlink:href="#URW_Palladio_L_Roman-50"/>
       <use transform="translate(49.8132004981 0.0)scale(0.996264009963)" xlink:href="#URW_Palladio_L_Roman-48"/>
      </g>
     </g>
    </g>
    <g id="ytick_4">
     <g id="line2d_21">
      <g>
       <use style="stroke:#000000;stroke-width:0.5;" x="27.7196513076" xlink:href="#mf024163659" y="180.327508992"/>
      </g>
     </g>
     <g id="line2d_22">
      <g>
       <use style="stroke:#000000;stroke-width:0.5;" x="361.915217933" xlink:href="#m945ca50826" y="180.327508992"/>
      </g>
     </g>
     <g id="text_12">
      <!-- $30$ -->
      <g transform="translate(11.764483188 182.918804816)scale(0.12 -0.12)">
       <use transform="scale(0.996264009963)" xlink:href="#URW_Palladio_L_Roman-51"/>
       <use transform="translate(49.8132004981 0.0)scale(0.996264009963)" xlink:href="#URW_Palladio_L_Roman-48"/>
      </g>
     </g>
    </g>
    <g id="ytick_5">
     <g id="line2d_23">
      <g>
       <use style="stroke:#000000;stroke-width:0.5;" x="27.7196513076" xlink:href="#mf024163659" y="99.3269154513"/>
      </g>
     </g>
     <g id="line2d_24">
      <g>
       <use style="stroke:#000000;stroke-width:0.5;" x="361.915217933" xlink:href="#m945ca50826" y="99.3269154513"/>
      </g>
     </g>
     <g id="text_13">
      <!-- $40$ -->
      <defs>
       <path d="M 28 18 
L 28 10.515625 
C 28 4.515625 26.90625 3.109375 22 3.109375 
L 15.796875 3.109375 
L 15.796875 0 
C 29.09375 0 29.09375 0 31.5 0 
C 33.90625 0 33.90625 0 47.203125 0 
L 47.203125 3.109375 
L 42.40625 3.109375 
C 37.5 3.109375 36.40625 4.40625 36.40625 10.453125 
L 36.40625 18 
C 42.296875 18 44.40625 18 47.203125 17.703125 
L 47.203125 24.8125 
C 42.5 24.421875 40.59375 24.421875 39.09375 24.421875 
L 38.796875 24.421875 
L 36.40625 24.421875 
L 36.40625 38.390625 
C 36.40625 56.25 36.59375 64.875 37.09375 69 
L 35.90625 69.5 
L 28.5 66.796875 
L 0.203125 20.296875 
L 1.296875 18 
z
M 28 24.421875 
L 6.5 24.421875 
L 28 59.78125 
z
" id="URW_Palladio_L_Roman-52"/>
      </defs>
      <g transform="translate(11.764483188 101.918211276)scale(0.12 -0.12)">
       <use transform="scale(0.996264009963)" xlink:href="#URW_Palladio_L_Roman-52"/>
       <use transform="translate(49.8132004981 0.0)scale(0.996264009963)" xlink:href="#URW_Palladio_L_Roman-48"/>
      </g>
     </g>
    </g>
    <g id="ytick_6">
     <g id="line2d_25">
      <g>
       <use style="stroke:#000000;stroke-width:0.5;" x="27.7196513076" xlink:href="#mf024163659" y="18.3263219105"/>
      </g>
     </g>
     <g id="line2d_26">
      <g>
       <use style="stroke:#000000;stroke-width:0.5;" x="361.915217933" xlink:href="#m945ca50826" y="18.3263219105"/>
      </g>
     </g>
     <g id="text_14">
      <!-- $50$ -->
      <g transform="translate(11.764483188 20.9176177348)scale(0.12 -0.12)">
       <use transform="scale(0.996264009963)" xlink:href="#URW_Palladio_L_Roman-53"/>
       <use transform="translate(49.8132004981 0.0)scale(0.996264009963)" xlink:href="#URW_Palladio_L_Roman-48"/>
      </g>
     </g>
    </g>
   </g>
  </g>
 </g>
 <defs>
  <clipPath id="p5c211e9684">
   <rect height="405.002967704" width="334.195566625" x="27.7196513076" y="18.3263219105"/>
  </clipPath>
 </defs>
</svg>
