<?xml version="1.0" encoding="utf-8" standalone="no"?>
<!DOCTYPE svg PUBLIC "-//W3C//DTD SVG 1.1//EN"
  "http://www.w3.org/Graphics/SVG/1.1/DTD/svg11.dtd">
<!-- Created with matplotlib (http://matplotlib.org/) -->
<svg height="576pt" version="1.1" viewBox="0 0 288 576" width="288pt" xmlns="http://www.w3.org/2000/svg" xmlns:xlink="http://www.w3.org/1999/xlink">
 <defs>
  <style type="text/css">
*{stroke-linecap:butt;stroke-linejoin:round;stroke-miterlimit:100000;}
  </style>
 </defs>
 <g id="figure_1">
  <g id="patch_1">
   <path d="M 0 576 
L 288 576 
L 288 0 
L 0 0 
z
" style="fill:#ffffff;"/>
  </g>
  <g id="axes_1">
   <g id="patch_2">
    <path d="M 27.64125 181.83 
L 264.239018 181.83 
L 264.239018 35.536471 
L 27.64125 35.536471 
z
" style="fill:#ffffff;"/>
   </g>
   <g id="PathCollection_1">
    <defs>
     <path d="M 0 1.118034 
C 0.296506 1.118034 0.580908 1.000231 0.790569 0.790569 
C 1.000231 0.580908 1.118034 0.296506 1.118034 0 
C 1.118034 -0.296506 1.000231 -0.580908 0.790569 -0.790569 
C 0.580908 -1.000231 0.296506 -1.118034 0 -1.118034 
C -0.296506 -1.118034 -0.580908 -1.000231 -0.790569 -0.790569 
C -1.000231 -0.580908 -1.118034 -0.296506 -1.118034 0 
C -1.118034 0.296506 -1.000231 0.580908 -0.790569 0.790569 
C -0.580908 1.000231 -0.296506 1.118034 0 1.118034 
z
" id="mf5b4fd1a7d" style="stroke:#000000;"/>
    </defs>
    <g clip-path="url(#pb110095d79)">
     <use style="stroke:#000000;" x="78.3862408217" xlink:href="#mf5b4fd1a7d" y="158.386821887"/>
     <use style="stroke:#000000;" x="77.9080056193" xlink:href="#mf5b4fd1a7d" y="160.461316202"/>
     <use style="stroke:#000000;" x="101.441496007" xlink:href="#mf5b4fd1a7d" y="161.262905381"/>
     <use style="stroke:#000000;" x="120.252146819" xlink:href="#mf5b4fd1a7d" y="121.207862031"/>
     <use style="stroke:#000000;" x="127.800312037" xlink:href="#mf5b4fd1a7d" y="144.741538275"/>
     <use style="stroke:#000000;" x="140.618273808" xlink:href="#mf5b4fd1a7d" y="119.968164022"/>
     <use style="stroke:#000000;" x="121.605758899" xlink:href="#mf5b4fd1a7d" y="126.440822736"/>
     <use style="stroke:#000000;" x="148.407378423" xlink:href="#mf5b4fd1a7d" y="122.737273786"/>
     <use style="stroke:#000000;" x="84.4495852207" xlink:href="#mf5b4fd1a7d" y="118.272218382"/>
     <use style="stroke:#000000;" x="149.685433807" xlink:href="#mf5b4fd1a7d" y="135.331611954"/>
     <use style="stroke:#000000;" x="150.769426088" xlink:href="#mf5b4fd1a7d" y="105.13048337"/>
     <use style="stroke:#000000;" x="134.729964176" xlink:href="#mf5b4fd1a7d" y="130.381166823"/>
     <use style="stroke:#000000;" x="145.62209845" xlink:href="#mf5b4fd1a7d" y="101.652137818"/>
     <use style="stroke:#000000;" x="143.008120394" xlink:href="#mf5b4fd1a7d" y="107.954796731"/>
     <use style="stroke:#000000;" x="173.278344776" xlink:href="#mf5b4fd1a7d" y="121.314712427"/>
     <use style="stroke:#000000;" x="158.265600925" xlink:href="#mf5b4fd1a7d" y="118.290565254"/>
     <use style="stroke:#000000;" x="168.354696917" xlink:href="#mf5b4fd1a7d" y="89.4967943821"/>
     <use style="stroke:#000000;" x="149.544613878" xlink:href="#mf5b4fd1a7d" y="115.422823647"/>
     <use style="stroke:#000000;" x="208.500849003" xlink:href="#mf5b4fd1a7d" y="120.670812676"/>
     <use style="stroke:#000000;" x="159.9984545" xlink:href="#mf5b4fd1a7d" y="99.2310831285"/>
     <use style="stroke:#000000;" x="204.806238815" xlink:href="#mf5b4fd1a7d" y="102.95801641"/>
     <use style="stroke:#000000;" x="176.64894447" xlink:href="#mf5b4fd1a7d" y="87.8561215287"/>
     <use style="stroke:#000000;" x="189.021450409" xlink:href="#mf5b4fd1a7d" y="117.801734479"/>
     <use style="stroke:#000000;" x="187.577858028" xlink:href="#mf5b4fd1a7d" y="102.025038642"/>
     <use style="stroke:#000000;" x="182.68441794" xlink:href="#mf5b4fd1a7d" y="122.92224286"/>
     <use style="stroke:#000000;" x="224.41038833" xlink:href="#mf5b4fd1a7d" y="72.3078504019"/>
     <use style="stroke:#000000;" x="217.678517135" xlink:href="#mf5b4fd1a7d" y="76.8361968733"/>
     <use style="stroke:#000000;" x="179.753696044" xlink:href="#mf5b4fd1a7d" y="98.1805665348"/>
     <use style="stroke:#000000;" x="224.418682701" xlink:href="#mf5b4fd1a7d" y="87.1604528498"/>
     <use style="stroke:#000000;" x="221.338660953" xlink:href="#mf5b4fd1a7d" y="93.4514070478"/>
    </g>
   </g>
   <g id="PathCollection_2">
    <defs>
     <path d="M -3.872983 3.872983 
L 3.872983 -3.872983 
M -3.872983 -3.872983 
L 3.872983 3.872983 
" id="me9200be44d" style="stroke:#ff0000;"/>
    </defs>
    <g clip-path="url(#pb110095d79)">
     <use style="fill:#ff0000;stroke:#ff0000;" x="158.365521847" xlink:href="#me9200be44d" y="114.661851285"/>
    </g>
   </g>
   <g id="patch_3">
    <path d="M 27.64125 35.536471 
L 264.239018 35.536471 
" style="fill:none;"/>
   </g>
   <g id="patch_4">
    <path d="M 264.239018 181.83 
L 264.239018 35.536471 
" style="fill:none;"/>
   </g>
   <g id="patch_5">
    <path d="M 27.64125 157.447745 
L 264.239018 157.447745 
" style="fill:none;stroke:#000000;stroke-linecap:square;stroke-linejoin:miter;"/>
   </g>
   <g id="patch_6">
    <path d="M 95.240612 181.83 
L 95.240612 35.536471 
" style="fill:none;stroke:#000000;stroke-linecap:square;stroke-linejoin:miter;"/>
   </g>
   <g id="matplotlib.axis_1">
    <g id="xtick_1">
     <g id="line2d_1">
      <defs>
       <path d="M 0 0 
L 0 -4 
" id="m28bec69923" style="stroke:#000000;stroke-width:0.5;"/>
      </defs>
      <g>
       <use style="stroke:#000000;stroke-width:0.5;" x="27.64125" xlink:href="#m28bec69923" y="157.447745098"/>
      </g>
     </g>
     <g id="text_1">
      <!-- -1.0 -->
      <defs>
       <path d="M 12.40625 11.625 
C 9.40625 11.625 6.703125 8.8125 6.703125 5.8125 
C 6.703125 2.796875 9.40625 0 12.296875 0 
C 15.5 0 18.296875 2.703125 18.296875 5.8125 
C 18.296875 8.8125 15.5 11.625 12.40625 11.625 
" id="URW_Palladio_L_Roman-46"/>
       <path d="M 28.203125 22 
L 31.203125 28.703125 
L 30.703125 29.203125 
L 4.40625 29.203125 
L 1.703125 22.5 
L 2.203125 22 
z
" id="URW_Palladio_L_Roman-45"/>
       <path d="M 26.296875 69 
C 10.796875 69 2.90625 56.6875 2.90625 32.453125 
C 2.90625 20.71875 5 10.625 8.5 5.71875 
C 12 0.796875 17.59375 -2 23.796875 -2 
C 38.90625 -2 46.5 11.015625 46.5 36.65625 
C 46.5 58.578125 40 69 26.296875 69 
M 24.5 65.5 
C 34.203125 65.5 38.09375 55.6875 38.09375 31.640625 
C 38.09375 10.328125 34.296875 1.5 25.09375 1.5 
C 15.40625 1.5 11.296875 11.625 11.296875 36.0625 
C 11.296875 57.1875 15 65.5 24.5 65.5 
" id="URW_Palladio_L_Roman-48"/>
       <path d="M 6.703125 56 
L 7.703125 56 
L 20.59375 61.8125 
C 20.703125 61.90625 20.796875 61.90625 20.90625 61.90625 
C 21.5 61.90625 21.703125 61.015625 21.703125 58.609375 
L 21.703125 9.578125 
C 21.703125 4.3125 20.59375 3.203125 15.203125 3.203125 
L 9.59375 3.203125 
L 9.59375 0 
C 25 0 25 0 26.09375 0 
C 27.40625 0 29.59375 0 33 0 
C 34.203125 0 37.703125 0 41.796875 0 
L 41.796875 3.203125 
L 36.59375 3.203125 
C 31.09375 3.203125 30.09375 4.3125 30.09375 9.5625 
L 30.09375 69.421875 
L 28.703125 69.921875 
C 22.203125 66.515625 15.09375 63.515625 6 60.3125 
z
" id="URW_Palladio_L_Roman-49"/>
      </defs>
      <g transform="translate(18.1787561415 170.001620823)scale(0.12 -0.12)">
       <use transform="scale(0.996264009963)" xlink:href="#URW_Palladio_L_Roman-45"/>
       <use transform="translate(33.1752297293 0.0)scale(0.996264009963)" xlink:href="#URW_Palladio_L_Roman-49"/>
       <use transform="translate(82.9884302275 0.0)scale(0.996264009963)" xlink:href="#URW_Palladio_L_Roman-46"/>
       <use transform="translate(107.895030477 0.0)scale(0.996264009963)" xlink:href="#URW_Palladio_L_Roman-48"/>
      </g>
     </g>
    </g>
    <g id="xtick_2">
     <g id="line2d_2">
      <g>
       <use style="stroke:#000000;stroke-width:0.5;" x="61.4409311567" xlink:href="#m28bec69923" y="157.447745098"/>
      </g>
     </g>
     <g id="text_2">
      <!-- -0.5 -->
      <defs>
       <path d="M 12.703125 60.578125 
C 25.59375 60.578125 31.203125 60.578125 43.203125 60.578125 
L 43.703125 61.046875 
C 43.5 62.75 43.5 63.5 43.5 64.75 
C 43.5 66.078125 43.5 66.828125 43.703125 68.53125 
L 43.203125 69 
C 35.703125 69 31.203125 69 25.796875 69 
C 20.296875 69 15.90625 69 8.40625 69 
L 7.90625 68.796875 
C 8 62.671875 8.09375 58.265625 8.09375 55.046875 
C 8.09375 46.515625 7.796875 36.875 7.5 32.453125 
L 9.5 31.84375 
C 14.203125 36.578125 16.90625 38 21.796875 38 
C 31.40625 38 37.40625 31.140625 37.40625 20.25 
C 37.40625 9.0625 31 2.5 20.09375 2.5 
C 14.703125 2.5 9.703125 4.328125 8.296875 6.9375 
L 3.703125 15.203125 
L 1.296875 13.796875 
C 3.59375 8.0625 4.796875 4.84375 6.203125 0.421875 
C 9 -1.109375 13 -2 17.296875 -2 
C 24 -2 31.09375 0.921875 36.59375 5.75 
C 42.703125 11.1875 45.90625 18.03125 45.90625 25.46875 
C 45.90625 36.859375 37.796875 44.90625 26.40625 44.90625 
C 21.59375 44.90625 18 43.609375 11.796875 39.90625 
z
" id="URW_Palladio_L_Roman-53"/>
      </defs>
      <g transform="translate(51.9784372982 170.001620823)scale(0.12 -0.12)">
       <use transform="scale(0.996264009963)" xlink:href="#URW_Palladio_L_Roman-45"/>
       <use transform="translate(33.1752297293 0.0)scale(0.996264009963)" xlink:href="#URW_Palladio_L_Roman-48"/>
       <use transform="translate(82.9884302275 0.0)scale(0.996264009963)" xlink:href="#URW_Palladio_L_Roman-46"/>
       <use transform="translate(107.895030477 0.0)scale(0.996264009963)" xlink:href="#URW_Palladio_L_Roman-53"/>
      </g>
     </g>
    </g>
    <g id="xtick_3">
     <g id="line2d_3">
      <g>
       <use style="stroke:#000000;stroke-width:0.5;" x="129.04029347" xlink:href="#m28bec69923" y="157.447745098"/>
      </g>
     </g>
     <g id="text_3">
      <!-- 0.5 -->
      <g transform="translate(121.568313395 170.001620823)scale(0.12 -0.12)">
       <use transform="scale(0.996264009963)" xlink:href="#URW_Palladio_L_Roman-48"/>
       <use transform="translate(49.8132004981 0.0)scale(0.996264009963)" xlink:href="#URW_Palladio_L_Roman-46"/>
       <use transform="translate(74.7198007472 0.0)scale(0.996264009963)" xlink:href="#URW_Palladio_L_Roman-53"/>
      </g>
     </g>
    </g>
    <g id="xtick_4">
     <g id="line2d_4">
      <g>
       <use style="stroke:#000000;stroke-width:0.5;" x="162.839974627" xlink:href="#m28bec69923" y="157.447745098"/>
      </g>
     </g>
     <g id="text_4">
      <!-- 1.0 -->
      <g transform="translate(155.367994552 170.001620823)scale(0.12 -0.12)">
       <use transform="scale(0.996264009963)" xlink:href="#URW_Palladio_L_Roman-49"/>
       <use transform="translate(49.8132004981 0.0)scale(0.996264009963)" xlink:href="#URW_Palladio_L_Roman-46"/>
       <use transform="translate(74.7198007472 0.0)scale(0.996264009963)" xlink:href="#URW_Palladio_L_Roman-48"/>
      </g>
     </g>
    </g>
    <g id="xtick_5">
     <g id="line2d_5">
      <g>
       <use style="stroke:#000000;stroke-width:0.5;" x="196.639655784" xlink:href="#m28bec69923" y="157.447745098"/>
      </g>
     </g>
     <g id="text_5">
      <!-- 1.5 -->
      <g transform="translate(189.167675709 170.001620823)scale(0.12 -0.12)">
       <use transform="scale(0.996264009963)" xlink:href="#URW_Palladio_L_Roman-49"/>
       <use transform="translate(49.8132004981 0.0)scale(0.996264009963)" xlink:href="#URW_Palladio_L_Roman-46"/>
       <use transform="translate(74.7198007472 0.0)scale(0.996264009963)" xlink:href="#URW_Palladio_L_Roman-53"/>
      </g>
     </g>
    </g>
    <g id="xtick_6">
     <g id="line2d_6">
      <g>
       <use style="stroke:#000000;stroke-width:0.5;" x="230.43933694" xlink:href="#m28bec69923" y="157.447745098"/>
      </g>
     </g>
     <g id="text_6">
      <!-- 2.0 -->
      <defs>
       <path d="M 1.59375 2.5 
L 1.59375 0 
C 20.296875 0 20.296875 0 23.90625 0 
C 27.5 0 27.5 0 46.796875 0 
C 46.59375 1.953125 46.59375 2.90625 46.59375 4.203125 
C 46.59375 5.4375 46.59375 6.359375 46.796875 8.421875 
C 35.296875 8.421875 30.703125 8.421875 12.203125 8.421875 
L 30.40625 27.515625 
C 40.09375 37.71875 43.09375 43.171875 43.09375 50.59375 
C 43.09375 61.96875 35.296875 69 22.59375 69 
C 15.40625 69 10.5 67 5.59375 62.015625 
L 3.90625 48.421875 
L 6.796875 48.421875 
L 8.09375 53.015625 
C 9.703125 58.796875 13.296875 61.296875 20 61.296875 
C 28.59375 61.296875 34.09375 55.890625 34.09375 47.421875 
C 34.09375 39.921875 29.90625 32.546875 18.59375 20.5625 
z
" id="URW_Palladio_L_Roman-50"/>
      </defs>
      <g transform="translate(222.967356866 170.001620823)scale(0.12 -0.12)">
       <use transform="scale(0.996264009963)" xlink:href="#URW_Palladio_L_Roman-50"/>
       <use transform="translate(49.8132004981 0.0)scale(0.996264009963)" xlink:href="#URW_Palladio_L_Roman-46"/>
       <use transform="translate(74.7198007472 0.0)scale(0.996264009963)" xlink:href="#URW_Palladio_L_Roman-48"/>
      </g>
     </g>
    </g>
    <g id="xtick_7">
     <g id="line2d_7">
      <g>
       <use style="stroke:#000000;stroke-width:0.5;" x="264.239018097" xlink:href="#m28bec69923" y="157.447745098"/>
      </g>
     </g>
     <g id="text_7">
      <!-- 2.5 -->
      <g transform="translate(256.767038022 170.001620823)scale(0.12 -0.12)">
       <use transform="scale(0.996264009963)" xlink:href="#URW_Palladio_L_Roman-50"/>
       <use transform="translate(49.8132004981 0.0)scale(0.996264009963)" xlink:href="#URW_Palladio_L_Roman-46"/>
       <use transform="translate(74.7198007472 0.0)scale(0.996264009963)" xlink:href="#URW_Palladio_L_Roman-53"/>
      </g>
     </g>
    </g>
    <g id="text_8">
     <!-- $x$ -->
     <defs>
      <path d="M 2.09375 8.84375 
C 2.09375 6.84375 1.90625 5.578125 1.296875 2.390625 
C 1.09375 1.203125 1 0.90625 0.90625 0.203125 
C 2.40625 -0.609375 4 -1 5.203125 -1 
C 8.5 -1 12.40625 1.890625 15.5 6.546875 
L 23.09375 18.1875 
L 24.203125 11.328125 
C 25.5 2.875 27.796875 -1 31.40625 -1 
C 33.59375 -1 36.796875 0.6875 40 3.578125 
L 44.90625 7.953125 
L 44 9.84375 
C 40.40625 6.859375 37.90625 5.375 36.296875 5.375 
C 34.796875 5.375 33.5 6.375 32.5 8.34375 
C 31.59375 10.234375 30.5 13.90625 30 16.796875 
L 28.203125 26.8125 
L 31.703125 31.6875 
C 36.40625 38.140625 39.09375 40.421875 42.203125 40.421875 
C 43.796875 40.421875 45 39.625 45.5 38.140625 
L 46.90625 38.53125 
L 48.40625 47 
C 47.203125 47.703125 46.296875 48 45.40625 48 
C 41.40625 48 37.40625 44.40625 31.203125 35.265625 
L 27.5 29.796875 
L 26.90625 34.5625 
C 25.703125 44.40625 23 48 17.09375 48 
C 14.5 48 12.296875 47.203125 11.40625 45.90625 
L 5.59375 37.640625 
L 7.296875 36.65625 
C 10.296875 40.03125 12.296875 41.421875 14.203125 41.421875 
C 17.5 41.421875 19.703125 37.359375 21.40625 27.609375 
L 22.5 21.453125 
L 18.5 15.265625 
C 14.203125 8.578125 10.796875 5.375 8 5.375 
C 6.5 5.375 5.40625 5.796875 5.203125 6.296875 
L 4.09375 9.140625 
z
" id="URW_Palladio_L_Italic-120"/>
     </defs>
     <g transform="translate(261.250226067 150.495816901)scale(0.12 -0.12)">
      <use transform="scale(0.996264009963)" xlink:href="#URW_Palladio_L_Italic-120"/>
     </g>
    </g>
   </g>
   <g id="matplotlib.axis_2">
    <g id="ytick_1">
     <g id="line2d_8">
      <defs>
       <path d="M 0 0 
L 4 0 
" id="m43be695cc2" style="stroke:#000000;stroke-width:0.5;"/>
      </defs>
      <g>
       <use style="stroke:#000000;stroke-width:0.5;" x="95.2406123134" xlink:href="#m43be695cc2" y="181.83"/>
      </g>
     </g>
     <g id="text_9">
      <!-- -0.5 -->
      <g transform="translate(72.3156245964 184.421295824)scale(0.12 -0.12)">
       <use transform="scale(0.996264009963)" xlink:href="#URW_Palladio_L_Roman-45"/>
       <use transform="translate(33.1752297293 0.0)scale(0.996264009963)" xlink:href="#URW_Palladio_L_Roman-48"/>
       <use transform="translate(82.9884302275 0.0)scale(0.996264009963)" xlink:href="#URW_Palladio_L_Roman-46"/>
       <use transform="translate(107.895030477 0.0)scale(0.996264009963)" xlink:href="#URW_Palladio_L_Roman-53"/>
      </g>
     </g>
    </g>
    <g id="ytick_2">
     <g id="line2d_9">
      <g>
       <use style="stroke:#000000;stroke-width:0.5;" x="95.2406123134" xlink:href="#m43be695cc2" y="133.065490196"/>
      </g>
     </g>
     <g id="text_10">
      <!-- 0.5 -->
      <g transform="translate(76.296652164 135.65678602)scale(0.12 -0.12)">
       <use transform="scale(0.996264009963)" xlink:href="#URW_Palladio_L_Roman-48"/>
       <use transform="translate(49.8132004981 0.0)scale(0.996264009963)" xlink:href="#URW_Palladio_L_Roman-46"/>
       <use transform="translate(74.7198007472 0.0)scale(0.996264009963)" xlink:href="#URW_Palladio_L_Roman-53"/>
      </g>
     </g>
    </g>
    <g id="ytick_3">
     <g id="line2d_10">
      <g>
       <use style="stroke:#000000;stroke-width:0.5;" x="95.2406123134" xlink:href="#m43be695cc2" y="108.683235294"/>
      </g>
     </g>
     <g id="text_11">
      <!-- 1.0 -->
      <g transform="translate(76.296652164 111.274531118)scale(0.12 -0.12)">
       <use transform="scale(0.996264009963)" xlink:href="#URW_Palladio_L_Roman-49"/>
       <use transform="translate(49.8132004981 0.0)scale(0.996264009963)" xlink:href="#URW_Palladio_L_Roman-46"/>
       <use transform="translate(74.7198007472 0.0)scale(0.996264009963)" xlink:href="#URW_Palladio_L_Roman-48"/>
      </g>
     </g>
    </g>
    <g id="ytick_4">
     <g id="line2d_11">
      <g>
       <use style="stroke:#000000;stroke-width:0.5;" x="95.2406123134" xlink:href="#m43be695cc2" y="84.3009803922"/>
      </g>
     </g>
     <g id="text_12">
      <!-- 1.5 -->
      <g transform="translate(76.296652164 86.8922762164)scale(0.12 -0.12)">
       <use transform="scale(0.996264009963)" xlink:href="#URW_Palladio_L_Roman-49"/>
       <use transform="translate(49.8132004981 0.0)scale(0.996264009963)" xlink:href="#URW_Palladio_L_Roman-46"/>
       <use transform="translate(74.7198007472 0.0)scale(0.996264009963)" xlink:href="#URW_Palladio_L_Roman-53"/>
      </g>
     </g>
    </g>
    <g id="ytick_5">
     <g id="line2d_12">
      <g>
       <use style="stroke:#000000;stroke-width:0.5;" x="95.2406123134" xlink:href="#m43be695cc2" y="59.9187254902"/>
      </g>
     </g>
     <g id="text_13">
      <!-- 2.0 -->
      <g transform="translate(76.296652164 62.5100213144)scale(0.12 -0.12)">
       <use transform="scale(0.996264009963)" xlink:href="#URW_Palladio_L_Roman-50"/>
       <use transform="translate(49.8132004981 0.0)scale(0.996264009963)" xlink:href="#URW_Palladio_L_Roman-46"/>
       <use transform="translate(74.7198007472 0.0)scale(0.996264009963)" xlink:href="#URW_Palladio_L_Roman-48"/>
      </g>
     </g>
    </g>
    <g id="ytick_6">
     <g id="line2d_13">
      <g>
       <use style="stroke:#000000;stroke-width:0.5;" x="95.2406123134" xlink:href="#m43be695cc2" y="35.5364705882"/>
      </g>
     </g>
     <g id="text_14">
      <!-- 2.5 -->
      <g transform="translate(76.296652164 38.1277664125)scale(0.12 -0.12)">
       <use transform="scale(0.996264009963)" xlink:href="#URW_Palladio_L_Roman-50"/>
       <use transform="translate(49.8132004981 0.0)scale(0.996264009963)" xlink:href="#URW_Palladio_L_Roman-46"/>
       <use transform="translate(74.7198007472 0.0)scale(0.996264009963)" xlink:href="#URW_Palladio_L_Roman-53"/>
      </g>
     </g>
    </g>
    <g id="text_15">
     <!-- $y$ -->
     <defs>
      <path d="M -0.703125 -17.546875 
C -0.796875 -18.234375 -0.796875 -18.828125 -0.796875 -19.328125 
C -0.796875 -23.5625 2.90625 -27 7.40625 -27 
C 18 -27 29 -14.734375 34.90625 3.5625 
L 49 47.09375 
L 47.90625 48 
C 45 46.90625 42.703125 46.296875 40.5 46.109375 
L 37 32.984375 
C 35.796875 28.3125 32.296875 21.0625 29 16.1875 
C 25.5 11.109375 20.59375 6.75 18.40625 6.75 
C 17.203125 6.75 16.296875 9.046875 16.40625 11.515625 
L 16.5 12.8125 
L 18 32.09375 
C 18.203125 35.1875 18.40625 38.953125 18.40625 41.734375 
C 18.40625 46.203125 17.703125 48 16 48 
C 14.703125 48 13.296875 47.296875 8.5 44.015625 
L 0.296875 38.453125 
L 1.40625 36.671875 
L 6.40625 39.640625 
L 6.796875 39.953125 
C 7.796875 40.546875 8.5 40.84375 8.90625 40.84375 
C 10.296875 40.84375 11.09375 38.953125 11.09375 35.6875 
C 11.09375 35.578125 11.09375 34.984375 11 34.1875 
L 9.296875 10.03125 
L 9.203125 6.046875 
C 9.203125 1.890625 11 -1 13.5 -1 
C 17.203125 -1 25.59375 7.453125 33.09375 18.671875 
L 28.203125 1.8125 
C 23.09375 -15.625 18.09375 -22.8125 11.09375 -22.8125 
C 7.59375 -22.8125 4.90625 -20.171875 4.90625 -16.75 
C 4.90625 -16.25 5 -15.46875 5.09375 -14.59375 
L 4.09375 -14.1875 
z
" id="URW_Palladio_L_Italic-121"/>
     </defs>
     <g transform="translate(105.151660862 37.0416374923)scale(0.12 -0.12)">
      <use transform="scale(0.996264009963)" xlink:href="#URW_Palladio_L_Italic-121"/>
     </g>
    </g>
   </g>
   <g id="text_16">
    <!-- Original data -->
    <defs>
     <path d="M 2.296875 66.5 
L 7.90625 66.5 
C 9.703125 66.5 10.40625 65.390625 10.40625 62.375 
L 10.40625 10.171875 
C 10.40625 3.8125 10.09375 3.109375 6.703125 3.109375 
L 2.09375 3.109375 
L 2.09375 0 
C 12.09375 0 12.09375 0 14.59375 0 
C 17.09375 0 17.09375 0 27.09375 0 
L 27.09375 3.109375 
L 22.5 3.109375 
C 19.09375 3.109375 18.796875 3.8125 18.796875 10.15625 
L 18.796875 72.203125 
L 17.90625 73.015625 
C 13.5 71.3125 10.203125 70.5 2.296875 69.296875 
z
" id="URW_Palladio_L_Roman-108"/>
     <path d="M 41 -0.109375 
C 47.09375 -0.109375 47.203125 -0.109375 48.90625 -0.109375 
C 50.296875 -0.109375 50.296875 -0.109375 57.203125 -0.109375 
L 57.203125 2.796875 
L 53.09375 3.203125 
C 49.703125 3.203125 49.40625 3.8125 49.40625 10.21875 
L 49.40625 29.5625 
C 49.40625 41.28125 43.90625 47 32.703125 47 
C 29 47 26.90625 46.296875 24.796875 44.484375 
L 17.203125 37.875 
L 17.203125 46.59375 
L 16.296875 47 
C 11.203125 44.890625 6 43.484375 0.703125 42.890625 
L 0.703125 40.078125 
L 4.40625 40.078125 
C 8.40625 40.078125 8.796875 39.375 8.796875 32.71875 
L 8.796875 10.046875 
C 8.796875 3.703125 8.5 3 5.09375 3 
L 0.59375 3 
L 0.59375 -0.109375 
C 7.40625 -0.109375 10.09375 -0.109375 13 -0.109375 
C 15.90625 -0.109375 18.59375 -0.109375 25.40625 -0.109375 
L 25.40625 3 
L 20.90625 3 
C 17.5 3 17.203125 3.703125 17.203125 10.046875 
L 17.203125 31.421875 
C 17.203125 35.9375 23.796875 40.875 29.90625 40.875 
C 36.59375 40.875 41 35.890625 41 28.21875 
z
" id="URW_Palladio_L_Roman-110"/>
     <path d="M 41.203125 43.78125 
C 35.59375 46.1875 32.796875 47 29.296875 47 
C 26.59375 47 24.203125 46.390625 21.703125 45.109375 
L 12.90625 40.515625 
C 7.203125 37.515625 3.5 30.234375 3.5 21.75 
C 3.5 13.765625 6.203125 7.1875 11.09375 3.1875 
C 14.5 0.296875 19.203125 -1 25.703125 -1 
C 27.703125 -1 30 -0.59375 30.5 -0.203125 
L 41.59375 9.109375 
L 41.09375 -0.109375 
C 46 -0.109375 47.59375 -0.109375 48.796875 -0.109375 
C 49.59375 -0.109375 51 -0.109375 53.09375 -0.109375 
C 53.796875 -0.109375 55.796875 -0.109375 57.90625 -0.109375 
L 57.90625 3 
L 53.296875 3 
C 49.90625 3 49.59375 3.703125 49.59375 10.046875 
L 49.59375 71.984375 
L 48.703125 72.796875 
C 44.296875 71.09375 41 70.28125 33.09375 69.078125 
L 33.09375 66.28125 
L 38.703125 66.28125 
C 40.5 66.28125 41.203125 65.171875 41.203125 62.15625 
z
M 41.203125 22.25 
C 41.203125 15.765625 41 14.78125 39.703125 12.484375 
C 36.90625 7.796875 32 4.71875 27.296875 4.71875 
C 18.5 4.71875 12.203125 13.1875 12.203125 25.046875 
C 12.203125 35.90625 17.59375 42.28125 26.59375 42.28125 
C 30.40625 42.28125 34.40625 40.984375 37.90625 38.59375 
C 40 37.203125 41.203125 35.90625 41.203125 35.09375 
z
" id="URW_Palladio_L_Roman-100"/>
     <path d="M 2.296875 40.078125 
L 6 40.078125 
C 10 40.078125 10.40625 39.375 10.40625 32.71875 
L 10.40625 10.046875 
C 10.40625 3.703125 10.09375 3 6.703125 3 
L 2.09375 3 
L 2.09375 -0.109375 
C 9.296875 -0.109375 11.90625 -0.109375 14.40625 -0.109375 
C 16.40625 -0.109375 16.40625 -0.109375 28.703125 -0.109375 
L 28.703125 3 
L 23.5 3 
C 19 3 18.796875 3.296875 18.796875 9.96875 
L 18.796875 27.359375 
C 18.796875 33.421875 22.796875 38.484375 27.703125 38.484375 
C 30.703125 38.484375 32.796875 37.078125 34.40625 33.890625 
L 36.5 33.890625 
L 37.40625 45.890625 
C 36.296875 46.59375 34.5 47 32.703125 47 
C 29.703125 47 26.5 45.390625 24.40625 42.890625 
L 18.796875 36.28125 
L 18.796875 46.59375 
L 17.90625 47 
C 12.796875 44.890625 7.59375 43.484375 2.296875 42.890625 
z
" id="URW_Palladio_L_Roman-114"/>
     <path d="M 18.796875 46.765625 
L 17.90625 47.171875 
C 12.796875 45.0625 7.59375 43.640625 2.296875 43.046875 
L 2.296875 40.25 
L 6 40.25 
C 10 40.25 10.40625 39.546875 10.40625 32.890625 
L 10.40625 10.171875 
C 10.40625 3.8125 10.09375 3.109375 6.703125 3.109375 
L 2.09375 3.109375 
L 2.09375 0 
C 12.09375 0 12.09375 0 14.59375 0 
C 17.09375 0 17.09375 0 27.09375 0 
L 27.09375 3.109375 
L 22.5 3.109375 
C 19.09375 3.109375 18.796875 3.8125 18.796875 10.171875 
z
M 14.203125 69 
C 11.203125 69 8.59375 66.390625 8.59375 63.375 
C 8.59375 60.46875 11.203125 57.875 14.09375 57.875 
C 17 57.875 19.703125 60.46875 19.703125 63.375 
C 19.703125 66.1875 17 69 14.203125 69 
" id="URW_Palladio_L_Roman-105"/>
     <path d="M 40.203125 71 
C 17.40625 71 2.203125 56.1875 2.203125 34.15625 
C 2.203125 13.109375 16.796875 -2 37 -2 
C 59.40625 -2 76.40625 14.71875 76.40625 36.734375 
C 76.40625 57.78125 62.40625 71 40.203125 71 
M 38.5 66.78125 
C 55.59375 66.78125 65.703125 54.578125 65.703125 33.75 
C 65.703125 13.90625 56.5 2.203125 41 2.203125 
C 24.203125 2.203125 12.90625 16.421875 12.90625 37.84375 
C 12.90625 56.359375 22.09375 66.78125 38.5 66.78125 
" id="URW_Palladio_L_Roman-79"/>
     <path d="M 51.90625 38 
L 54.40625 42.109375 
L 54 43.109375 
L 39.796875 43.109375 
C 36.09375 45.890625 32.5 47 27.59375 47 
C 23.203125 47 18.09375 45.625 14 43.25 
C 8.40625 40.109375 5.5 35.28125 5.5 29.28125 
C 5.5 22 10.09375 16.984375 17.5 16.1875 
L 9.59375 10 
C 8.59375 8.484375 8.09375 7.171875 8.09375 5.640625 
C 8.09375 2.8125 9.90625 1.1875 14.703125 -0.21875 
L 6 -4.9375 
C 4.59375 -5.734375 3.203125 -9.4375 3.203125 -12.546875 
C 3.203125 -21.6875 12.09375 -28 24.796875 -28 
C 39.90625 -28 51.796875 -18.46875 51.796875 -6.234375 
C 51.796875 0.984375 47 6 40 6 
L 24 6 
C 18.796875 6 16.40625 7.21875 16.40625 9.984375 
C 16.40625 11.3125 17.203125 12.421875 19.796875 14.671875 
C 20.40625 15.1875 20.59375 15.390625 21 15.796875 
C 22 15.6875 22.59375 15.59375 23.40625 15.59375 
C 27.703125 15.59375 33 17.46875 37.09375 20.3125 
C 41.59375 23.546875 43.796875 27.484375 43.796875 32.703125 
C 43.796875 34.65625 43.5 35.9375 42.703125 38 
z
M 24 43.59375 
C 30.796875 43.59375 35.40625 38.09375 35.40625 29.765625 
C 35.40625 23.421875 31.203125 19 25.09375 19 
C 18.40625 19 13.90625 24.09375 13.90625 31.640625 
C 13.90625 39.171875 17.59375 43.59375 24 43.59375 
M 28.703125 -1.015625 
C 40 -1.015625 43.90625 -3.3125 43.90625 -9.84375 
C 43.90625 -18.46875 36 -24.890625 25.5 -24.890625 
C 16.796875 -24.890625 10.796875 -19.78125 10.796875 -12.34375 
C 10.796875 -7.84375 13.40625 -3.71875 17.40625 -2.015625 
C 19 -1.21875 21.796875 -1.015625 28.703125 -1.015625 
" id="URW_Palladio_L_Roman-103"/>
     <path d="M 9.796875 38.6875 
L 9.796875 9.671875 
C 9.796875 2.21875 13.09375 -1 20.796875 -1 
C 23.09375 -1 25.5 -0.5 26.09375 0.203125 
L 30.90625 5.515625 
L 29.59375 7.234375 
C 27.09375 5.8125 25.59375 5.3125 23.703125 5.3125 
C 19.796875 5.3125 18.203125 7.34375 18.203125 12.3125 
L 18.203125 38.890625 
L 31 38.890625 
L 31.90625 44 
L 18.203125 44 
L 18.203125 47.75 
C 18.203125 51.890625 18.5 55.421875 19.296875 61.734375 
L 18.09375 62.828125 
C 15.703125 61.328125 12.703125 60.03125 9.59375 59.03125 
C 9.90625 56.015625 10 54.109375 10 51.109375 
L 10 44.09375 
L 2.203125 40.59375 
L 2.203125 38.6875 
z
" id="URW_Palladio_L_Roman-116"/>
     <path d="M 32.40625 8.40625 
L 31.90625 -0.015625 
C 38.40625 -0.015625 38.40625 -0.015625 39.703125 -0.015625 
C 40.203125 -0.015625 42.703125 -0.015625 47.09375 -0.015625 
L 47.09375 3 
L 43.203125 3 
C 40.796875 3 40.40625 3.8125 40.40625 8.71875 
L 40.40625 27.046875 
C 40.40625 41.6875 36.203125 47 24.59375 47 
C 20.296875 47 16.296875 45.890625 12.5 43.609375 
L 7.203125 40.390625 
L 7.203125 33.921875 
L 9.796875 33.21875 
L 11.09375 36.296875 
C 13.203125 40.984375 14.203125 41.6875 18.796875 41.6875 
C 28.203125 41.6875 32.09375 37.984375 32.40625 28.9375 
L 22.5 27.125 
C 8.90625 24.640625 3.203125 19.953125 3.203125 11.28125 
C 3.203125 3.5 7.90625 -1 15.796875 -1 
C 17.59375 -1 19.296875 -0.703125 20 -0.203125 
z
M 32.40625 12.59375 
C 29.5 8.5 23.203125 4.71875 19.296875 4.71875 
C 15.296875 4.71875 11.796875 8.40625 11.796875 12.6875 
C 11.796875 16.375 13.796875 19.859375 16.796875 21.75 
C 19.296875 23.25 24.796875 24.640625 32.40625 25.75 
z
" id="URW_Palladio_L_Roman-97"/>
    </defs>
    <g transform="translate(103.769933677 23.2217941176)scale(0.144 -0.144)">
     <use transform="scale(0.996264009963)" xlink:href="#URW_Palladio_L_Roman-79"/>
     <use transform="translate(78.3062812549 0.0)scale(0.996264009963)" xlink:href="#URW_Palladio_L_Roman-114"/>
     <use transform="translate(117.658177586 0.0)scale(0.996264009963)" xlink:href="#URW_Palladio_L_Roman-105"/>
     <use transform="translate(146.648539048 0.0)scale(0.996264009963)" xlink:href="#URW_Palladio_L_Roman-103"/>
     <use transform="translate(202.040216011 0.0)scale(0.996264009963)" xlink:href="#URW_Palladio_L_Roman-105"/>
     <use transform="translate(231.030577473 0.0)scale(0.996264009963)" xlink:href="#URW_Palladio_L_Roman-110"/>
     <use transform="translate(289.012638154 0.0)scale(0.996264009963)" xlink:href="#URW_Palladio_L_Roman-97"/>
     <use transform="translate(338.825838652 0.0)scale(0.996264009963)" xlink:href="#URW_Palladio_L_Roman-108"/>
     <use transform="translate(392.722800363 0.0)scale(0.996264009963)" xlink:href="#URW_Palladio_L_Roman-100"/>
     <use transform="translate(453.59443104 0.0)scale(0.996264009963)" xlink:href="#URW_Palladio_L_Roman-97"/>
     <use transform="translate(503.407631538 0.0)scale(0.996264009963)" xlink:href="#URW_Palladio_L_Roman-116"/>
     <use transform="translate(535.884719412 0.0)scale(0.996264009963)" xlink:href="#URW_Palladio_L_Roman-97"/>
    </g>
   </g>
  </g>
  <g id="axes_2">
   <g id="patch_7">
    <path d="M 27.64125 369.51 
L 264.239018 369.51 
L 264.239018 223.216471 
L 27.64125 223.216471 
z
" style="fill:#ffffff;"/>
   </g>
   <g id="PathCollection_3">
    <g clip-path="url(#p46701f63cf)">
     <use style="stroke:#000000;" x="82.860693602" xlink:href="#mf5b4fd1a7d" y="340.088205896"/>
     <use style="stroke:#000000;" x="82.3824583996" xlink:href="#mf5b4fd1a7d" y="342.162700212"/>
     <use style="stroke:#000000;" x="105.915948787" xlink:href="#mf5b4fd1a7d" y="342.96428939"/>
     <use style="stroke:#000000;" x="124.726599599" xlink:href="#mf5b4fd1a7d" y="302.90924604"/>
     <use style="stroke:#000000;" x="132.274764818" xlink:href="#mf5b4fd1a7d" y="326.442922285"/>
     <use style="stroke:#000000;" x="145.092726589" xlink:href="#mf5b4fd1a7d" y="301.669548032"/>
     <use style="stroke:#000000;" x="126.080211679" xlink:href="#mf5b4fd1a7d" y="308.142206746"/>
     <use style="stroke:#000000;" x="152.881831203" xlink:href="#mf5b4fd1a7d" y="304.438657795"/>
     <use style="stroke:#000000;" x="88.924038001" xlink:href="#mf5b4fd1a7d" y="299.973602391"/>
     <use style="stroke:#000000;" x="154.159886588" xlink:href="#mf5b4fd1a7d" y="317.032995964"/>
     <use style="stroke:#000000;" x="155.243878869" xlink:href="#mf5b4fd1a7d" y="286.83186738"/>
     <use style="stroke:#000000;" x="139.204416956" xlink:href="#mf5b4fd1a7d" y="312.082550833"/>
     <use style="stroke:#000000;" x="150.096551231" xlink:href="#mf5b4fd1a7d" y="283.353521827"/>
     <use style="stroke:#000000;" x="147.482573174" xlink:href="#mf5b4fd1a7d" y="289.656180741"/>
     <use style="stroke:#000000;" x="177.752797556" xlink:href="#mf5b4fd1a7d" y="303.016096436"/>
     <use style="stroke:#000000;" x="162.740053706" xlink:href="#mf5b4fd1a7d" y="299.991949263"/>
     <use style="stroke:#000000;" x="172.829149698" xlink:href="#mf5b4fd1a7d" y="271.198178391"/>
     <use style="stroke:#000000;" x="154.019066658" xlink:href="#mf5b4fd1a7d" y="297.124207656"/>
     <use style="stroke:#000000;" x="212.975301784" xlink:href="#mf5b4fd1a7d" y="302.372196686"/>
     <use style="stroke:#000000;" x="164.47290728" xlink:href="#mf5b4fd1a7d" y="280.932467138"/>
     <use style="stroke:#000000;" x="209.280691595" xlink:href="#mf5b4fd1a7d" y="284.65940042"/>
     <use style="stroke:#000000;" x="181.123397251" xlink:href="#mf5b4fd1a7d" y="269.557505538"/>
     <use style="stroke:#000000;" x="193.495903189" xlink:href="#mf5b4fd1a7d" y="299.503118489"/>
     <use style="stroke:#000000;" x="192.052310808" xlink:href="#mf5b4fd1a7d" y="283.726422651"/>
     <use style="stroke:#000000;" x="187.158870721" xlink:href="#mf5b4fd1a7d" y="304.623626869"/>
     <use style="stroke:#000000;" x="228.884841111" xlink:href="#mf5b4fd1a7d" y="254.009234411"/>
     <use style="stroke:#000000;" x="222.152969915" xlink:href="#mf5b4fd1a7d" y="258.537580883"/>
     <use style="stroke:#000000;" x="184.228148824" xlink:href="#mf5b4fd1a7d" y="279.881950544"/>
     <use style="stroke:#000000;" x="228.893135481" xlink:href="#mf5b4fd1a7d" y="268.861836859"/>
     <use style="stroke:#000000;" x="225.813113733" xlink:href="#mf5b4fd1a7d" y="275.152791057"/>
    </g>
   </g>
   <g id="line2d_14">
    <path clip-path="url(#p46701f63cf)" d="M 27.64125 364.216956 
L 264.239018 245.472945 
" style="fill:none;stroke:#000000;stroke-linecap:square;"/>
   </g>
   <g id="patch_8">
    <path d="M 27.64125 223.216471 
L 264.239018 223.216471 
" style="fill:none;"/>
   </g>
   <g id="patch_9">
    <path d="M 264.239018 369.51 
L 264.239018 223.216471 
" style="fill:none;"/>
   </g>
   <g id="patch_10">
    <path d="M 27.64125 296.363235 
L 264.239018 296.363235 
" style="fill:none;stroke:#000000;stroke-linecap:square;stroke-linejoin:miter;"/>
   </g>
   <g id="patch_11">
    <path d="M 162.839975 369.51 
L 162.839975 223.216471 
" style="fill:none;stroke:#000000;stroke-linecap:square;stroke-linejoin:miter;"/>
   </g>
   <g id="matplotlib.axis_3">
    <g id="xtick_8">
     <g id="line2d_15">
      <g>
       <use style="stroke:#000000;stroke-width:0.5;" x="27.64125" xlink:href="#m28bec69923" y="296.363235294"/>
      </g>
     </g>
     <g id="text_17">
      <!-- -2.0 -->
      <g transform="translate(18.1787561415 308.917111019)scale(0.12 -0.12)">
       <use transform="scale(0.996264009963)" xlink:href="#URW_Palladio_L_Roman-45"/>
       <use transform="translate(33.1752297293 0.0)scale(0.996264009963)" xlink:href="#URW_Palladio_L_Roman-50"/>
       <use transform="translate(82.9884302275 0.0)scale(0.996264009963)" xlink:href="#URW_Palladio_L_Roman-46"/>
       <use transform="translate(107.895030477 0.0)scale(0.996264009963)" xlink:href="#URW_Palladio_L_Roman-48"/>
      </g>
     </g>
    </g>
    <g id="xtick_9">
     <g id="line2d_16">
      <g>
       <use style="stroke:#000000;stroke-width:0.5;" x="61.4409311567" xlink:href="#m28bec69923" y="296.363235294"/>
      </g>
     </g>
     <g id="text_18">
      <!-- -1.5 -->
      <g transform="translate(51.9784372982 308.917111019)scale(0.12 -0.12)">
       <use transform="scale(0.996264009963)" xlink:href="#URW_Palladio_L_Roman-45"/>
       <use transform="translate(33.1752297293 0.0)scale(0.996264009963)" xlink:href="#URW_Palladio_L_Roman-49"/>
       <use transform="translate(82.9884302275 0.0)scale(0.996264009963)" xlink:href="#URW_Palladio_L_Roman-46"/>
       <use transform="translate(107.895030477 0.0)scale(0.996264009963)" xlink:href="#URW_Palladio_L_Roman-53"/>
      </g>
     </g>
    </g>
    <g id="xtick_10">
     <g id="line2d_17">
      <g>
       <use style="stroke:#000000;stroke-width:0.5;" x="95.2406123134" xlink:href="#m28bec69923" y="296.363235294"/>
      </g>
     </g>
     <g id="text_19">
      <!-- -1.0 -->
      <g transform="translate(85.7781184549 308.917111019)scale(0.12 -0.12)">
       <use transform="scale(0.996264009963)" xlink:href="#URW_Palladio_L_Roman-45"/>
       <use transform="translate(33.1752297293 0.0)scale(0.996264009963)" xlink:href="#URW_Palladio_L_Roman-49"/>
       <use transform="translate(82.9884302275 0.0)scale(0.996264009963)" xlink:href="#URW_Palladio_L_Roman-46"/>
       <use transform="translate(107.895030477 0.0)scale(0.996264009963)" xlink:href="#URW_Palladio_L_Roman-48"/>
      </g>
     </g>
    </g>
    <g id="xtick_11">
     <g id="line2d_18">
      <g>
       <use style="stroke:#000000;stroke-width:0.5;" x="129.04029347" xlink:href="#m28bec69923" y="296.363235294"/>
      </g>
     </g>
     <g id="text_20">
      <!-- -0.5 -->
      <g transform="translate(119.577799612 308.917111019)scale(0.12 -0.12)">
       <use transform="scale(0.996264009963)" xlink:href="#URW_Palladio_L_Roman-45"/>
       <use transform="translate(33.1752297293 0.0)scale(0.996264009963)" xlink:href="#URW_Palladio_L_Roman-48"/>
       <use transform="translate(82.9884302275 0.0)scale(0.996264009963)" xlink:href="#URW_Palladio_L_Roman-46"/>
       <use transform="translate(107.895030477 0.0)scale(0.996264009963)" xlink:href="#URW_Palladio_L_Roman-53"/>
      </g>
     </g>
    </g>
    <g id="xtick_12">
     <g id="line2d_19">
      <g>
       <use style="stroke:#000000;stroke-width:0.5;" x="196.639655784" xlink:href="#m28bec69923" y="296.363235294"/>
      </g>
     </g>
     <g id="text_21">
      <!-- 0.5 -->
      <g transform="translate(189.167675709 308.917111019)scale(0.12 -0.12)">
       <use transform="scale(0.996264009963)" xlink:href="#URW_Palladio_L_Roman-48"/>
       <use transform="translate(49.8132004981 0.0)scale(0.996264009963)" xlink:href="#URW_Palladio_L_Roman-46"/>
       <use transform="translate(74.7198007472 0.0)scale(0.996264009963)" xlink:href="#URW_Palladio_L_Roman-53"/>
      </g>
     </g>
    </g>
    <g id="xtick_13">
     <g id="line2d_20">
      <g>
       <use style="stroke:#000000;stroke-width:0.5;" x="230.43933694" xlink:href="#m28bec69923" y="296.363235294"/>
      </g>
     </g>
     <g id="text_22">
      <!-- 1.0 -->
      <g transform="translate(222.967356866 308.917111019)scale(0.12 -0.12)">
       <use transform="scale(0.996264009963)" xlink:href="#URW_Palladio_L_Roman-49"/>
       <use transform="translate(49.8132004981 0.0)scale(0.996264009963)" xlink:href="#URW_Palladio_L_Roman-46"/>
       <use transform="translate(74.7198007472 0.0)scale(0.996264009963)" xlink:href="#URW_Palladio_L_Roman-48"/>
      </g>
     </g>
    </g>
    <g id="xtick_14">
     <g id="line2d_21">
      <g>
       <use style="stroke:#000000;stroke-width:0.5;" x="264.239018097" xlink:href="#m28bec69923" y="296.363235294"/>
      </g>
     </g>
     <g id="text_23">
      <!-- 1.5 -->
      <g transform="translate(256.767038022 308.917111019)scale(0.12 -0.12)">
       <use transform="scale(0.996264009963)" xlink:href="#URW_Palladio_L_Roman-49"/>
       <use transform="translate(49.8132004981 0.0)scale(0.996264009963)" xlink:href="#URW_Palladio_L_Roman-46"/>
       <use transform="translate(74.7198007472 0.0)scale(0.996264009963)" xlink:href="#URW_Palladio_L_Roman-53"/>
      </g>
     </g>
    </g>
    <g id="text_24">
     <!-- $x$ -->
     <g transform="translate(261.250226067 289.411307097)scale(0.12 -0.12)">
      <use transform="scale(0.996264009963)" xlink:href="#URW_Palladio_L_Italic-120"/>
     </g>
    </g>
   </g>
   <g id="matplotlib.axis_4">
    <g id="ytick_7">
     <g id="line2d_22">
      <g>
       <use style="stroke:#000000;stroke-width:0.5;" x="162.839974627" xlink:href="#m43be695cc2" y="369.51"/>
      </g>
     </g>
     <g id="text_25">
      <!-- -1.5 -->
      <g transform="translate(139.91498691 372.101295824)scale(0.12 -0.12)">
       <use transform="scale(0.996264009963)" xlink:href="#URW_Palladio_L_Roman-45"/>
       <use transform="translate(33.1752297293 0.0)scale(0.996264009963)" xlink:href="#URW_Palladio_L_Roman-49"/>
       <use transform="translate(82.9884302275 0.0)scale(0.996264009963)" xlink:href="#URW_Palladio_L_Roman-46"/>
       <use transform="translate(107.895030477 0.0)scale(0.996264009963)" xlink:href="#URW_Palladio_L_Roman-53"/>
      </g>
     </g>
    </g>
    <g id="ytick_8">
     <g id="line2d_23">
      <g>
       <use style="stroke:#000000;stroke-width:0.5;" x="162.839974627" xlink:href="#m43be695cc2" y="345.127745098"/>
      </g>
     </g>
     <g id="text_26">
      <!-- -1.0 -->
      <g transform="translate(139.91498691 347.719040922)scale(0.12 -0.12)">
       <use transform="scale(0.996264009963)" xlink:href="#URW_Palladio_L_Roman-45"/>
       <use transform="translate(33.1752297293 0.0)scale(0.996264009963)" xlink:href="#URW_Palladio_L_Roman-49"/>
       <use transform="translate(82.9884302275 0.0)scale(0.996264009963)" xlink:href="#URW_Palladio_L_Roman-46"/>
       <use transform="translate(107.895030477 0.0)scale(0.996264009963)" xlink:href="#URW_Palladio_L_Roman-48"/>
      </g>
     </g>
    </g>
    <g id="ytick_9">
     <g id="line2d_24">
      <g>
       <use style="stroke:#000000;stroke-width:0.5;" x="162.839974627" xlink:href="#m43be695cc2" y="320.745490196"/>
      </g>
     </g>
     <g id="text_27">
      <!-- -0.5 -->
      <g transform="translate(139.91498691 323.33678602)scale(0.12 -0.12)">
       <use transform="scale(0.996264009963)" xlink:href="#URW_Palladio_L_Roman-45"/>
       <use transform="translate(33.1752297293 0.0)scale(0.996264009963)" xlink:href="#URW_Palladio_L_Roman-48"/>
       <use transform="translate(82.9884302275 0.0)scale(0.996264009963)" xlink:href="#URW_Palladio_L_Roman-46"/>
       <use transform="translate(107.895030477 0.0)scale(0.996264009963)" xlink:href="#URW_Palladio_L_Roman-53"/>
      </g>
     </g>
    </g>
    <g id="ytick_10">
     <g id="line2d_25">
      <g>
       <use style="stroke:#000000;stroke-width:0.5;" x="162.839974627" xlink:href="#m43be695cc2" y="271.980980392"/>
      </g>
     </g>
     <g id="text_28">
      <!-- 0.5 -->
      <g transform="translate(143.896014477 274.572276216)scale(0.12 -0.12)">
       <use transform="scale(0.996264009963)" xlink:href="#URW_Palladio_L_Roman-48"/>
       <use transform="translate(49.8132004981 0.0)scale(0.996264009963)" xlink:href="#URW_Palladio_L_Roman-46"/>
       <use transform="translate(74.7198007472 0.0)scale(0.996264009963)" xlink:href="#URW_Palladio_L_Roman-53"/>
      </g>
     </g>
    </g>
    <g id="ytick_11">
     <g id="line2d_26">
      <g>
       <use style="stroke:#000000;stroke-width:0.5;" x="162.839974627" xlink:href="#m43be695cc2" y="247.59872549"/>
      </g>
     </g>
     <g id="text_29">
      <!-- 1.0 -->
      <g transform="translate(143.896014477 250.190021314)scale(0.12 -0.12)">
       <use transform="scale(0.996264009963)" xlink:href="#URW_Palladio_L_Roman-49"/>
       <use transform="translate(49.8132004981 0.0)scale(0.996264009963)" xlink:href="#URW_Palladio_L_Roman-46"/>
       <use transform="translate(74.7198007472 0.0)scale(0.996264009963)" xlink:href="#URW_Palladio_L_Roman-48"/>
      </g>
     </g>
    </g>
    <g id="ytick_12">
     <g id="line2d_27">
      <g>
       <use style="stroke:#000000;stroke-width:0.5;" x="162.839974627" xlink:href="#m43be695cc2" y="223.216470588"/>
      </g>
     </g>
     <g id="text_30">
      <!-- 1.5 -->
      <g transform="translate(143.896014477 225.807766412)scale(0.12 -0.12)">
       <use transform="scale(0.996264009963)" xlink:href="#URW_Palladio_L_Roman-49"/>
       <use transform="translate(49.8132004981 0.0)scale(0.996264009963)" xlink:href="#URW_Palladio_L_Roman-46"/>
       <use transform="translate(74.7198007472 0.0)scale(0.996264009963)" xlink:href="#URW_Palladio_L_Roman-53"/>
      </g>
     </g>
    </g>
    <g id="text_31">
     <!-- $y$ -->
     <g transform="translate(172.751023175 224.721637492)scale(0.12 -0.12)">
      <use transform="scale(0.996264009963)" xlink:href="#URW_Palladio_L_Italic-121"/>
     </g>
    </g>
   </g>
   <g id="text_32">
    <!-- Centered data -->
    <defs>
     <path d="M 43.703125 6.984375 
L 42.40625 7.984375 
C 36 4.203125 33.703125 3.3125 29.40625 3.3125 
C 22.90625 3.3125 17.5 6.21875 14.703125 11.109375 
C 12.796875 14.390625 12.09375 17.203125 11.90625 23 
L 26.5 23 
C 33.40625 23 37.703125 23 44.59375 24.125 
C 44.703125 25.53125 44.796875 26.453125 44.796875 27.671875 
C 44.796875 39.375 37.40625 47 26.203125 47 
C 22.5 47 18.203125 45.6875 14.09375 43.28125 
C 5.90625 38.578125 2.59375 32.359375 2.59375 21.9375 
C 2.59375 15.625 4.09375 10.21875 6.796875 6.40625 
C 10.796875 1.109375 17.5 -2 25 -2 
C 28.703125 -2 32.40625 -1.203125 36.5 0.578125 
C 39.203125 1.6875 41.296875 2.984375 41.703125 3.59375 
z
M 35.90625 26.40625 
C 30.703125 26.40625 28.296875 26.40625 24.703125 26.40625 
C 20.09375 26.40625 17.5 26.40625 12.09375 26.90625 
C 12.09375 31.671875 12.5 33.890625 13.796875 36.515625 
C 15.90625 40.96875 20.203125 43.6875 25 43.6875 
C 28.296875 43.6875 30.90625 42.359375 32.703125 39.59375 
C 34.90625 36.234375 35.59375 33.265625 35.90625 26.40625 
" id="URW_Palladio_L_Roman-101"/>
     <path d="M 67 8.421875 
L 66.09375 9.421875 
C 59.90625 5.40625 53 3.40625 45.40625 3.40625 
C 25.90625 3.40625 12.90625 16.421875 12.90625 36.140625 
C 12.90625 54.578125 24.296875 66.78125 41.5 66.78125 
C 51.296875 66.78125 61.40625 62.78125 61.40625 58.890625 
L 61.40625 51.671875 
L 64.5 51.671875 
C 64.59375 56.671875 65 60.265625 66.40625 66.875 
C 57.90625 69.6875 50.59375 71 43.296875 71 
C 34.59375 71 26.296875 68.890625 19.59375 64.984375 
C 8.203125 58.28125 2.203125 47.765625 2.203125 34.25 
C 2.203125 12.609375 18 -2 41.5 -2 
C 49.796875 -2 57.296875 -0.203125 64.203125 3.40625 
z
" id="URW_Palladio_L_Roman-67"/>
    </defs>
    <g transform="translate(101.259344115 210.901794118)scale(0.144 -0.144)">
     <use transform="scale(0.996264009963)" xlink:href="#URW_Palladio_L_Roman-67"/>
     <use transform="translate(70.6347929882 0.0)scale(0.996264009963)" xlink:href="#URW_Palladio_L_Roman-101"/>
     <use transform="translate(118.355088097 0.0)scale(0.996264009963)" xlink:href="#URW_Palladio_L_Roman-110"/>
     <use transform="translate(176.337148778 0.0)scale(0.996264009963)" xlink:href="#URW_Palladio_L_Roman-116"/>
     <use transform="translate(208.814236652 0.0)scale(0.996264009963)" xlink:href="#URW_Palladio_L_Roman-101"/>
     <use transform="translate(256.534531761 0.0)scale(0.996264009963)" xlink:href="#URW_Palladio_L_Roman-114"/>
     <use transform="translate(294.093849116 0.0)scale(0.996264009963)" xlink:href="#URW_Palladio_L_Roman-101"/>
     <use transform="translate(341.814144225 0.0)scale(0.996264009963)" xlink:href="#URW_Palladio_L_Roman-100"/>
     <use transform="translate(427.592375151 0.0)scale(0.996264009963)" xlink:href="#URW_Palladio_L_Roman-100"/>
     <use transform="translate(488.464005828 0.0)scale(0.996264009963)" xlink:href="#URW_Palladio_L_Roman-97"/>
     <use transform="translate(538.277206326 0.0)scale(0.996264009963)" xlink:href="#URW_Palladio_L_Roman-116"/>
     <use transform="translate(570.754294199 0.0)scale(0.996264009963)" xlink:href="#URW_Palladio_L_Roman-97"/>
    </g>
   </g>
  </g>
  <g id="axes_3">
   <g id="patch_12">
    <path d="M 27.64125 557.19 
L 264.239018 557.19 
L 264.239018 410.896471 
L 27.64125 410.896471 
z
" style="fill:#ffffff;"/>
   </g>
   <g id="PathCollection_4">
    <g clip-path="url(#pee58dc3440)">
     <use style="stroke:#000000;" x="62.5702270929" xlink:href="#mf5b4fd1a7d" y="486.985959984"/>
     <use style="stroke:#000000;" x="60.535295766" xlink:href="#mf5b4fd1a7d" y="488.491837779"/>
     <use style="stroke:#000000;" x="79.2187576225" xlink:href="#mf5b4fd1a7d" y="498.845223946"/>
     <use style="stroke:#000000;" x="126.371205255" xlink:href="#mf5b4fd1a7d" y="473.71466215"/>
     <use style="stroke:#000000;" x="113.935899034" xlink:href="#mf5b4fd1a7d" y="496.142598254"/>
     <use style="stroke:#000000;" x="144.070724894" xlink:href="#mf5b4fd1a7d" y="481.087507432"/>
     <use style="stroke:#000000;" x="123.339461929" xlink:href="#mf5b4fd1a7d" y="478.567937252"/>
     <use style="stroke:#000000;" x="148.272331744" xlink:href="#mf5b4fd1a7d" y="486.569575748"/>
     <use style="stroke:#000000;" x="99.3058723858" xlink:href="#mf5b4fd1a7d" y="456.554842356"/>
     <use style="stroke:#000000;" x="139.350625446" xlink:href="#mf5b4fd1a7d" y="497.434499596"/>
     <use style="stroke:#000000;" x="164.150426692" xlink:href="#mf5b4fd1a7d" y="473.089708998"/>
     <use style="stroke:#000000;" x="130.993267601" xlink:href="#mf5b4fd1a7d" y="487.209410432"/>
     <use style="stroke:#000000;" x="162.678886663" xlink:href="#mf5b4fd1a7d" y="468.11381147"/>
     <use style="stroke:#000000;" x="155.543373499" xlink:href="#mf5b4fd1a7d" y="472.210599141"/>
     <use style="stroke:#000000;" x="169.81453646" xlink:href="#mf5b4fd1a7d" y="495.648226913"/>
     <use style="stroke:#000000;" x="159.885129785" xlink:href="#mf5b4fd1a7d" y="486.980793202"/>
     <use style="stroke:#000000;" x="190.962809725" xlink:href="#mf5b4fd1a7d" y="467.501211666"/>
     <use style="stroke:#000000;" x="154.996649174" xlink:href="#mf5b4fd1a7d" y="481.033841343"/>
     <use style="stroke:#000000;" x="199.23760851" xlink:href="#mf5b4fd1a7d" y="509.630712725"/>
     <use style="stroke:#000000;" x="176.396818263" xlink:href="#mf5b4fd1a7d" y="472.049230137"/>
     <use style="stroke:#000000;" x="210.227863407" xlink:href="#mf5b4fd1a7d" y="493.568592632"/>
     <use style="stroke:#000000;" x="199.07026382" xlink:href="#mf5b4fd1a7d" y="469.571505997"/>
     <use style="stroke:#000000;" x="185.518866159" xlink:href="#mf5b4fd1a7d" y="499.250388788"/>
     <use style="stroke:#000000;" x="196.824132803" xlink:href="#mf5b4fd1a7d" y="485.704946168"/>
     <use style="stroke:#000000;" x="176.263086233" xlink:href="#mf5b4fd1a7d" y="500.842945231"/>
     <use style="stroke:#000000;" x="250.585913053" xlink:href="#mf5b4fd1a7d" y="476.485174645"/>
     <use style="stroke:#000000;" x="241.474829141" xlink:href="#mf5b4fd1a7d" y="477.428973137"/>
     <use style="stroke:#000000;" x="193.445103482" xlink:href="#mf5b4fd1a7d" y="479.325695891"/>
     <use style="stroke:#000000;" x="238.8340419" xlink:href="#mf5b4fd1a7d" y="488.680734001"/>
     <use style="stroke:#000000;" x="231.325231263" xlink:href="#mf5b4fd1a7d" y="492.575911812"/>
    </g>
   </g>
   <g id="patch_13">
    <path d="M 27.64125 410.896471 
L 264.239018 410.896471 
" style="fill:none;"/>
   </g>
   <g id="patch_14">
    <path d="M 264.239018 557.19 
L 264.239018 410.896471 
" style="fill:none;"/>
   </g>
   <g id="patch_15">
    <path d="M 27.64125 484.043235 
L 264.239018 484.043235 
" style="fill:none;stroke:#000000;stroke-linecap:square;stroke-linejoin:miter;"/>
   </g>
   <g id="patch_16">
    <path d="M 162.839975 557.19 
L 162.839975 410.896471 
" style="fill:none;stroke:#000000;stroke-linecap:square;stroke-linejoin:miter;"/>
   </g>
   <g id="matplotlib.axis_5">
    <g id="xtick_15">
     <g id="line2d_28">
      <g>
       <use style="stroke:#000000;stroke-width:0.5;" x="27.64125" xlink:href="#m28bec69923" y="484.043235294"/>
      </g>
     </g>
     <g id="text_33">
      <!-- -2.0 -->
      <g transform="translate(18.1787561415 496.597111019)scale(0.12 -0.12)">
       <use transform="scale(0.996264009963)" xlink:href="#URW_Palladio_L_Roman-45"/>
       <use transform="translate(33.1752297293 0.0)scale(0.996264009963)" xlink:href="#URW_Palladio_L_Roman-50"/>
       <use transform="translate(82.9884302275 0.0)scale(0.996264009963)" xlink:href="#URW_Palladio_L_Roman-46"/>
       <use transform="translate(107.895030477 0.0)scale(0.996264009963)" xlink:href="#URW_Palladio_L_Roman-48"/>
      </g>
     </g>
    </g>
    <g id="xtick_16">
     <g id="line2d_29">
      <g>
       <use style="stroke:#000000;stroke-width:0.5;" x="61.4409311567" xlink:href="#m28bec69923" y="484.043235294"/>
      </g>
     </g>
     <g id="text_34">
      <!-- -1.5 -->
      <g transform="translate(51.9784372982 496.597111019)scale(0.12 -0.12)">
       <use transform="scale(0.996264009963)" xlink:href="#URW_Palladio_L_Roman-45"/>
       <use transform="translate(33.1752297293 0.0)scale(0.996264009963)" xlink:href="#URW_Palladio_L_Roman-49"/>
       <use transform="translate(82.9884302275 0.0)scale(0.996264009963)" xlink:href="#URW_Palladio_L_Roman-46"/>
       <use transform="translate(107.895030477 0.0)scale(0.996264009963)" xlink:href="#URW_Palladio_L_Roman-53"/>
      </g>
     </g>
    </g>
    <g id="xtick_17">
     <g id="line2d_30">
      <g>
       <use style="stroke:#000000;stroke-width:0.5;" x="95.2406123134" xlink:href="#m28bec69923" y="484.043235294"/>
      </g>
     </g>
     <g id="text_35">
      <!-- -1.0 -->
      <g transform="translate(85.7781184549 496.597111019)scale(0.12 -0.12)">
       <use transform="scale(0.996264009963)" xlink:href="#URW_Palladio_L_Roman-45"/>
       <use transform="translate(33.1752297293 0.0)scale(0.996264009963)" xlink:href="#URW_Palladio_L_Roman-49"/>
       <use transform="translate(82.9884302275 0.0)scale(0.996264009963)" xlink:href="#URW_Palladio_L_Roman-46"/>
       <use transform="translate(107.895030477 0.0)scale(0.996264009963)" xlink:href="#URW_Palladio_L_Roman-48"/>
      </g>
     </g>
    </g>
    <g id="xtick_18">
     <g id="line2d_31">
      <g>
       <use style="stroke:#000000;stroke-width:0.5;" x="129.04029347" xlink:href="#m28bec69923" y="484.043235294"/>
      </g>
     </g>
     <g id="text_36">
      <!-- -0.5 -->
      <g transform="translate(119.577799612 496.597111019)scale(0.12 -0.12)">
       <use transform="scale(0.996264009963)" xlink:href="#URW_Palladio_L_Roman-45"/>
       <use transform="translate(33.1752297293 0.0)scale(0.996264009963)" xlink:href="#URW_Palladio_L_Roman-48"/>
       <use transform="translate(82.9884302275 0.0)scale(0.996264009963)" xlink:href="#URW_Palladio_L_Roman-46"/>
       <use transform="translate(107.895030477 0.0)scale(0.996264009963)" xlink:href="#URW_Palladio_L_Roman-53"/>
      </g>
     </g>
    </g>
    <g id="xtick_19">
     <g id="line2d_32">
      <g>
       <use style="stroke:#000000;stroke-width:0.5;" x="196.639655784" xlink:href="#m28bec69923" y="484.043235294"/>
      </g>
     </g>
     <g id="text_37">
      <!-- 0.5 -->
      <g transform="translate(189.167675709 496.597111019)scale(0.12 -0.12)">
       <use transform="scale(0.996264009963)" xlink:href="#URW_Palladio_L_Roman-48"/>
       <use transform="translate(49.8132004981 0.0)scale(0.996264009963)" xlink:href="#URW_Palladio_L_Roman-46"/>
       <use transform="translate(74.7198007472 0.0)scale(0.996264009963)" xlink:href="#URW_Palladio_L_Roman-53"/>
      </g>
     </g>
    </g>
    <g id="xtick_20">
     <g id="line2d_33">
      <g>
       <use style="stroke:#000000;stroke-width:0.5;" x="230.43933694" xlink:href="#m28bec69923" y="484.043235294"/>
      </g>
     </g>
     <g id="text_38">
      <!-- 1.0 -->
      <g transform="translate(222.967356866 496.597111019)scale(0.12 -0.12)">
       <use transform="scale(0.996264009963)" xlink:href="#URW_Palladio_L_Roman-49"/>
       <use transform="translate(49.8132004981 0.0)scale(0.996264009963)" xlink:href="#URW_Palladio_L_Roman-46"/>
       <use transform="translate(74.7198007472 0.0)scale(0.996264009963)" xlink:href="#URW_Palladio_L_Roman-48"/>
      </g>
     </g>
    </g>
    <g id="xtick_21">
     <g id="line2d_34">
      <g>
       <use style="stroke:#000000;stroke-width:0.5;" x="264.239018097" xlink:href="#m28bec69923" y="484.043235294"/>
      </g>
     </g>
     <g id="text_39">
      <!-- 1.5 -->
      <g transform="translate(256.767038022 496.597111019)scale(0.12 -0.12)">
       <use transform="scale(0.996264009963)" xlink:href="#URW_Palladio_L_Roman-49"/>
       <use transform="translate(49.8132004981 0.0)scale(0.996264009963)" xlink:href="#URW_Palladio_L_Roman-46"/>
       <use transform="translate(74.7198007472 0.0)scale(0.996264009963)" xlink:href="#URW_Palladio_L_Roman-53"/>
      </g>
     </g>
    </g>
    <g id="text_40">
     <!-- $PC_{1}$ -->
     <defs>
      <path d="M 59.703125 51.40625 
L 62.40625 51.40625 
C 62.90625 57.078125 63.703125 61.34375 65.09375 65.921875 
C 57.5 68.8125 51.796875 70 45.59375 70 
C 37.40625 70 29.203125 67.515625 22.203125 62.859375 
C 10.5 54.984375 4.5 43.25 4.5 28.046875 
C 4.5 8.75 15.203125 -2 34.296875 -2 
C 43.90625 -2 51 0.296875 60 6.46875 
L 61 10.046875 
L 60 10.75 
C 50.59375 5.078125 45.40625 3.28125 37.59375 3.28125 
C 21.90625 3.28125 13.296875 12.828125 13.296875 30.515625 
C 13.296875 41.5625 16.703125 51.40625 22.796875 57.578125 
C 27.5 62.34375 33.90625 64.734375 41.796875 64.734375 
C 48.90625 64.734375 54.09375 63.328125 59.703125 59.765625 
z
" id="URW_Palladio_L_Italic-67"/>
      <path d="M 10.5 66.015625 
L 16 66.015625 
C 18.40625 66.015625 19.5 65.21875 19.5 63.421875 
C 19.5 62.03125 19.09375 58.953125 18.59375 55.875 
L 11.203125 12.734375 
C 9.5 3.6875 9.40625 3.390625 5.40625 3.078125 
L 1.296875 2.78125 
L 0.90625 0 
L 5.09375 0 
C 9.203125 0 12.296875 0 14.09375 0 
C 15.796875 0 18.703125 0 22.703125 0 
L 28 0 
L 28.296875 2.890625 
L 21.796875 2.890625 
C 19.203125 2.890625 18.203125 3.6875 18.203125 5.78125 
C 18.203125 6.671875 18.296875 7.375 18.59375 9.28125 
L 26.796875 57.828125 
C 26.796875 57.9375 27.203125 59.921875 27.703125 61.828125 
C 27.796875 62.328125 28.09375 63.328125 28.40625 64.625 
C 32 65.21875 33.59375 65.421875 35.5 65.421875 
C 45.703125 65.421875 50.59375 61.0625 50.59375 51.875 
C 50.59375 41.1875 43.40625 32.484375 34.59375 32.484375 
C 32.40625 32.484375 30.40625 32.96875 26.703125 34.359375 
L 26.90625 31.296875 
C 30.59375 29.5 32.59375 29 35.5 29 
C 48.40625 29 59.40625 40.5 59.40625 53.875 
C 59.40625 63.78125 53.09375 69 41.203125 69 
L 27.40625 69 
L 16.09375 69 
L 10.796875 69 
z
" id="URW_Palladio_L_Italic-80"/>
     </defs>
     <g transform="translate(254.307268019 484.405983568)scale(0.12 -0.12)">
      <use transform="translate(0.0 18.5773381557)scale(0.996264009963)" xlink:href="#URW_Palladio_L_Italic-80"/>
      <use transform="translate(62.9638823893 18.5773381557)scale(0.996264009963)" xlink:href="#URW_Palladio_L_Italic-67"/>
      <use transform="translate(128.169358801 0.0)scale(0.75715517493)" xlink:href="#URW_Palladio_L_Roman-49"/>
     </g>
    </g>
   </g>
   <g id="matplotlib.axis_6">
    <g id="ytick_13">
     <g id="line2d_35">
      <g>
       <use style="stroke:#000000;stroke-width:0.5;" x="162.839974627" xlink:href="#m43be695cc2" y="557.19"/>
      </g>
     </g>
     <g id="text_41">
      <!-- -1.5 -->
      <g transform="translate(139.91498691 559.781295824)scale(0.12 -0.12)">
       <use transform="scale(0.996264009963)" xlink:href="#URW_Palladio_L_Roman-45"/>
       <use transform="translate(33.1752297293 0.0)scale(0.996264009963)" xlink:href="#URW_Palladio_L_Roman-49"/>
       <use transform="translate(82.9884302275 0.0)scale(0.996264009963)" xlink:href="#URW_Palladio_L_Roman-46"/>
       <use transform="translate(107.895030477 0.0)scale(0.996264009963)" xlink:href="#URW_Palladio_L_Roman-53"/>
      </g>
     </g>
    </g>
    <g id="ytick_14">
     <g id="line2d_36">
      <g>
       <use style="stroke:#000000;stroke-width:0.5;" x="162.839974627" xlink:href="#m43be695cc2" y="532.807745098"/>
      </g>
     </g>
     <g id="text_42">
      <!-- -1.0 -->
      <g transform="translate(139.91498691 535.399040922)scale(0.12 -0.12)">
       <use transform="scale(0.996264009963)" xlink:href="#URW_Palladio_L_Roman-45"/>
       <use transform="translate(33.1752297293 0.0)scale(0.996264009963)" xlink:href="#URW_Palladio_L_Roman-49"/>
       <use transform="translate(82.9884302275 0.0)scale(0.996264009963)" xlink:href="#URW_Palladio_L_Roman-46"/>
       <use transform="translate(107.895030477 0.0)scale(0.996264009963)" xlink:href="#URW_Palladio_L_Roman-48"/>
      </g>
     </g>
    </g>
    <g id="ytick_15">
     <g id="line2d_37">
      <g>
       <use style="stroke:#000000;stroke-width:0.5;" x="162.839974627" xlink:href="#m43be695cc2" y="508.425490196"/>
      </g>
     </g>
     <g id="text_43">
      <!-- -0.5 -->
      <g transform="translate(139.91498691 511.01678602)scale(0.12 -0.12)">
       <use transform="scale(0.996264009963)" xlink:href="#URW_Palladio_L_Roman-45"/>
       <use transform="translate(33.1752297293 0.0)scale(0.996264009963)" xlink:href="#URW_Palladio_L_Roman-48"/>
       <use transform="translate(82.9884302275 0.0)scale(0.996264009963)" xlink:href="#URW_Palladio_L_Roman-46"/>
       <use transform="translate(107.895030477 0.0)scale(0.996264009963)" xlink:href="#URW_Palladio_L_Roman-53"/>
      </g>
     </g>
    </g>
    <g id="ytick_16">
     <g id="line2d_38">
      <g>
       <use style="stroke:#000000;stroke-width:0.5;" x="162.839974627" xlink:href="#m43be695cc2" y="459.660980392"/>
      </g>
     </g>
     <g id="text_44">
      <!-- 0.5 -->
      <g transform="translate(143.896014477 462.252276216)scale(0.12 -0.12)">
       <use transform="scale(0.996264009963)" xlink:href="#URW_Palladio_L_Roman-48"/>
       <use transform="translate(49.8132004981 0.0)scale(0.996264009963)" xlink:href="#URW_Palladio_L_Roman-46"/>
       <use transform="translate(74.7198007472 0.0)scale(0.996264009963)" xlink:href="#URW_Palladio_L_Roman-53"/>
      </g>
     </g>
    </g>
    <g id="ytick_17">
     <g id="line2d_39">
      <g>
       <use style="stroke:#000000;stroke-width:0.5;" x="162.839974627" xlink:href="#m43be695cc2" y="435.27872549"/>
      </g>
     </g>
     <g id="text_45">
      <!-- 1.0 -->
      <g transform="translate(143.896014477 437.870021314)scale(0.12 -0.12)">
       <use transform="scale(0.996264009963)" xlink:href="#URW_Palladio_L_Roman-49"/>
       <use transform="translate(49.8132004981 0.0)scale(0.996264009963)" xlink:href="#URW_Palladio_L_Roman-46"/>
       <use transform="translate(74.7198007472 0.0)scale(0.996264009963)" xlink:href="#URW_Palladio_L_Roman-48"/>
      </g>
     </g>
    </g>
    <g id="ytick_18">
     <g id="line2d_40">
      <g>
       <use style="stroke:#000000;stroke-width:0.5;" x="162.839974627" xlink:href="#m43be695cc2" y="410.896470588"/>
      </g>
     </g>
     <g id="text_46">
      <!-- 1.5 -->
      <g transform="translate(143.896014477 413.487766412)scale(0.12 -0.12)">
       <use transform="scale(0.996264009963)" xlink:href="#URW_Palladio_L_Roman-49"/>
       <use transform="translate(49.8132004981 0.0)scale(0.996264009963)" xlink:href="#URW_Palladio_L_Roman-46"/>
       <use transform="translate(74.7198007472 0.0)scale(0.996264009963)" xlink:href="#URW_Palladio_L_Roman-53"/>
      </g>
     </g>
    </g>
    <g id="text_47">
     <!-- ~$PC_{2}$ -->
     <g transform="translate(165.808065127 412.401637492)scale(0.12 -0.12)">
      <use transform="translate(0.0 17.4414305729)scale(0.996264009963)" xlink:href="#URW_Palladio_L_Italic-80"/>
      <use transform="translate(62.9638823893 17.4414305729)scale(0.996264009963)" xlink:href="#URW_Palladio_L_Italic-67"/>
      <use transform="translate(128.169358801 0.0)scale(0.75715517493)" xlink:href="#URW_Palladio_L_Roman-50"/>
     </g>
    </g>
   </g>
   <g id="text_48">
    <!-- Principal components -->
    <defs>
     <path d="M 1.796875 40.078125 
L 5.5 40.078125 
C 9.5 40.078125 9.90625 39.375 9.90625 32.71875 
L 9.90625 10.046875 
C 9.90625 3.703125 9.59375 3 6.203125 3 
L 1.59375 3 
L 1.59375 -0.109375 
C 11.203125 -0.109375 11.5 -0.109375 14.296875 -0.109375 
C 17.09375 -0.109375 19.703125 -0.109375 26.203125 -0.109375 
L 26.203125 2.796875 
L 22 3.203125 
C 18.59375 3.203125 18.296875 3.90625 18.296875 10.21875 
L 18.296875 31.46875 
C 18.296875 35.96875 24.90625 40.875 30.90625 40.875 
C 36.296875 40.875 40 35.734375 40 28.09375 
L 40 10.046875 
C 40 3.703125 39.703125 3 36.296875 3 
L 31.703125 3 
L 31.703125 -0.109375 
C 41.703125 -0.109375 41.703125 -0.109375 44.203125 -0.109375 
C 46.703125 -0.109375 46.703125 -0.109375 56.703125 -0.109375 
L 56.703125 3 
L 52.09375 3 
C 48.703125 3 48.40625 3.703125 48.40625 10.046875 
L 48.40625 31.421875 
C 48.40625 35.9375 55 40.875 61 40.875 
C 66.40625 40.875 70.09375 35.796875 70.09375 28.21875 
L 70.09375 -0.109375 
C 76.203125 -0.109375 76.296875 -0.109375 78 -0.109375 
C 79.296875 -0.109375 79.296875 -0.109375 86.90625 -0.109375 
L 86.90625 3 
L 82.203125 3 
C 78.796875 3 78.5 3.703125 78.5 10.046875 
L 78.5 30.78125 
C 78.5 40.75 72.703125 47 63.5 47 
C 60 47 57.09375 46.09375 55.296875 44.484375 
L 47.703125 37.6875 
C 44.5 44.28125 40.40625 47 33.5 47 
C 29.796875 47 27 46.09375 25.203125 44.484375 
L 18.296875 38.078125 
L 18.296875 46.59375 
L 17.40625 47 
C 12.296875 44.890625 7.09375 43.484375 1.796875 42.890625 
z
" id="URW_Palladio_L_Roman-109"/>
     <path d="M 27.90625 47 
C 13.296875 47 3.203125 36.671875 3.203125 21.75 
C 3.203125 7.609375 12.09375 -2 25 -2 
C 40.40625 -2 51.40625 8.71875 51.40625 23.75 
C 51.40625 37.28125 41.59375 47 27.90625 47 
M 26.09375 43.6875 
C 35.296875 43.6875 42.09375 33.671875 42.09375 20.046875 
C 42.09375 8.515625 37 1.296875 28.90625 1.296875 
C 19.09375 1.296875 12.5 10.921875 12.5 25.15625 
C 12.5 37.171875 17.296875 43.6875 26.09375 43.6875 
" id="URW_Palladio_L_Roman-111"/>
     <path d="M 1 40.078125 
L 4.703125 40.078125 
C 8.703125 40.078125 9.09375 39.375 9.09375 32.734375 
L 9.09375 -17.84375 
C 9.09375 -24.1875 8.796875 -24.890625 5.40625 -24.890625 
L 0.796875 -24.890625 
L 0.796875 -28 
C 10.796875 -28 10.796875 -28 13.296875 -28 
C 15.796875 -28 15.796875 -28 25.796875 -28 
L 25.796875 -24.890625 
L 21.203125 -24.890625 
C 17.796875 -24.890625 17.5 -24.171875 17.5 -17.78125 
L 17.5 1.390625 
C 20.5 -0.40625 23.703125 -1.109375 28.203125 -1.109375 
C 31.09375 -1.109375 33.703125 -0.5 35.296875 0.5 
L 46.703125 7.890625 
C 50.703125 10.5 55.40625 20.78125 55.40625 27.1875 
C 55.40625 38.296875 46.203125 47 34.59375 47 
C 30.90625 47 27.296875 45.984375 25.703125 44.484375 
L 17.5 36.984375 
L 17.5 46.59375 
L 16.59375 47 
C 11.5 44.890625 6.296875 43.484375 1 42.890625 
z
M 17.5 30.6875 
C 17.5 32.078125 18 33.1875 19.296875 34.890625 
C 22.203125 38.578125 26.296875 40.484375 31.296875 40.484375 
C 40.703125 40.484375 46.703125 33.890625 46.703125 23.5 
C 46.703125 12.296875 40 4 31 4 
C 25.5 4 21.40625 5.8125 17.5 9.890625 
z
" id="URW_Palladio_L_Roman-112"/>
     <path d="M 4.09375 14.328125 
C 4.09375 7.421875 3.796875 4.40625 3 0.40625 
C 8.203125 -1.296875 12.09375 -2 16.703125 -2 
C 29.796875 -2 39.09375 5.015625 39.09375 14.828125 
C 39.09375 17.9375 38.203125 20.234375 36.296875 22.25 
C 33.703125 24.75 30.40625 25.953125 21.59375 27.65625 
C 13.40625 29.265625 10.703125 31.265625 10.703125 35.875 
C 10.703125 40.875 14.203125 43.6875 20.296875 43.6875 
C 27 43.6875 32.09375 40.1875 32.09375 35.46875 
L 32.09375 33.171875 
L 34.90625 33.171875 
C 35 38.984375 35.09375 41.375 35.40625 44.484375 
C 30.09375 46.296875 26.5 47 22.40625 47 
C 10.796875 47 3.703125 41.484375 3.703125 32.46875 
C 3.703125 27.65625 5.90625 24.25 10.5 22.140625 
C 13.203125 20.9375 18.5 19.34375 25.296875 17.828125 
C 29.796875 16.828125 31.703125 14.734375 31.703125 10.921875 
C 31.703125 5.515625 26.703125 1.703125 19.59375 1.703125 
C 12.296875 1.703125 7.09375 5.203125 7.09375 10.21875 
L 7.09375 14.328125 
z
" id="URW_Palladio_L_Roman-115"/>
     <path d="M 39.90625 31.15625 
C 39.90625 35.765625 40.40625 39.875 41.296875 43.484375 
C 37.296875 45.890625 33.796875 47 29.703125 47 
C 24.90625 47 19.296875 45.09375 13.296875 41.28125 
C 6.296875 36.875 2.59375 29.859375 2.59375 21.046875 
C 2.59375 7.515625 12.09375 -2 25.5 -2 
C 30.703125 -2 38.203125 -0.09375 39.203125 1.40625 
L 41.296875 4.609375 
L 40.296875 6.109375 
C 36.59375 4.109375 33.40625 3.203125 29.796875 3.203125 
C 18.703125 3.203125 11.40625 11.828125 11.40625 25.046875 
C 11.40625 35.765625 16.40625 41.78125 25.40625 41.78125 
C 29.796875 41.78125 34.59375 39.78125 36.40625 37.28125 
L 37.09375 31.15625 
z
" id="URW_Palladio_L_Roman-99"/>
     <path d="M 21.59375 64.3125 
C 25.09375 65.09375 28 65.5 31.40625 65.5 
C 42.203125 65.5 48 60.546875 48 51.140625 
C 48 42.234375 41.90625 36 33.203125 36 
C 31.09375 36 29.59375 36.203125 27 36.984375 
L 28 33.390625 
C 30.40625 32.890625 31.796875 32.796875 33.796875 32.796875 
C 47.5 32.796875 58 42.0625 58 54.046875 
C 58 63.609375 50.203125 69.5 37.5 69.5 
C 37 69.5 36 69.5 34.703125 69.109375 
C 31 69.109375 23.40625 69.109375 20.5 69.109375 
C 18.296875 69.109375 18.296875 69.109375 2.296875 69.109375 
L 2.296875 66 
L 6.796875 66 
C 11.296875 66 12.09375 64.6875 12.09375 57.234375 
L 12.09375 11.96875 
C 12.09375 4 11.59375 3.203125 7 3.203125 
L 2.203125 3.203125 
L 2.203125 0 
C 8.09375 0 11.59375 0 16.796875 0 
C 22 0 25.59375 0 31.5 0 
L 31.5 3.203125 
L 26.703125 3.203125 
C 22.09375 3.203125 21.59375 4 21.59375 11.9375 
z
" id="URW_Palladio_L_Roman-80"/>
    </defs>
    <g transform="translate(76.6346001132 398.581794118)scale(0.144 -0.144)">
     <use transform="scale(0.996264009963)" xlink:href="#URW_Palladio_L_Roman-80"/>
     <use transform="translate(60.1735952337 0.0)scale(0.996264009963)" xlink:href="#URW_Palladio_L_Roman-114"/>
     <use transform="translate(99.5254915648 0.0)scale(0.996264009963)" xlink:href="#URW_Palladio_L_Roman-105"/>
     <use transform="translate(128.515853027 0.0)scale(0.996264009963)" xlink:href="#URW_Palladio_L_Roman-110"/>
     <use transform="translate(186.497913707 0.0)scale(0.996264009963)" xlink:href="#URW_Palladio_L_Roman-99"/>
     <use transform="translate(230.731482405 0.0)scale(0.996264009963)" xlink:href="#URW_Palladio_L_Roman-105"/>
     <use transform="translate(259.721843867 0.0)scale(0.996264009963)" xlink:href="#URW_Palladio_L_Roman-112"/>
     <use transform="translate(319.59623762 0.0)scale(0.996264009963)" xlink:href="#URW_Palladio_L_Roman-97"/>
     <use transform="translate(369.409438118 0.0)scale(0.996264009963)" xlink:href="#URW_Palladio_L_Roman-108"/>
     <use transform="translate(423.306399829 0.0)scale(0.996264009963)" xlink:href="#URW_Palladio_L_Roman-99"/>
     <use transform="translate(467.539968526 0.0)scale(0.996264009963)" xlink:href="#URW_Palladio_L_Roman-111"/>
     <use transform="translate(521.935548699 0.0)scale(0.996264009963)" xlink:href="#URW_Palladio_L_Roman-109"/>
     <use transform="translate(609.905222968 0.0)scale(0.996264009963)" xlink:href="#URW_Palladio_L_Roman-112"/>
     <use transform="translate(669.779616721 0.0)scale(0.996264009963)" xlink:href="#URW_Palladio_L_Roman-111"/>
     <use transform="translate(724.175196893 0.0)scale(0.996264009963)" xlink:href="#URW_Palladio_L_Roman-110"/>
     <use transform="translate(782.157257574 0.0)scale(0.996264009963)" xlink:href="#URW_Palladio_L_Roman-101"/>
     <use transform="translate(829.877552683 0.0)scale(0.996264009963)" xlink:href="#URW_Palladio_L_Roman-110"/>
     <use transform="translate(887.859613364 0.0)scale(0.996264009963)" xlink:href="#URW_Palladio_L_Roman-116"/>
     <use transform="translate(920.336701238 0.0)scale(0.996264009963)" xlink:href="#URW_Palladio_L_Roman-115"/>
    </g>
   </g>
  </g>
 </g>
 <defs>
  <clipPath id="p46701f63cf">
   <rect height="146.293529412" width="236.597768097" x="27.64125" y="223.216470588"/>
  </clipPath>
  <clipPath id="pb110095d79">
   <rect height="146.293529412" width="236.597768097" x="27.64125" y="35.5364705882"/>
  </clipPath>
  <clipPath id="pee58dc3440">
   <rect height="146.293529412" width="236.597768097" x="27.64125" y="410.896470588"/>
  </clipPath>
 </defs>
</svg>
