<?xml version="1.0" encoding="utf-8" standalone="no"?>
<!DOCTYPE svg PUBLIC "-//W3C//DTD SVG 1.1//EN"
  "http://www.w3.org/Graphics/SVG/1.1/DTD/svg11.dtd">
<!-- Created with matplotlib (http://matplotlib.org/) -->
<svg height="432pt" version="1.1" viewBox="0 0 576 432" width="576pt" xmlns="http://www.w3.org/2000/svg" xmlns:xlink="http://www.w3.org/1999/xlink">
 <defs>
  <style type="text/css">
*{stroke-linecap:butt;stroke-linejoin:round;stroke-miterlimit:100000;}
  </style>
 </defs>
 <g id="figure_1">
  <g id="patch_1">
   <path d="M 0 432 
L 576 432 
L 576 0 
L 0 0 
z
" style="fill:#ffffff;"/>
  </g>
  <g id="axes_1">
   <g id="patch_2">
    <path d="M 51.817912 386.18968 
L 560.051208 386.18968 
L 560.051208 18.92258 
L 51.817912 18.92258 
z
" style="fill:#ffffff;"/>
   </g>
   <g id="line2d_1">
    <path clip-path="url(#pf424c696bd)" d="M 51.817912 305.722865 
L 58.170828 276.571544 
L 64.523744 240.488474 
L 70.876661 203.422433 
L 77.229577 170.152971 
L 83.582493 142.221754 
L 89.935409 121.847855 
L 96.288325 108.787815 
L 102.641242 102.998892 
L 108.994158 108.321393 
L 115.347074 116.782543 
L 121.69999 123.563346 
L 128.052906 131.245625 
L 134.405823 141.675896 
L 140.758739 151.244837 
L 147.111655 162.993836 
L 153.464571 169.475097 
L 159.817487 177.101947 
L 166.170404 183.12447 
L 172.52332 185.015756 
L 178.876236 186.671931 
L 185.229152 187.653346 
L 191.582068 192.020702 
L 197.934985 192.840691 
L 204.287901 192.817105 
L 210.640817 189.770334 
L 216.993733 192.075135 
L 223.346649 192.25063 
L 229.699566 192.438046 
L 236.052482 193.36024 
L 242.405398 193.846711 
L 248.758314 193.242969 
L 255.11123 192.477907 
L 261.464147 194.839244 
L 267.817063 192.527135 
L 274.169979 192.909686 
L 280.522895 193.612265 
L 286.875811 199.389451 
L 293.228728 200.497406 
L 299.581644 201.162737 
L 305.93456 200.746424 
L 312.287476 206.42907 
L 318.640392 213.50307 
L 324.993309 210.968429 
L 331.346225 214.858885 
L 337.699141 209.165255 
L 344.052057 207.511607 
L 350.404973 204.022381 
L 356.75789 202.703752 
L 363.110806 195.956004 
L 369.463722 193.388439 
L 375.816638 189.730684 
L 382.169554 187.421457 
L 388.522471 190.057338 
L 394.875387 190.016974 
L 401.228303 195.743564 
L 407.581219 203.943021 
L 413.934135 208.258794 
L 420.287052 212.601124 
L 426.639968 214.774115 
L 432.992884 215.364288 
L 439.3458 219.178565 
L 445.698716 223.885985 
L 452.051633 223.727197 
L 458.404549 220.386987 
L 464.757465 221.17479 
L 471.110381 211.682061 
L 477.463297 203.738564 
L 483.816214 204.488597 
L 490.16913 206.785703 
L 496.522046 195.180489 
L 502.874962 189.710111 
L 509.227878 178.182087 
L 515.580795 173.827724 
L 521.933711 166.441043 
L 528.286627 169.402552 
L 534.639543 169.412452 
L 540.992459 167.970442 
L 547.345376 166.803563 
L 553.698292 165.826333 
" style="fill:none;stroke:#000000;stroke-linecap:square;stroke-width:2.0;"/>
   </g>
   <g id="line2d_2">
    <path clip-path="url(#pf424c696bd)" d="M 51.817912 250.243645 
L 58.170828 225.380293 
L 64.523744 191.754818 
L 70.876661 156.597632 
L 77.229577 125.130792 
L 83.582493 99.404024 
L 89.935409 80.762923 
L 96.288325 69.080676 
L 102.641242 64.176962 
L 108.994158 69.65796 
L 115.347074 77.732577 
L 121.69999 84.583785 
L 128.052906 92.346857 
L 134.405823 103.284435 
L 140.758739 113.527503 
L 147.111655 125.854327 
L 153.464571 132.972108 
L 159.817487 141.317938 
L 166.170404 148.060156 
L 172.52332 150.609962 
L 178.876236 152.753445 
L 185.229152 154.340627 
L 191.582068 159.444163 
L 197.934985 161.020003 
L 204.287901 161.570143 
L 210.640817 159.047245 
L 216.993733 161.867022 
L 223.346649 162.324129 
L 229.699566 162.838361 
L 236.052482 164.176689 
L 242.405398 165.280355 
L 248.758314 165.101522 
L 255.11123 164.805056 
L 261.464147 167.465318 
L 267.817063 165.343855 
L 274.169979 166.123913 
L 280.522895 167.090173 
L 286.875811 172.969674 
L 293.228728 174.471086 
L 299.581644 175.893494 
L 305.93456 175.513 
L 312.287476 181.651439 
L 318.640392 188.970245 
L 324.993309 186.439269 
L 331.346225 190.941061 
L 337.699141 185.537966 
L 344.052057 184.366954 
L 350.404973 181.271962 
L 356.75789 180.268846 
L 363.110806 173.545605 
L 369.463722 171.776368 
L 375.816638 168.671549 
L 382.169554 166.679967 
L 388.522471 169.171527 
L 394.875387 169.05481 
L 401.228303 175.059159 
L 407.581219 183.153764 
L 413.934135 187.641292 
L 420.287052 191.998908 
L 426.639968 194.531047 
L 432.992884 195.100766 
L 439.3458 199.097475 
L 445.698716 204.020456 
L 452.051633 204.265942 
L 458.404549 201.776397 
L 464.757465 202.773423 
L 471.110381 193.260172 
L 477.463297 185.753768 
L 483.816214 187.243051 
L 490.16913 191.924107 
L 496.522046 180.824085 
L 502.874962 175.356189 
L 509.227878 163.881334 
L 515.580795 159.338007 
L 521.933711 151.648889 
L 528.286627 154.447842 
L 534.639543 154.46336 
L 540.992459 152.906307 
L 547.345376 152.087728 
L 553.698292 151.326692 
" style="fill:none;stroke:#bfbfbf;stroke-linecap:square;stroke-width:2.0;"/>
   </g>
   <g id="line2d_3">
    <path clip-path="url(#pf424c696bd)" d="M 51.817912 361.202085 
L 58.170828 327.762796 
L 64.523744 289.22213 
L 70.876661 250.247235 
L 77.229577 215.17515 
L 83.582493 185.039484 
L 89.935409 162.932787 
L 96.288325 148.494955 
L 102.641242 141.820821 
L 108.994158 146.984827 
L 115.347074 155.832509 
L 121.69999 162.542907 
L 128.052906 170.144394 
L 134.405823 180.067356 
L 140.758739 188.962171 
L 147.111655 200.133345 
L 153.464571 205.978087 
L 159.817487 212.885956 
L 166.170404 218.188784 
L 172.52332 219.42155 
L 178.876236 220.590416 
L 185.229152 220.966066 
L 191.582068 224.59724 
L 197.934985 224.661379 
L 204.287901 224.064067 
L 210.640817 220.493424 
L 216.993733 222.283248 
L 223.346649 222.177131 
L 229.699566 222.037731 
L 236.052482 222.543791 
L 242.405398 222.413068 
L 248.758314 221.384417 
L 255.11123 220.150759 
L 261.464147 222.213169 
L 267.817063 219.710414 
L 274.169979 219.695459 
L 280.522895 220.134357 
L 286.875811 225.809228 
L 293.228728 226.523726 
L 299.581644 226.43198 
L 305.93456 225.979848 
L 312.287476 231.206701 
L 318.640392 238.035894 
L 324.993309 235.497589 
L 331.346225 238.77671 
L 337.699141 232.792544 
L 344.052057 230.656261 
L 350.404973 226.7728 
L 356.75789 225.138659 
L 363.110806 218.366402 
L 369.463722 215.000511 
L 375.816638 210.789819 
L 382.169554 208.162947 
L 388.522471 210.943149 
L 394.875387 210.979139 
L 401.228303 216.427968 
L 407.581219 224.732279 
L 413.934135 228.876295 
L 420.287052 233.20334 
L 426.639968 235.017183 
L 432.992884 235.627811 
L 439.3458 239.259654 
L 445.698716 243.751514 
L 452.051633 243.188453 
L 458.404549 238.997577 
L 464.757465 239.576158 
L 471.110381 230.103949 
L 477.463297 221.723359 
L 483.816214 221.734143 
L 490.16913 221.6473 
L 496.522046 209.536892 
L 502.874962 204.064034 
L 509.227878 192.48284 
L 515.580795 188.317441 
L 521.933711 181.233198 
L 528.286627 184.357262 
L 534.639543 184.361544 
L 540.992459 183.034577 
L 547.345376 181.519398 
L 553.698292 180.325974 
" style="fill:none;stroke:#bfbfbf;stroke-linecap:square;stroke-width:2.0;"/>
   </g>
   <g id="patch_3">
    <path d="M 51.817912 18.92258 
L 560.051208 18.92258 
" style="fill:none;stroke:#000000;stroke-linecap:square;stroke-linejoin:miter;"/>
   </g>
   <g id="patch_4">
    <path d="M 560.051208 386.18968 
L 560.051208 18.92258 
" style="fill:none;stroke:#000000;stroke-linecap:square;stroke-linejoin:miter;"/>
   </g>
   <g id="patch_5">
    <path d="M 51.817912 386.18968 
L 560.051208 386.18968 
" style="fill:none;stroke:#000000;stroke-linecap:square;stroke-linejoin:miter;"/>
   </g>
   <g id="patch_6">
    <path d="M 51.817912 386.18968 
L 51.817912 18.92258 
" style="fill:none;stroke:#000000;stroke-linecap:square;stroke-linejoin:miter;"/>
   </g>
   <g id="matplotlib.axis_1">
    <g id="xtick_1">
     <g id="line2d_4">
      <defs>
       <path d="M 0 0 
L 0 -4 
" id="m8e6b0de87b" style="stroke:#000000;stroke-width:0.5;"/>
      </defs>
      <g>
       <use style="stroke:#000000;stroke-width:0.5;" x="51.8179119805" xlink:href="#m8e6b0de87b" y="386.189680398"/>
      </g>
     </g>
     <g id="line2d_5">
      <defs>
       <path d="M 0 0 
L 0 4 
" id="m9678da14ec" style="stroke:#000000;stroke-width:0.5;"/>
      </defs>
      <g>
       <use style="stroke:#000000;stroke-width:0.5;" x="51.8179119805" xlink:href="#m9678da14ec" y="18.9225799006"/>
      </g>
     </g>
     <g id="text_1">
      <!-- 1 -->
      <defs>
       <path d="M 6.703125 56 
L 7.703125 56 
L 20.59375 61.8125 
C 20.703125 61.90625 20.796875 61.90625 20.90625 61.90625 
C 21.5 61.90625 21.703125 61.015625 21.703125 58.609375 
L 21.703125 9.578125 
C 21.703125 4.3125 20.59375 3.203125 15.203125 3.203125 
L 9.59375 3.203125 
L 9.59375 0 
C 25 0 25 0 26.09375 0 
C 27.40625 0 29.59375 0 33 0 
C 34.203125 0 37.703125 0 41.796875 0 
L 41.796875 3.203125 
L 36.59375 3.203125 
C 31.09375 3.203125 30.09375 4.3125 30.09375 9.5625 
L 30.09375 69.421875 
L 28.703125 69.921875 
C 22.203125 66.515625 15.09375 63.515625 6 60.3125 
z
" id="URW_Palladio_L_Roman-49"/>
      </defs>
      <g transform="translate(48.8291199506 398.743556123)scale(0.12 -0.12)">
       <use transform="scale(0.996264009963)" xlink:href="#URW_Palladio_L_Roman-49"/>
      </g>
     </g>
    </g>
    <g id="xtick_2">
     <g id="line2d_6">
      <g>
       <use style="stroke:#000000;stroke-width:0.5;" x="115.347073979" xlink:href="#m8e6b0de87b" y="386.189680398"/>
      </g>
     </g>
     <g id="line2d_7">
      <g>
       <use style="stroke:#000000;stroke-width:0.5;" x="115.347073979" xlink:href="#m9678da14ec" y="18.9225799006"/>
      </g>
     </g>
     <g id="text_2">
      <!-- 2 -->
      <defs>
       <path d="M 1.59375 2.5 
L 1.59375 0 
C 20.296875 0 20.296875 0 23.90625 0 
C 27.5 0 27.5 0 46.796875 0 
C 46.59375 1.953125 46.59375 2.90625 46.59375 4.203125 
C 46.59375 5.4375 46.59375 6.359375 46.796875 8.421875 
C 35.296875 8.421875 30.703125 8.421875 12.203125 8.421875 
L 30.40625 27.515625 
C 40.09375 37.71875 43.09375 43.171875 43.09375 50.59375 
C 43.09375 61.96875 35.296875 69 22.59375 69 
C 15.40625 69 10.5 67 5.59375 62.015625 
L 3.90625 48.421875 
L 6.796875 48.421875 
L 8.09375 53.015625 
C 9.703125 58.796875 13.296875 61.296875 20 61.296875 
C 28.59375 61.296875 34.09375 55.890625 34.09375 47.421875 
C 34.09375 39.921875 29.90625 32.546875 18.59375 20.5625 
z
" id="URW_Palladio_L_Roman-50"/>
      </defs>
      <g transform="translate(112.358281949 398.743556123)scale(0.12 -0.12)">
       <use transform="scale(0.996264009963)" xlink:href="#URW_Palladio_L_Roman-50"/>
      </g>
     </g>
    </g>
    <g id="xtick_3">
     <g id="line2d_8">
      <g>
       <use style="stroke:#000000;stroke-width:0.5;" x="178.876235978" xlink:href="#m8e6b0de87b" y="386.189680398"/>
      </g>
     </g>
     <g id="line2d_9">
      <g>
       <use style="stroke:#000000;stroke-width:0.5;" x="178.876235978" xlink:href="#m9678da14ec" y="18.9225799006"/>
      </g>
     </g>
     <g id="text_3">
      <!-- 3 -->
      <defs>
       <path d="M 4.296875 49.953125 
L 7.40625 49.953125 
L 9.203125 55.53125 
C 10.296875 58.90625 16.59375 62.296875 21.796875 62.296875 
C 28.296875 62.296875 33.59375 57.015625 33.59375 50.75 
C 33.59375 43.28125 27.703125 37 20.59375 37 
C 19.796875 37 18.703125 37 17.40625 37.203125 
L 15.90625 37.203125 
L 14.703125 31.984375 
L 15.40625 31.375 
C 19.203125 33.09375 21.09375 33.59375 23.796875 33.59375 
C 32.09375 33.59375 36.90625 28.265625 36.90625 19.09375 
C 36.90625 8.84375 30.796875 2.109375 21.5 2.109375 
C 16.90625 2.109375 12.796875 3.609375 9.796875 6.421875 
C 7.40625 8.640625 6.09375 10.953125 4.203125 16.390625 
L 1.5 15.390625 
C 3.59375 9.265625 4.40625 5.640625 5 0.609375 
C 10.296875 -1.203125 14.703125 -2 18.40625 -2 
C 26.40625 -2 35.59375 2.515625 41.09375 9.265625 
C 44.5 13.390625 46.203125 17.8125 46.203125 22.53125 
C 46.203125 27.359375 44.203125 31.59375 40.59375 34.09375 
C 38.09375 35.90625 35.796875 36.71875 30.796875 37.609375 
C 38.796875 43.796875 41.796875 48.375 41.796875 54.25 
C 41.796875 63.125 34.40625 69 23.296875 69 
C 16.5 69 12 67.109375 7.203125 62.328125 
z
" id="URW_Palladio_L_Roman-51"/>
      </defs>
      <g transform="translate(175.887443948 398.743556123)scale(0.12 -0.12)">
       <use transform="scale(0.996264009963)" xlink:href="#URW_Palladio_L_Roman-51"/>
      </g>
     </g>
    </g>
    <g id="xtick_4">
     <g id="line2d_10">
      <g>
       <use style="stroke:#000000;stroke-width:0.5;" x="242.405397977" xlink:href="#m8e6b0de87b" y="386.189680398"/>
      </g>
     </g>
     <g id="line2d_11">
      <g>
       <use style="stroke:#000000;stroke-width:0.5;" x="242.405397977" xlink:href="#m9678da14ec" y="18.9225799006"/>
      </g>
     </g>
     <g id="text_4">
      <!-- 4 -->
      <defs>
       <path d="M 28 18 
L 28 10.515625 
C 28 4.515625 26.90625 3.109375 22 3.109375 
L 15.796875 3.109375 
L 15.796875 0 
C 29.09375 0 29.09375 0 31.5 0 
C 33.90625 0 33.90625 0 47.203125 0 
L 47.203125 3.109375 
L 42.40625 3.109375 
C 37.5 3.109375 36.40625 4.40625 36.40625 10.453125 
L 36.40625 18 
C 42.296875 18 44.40625 18 47.203125 17.703125 
L 47.203125 24.8125 
C 42.5 24.421875 40.59375 24.421875 39.09375 24.421875 
L 38.796875 24.421875 
L 36.40625 24.421875 
L 36.40625 38.390625 
C 36.40625 56.25 36.59375 64.875 37.09375 69 
L 35.90625 69.5 
L 28.5 66.796875 
L 0.203125 20.296875 
L 1.296875 18 
z
M 28 24.421875 
L 6.5 24.421875 
L 28 59.78125 
z
" id="URW_Palladio_L_Roman-52"/>
      </defs>
      <g transform="translate(239.416605947 398.743556123)scale(0.12 -0.12)">
       <use transform="scale(0.996264009963)" xlink:href="#URW_Palladio_L_Roman-52"/>
      </g>
     </g>
    </g>
    <g id="xtick_5">
     <g id="line2d_12">
      <g>
       <use style="stroke:#000000;stroke-width:0.5;" x="305.934559975" xlink:href="#m8e6b0de87b" y="386.189680398"/>
      </g>
     </g>
     <g id="line2d_13">
      <g>
       <use style="stroke:#000000;stroke-width:0.5;" x="305.934559975" xlink:href="#m9678da14ec" y="18.9225799006"/>
      </g>
     </g>
     <g id="text_5">
      <!-- 5 -->
      <defs>
       <path d="M 12.703125 60.578125 
C 25.59375 60.578125 31.203125 60.578125 43.203125 60.578125 
L 43.703125 61.046875 
C 43.5 62.75 43.5 63.5 43.5 64.75 
C 43.5 66.078125 43.5 66.828125 43.703125 68.53125 
L 43.203125 69 
C 35.703125 69 31.203125 69 25.796875 69 
C 20.296875 69 15.90625 69 8.40625 69 
L 7.90625 68.796875 
C 8 62.671875 8.09375 58.265625 8.09375 55.046875 
C 8.09375 46.515625 7.796875 36.875 7.5 32.453125 
L 9.5 31.84375 
C 14.203125 36.578125 16.90625 38 21.796875 38 
C 31.40625 38 37.40625 31.140625 37.40625 20.25 
C 37.40625 9.0625 31 2.5 20.09375 2.5 
C 14.703125 2.5 9.703125 4.328125 8.296875 6.9375 
L 3.703125 15.203125 
L 1.296875 13.796875 
C 3.59375 8.0625 4.796875 4.84375 6.203125 0.421875 
C 9 -1.109375 13 -2 17.296875 -2 
C 24 -2 31.09375 0.921875 36.59375 5.75 
C 42.703125 11.1875 45.90625 18.03125 45.90625 25.46875 
C 45.90625 36.859375 37.796875 44.90625 26.40625 44.90625 
C 21.59375 44.90625 18 43.609375 11.796875 39.90625 
z
" id="URW_Palladio_L_Roman-53"/>
      </defs>
      <g transform="translate(302.945767945 398.743556123)scale(0.12 -0.12)">
       <use transform="scale(0.996264009963)" xlink:href="#URW_Palladio_L_Roman-53"/>
      </g>
     </g>
    </g>
    <g id="xtick_6">
     <g id="line2d_14">
      <g>
       <use style="stroke:#000000;stroke-width:0.5;" x="369.463721974" xlink:href="#m8e6b0de87b" y="386.189680398"/>
      </g>
     </g>
     <g id="line2d_15">
      <g>
       <use style="stroke:#000000;stroke-width:0.5;" x="369.463721974" xlink:href="#m9678da14ec" y="18.9225799006"/>
      </g>
     </g>
     <g id="text_6">
      <!-- 6 -->
      <defs>
       <path d="M 41.59375 67.34375 
L 37.90625 69.046875 
C 28.296875 65.84375 24.203125 63.84375 19.09375 59.4375 
C 8.796875 50.71875 3.203125 38.5 3.203125 24.765625 
C 3.203125 8.21875 11.203125 -2 24.09375 -2 
C 37.09375 -2 46.796875 8.3125 46.796875 21.953125 
C 46.796875 33.484375 39.90625 41 29.296875 41 
C 24.296875 41 21.296875 39.6875 15.40625 34.984375 
C 14.296875 34.078125 14.203125 33.984375 13.09375 33.1875 
C 15.203125 51.3125 23.59375 61.140625 41.59375 66.546875 
z
M 25.5 34.984375 
C 33.09375 34.984375 38.203125 28.375 38.203125 18.453125 
C 38.203125 8.015625 33.09375 1.296875 25.40625 1.296875 
C 16.90625 1.296875 12.296875 8.609375 12.296875 22.0625 
C 12.296875 25.5625 12.703125 27.46875 13.796875 29.171875 
C 16 32.578125 20.703125 34.984375 25.5 34.984375 
" id="URW_Palladio_L_Roman-54"/>
      </defs>
      <g transform="translate(366.474929944 398.743556123)scale(0.12 -0.12)">
       <use transform="scale(0.996264009963)" xlink:href="#URW_Palladio_L_Roman-54"/>
      </g>
     </g>
    </g>
    <g id="xtick_7">
     <g id="line2d_16">
      <g>
       <use style="stroke:#000000;stroke-width:0.5;" x="432.992883973" xlink:href="#m8e6b0de87b" y="386.189680398"/>
      </g>
     </g>
     <g id="line2d_17">
      <g>
       <use style="stroke:#000000;stroke-width:0.5;" x="432.992883973" xlink:href="#m9678da14ec" y="18.9225799006"/>
      </g>
     </g>
     <g id="text_7">
      <!-- 7 -->
      <defs>
       <path d="M 5.59375 0.5 
L 6.5 -0.796875 
C 10.40625 -0.5 10.40625 -0.5 11.09375 -0.5 
C 11.796875 -0.5 11.796875 -0.5 15.703125 -0.796875 
C 19.90625 10.140625 24.796875 20.578125 31.40625 32.609375 
L 49.703125 65.609375 
L 49.703125 68.3125 
C 38.90625 68.3125 35.40625 68.3125 27.296875 68.3125 
C 20 68.3125 15.09375 68.3125 5.40625 68.3125 
L 4.40625 68.109375 
C 4.703125 58.59375 4.703125 58.59375 4.703125 57.578125 
C 4.703125 56.46875 4.703125 56.46875 4.40625 47.359375 
L 7.40625 47.359375 
L 8.09375 52.96875 
C 8.90625 59.203125 9.59375 60 14.203125 60 
L 40.90625 60 
C 36.90625 51.765625 33.796875 45.953125 30 39.828125 
z
" id="URW_Palladio_L_Roman-55"/>
      </defs>
      <g transform="translate(430.004091943 398.743556123)scale(0.12 -0.12)">
       <use transform="scale(0.996264009963)" xlink:href="#URW_Palladio_L_Roman-55"/>
      </g>
     </g>
    </g>
    <g id="xtick_8">
     <g id="line2d_18">
      <g>
       <use style="stroke:#000000;stroke-width:0.5;" x="496.522045971" xlink:href="#m8e6b0de87b" y="386.189680398"/>
      </g>
     </g>
     <g id="line2d_19">
      <g>
       <use style="stroke:#000000;stroke-width:0.5;" x="496.522045971" xlink:href="#m9678da14ec" y="18.9225799006"/>
      </g>
     </g>
     <g id="text_8">
      <!-- 8 -->
      <defs>
       <path d="M 16.796875 34.546875 
C 12.703125 32.65625 11 31.546875 8.796875 29.4375 
C 5 25.640625 3 21.125 3 15.921875 
C 3 5.609375 11.296875 -2 22.59375 -2 
C 35.59375 -2 46.40625 8.21875 46.40625 20.625 
C 46.40625 28.640625 42.703125 32.953125 31.296875 38.15625 
C 40.40625 44.375 43.59375 48.578125 43.59375 54.578125 
C 43.59375 63.1875 36.5 69 25.90625 69 
C 14 69 5.296875 61.390625 5.296875 50.890625 
C 5.296875 44.078125 8 40.265625 16.796875 34.546875 
M 28.40625 29.546875 
C 34.703125 26.734375 38.5 21.828125 38.5 16.4375 
C 38.5 8.015625 32.203125 1.40625 24.09375 1.40625 
C 15.59375 1.40625 10.09375 7.421875 10.09375 16.734375 
C 10.09375 24.03125 13 28.640625 20.40625 33.15625 
z
M 22.296875 42.375 
C 16 45.46875 12.796875 49.484375 12.796875 54.484375 
C 12.796875 61.09375 17.59375 65.59375 24.703125 65.59375 
C 32 65.59375 36.796875 60.796875 36.796875 53.46875 
C 36.796875 47.78125 34.296875 43.875 27.796875 39.65625 
z
" id="URW_Palladio_L_Roman-56"/>
      </defs>
      <g transform="translate(493.533253942 398.743556123)scale(0.12 -0.12)">
       <use transform="scale(0.996264009963)" xlink:href="#URW_Palladio_L_Roman-56"/>
      </g>
     </g>
    </g>
    <g id="xtick_9">
     <g id="line2d_20">
      <g>
       <use style="stroke:#000000;stroke-width:0.5;" x="560.05120797" xlink:href="#m8e6b0de87b" y="386.189680398"/>
      </g>
     </g>
     <g id="line2d_21">
      <g>
       <use style="stroke:#000000;stroke-width:0.5;" x="560.05120797" xlink:href="#m9678da14ec" y="18.9225799006"/>
      </g>
     </g>
     <g id="text_9">
      <!-- 9 -->
      <defs>
       <path d="M 9.59375 -1.65625 
C 20.703125 1.953125 25.5 4.25 30.90625 8.84375 
C 40.59375 17.15625 45.703125 28.671875 45.703125 42.078125 
C 45.703125 59 37.59375 69.296875 24.40625 69.296875 
C 11.59375 69.296875 2 59.296875 2 45.90625 
C 2 34.390625 9.5 26 19.90625 26 
C 23.296875 26 27.203125 27.09375 29 28.59375 
L 36 34.40625 
C 35.203125 17.578125 24.296875 5.25 6.203125 0.84375 
L 6.203125 0.046875 
z
M 24 66 
C 28.5 66 31.796875 64.09375 34 60.09375 
C 35.796875 56.890625 37 52 37 47.5 
C 37 38.296875 31.703125 32.109375 24 32.109375 
C 16 32.109375 10.59375 39.203125 10.59375 49.59375 
C 10.59375 59.703125 15.796875 66 24 66 
" id="URW_Palladio_L_Roman-57"/>
      </defs>
      <g transform="translate(557.06241594 398.743556123)scale(0.12 -0.12)">
       <use transform="scale(0.996264009963)" xlink:href="#URW_Palladio_L_Roman-57"/>
      </g>
     </g>
    </g>
    <g id="text_10">
     <!-- Distance of bin centre from LG centre (Mpc) -->
     <defs>
      <path d="M 1.796875 40.078125 
L 5.5 40.078125 
C 9.5 40.078125 9.90625 39.375 9.90625 32.71875 
L 9.90625 10.046875 
C 9.90625 3.703125 9.59375 3 6.203125 3 
L 1.59375 3 
L 1.59375 -0.109375 
C 11.203125 -0.109375 11.5 -0.109375 14.296875 -0.109375 
C 17.09375 -0.109375 19.703125 -0.109375 26.203125 -0.109375 
L 26.203125 2.796875 
L 22 3.203125 
C 18.59375 3.203125 18.296875 3.90625 18.296875 10.21875 
L 18.296875 31.46875 
C 18.296875 35.96875 24.90625 40.875 30.90625 40.875 
C 36.296875 40.875 40 35.734375 40 28.09375 
L 40 10.046875 
C 40 3.703125 39.703125 3 36.296875 3 
L 31.703125 3 
L 31.703125 -0.109375 
C 41.703125 -0.109375 41.703125 -0.109375 44.203125 -0.109375 
C 46.703125 -0.109375 46.703125 -0.109375 56.703125 -0.109375 
L 56.703125 3 
L 52.09375 3 
C 48.703125 3 48.40625 3.703125 48.40625 10.046875 
L 48.40625 31.421875 
C 48.40625 35.9375 55 40.875 61 40.875 
C 66.40625 40.875 70.09375 35.796875 70.09375 28.21875 
L 70.09375 -0.109375 
C 76.203125 -0.109375 76.296875 -0.109375 78 -0.109375 
C 79.296875 -0.109375 79.296875 -0.109375 86.90625 -0.109375 
L 86.90625 3 
L 82.203125 3 
C 78.796875 3 78.5 3.703125 78.5 10.046875 
L 78.5 30.78125 
C 78.5 40.75 72.703125 47 63.5 47 
C 60 47 57.09375 46.09375 55.296875 44.484375 
L 47.703125 37.6875 
C 44.5 44.28125 40.40625 47 33.5 47 
C 29.796875 47 27 46.09375 25.203125 44.484375 
L 18.296875 38.078125 
L 18.296875 46.59375 
L 17.40625 47 
C 12.296875 44.890625 7.09375 43.484375 1.796875 42.890625 
z
" id="URW_Palladio_L_Roman-109"/>
      <path d="M 15 72.1875 
L 14.09375 73 
C 9.703125 71.296875 6.40625 70.484375 -1.5 69.28125 
L -1.5 66.484375 
L 4.09375 66.484375 
C 5.90625 66.484375 6.59375 65.375 6.59375 62.359375 
L 6.59375 15.453125 
C 6.59375 9.234375 6.5 6.5 5.796875 -0.515625 
L 7.40625 -1.109375 
L 11.40625 2.5 
C 15.40625 -0.109375 19 -1.109375 24.296875 -1.109375 
C 28.203125 -1.109375 30.796875 -0.40625 32.90625 1.09375 
L 42.90625 8.296875 
C 47.296875 11.484375 50.796875 19.78125 50.796875 27.078125 
C 50.796875 38.6875 43.296875 47 32.703125 47 
C 28 47 23.09375 45.1875 20.5 42.578125 
L 15 36.984375 
z
M 15 30.890625 
C 15 32.28125 16 34.078125 17.59375 35.890625 
C 20.40625 38.78125 24.296875 40.484375 28.40625 40.484375 
C 36.796875 40.484375 42.09375 33.6875 42.09375 23 
C 42.09375 11.796875 36.09375 4 27.59375 4 
C 22.40625 4 15 7.1875 15 9.390625 
z
" id="URW_Palladio_L_Roman-98"/>
      <path d="M 27.90625 47 
C 13.296875 47 3.203125 36.671875 3.203125 21.75 
C 3.203125 7.609375 12.09375 -2 25 -2 
C 40.40625 -2 51.40625 8.71875 51.40625 23.75 
C 51.40625 37.28125 41.59375 47 27.90625 47 
M 26.09375 43.6875 
C 35.296875 43.6875 42.09375 33.671875 42.09375 20.046875 
C 42.09375 8.515625 37 1.296875 28.90625 1.296875 
C 19.09375 1.296875 12.5 10.921875 12.5 25.15625 
C 12.5 37.171875 17.296875 43.6875 26.09375 43.6875 
" id="URW_Palladio_L_Roman-111"/>
      <path d="M 41 -0.109375 
C 47.09375 -0.109375 47.203125 -0.109375 48.90625 -0.109375 
C 50.296875 -0.109375 50.296875 -0.109375 57.203125 -0.109375 
L 57.203125 2.796875 
L 53.09375 3.203125 
C 49.703125 3.203125 49.40625 3.8125 49.40625 10.21875 
L 49.40625 29.5625 
C 49.40625 41.28125 43.90625 47 32.703125 47 
C 29 47 26.90625 46.296875 24.796875 44.484375 
L 17.203125 37.875 
L 17.203125 46.59375 
L 16.296875 47 
C 11.203125 44.890625 6 43.484375 0.703125 42.890625 
L 0.703125 40.078125 
L 4.40625 40.078125 
C 8.40625 40.078125 8.796875 39.375 8.796875 32.71875 
L 8.796875 10.046875 
C 8.796875 3.703125 8.5 3 5.09375 3 
L 0.59375 3 
L 0.59375 -0.109375 
C 7.40625 -0.109375 10.09375 -0.109375 13 -0.109375 
C 15.90625 -0.109375 18.59375 -0.109375 25.40625 -0.109375 
L 25.40625 3 
L 20.90625 3 
C 17.5 3 17.203125 3.703125 17.203125 10.046875 
L 17.203125 31.421875 
C 17.203125 35.9375 23.796875 40.875 29.90625 40.875 
C 36.59375 40.875 41 35.890625 41 28.21875 
z
" id="URW_Palladio_L_Roman-110"/>
      <path d="M 43.703125 6.984375 
L 42.40625 7.984375 
C 36 4.203125 33.703125 3.3125 29.40625 3.3125 
C 22.90625 3.3125 17.5 6.21875 14.703125 11.109375 
C 12.796875 14.390625 12.09375 17.203125 11.90625 23 
L 26.5 23 
C 33.40625 23 37.703125 23 44.59375 24.125 
C 44.703125 25.53125 44.796875 26.453125 44.796875 27.671875 
C 44.796875 39.375 37.40625 47 26.203125 47 
C 22.5 47 18.203125 45.6875 14.09375 43.28125 
C 5.90625 38.578125 2.59375 32.359375 2.59375 21.9375 
C 2.59375 15.625 4.09375 10.21875 6.796875 6.40625 
C 10.796875 1.109375 17.5 -2 25 -2 
C 28.703125 -2 32.40625 -1.203125 36.5 0.578125 
C 39.203125 1.6875 41.296875 2.984375 41.703125 3.59375 
z
M 35.90625 26.40625 
C 30.703125 26.40625 28.296875 26.40625 24.703125 26.40625 
C 20.09375 26.40625 17.5 26.40625 12.09375 26.90625 
C 12.09375 31.671875 12.5 33.890625 13.796875 36.515625 
C 15.90625 40.96875 20.203125 43.6875 25 43.6875 
C 28.296875 43.6875 30.90625 42.359375 32.703125 39.59375 
C 34.90625 36.234375 35.59375 33.265625 35.90625 26.40625 
" id="URW_Palladio_L_Roman-101"/>
      <path d="M 4.09375 14.328125 
C 4.09375 7.421875 3.796875 4.40625 3 0.40625 
C 8.203125 -1.296875 12.09375 -2 16.703125 -2 
C 29.796875 -2 39.09375 5.015625 39.09375 14.828125 
C 39.09375 17.9375 38.203125 20.234375 36.296875 22.25 
C 33.703125 24.75 30.40625 25.953125 21.59375 27.65625 
C 13.40625 29.265625 10.703125 31.265625 10.703125 35.875 
C 10.703125 40.875 14.203125 43.6875 20.296875 43.6875 
C 27 43.6875 32.09375 40.1875 32.09375 35.46875 
L 32.09375 33.171875 
L 34.90625 33.171875 
C 35 38.984375 35.09375 41.375 35.40625 44.484375 
C 30.09375 46.296875 26.5 47 22.40625 47 
C 10.796875 47 3.703125 41.484375 3.703125 32.46875 
C 3.703125 27.65625 5.90625 24.25 10.5 22.140625 
C 13.203125 20.9375 18.5 19.34375 25.296875 17.828125 
C 29.796875 16.828125 31.703125 14.734375 31.703125 10.921875 
C 31.703125 5.515625 26.703125 1.703125 19.59375 1.703125 
C 12.296875 1.703125 7.09375 5.203125 7.09375 10.21875 
L 7.09375 14.328125 
z
" id="URW_Palladio_L_Roman-115"/>
      <path d="M 2.296875 40.078125 
L 6 40.078125 
C 10 40.078125 10.40625 39.375 10.40625 32.71875 
L 10.40625 10.046875 
C 10.40625 3.703125 10.09375 3 6.703125 3 
L 2.09375 3 
L 2.09375 -0.109375 
C 9.296875 -0.109375 11.90625 -0.109375 14.40625 -0.109375 
C 16.40625 -0.109375 16.40625 -0.109375 28.703125 -0.109375 
L 28.703125 3 
L 23.5 3 
C 19 3 18.796875 3.296875 18.796875 9.96875 
L 18.796875 27.359375 
C 18.796875 33.421875 22.796875 38.484375 27.703125 38.484375 
C 30.703125 38.484375 32.796875 37.078125 34.40625 33.890625 
L 36.5 33.890625 
L 37.40625 45.890625 
C 36.296875 46.59375 34.5 47 32.703125 47 
C 29.703125 47 26.5 45.390625 24.40625 42.890625 
L 18.796875 36.28125 
L 18.796875 46.59375 
L 17.90625 47 
C 12.796875 44.890625 7.59375 43.484375 2.296875 42.890625 
z
" id="URW_Palladio_L_Roman-114"/>
      <path d="M 9.796875 38.6875 
L 9.796875 9.671875 
C 9.796875 2.21875 13.09375 -1 20.796875 -1 
C 23.09375 -1 25.5 -0.5 26.09375 0.203125 
L 30.90625 5.515625 
L 29.59375 7.234375 
C 27.09375 5.8125 25.59375 5.3125 23.703125 5.3125 
C 19.796875 5.3125 18.203125 7.34375 18.203125 12.3125 
L 18.203125 38.890625 
L 31 38.890625 
L 31.90625 44 
L 18.203125 44 
L 18.203125 47.75 
C 18.203125 51.890625 18.5 55.421875 19.296875 61.734375 
L 18.09375 62.828125 
C 15.703125 61.328125 12.703125 60.03125 9.59375 59.03125 
C 9.90625 56.015625 10 54.109375 10 51.109375 
L 10 44.09375 
L 2.203125 40.59375 
L 2.203125 38.6875 
z
" id="URW_Palladio_L_Roman-116"/>
      <path d="M 39.90625 31.15625 
C 39.90625 35.765625 40.40625 39.875 41.296875 43.484375 
C 37.296875 45.890625 33.796875 47 29.703125 47 
C 24.90625 47 19.296875 45.09375 13.296875 41.28125 
C 6.296875 36.875 2.59375 29.859375 2.59375 21.046875 
C 2.59375 7.515625 12.09375 -2 25.5 -2 
C 30.703125 -2 38.203125 -0.09375 39.203125 1.40625 
L 41.296875 4.609375 
L 40.296875 6.109375 
C 36.59375 4.109375 33.40625 3.203125 29.796875 3.203125 
C 18.703125 3.203125 11.40625 11.828125 11.40625 25.046875 
C 11.40625 35.765625 16.40625 41.78125 25.40625 41.78125 
C 29.796875 41.78125 34.59375 39.78125 36.40625 37.28125 
L 37.09375 31.15625 
z
" id="URW_Palladio_L_Roman-99"/>
      <path d="M 34.09375 71.890625 
C 32 72.6875 30.796875 73 29.5 73 
C 26.296875 73 22.796875 71.296875 20.59375 68.8125 
L 14.796875 62.265625 
C 11.90625 58.984375 10.59375 54.53125 10.59375 47.96875 
L 10.59375 43.796875 
L 3.703125 40.6875 
L 3.703125 38.6875 
L 10.59375 38.6875 
L 10.59375 10.171875 
C 10.59375 3.8125 10.296875 3.109375 6.90625 3.109375 
L 2.296875 3.109375 
L 2.296875 0 
C 12.296875 0 12.296875 0 14.796875 0 
C 17.296875 0 17.296875 0 27.296875 0 
L 27.296875 3.109375 
L 22.703125 3.109375 
C 19.296875 3.109375 19 3.828125 19 10.203125 
L 19 38.890625 
L 31.40625 38.890625 
L 32.09375 44 
L 19 44 
L 19 52.34375 
C 19 63.640625 20.296875 66.375 26 66.375 
C 28.703125 66.375 30.5 65.6875 32.90625 63.609375 
L 34.09375 64.203125 
z
" id="URW_Palladio_L_Roman-102"/>
      <path d="M 73.203125 12.234375 
C 73.203125 4.3125 72.796875 3.609375 68.09375 3.203125 
L 64.703125 2.90625 
L 64.703125 0 
C 69.296875 0 72.296875 0 77.5 0 
C 83.09375 0 86.703125 0 92.59375 0 
L 92.59375 3.203125 
L 87.796875 3.203125 
C 83.203125 3.203125 82.703125 4 82.703125 11.96875 
L 82.703125 57.234375 
C 82.703125 65.09375 83.203125 66 87.796875 66 
L 92 66.5 
L 92 69.3125 
C 84.40625 69.3125 84.40625 69.3125 82.703125 69.3125 
C 81.203125 69.3125 81.203125 69.3125 73.203125 69.3125 
L 47 13.8125 
L 20.59375 69.3125 
C 12.59375 69.3125 12.59375 69.3125 11.09375 69.3125 
C 9.59375 69.3125 9.59375 69.3125 1.59375 69.3125 
L 1.59375 66.203125 
L 6 66.203125 
C 10.59375 66.203125 11.09375 65.28125 11.09375 57.40625 
L 11.09375 12 
C 11.09375 4.109375 10.59375 3.203125 6 3.203125 
L 1.59375 3.203125 
L 1.59375 0 
C 11.5 0 11.5 0 13.203125 0 
C 14.703125 0 14.703125 0 25.203125 0 
L 25.203125 3.203125 
L 20.796875 3.203125 
C 16.203125 3.203125 15.703125 4.09375 15.703125 11.96875 
L 15.703125 58.09375 
L 43.59375 -1 
L 45.59375 -1 
C 46.296875 0.5 46.90625 2.09375 47.5 3.59375 
C 49.09375 7.5 50.296875 10.28125 51 11.6875 
L 68.796875 49.484375 
C 70.203125 52.390625 71.40625 54.6875 73.203125 58.09375 
z
" id="URW_Palladio_L_Roman-77"/>
      <path d="M 30.09375 -19.4375 
C 22.90625 -10.515625 20.296875 -5.71875 17.703125 3.3125 
C 15.59375 10.515625 14.59375 18.140625 14.59375 26.65625 
C 14.59375 34.96875 15.59375 42.078125 17.5 48.59375 
C 20.09375 56.90625 22.796875 61.625 30.09375 70.140625 
L 28.203125 72.75 
C 17.796875 63.421875 13.703125 57.921875 9.90625 48.09375 
C 7.296875 41.375 6 34.265625 6 26.65625 
C 6 15.9375 8.5 5.8125 13.296875 -3.203125 
C 16.796875 -9.921875 20 -13.828125 28.203125 -21.546875 
z
" id="URW_Palladio_L_Roman-40"/>
      <path d="M 1 40.078125 
L 4.703125 40.078125 
C 8.703125 40.078125 9.09375 39.375 9.09375 32.734375 
L 9.09375 -17.84375 
C 9.09375 -24.1875 8.796875 -24.890625 5.40625 -24.890625 
L 0.796875 -24.890625 
L 0.796875 -28 
C 10.796875 -28 10.796875 -28 13.296875 -28 
C 15.796875 -28 15.796875 -28 25.796875 -28 
L 25.796875 -24.890625 
L 21.203125 -24.890625 
C 17.796875 -24.890625 17.5 -24.171875 17.5 -17.78125 
L 17.5 1.390625 
C 20.5 -0.40625 23.703125 -1.109375 28.203125 -1.109375 
C 31.09375 -1.109375 33.703125 -0.5 35.296875 0.5 
L 46.703125 7.890625 
C 50.703125 10.5 55.40625 20.78125 55.40625 27.1875 
C 55.40625 38.296875 46.203125 47 34.59375 47 
C 30.90625 47 27.296875 45.984375 25.703125 44.484375 
L 17.5 36.984375 
L 17.5 46.59375 
L 16.59375 47 
C 11.5 44.890625 6.296875 43.484375 1 42.890625 
z
M 17.5 30.6875 
C 17.5 32.078125 18 33.1875 19.296875 34.890625 
C 22.203125 38.578125 26.296875 40.484375 31.296875 40.484375 
C 40.703125 40.484375 46.703125 33.890625 46.703125 23.5 
C 46.703125 12.296875 40 4 31 4 
C 25.5 4 21.40625 5.8125 17.5 9.890625 
z
" id="URW_Palladio_L_Roman-112"/>
      <path d="M 64.09375 51.671875 
L 67.203125 51.671875 
C 67.203125 56.765625 67.796875 61.46875 69.203125 66.875 
C 58.09375 70.09375 53 71 45 71 
C 19.203125 71 2.203125 56.375 2.203125 34.15625 
C 2.203125 24.03125 5.59375 15.015625 11.90625 8.921875 
C 18.796875 2 29.59375 -2 41.203125 -2 
C 48.296875 -2 55.203125 -0.703125 68.796875 3.109375 
L 68.796875 19.90625 
C 68.796875 23.015625 68.90625 23.21875 69.90625 23.609375 
L 72.796875 24.625 
L 72.40625 27.03125 
C 63.5 27.03125 63.203125 27.03125 60.09375 27.03125 
C 57.203125 27.03125 56.59375 27.03125 47.90625 27.03125 
L 47.90625 24.125 
L 56.203125 23.4375 
C 58.703125 23.234375 59.59375 22.328125 59.59375 19.921875 
L 59.59375 9.8125 
C 59.59375 7.421875 59.40625 6.21875 59 5.515625 
C 57.90625 3.609375 51.90625 2.203125 45.296875 2.203125 
C 25.5 2.203125 12.90625 15.421875 12.90625 36.234375 
C 12.90625 55.5625 23.703125 66.78125 42.40625 66.78125 
C 47.59375 66.78125 52 66.1875 55.796875 64.984375 
C 61.59375 63.078125 64.09375 60.78125 64.09375 56.984375 
z
" id="URW_Palladio_L_Roman-71"/>
      <path d="M 18.796875 46.765625 
L 17.90625 47.171875 
C 12.796875 45.0625 7.59375 43.640625 2.296875 43.046875 
L 2.296875 40.25 
L 6 40.25 
C 10 40.25 10.40625 39.546875 10.40625 32.890625 
L 10.40625 10.171875 
C 10.40625 3.8125 10.09375 3.109375 6.703125 3.109375 
L 2.09375 3.109375 
L 2.09375 0 
C 12.09375 0 12.09375 0 14.59375 0 
C 17.09375 0 17.09375 0 27.09375 0 
L 27.09375 3.109375 
L 22.5 3.109375 
C 19.09375 3.109375 18.796875 3.8125 18.796875 10.171875 
z
M 14.203125 69 
C 11.203125 69 8.59375 66.390625 8.59375 63.375 
C 8.59375 60.46875 11.203125 57.875 14.09375 57.875 
C 17 57.875 19.703125 60.46875 19.703125 63.375 
C 19.703125 66.1875 17 69 14.203125 69 
" id="URW_Palladio_L_Roman-105"/>
      <path d="M 5.703125 2.203125 
L 5.703125 0 
C 17.296875 0 17.296875 0 19.59375 0 
C 21.40625 0 23 0 24.796875 0 
C 32.703125 0 32.703125 0 34.09375 0 
C 46.90625 0 56.5 3.265625 63.5 10.125 
C 70.703125 17.171875 75.09375 27.890625 75.09375 38.515625 
C 75.09375 56.984375 61.296875 69 40.203125 69 
C 39.5 69 38.203125 69 36.40625 69 
C 31.40625 69 27.09375 69 22.796875 69 
C 19.09375 69 13.59375 69 2.203125 69 
L 2.203125 66.1875 
L 6.203125 65.6875 
C 10.796875 65.6875 11.296875 64.78125 11.296875 57 
L 11.296875 9.6875 
C 11.296875 6.796875 10.40625 4.59375 8.796875 3.8125 
z
M 20.796875 64.390625 
C 23.40625 64.890625 26.90625 65.1875 31.90625 65.1875 
C 39.203125 65.1875 47.203125 63.90625 51.40625 62 
C 53.59375 61.109375 55.5 59.71875 57.296875 57.921875 
C 62.09375 53.15625 64.40625 45.984375 64.40625 36.03125 
C 64.40625 24.90625 61 16.34375 54.40625 10.96875 
C 48.40625 6.09375 42.40625 4.40625 31.09375 4.40625 
C 26.5 4.40625 23.40625 4.40625 20.796875 5.109375 
z
" id="URW_Palladio_L_Roman-68"/>
      <path d="M 21.59375 57.265625 
C 21.59375 65.1875 22.09375 66 26.703125 66 
L 31.5 66 
L 31.5 69.109375 
C 24.203125 69.109375 22 69.109375 16.796875 69.109375 
C 11.796875 69.109375 9.40625 69.109375 2.203125 69.109375 
L 2.203125 66 
L 7 66 
C 11.59375 66 12.09375 65.1875 12.09375 57.265625 
L 12.09375 9.71875 
C 12.09375 6.8125 11.203125 4.609375 9.59375 3.8125 
L 6.5 2.203125 
L 6.5 0 
C 13.09375 0 13.796875 0 16.40625 0 
C 17.296875 0 18.90625 0 21.09375 0 
C 26 0 36.90625 0 39.703125 0 
C 42.90625 0 42.90625 0 56.5 0 
C 57.203125 4.359375 57.59375 7.578125 58.59375 17.390625 
L 55.40625 17.390625 
L 54.203125 12.390625 
C 54.09375 12.09375 54 11.390625 53.90625 11.296875 
C 53.296875 8.40625 52.59375 6.40625 52 5.921875 
C 50.703125 4.8125 42 4.109375 30.09375 4.109375 
C 26.5 4.109375 24.203125 4.3125 21.59375 4.90625 
z
" id="URW_Palladio_L_Roman-76"/>
      <path d="M 32.40625 8.40625 
L 31.90625 -0.015625 
C 38.40625 -0.015625 38.40625 -0.015625 39.703125 -0.015625 
C 40.203125 -0.015625 42.703125 -0.015625 47.09375 -0.015625 
L 47.09375 3 
L 43.203125 3 
C 40.796875 3 40.40625 3.8125 40.40625 8.71875 
L 40.40625 27.046875 
C 40.40625 41.6875 36.203125 47 24.59375 47 
C 20.296875 47 16.296875 45.890625 12.5 43.609375 
L 7.203125 40.390625 
L 7.203125 33.921875 
L 9.796875 33.21875 
L 11.09375 36.296875 
C 13.203125 40.984375 14.203125 41.6875 18.796875 41.6875 
C 28.203125 41.6875 32.09375 37.984375 32.40625 28.9375 
L 22.5 27.125 
C 8.90625 24.640625 3.203125 19.953125 3.203125 11.28125 
C 3.203125 3.5 7.90625 -1 15.796875 -1 
C 17.59375 -1 19.296875 -0.703125 20 -0.203125 
z
M 32.40625 12.59375 
C 29.5 8.5 23.203125 4.71875 19.296875 4.71875 
C 15.296875 4.71875 11.796875 8.40625 11.796875 12.6875 
C 11.796875 16.375 13.796875 19.859375 16.796875 21.75 
C 19.296875 23.25 24.796875 24.640625 32.40625 25.75 
z
" id="URW_Palladio_L_Roman-97"/>
      <path d="M 5.09375 -21.546875 
C 12 -15.03125 14.90625 -11.71875 18 -6.8125 
C 24.09375 2.90625 27.296875 14.53125 27.296875 26.546875 
C 27.296875 34.265625 26 41.375 23.40625 48.09375 
C 19.59375 57.8125 15.5 63.328125 5.09375 72.75 
L 3.203125 70.140625 
C 10.5 61.515625 13.203125 56.8125 15.703125 48.59375 
C 17.703125 42.078125 18.703125 34.96875 18.703125 26.65625 
C 18.703125 18.140625 17.703125 10.515625 15.59375 3.3125 
C 13 -5.71875 10.40625 -10.515625 3.203125 -19.4375 
z
" id="URW_Palladio_L_Roman-41"/>
     </defs>
     <g transform="translate(189.857101725 415.668715924)scale(0.12 -0.12)">
      <use transform="scale(0.996264009963)" xlink:href="#URW_Palladio_L_Roman-68"/>
      <use transform="translate(77.1107522815 0.0)scale(0.996264009963)" xlink:href="#URW_Palladio_L_Roman-105"/>
      <use transform="translate(106.101113743 0.0)scale(0.996264009963)" xlink:href="#URW_Palladio_L_Roman-115"/>
      <use transform="translate(148.342580071 0.0)scale(0.996264009963)" xlink:href="#URW_Palladio_L_Roman-116"/>
      <use transform="translate(180.819667944 0.0)scale(0.996264009963)" xlink:href="#URW_Palladio_L_Roman-97"/>
      <use transform="translate(230.632868443 0.0)scale(0.996264009963)" xlink:href="#URW_Palladio_L_Roman-110"/>
      <use transform="translate(288.614929123 0.0)scale(0.996264009963)" xlink:href="#URW_Palladio_L_Roman-99"/>
      <use transform="translate(332.848497821 0.0)scale(0.996264009963)" xlink:href="#URW_Palladio_L_Roman-101"/>
      <use transform="translate(405.475393179 0.0)scale(0.996264009963)" xlink:href="#URW_Palladio_L_Roman-111"/>
      <use transform="translate(459.870973352 0.0)scale(0.996264009963)" xlink:href="#URW_Palladio_L_Roman-102"/>
      <use transform="translate(517.95280333 0.0)scale(0.996264009963)" xlink:href="#URW_Palladio_L_Roman-98"/>
      <use transform="translate(573.045202804 0.0)scale(0.996264009963)" xlink:href="#URW_Palladio_L_Roman-105"/>
      <use transform="translate(602.035564266 0.0)scale(0.996264009963)" xlink:href="#URW_Palladio_L_Roman-110"/>
      <use transform="translate(684.924225196 0.0)scale(0.996264009963)" xlink:href="#URW_Palladio_L_Roman-99"/>
      <use transform="translate(729.157793893 0.0)scale(0.996264009963)" xlink:href="#URW_Palladio_L_Roman-101"/>
      <use transform="translate(776.878089002 0.0)scale(0.996264009963)" xlink:href="#URW_Palladio_L_Roman-110"/>
      <use transform="translate(834.860149683 0.0)scale(0.996264009963)" xlink:href="#URW_Palladio_L_Roman-116"/>
      <use transform="translate(867.337237556 0.0)scale(0.996264009963)" xlink:href="#URW_Palladio_L_Roman-114"/>
      <use transform="translate(904.896554911 0.0)scale(0.996264009963)" xlink:href="#URW_Palladio_L_Roman-101"/>
      <use transform="translate(977.523450269 0.0)scale(0.996264009963)" xlink:href="#URW_Palladio_L_Roman-102"/>
      <use transform="translate(1010.69868 0.0)scale(0.996264009963)" xlink:href="#URW_Palladio_L_Roman-114"/>
      <use transform="translate(1048.25799735 0.0)scale(0.996264009963)" xlink:href="#URW_Palladio_L_Roman-111"/>
      <use transform="translate(1102.65357753 0.0)scale(0.996264009963)" xlink:href="#URW_Palladio_L_Roman-109"/>
      <use transform="translate(1215.52985204 0.0)scale(0.996264009963)" xlink:href="#URW_Palladio_L_Roman-76"/>
      <use transform="translate(1276.40148272 0.0)scale(0.996264009963)" xlink:href="#URW_Palladio_L_Roman-71"/>
      <use transform="translate(1377.32182903 0.0)scale(0.996264009963)" xlink:href="#URW_Palladio_L_Roman-99"/>
      <use transform="translate(1421.55539773 0.0)scale(0.996264009963)" xlink:href="#URW_Palladio_L_Roman-101"/>
      <use transform="translate(1469.27569284 0.0)scale(0.996264009963)" xlink:href="#URW_Palladio_L_Roman-110"/>
      <use transform="translate(1527.25775352 0.0)scale(0.996264009963)" xlink:href="#URW_Palladio_L_Roman-116"/>
      <use transform="translate(1559.73484139 0.0)scale(0.996264009963)" xlink:href="#URW_Palladio_L_Roman-114"/>
      <use transform="translate(1597.29415875 0.0)scale(0.996264009963)" xlink:href="#URW_Palladio_L_Roman-101"/>
      <use transform="translate(1669.9210541 0.0)scale(0.996264009963)" xlink:href="#URW_Palladio_L_Roman-40"/>
      <use transform="translate(1703.09628383 0.0)scale(0.996264009963)" xlink:href="#URW_Palladio_L_Roman-77"/>
      <use transform="translate(1797.34248521 0.0)scale(0.996264009963)" xlink:href="#URW_Palladio_L_Roman-112"/>
      <use transform="translate(1857.21687896 0.0)scale(0.996264009963)" xlink:href="#URW_Palladio_L_Roman-99"/>
      <use transform="translate(1901.45044766 0.0)scale(0.996264009963)" xlink:href="#URW_Palladio_L_Roman-41"/>
     </g>
    </g>
   </g>
   <g id="matplotlib.axis_2">
    <g id="ytick_1">
     <g id="line2d_22">
      <defs>
       <path d="M 0 0 
L 4 0 
" id="mdb793c0045" style="stroke:#000000;stroke-width:0.5;"/>
      </defs>
      <g>
       <use style="stroke:#000000;stroke-width:0.5;" x="51.8179119805" xlink:href="#mdb793c0045" y="386.189680398"/>
      </g>
     </g>
     <g id="line2d_23">
      <defs>
       <path d="M 0 0 
L -4 0 
" id="md37f71d340" style="stroke:#000000;stroke-width:0.5;"/>
      </defs>
      <g>
       <use style="stroke:#000000;stroke-width:0.5;" x="560.05120797" xlink:href="#md37f71d340" y="386.189680398"/>
      </g>
     </g>
     <g id="text_11">
      <!-- 20 -->
      <defs>
       <path d="M 26.296875 69 
C 10.796875 69 2.90625 56.6875 2.90625 32.453125 
C 2.90625 20.71875 5 10.625 8.5 5.71875 
C 12 0.796875 17.59375 -2 23.796875 -2 
C 38.90625 -2 46.5 11.015625 46.5 36.65625 
C 46.5 58.578125 40 69 26.296875 69 
M 24.5 65.5 
C 34.203125 65.5 38.09375 55.6875 38.09375 31.640625 
C 38.09375 10.328125 34.296875 1.5 25.09375 1.5 
C 15.40625 1.5 11.296875 11.625 11.296875 36.0625 
C 11.296875 57.1875 15 65.5 24.5 65.5 
" id="URW_Palladio_L_Roman-48"/>
      </defs>
      <g transform="translate(35.8627438609 388.780976222)scale(0.12 -0.12)">
       <use transform="scale(0.996264009963)" xlink:href="#URW_Palladio_L_Roman-50"/>
       <use transform="translate(49.8132004981 0.0)scale(0.996264009963)" xlink:href="#URW_Palladio_L_Roman-48"/>
      </g>
     </g>
    </g>
    <g id="ytick_2">
     <g id="line2d_24">
      <g>
       <use style="stroke:#000000;stroke-width:0.5;" x="51.8179119805" xlink:href="#mdb793c0045" y="324.978496982"/>
      </g>
     </g>
     <g id="line2d_25">
      <g>
       <use style="stroke:#000000;stroke-width:0.5;" x="560.05120797" xlink:href="#md37f71d340" y="324.978496982"/>
      </g>
     </g>
     <g id="text_12">
      <!-- 40 -->
      <g transform="translate(35.8627438609 327.569792806)scale(0.12 -0.12)">
       <use transform="scale(0.996264009963)" xlink:href="#URW_Palladio_L_Roman-52"/>
       <use transform="translate(49.8132004981 0.0)scale(0.996264009963)" xlink:href="#URW_Palladio_L_Roman-48"/>
      </g>
     </g>
    </g>
    <g id="ytick_3">
     <g id="line2d_26">
      <g>
       <use style="stroke:#000000;stroke-width:0.5;" x="51.8179119805" xlink:href="#mdb793c0045" y="263.767313565"/>
      </g>
     </g>
     <g id="line2d_27">
      <g>
       <use style="stroke:#000000;stroke-width:0.5;" x="560.05120797" xlink:href="#md37f71d340" y="263.767313565"/>
      </g>
     </g>
     <g id="text_13">
      <!-- 60 -->
      <g transform="translate(35.8627438609 266.35860939)scale(0.12 -0.12)">
       <use transform="scale(0.996264009963)" xlink:href="#URW_Palladio_L_Roman-54"/>
       <use transform="translate(49.8132004981 0.0)scale(0.996264009963)" xlink:href="#URW_Palladio_L_Roman-48"/>
      </g>
     </g>
    </g>
    <g id="ytick_4">
     <g id="line2d_28">
      <g>
       <use style="stroke:#000000;stroke-width:0.5;" x="51.8179119805" xlink:href="#mdb793c0045" y="202.556130149"/>
      </g>
     </g>
     <g id="line2d_29">
      <g>
       <use style="stroke:#000000;stroke-width:0.5;" x="560.05120797" xlink:href="#md37f71d340" y="202.556130149"/>
      </g>
     </g>
     <g id="text_14">
      <!-- 80 -->
      <g transform="translate(35.8627438609 205.147425973)scale(0.12 -0.12)">
       <use transform="scale(0.996264009963)" xlink:href="#URW_Palladio_L_Roman-56"/>
       <use transform="translate(49.8132004981 0.0)scale(0.996264009963)" xlink:href="#URW_Palladio_L_Roman-48"/>
      </g>
     </g>
    </g>
    <g id="ytick_5">
     <g id="line2d_30">
      <g>
       <use style="stroke:#000000;stroke-width:0.5;" x="51.8179119805" xlink:href="#mdb793c0045" y="141.344946733"/>
      </g>
     </g>
     <g id="line2d_31">
      <g>
       <use style="stroke:#000000;stroke-width:0.5;" x="560.05120797" xlink:href="#md37f71d340" y="141.344946733"/>
      </g>
     </g>
     <g id="text_15">
      <!-- 100 -->
      <g transform="translate(29.8851598011 143.936242557)scale(0.12 -0.12)">
       <use transform="scale(0.996264009963)" xlink:href="#URW_Palladio_L_Roman-49"/>
       <use transform="translate(49.8132004981 0.0)scale(0.996264009963)" xlink:href="#URW_Palladio_L_Roman-48"/>
       <use transform="translate(99.6264009963 0.0)scale(0.996264009963)" xlink:href="#URW_Palladio_L_Roman-48"/>
      </g>
     </g>
    </g>
    <g id="ytick_6">
     <g id="line2d_32">
      <g>
       <use style="stroke:#000000;stroke-width:0.5;" x="51.8179119805" xlink:href="#mdb793c0045" y="80.1337633168"/>
      </g>
     </g>
     <g id="line2d_33">
      <g>
       <use style="stroke:#000000;stroke-width:0.5;" x="560.05120797" xlink:href="#md37f71d340" y="80.1337633168"/>
      </g>
     </g>
     <g id="text_16">
      <!-- 120 -->
      <g transform="translate(29.8851598011 82.725059141)scale(0.12 -0.12)">
       <use transform="scale(0.996264009963)" xlink:href="#URW_Palladio_L_Roman-49"/>
       <use transform="translate(49.8132004981 0.0)scale(0.996264009963)" xlink:href="#URW_Palladio_L_Roman-50"/>
       <use transform="translate(99.6264009963 0.0)scale(0.996264009963)" xlink:href="#URW_Palladio_L_Roman-48"/>
      </g>
     </g>
    </g>
    <g id="ytick_7">
     <g id="line2d_34">
      <g>
       <use style="stroke:#000000;stroke-width:0.5;" x="51.8179119805" xlink:href="#mdb793c0045" y="18.9225799006"/>
      </g>
     </g>
     <g id="line2d_35">
      <g>
       <use style="stroke:#000000;stroke-width:0.5;" x="560.05120797" xlink:href="#md37f71d340" y="18.9225799006"/>
      </g>
     </g>
     <g id="text_17">
      <!-- 140 -->
      <g transform="translate(29.8851598011 21.5138757248)scale(0.12 -0.12)">
       <use transform="scale(0.996264009963)" xlink:href="#URW_Palladio_L_Roman-49"/>
       <use transform="translate(49.8132004981 0.0)scale(0.996264009963)" xlink:href="#URW_Palladio_L_Roman-52"/>
       <use transform="translate(99.6264009963 0.0)scale(0.996264009963)" xlink:href="#URW_Palladio_L_Roman-48"/>
      </g>
     </g>
    </g>
    <g id="text_18">
     <!-- Mean H0 when fitted using haloes in bin -->
     <defs>
      <path d="M 41.296875 47 
C 33.09375 27.9375 31.59375 24.546875 25.40625 10.578125 
L 17 38.1875 
C 16.703125 39.09375 16.59375 39.890625 16.59375 40.6875 
C 16.59375 42.1875 17.90625 43 20.40625 43 
L 24.40625 43 
L 24.40625 45.8125 
C 14.5 45.8125 14.5 45.8125 12.5 45.8125 
C 10.5 45.8125 10.5 45.8125 0.59375 45.8125 
L 0.59375 43.203125 
L 3.40625 43 
C 6.203125 42.796875 7.5 40.8125 10 33.03125 
L 20.203125 -0.5 
L 24.90625 -0.5 
L 34.703125 22.453125 
C 35.203125 23.65625 36.296875 26.046875 37.90625 29.4375 
L 39.90625 33.625 
L 53.5 -0.5 
L 58.09375 -0.5 
C 58.796875 1.59375 59.59375 3.890625 60.40625 6.078125 
C 62.40625 11.984375 64.59375 18.15625 65 18.765625 
L 71.796875 34.3125 
C 74.796875 41.015625 76 42.703125 78.203125 43 
L 80.796875 43.203125 
L 80.796875 45.8125 
C 72.59375 45.8125 72.59375 45.8125 71 45.8125 
C 69.40625 45.8125 69.40625 45.8125 61.203125 45.8125 
L 61.203125 43 
L 64.59375 43 
C 67.09375 43 68.5 41.796875 68.5 39.984375 
C 68.5 38.890625 68.296875 37.6875 67.796875 36.390625 
L 62.796875 22.390625 
C 62 20.1875 61.203125 18.171875 58 9.96875 
L 46.5 38.90625 
C 45.09375 42.296875 44.40625 44.296875 43.59375 47 
z
" id="URW_Palladio_L_Roman-119"/>
      <path d="M 2.296875 66.5 
L 7.90625 66.5 
C 9.703125 66.5 10.40625 65.390625 10.40625 62.375 
L 10.40625 10.171875 
C 10.40625 3.8125 10.09375 3.109375 6.703125 3.109375 
L 2.09375 3.109375 
L 2.09375 0 
C 12.09375 0 12.09375 0 14.59375 0 
C 17.09375 0 17.09375 0 27.09375 0 
L 27.09375 3.109375 
L 22.5 3.109375 
C 19.09375 3.109375 18.796875 3.8125 18.796875 10.15625 
L 18.796875 72.203125 
L 17.90625 73.015625 
C 13.5 71.3125 10.203125 70.5 2.296875 69.296875 
z
" id="URW_Palladio_L_Roman-108"/>
      <path d="M 51.90625 38 
L 54.40625 42.109375 
L 54 43.109375 
L 39.796875 43.109375 
C 36.09375 45.890625 32.5 47 27.59375 47 
C 23.203125 47 18.09375 45.625 14 43.25 
C 8.40625 40.109375 5.5 35.28125 5.5 29.28125 
C 5.5 22 10.09375 16.984375 17.5 16.1875 
L 9.59375 10 
C 8.59375 8.484375 8.09375 7.171875 8.09375 5.640625 
C 8.09375 2.8125 9.90625 1.1875 14.703125 -0.21875 
L 6 -4.9375 
C 4.59375 -5.734375 3.203125 -9.4375 3.203125 -12.546875 
C 3.203125 -21.6875 12.09375 -28 24.796875 -28 
C 39.90625 -28 51.796875 -18.46875 51.796875 -6.234375 
C 51.796875 0.984375 47 6 40 6 
L 24 6 
C 18.796875 6 16.40625 7.21875 16.40625 9.984375 
C 16.40625 11.3125 17.203125 12.421875 19.796875 14.671875 
C 20.40625 15.1875 20.59375 15.390625 21 15.796875 
C 22 15.6875 22.59375 15.59375 23.40625 15.59375 
C 27.703125 15.59375 33 17.46875 37.09375 20.3125 
C 41.59375 23.546875 43.796875 27.484375 43.796875 32.703125 
C 43.796875 34.65625 43.5 35.9375 42.703125 38 
z
M 24 43.59375 
C 30.796875 43.59375 35.40625 38.09375 35.40625 29.765625 
C 35.40625 23.421875 31.203125 19 25.09375 19 
C 18.40625 19 13.90625 24.09375 13.90625 31.640625 
C 13.90625 39.171875 17.59375 43.59375 24 43.59375 
M 28.703125 -1.015625 
C 40 -1.015625 43.90625 -3.3125 43.90625 -9.84375 
C 43.90625 -18.46875 36 -24.890625 25.5 -24.890625 
C 16.796875 -24.890625 10.796875 -19.78125 10.796875 -12.34375 
C 10.796875 -7.84375 13.40625 -3.71875 17.40625 -2.015625 
C 19 -1.21875 21.796875 -1.015625 28.703125 -1.015625 
" id="URW_Palladio_L_Roman-103"/>
      <path d="M 41.203125 43.78125 
C 35.59375 46.1875 32.796875 47 29.296875 47 
C 26.59375 47 24.203125 46.390625 21.703125 45.109375 
L 12.90625 40.515625 
C 7.203125 37.515625 3.5 30.234375 3.5 21.75 
C 3.5 13.765625 6.203125 7.1875 11.09375 3.1875 
C 14.5 0.296875 19.203125 -1 25.703125 -1 
C 27.703125 -1 30 -0.59375 30.5 -0.203125 
L 41.59375 9.109375 
L 41.09375 -0.109375 
C 46 -0.109375 47.59375 -0.109375 48.796875 -0.109375 
C 49.59375 -0.109375 51 -0.109375 53.09375 -0.109375 
C 53.796875 -0.109375 55.796875 -0.109375 57.90625 -0.109375 
L 57.90625 3 
L 53.296875 3 
C 49.90625 3 49.59375 3.703125 49.59375 10.046875 
L 49.59375 71.984375 
L 48.703125 72.796875 
C 44.296875 71.09375 41 70.28125 33.09375 69.078125 
L 33.09375 66.28125 
L 38.703125 66.28125 
C 40.5 66.28125 41.203125 65.171875 41.203125 62.15625 
z
M 41.203125 22.25 
C 41.203125 15.765625 41 14.78125 39.703125 12.484375 
C 36.90625 7.796875 32 4.71875 27.296875 4.71875 
C 18.5 4.71875 12.203125 13.1875 12.203125 25.046875 
C 12.203125 35.90625 17.59375 42.28125 26.59375 42.28125 
C 30.40625 42.28125 34.40625 40.984375 37.90625 38.59375 
C 40 37.203125 41.203125 35.90625 41.203125 35.09375 
z
" id="URW_Palladio_L_Roman-100"/>
      <path d="M 34.09375 71.921875 
C 32 72.703125 30.796875 73 29.5 73 
C 26.296875 73 22.796875 71.296875 20.59375 68.8125 
L 14.796875 62.265625 
C 11.90625 58.984375 10.59375 54.53125 10.59375 47.96875 
L 10.59375 43.796875 
L 3.703125 40.6875 
L 3.703125 38.6875 
L 10.59375 38.6875 
L 10.59375 10.171875 
C 10.59375 3.8125 10.296875 3.109375 6.90625 3.109375 
L 2.296875 3.109375 
L 2.296875 0 
C 12.296875 0 12.296875 0 14.90625 0 
C 17.296875 0 20.09375 0 27.90625 0 
L 27.90625 3.109375 
L 22.703125 3.109375 
C 19.296875 3.109375 19 3.828125 19 10.203125 
L 19 38.890625 
L 30.40625 38.890625 
L 31.09375 44 
L 19 44 
L 19 52.34375 
C 19 63.640625 20.296875 66.375 26 66.375 
C 28.703125 66.375 30.5 65.6875 32.90625 63.609375 
L 34.09375 64.203125 
z
M 50.40625 46.578125 
L 49.5 47.28125 
C 45.09375 45.09375 39.796875 43.703125 33.90625 43 
L 33.90625 40.1875 
L 37.59375 40.1875 
C 41.59375 40.1875 42 39.484375 42 32.796875 
L 42 10.203125 
C 42 3.8125 41.703125 3.109375 38.296875 3.109375 
L 33.703125 3.109375 
L 33.703125 0 
C 43.703125 0 43.703125 0 46.203125 0 
C 48.703125 0 48.703125 0 58.703125 0 
L 58.703125 3.109375 
L 54.09375 3.109375 
C 50.703125 3.109375 50.40625 3.8125 50.40625 10.1875 
z
M 46.703125 69 
C 43.703125 69 41.09375 66.390625 41.09375 63.375 
C 41.09375 60.46875 43.703125 57.875 46.59375 57.875 
C 49.5 57.875 52.203125 60.46875 52.203125 63.375 
C 52.203125 66.1875 49.5 69 46.703125 69 
" id="URW_Palladio_L_Roman-2"/>
      <path d="M 50.296875 47.015625 
L 49.40625 47.421875 
C 44.296875 45.3125 39.09375 43.90625 33.796875 43.3125 
L 33.796875 40.5 
L 37.5 40.5 
C 41.5 40.5 41.90625 39.796875 41.90625 33.140625 
L 41.90625 16.71875 
C 41.90625 14.5 40.5 11.671875 38.203125 9.359375 
C 35.40625 6.53125 32.203125 5.109375 28.296875 5.109375 
C 24.796875 5.109375 22 6.21875 20.40625 8.140625 
C 19 9.75 18.296875 12.875 18.296875 17.296875 
L 18.296875 47.015625 
L 17.40625 47.421875 
C 12.296875 45.3125 7.09375 43.90625 1.796875 43.3125 
L 1.796875 40.5 
L 5.5 40.5 
C 9.5 40.5 9.90625 39.796875 9.90625 33.15625 
L 9.90625 16.234375 
C 9.90625 9.171875 10.5 6.046875 12.296875 3.546875 
C 14.5 0.515625 18.296875 -1 24 -1 
C 28.5 -1 32.5 0.40625 35.203125 2.90625 
L 41.90625 9.140625 
C 41.90625 6.265625 41.796875 4.65625 41.5 0 
C 48.203125 0 48.296875 0 49.796875 0 
C 51.203125 0 51.203125 0 58.09375 0 
L 58.09375 2.90625 
L 54 3.3125 
C 50.59375 3.3125 50.296875 3.921875 50.296875 10.375 
z
" id="URW_Palladio_L_Roman-117"/>
      <path d="M 0.703125 66.375 
L 6.296875 66.375 
C 8.09375 66.375 8.796875 65.265625 8.796875 62.25 
L 8.796875 10.046875 
C 8.796875 3.703125 8.5 3 5.09375 3 
L 0.59375 3 
L 0.59375 -0.109375 
C 7.40625 -0.109375 10.09375 -0.109375 13 -0.109375 
C 15.90625 -0.109375 18.59375 -0.109375 25.40625 -0.109375 
L 25.40625 3 
L 20.90625 3 
C 17.5 3 17.203125 3.703125 17.203125 10.046875 
L 17.203125 31.421875 
C 17.203125 35.9375 23.796875 40.875 29.90625 40.875 
C 36.59375 40.875 41 35.890625 41 28.21875 
L 41 -0.109375 
C 47.09375 -0.109375 47.203125 -0.109375 48.90625 -0.109375 
C 50.296875 -0.109375 50.296875 -0.109375 57.203125 -0.109375 
L 57.203125 2.796875 
L 53.09375 3.203125 
C 49.703125 3.203125 49.40625 3.8125 49.40625 10.21875 
L 49.40625 29.5625 
C 49.40625 41.28125 43.90625 47 32.703125 47 
C 29 47 26.90625 46.296875 24.796875 44.484375 
L 17.203125 37.875 
L 17.203125 72.078125 
L 16.296875 72.890625 
C 11.90625 71.1875 8.59375 70.375 0.703125 69.171875 
z
" id="URW_Palladio_L_Roman-104"/>
      <path d="M 61.59375 12.078125 
C 61.59375 4.015625 61.09375 3.203125 56.5 3.203125 
L 51.703125 3.203125 
L 51.703125 0 
C 57.59375 0 61.09375 0 66.296875 0 
C 71.5 0 75.09375 0 81 0 
L 81 3.203125 
L 76.203125 3.203125 
C 71.59375 3.203125 71.09375 4 71.09375 11.96875 
L 71.09375 57.234375 
C 71.09375 65.1875 71.59375 66 76.203125 66 
L 81 66 
L 81 69.109375 
C 73.703125 69.109375 71.5 69.109375 66.296875 69.109375 
C 61.296875 69.109375 58.90625 69.109375 51.703125 69.109375 
L 51.703125 66 
L 56.5 66 
C 61.09375 66 61.59375 65.1875 61.59375 57.3125 
L 61.59375 39.515625 
C 59.5 39.515625 57.40625 39.515625 53.296875 39.515625 
L 29.90625 39.515625 
C 25.796875 39.515625 23.59375 39.515625 21.59375 39.515625 
L 21.59375 57.3125 
C 21.59375 65.1875 22.09375 66 26.703125 66 
L 31.5 66 
L 31.5 69.109375 
C 24.203125 69.109375 22 69.109375 16.796875 69.109375 
C 11.796875 69.109375 9.40625 69.109375 2.203125 69.109375 
L 2.203125 66 
L 7 66 
C 11.59375 66 12.09375 65.1875 12.09375 57.234375 
L 12.09375 11.96875 
C 12.09375 4 11.59375 3.203125 7 3.203125 
L 2.203125 3.203125 
L 2.203125 0 
C 8.09375 0 11.59375 0 16.796875 0 
C 22 0 25.59375 0 31.5 0 
L 31.5 3.203125 
L 26.703125 3.203125 
C 22.09375 3.203125 21.59375 4.015625 21.59375 12.078125 
L 21.59375 34.796875 
C 24.296875 35 25.90625 35 29.90625 35 
L 53.296875 35 
C 57.296875 35 58.90625 35 61.59375 34.796875 
z
" id="URW_Palladio_L_Roman-72"/>
     </defs>
     <g transform="translate(21.5138757248 310.091729683)rotate(-90.0)scale(0.12 -0.12)">
      <use transform="scale(0.996264009963)" xlink:href="#URW_Palladio_L_Roman-77"/>
      <use transform="translate(94.2462013786 0.0)scale(0.996264009963)" xlink:href="#URW_Palladio_L_Roman-101"/>
      <use transform="translate(141.966496488 0.0)scale(0.996264009963)" xlink:href="#URW_Palladio_L_Roman-97"/>
      <use transform="translate(191.779696986 0.0)scale(0.996264009963)" xlink:href="#URW_Palladio_L_Roman-110"/>
      <use transform="translate(274.668357916 0.0)scale(0.996264009963)" xlink:href="#URW_Palladio_L_Roman-72"/>
      <use transform="translate(357.557018845 0.0)scale(0.996264009963)" xlink:href="#URW_Palladio_L_Roman-48"/>
      <use transform="translate(432.276819593 0.0)scale(0.996264009963)" xlink:href="#URW_Palladio_L_Roman-119"/>
      <use transform="translate(515.364912705 0.0)scale(0.996264009963)" xlink:href="#URW_Palladio_L_Roman-104"/>
      <use transform="translate(573.346973386 0.0)scale(0.996264009963)" xlink:href="#URW_Palladio_L_Roman-101"/>
      <use transform="translate(621.067268495 0.0)scale(0.996264009963)" xlink:href="#URW_Palladio_L_Roman-110"/>
      <use transform="translate(703.955929425 0.0)scale(0.996264009963)" xlink:href="#URW_Palladio_L_Roman-2"/>
      <use transform="translate(764.229187544 0.0)scale(0.996264009963)" xlink:href="#URW_Palladio_L_Roman-116"/>
      <use transform="translate(796.706275417 0.0)scale(0.996264009963)" xlink:href="#URW_Palladio_L_Roman-116"/>
      <use transform="translate(829.183363291 0.0)scale(0.996264009963)" xlink:href="#URW_Palladio_L_Roman-101"/>
      <use transform="translate(876.9036584 0.0)scale(0.996264009963)" xlink:href="#URW_Palladio_L_Roman-100"/>
      <use transform="translate(962.681889326 0.0)scale(0.996264009963)" xlink:href="#URW_Palladio_L_Roman-117"/>
      <use transform="translate(1022.75562405 0.0)scale(0.996264009963)" xlink:href="#URW_Palladio_L_Roman-115"/>
      <use transform="translate(1064.99709038 0.0)scale(0.996264009963)" xlink:href="#URW_Palladio_L_Roman-105"/>
      <use transform="translate(1093.98745184 0.0)scale(0.996264009963)" xlink:href="#URW_Palladio_L_Roman-110"/>
      <use transform="translate(1151.96951252 0.0)scale(0.996264009963)" xlink:href="#URW_Palladio_L_Roman-103"/>
      <use transform="translate(1232.26778973 0.0)scale(0.996264009963)" xlink:href="#URW_Palladio_L_Roman-104"/>
      <use transform="translate(1290.24985041 0.0)scale(0.996264009963)" xlink:href="#URW_Palladio_L_Roman-97"/>
      <use transform="translate(1340.06305091 0.0)scale(0.996264009963)" xlink:href="#URW_Palladio_L_Roman-108"/>
      <use transform="translate(1369.05341237 0.0)scale(0.996264009963)" xlink:href="#URW_Palladio_L_Roman-111"/>
      <use transform="translate(1423.44899255 0.0)scale(0.996264009963)" xlink:href="#URW_Palladio_L_Roman-101"/>
      <use transform="translate(1471.16928766 0.0)scale(0.996264009963)" xlink:href="#URW_Palladio_L_Roman-115"/>
      <use transform="translate(1538.31735423 0.0)scale(0.996264009963)" xlink:href="#URW_Palladio_L_Roman-105"/>
      <use transform="translate(1567.3077157 0.0)scale(0.996264009963)" xlink:href="#URW_Palladio_L_Roman-110"/>
      <use transform="translate(1650.19637662 0.0)scale(0.996264009963)" xlink:href="#URW_Palladio_L_Roman-98"/>
      <use transform="translate(1705.2887761 0.0)scale(0.996264009963)" xlink:href="#URW_Palladio_L_Roman-105"/>
      <use transform="translate(1734.27913756 0.0)scale(0.996264009963)" xlink:href="#URW_Palladio_L_Roman-110"/>
     </g>
    </g>
   </g>
  </g>
 </g>
 <defs>
  <clipPath id="pf424c696bd">
   <rect height="367.267100497" width="508.23329599" x="51.8179119805" y="18.9225799006"/>
  </clipPath>
 </defs>
</svg>
