<?xml version="1.0" encoding="utf-8" standalone="no"?>
<!DOCTYPE svg PUBLIC "-//W3C//DTD SVG 1.1//EN"
  "http://www.w3.org/Graphics/SVG/1.1/DTD/svg11.dtd">
<!-- Created with matplotlib (http://matplotlib.org/) -->
<svg height="360pt" version="1.1" viewBox="0 0 424 360" width="424pt" xmlns="http://www.w3.org/2000/svg" xmlns:xlink="http://www.w3.org/1999/xlink">
 <defs>
  <style type="text/css">
*{stroke-linecap:butt;stroke-linejoin:round;}
  </style>
 </defs>
 <g id="figure_1">
  <g id="patch_1">
   <path d="M 0 360 
L 424.8 360 
L 424.8 0 
L 0 0 
z
" style="fill:#ffffff;"/>
  </g>
  <g id="axes_1">
   <g id="patch_2">
    <path d="M 43.034608 316.588233 
L 412.520625 316.588233 
L 412.520625 13.875 
L 43.034608 13.875 
z
" style="fill:#ffffff;"/>
   </g>
   <g id="matplotlib.axis_1">
    <g id="xtick_1">
     <g id="line2d_1">
      <defs>
       <path d="M 0 0 
L 0 3.5 
" id="m0dd46999ff" style="stroke:#000000;stroke-width:0.8;"/>
      </defs>
      <g>
       <use style="stroke:#000000;stroke-width:0.8;" x="59.829427" xlink:href="#m0dd46999ff" y="316.588233"/>
      </g>
     </g>
     <g id="text_1">
      <!-- $1$ -->
      <defs>
       <path d="M 6.703125 56 
L 7.703125 56 
L 20.59375 61.8125 
C 20.703125 61.90625 20.796875 61.90625 20.90625 61.90625 
C 21.5 61.90625 21.703125 61.015625 21.703125 58.609375 
L 21.703125 9.578125 
C 21.703125 4.3125 20.59375 3.203125 15.203125 3.203125 
L 9.59375 3.203125 
L 9.59375 0 
C 25 0 25 0 26.09375 0 
C 27.40625 0 29.59375 0 33 0 
C 34.203125 0 37.703125 0 41.796875 0 
L 41.796875 3.203125 
L 36.59375 3.203125 
C 31.09375 3.203125 30.09375 4.3125 30.09375 9.5625 
L 30.09375 69.421875 
L 28.703125 69.921875 
C 22.203125 66.515625 15.09375 63.515625 6 60.3125 
z
" id="URW_Palladio_L_Roman-49"/>
      </defs>
      <g transform="translate(57.338767 330.71647)scale(0.1 -0.1)">
       <use transform="scale(0.996264)" xlink:href="#URW_Palladio_L_Roman-49"/>
      </g>
     </g>
    </g>
    <g id="xtick_2">
     <g id="line2d_2">
      <g>
       <use style="stroke:#000000;stroke-width:0.8;" x="102.347956" xlink:href="#m0dd46999ff" y="316.588233"/>
      </g>
     </g>
     <g id="text_2">
      <!-- $2$ -->
      <defs>
       <path d="M 1.59375 2.5 
L 1.59375 0 
C 20.296875 0 20.296875 0 23.90625 0 
C 27.5 0 27.5 0 46.796875 0 
C 46.59375 1.953125 46.59375 2.90625 46.59375 4.203125 
C 46.59375 5.4375 46.59375 6.359375 46.796875 8.421875 
C 35.296875 8.421875 30.703125 8.421875 12.203125 8.421875 
L 30.40625 27.515625 
C 40.09375 37.71875 43.09375 43.171875 43.09375 50.59375 
C 43.09375 61.96875 35.296875 69 22.59375 69 
C 15.40625 69 10.5 67 5.59375 62.015625 
L 3.90625 48.421875 
L 6.796875 48.421875 
L 8.09375 53.015625 
C 9.703125 58.796875 13.296875 61.296875 20 61.296875 
C 28.59375 61.296875 34.09375 55.890625 34.09375 47.421875 
C 34.09375 39.921875 29.90625 32.546875 18.59375 20.5625 
z
" id="URW_Palladio_L_Roman-50"/>
      </defs>
      <g transform="translate(99.857296 330.71647)scale(0.1 -0.1)">
       <use transform="scale(0.996264)" xlink:href="#URW_Palladio_L_Roman-50"/>
      </g>
     </g>
    </g>
    <g id="xtick_3">
     <g id="line2d_3">
      <g>
       <use style="stroke:#000000;stroke-width:0.8;" x="144.866485" xlink:href="#m0dd46999ff" y="316.588233"/>
      </g>
     </g>
     <g id="text_3">
      <!-- $3$ -->
      <defs>
       <path d="M 4.296875 49.953125 
L 7.40625 49.953125 
L 9.203125 55.53125 
C 10.296875 58.90625 16.59375 62.296875 21.796875 62.296875 
C 28.296875 62.296875 33.59375 57.015625 33.59375 50.75 
C 33.59375 43.28125 27.703125 37 20.59375 37 
C 19.796875 37 18.703125 37 17.40625 37.203125 
L 15.90625 37.203125 
L 14.703125 31.984375 
L 15.40625 31.375 
C 19.203125 33.09375 21.09375 33.59375 23.796875 33.59375 
C 32.09375 33.59375 36.90625 28.265625 36.90625 19.09375 
C 36.90625 8.84375 30.796875 2.109375 21.5 2.109375 
C 16.90625 2.109375 12.796875 3.609375 9.796875 6.421875 
C 7.40625 8.640625 6.09375 10.953125 4.203125 16.390625 
L 1.5 15.390625 
C 3.59375 9.265625 4.40625 5.640625 5 0.609375 
C 10.296875 -1.203125 14.703125 -2 18.40625 -2 
C 26.40625 -2 35.59375 2.515625 41.09375 9.265625 
C 44.5 13.390625 46.203125 17.8125 46.203125 22.53125 
C 46.203125 27.359375 44.203125 31.59375 40.59375 34.09375 
C 38.09375 35.90625 35.796875 36.71875 30.796875 37.609375 
C 38.796875 43.796875 41.796875 48.375 41.796875 54.25 
C 41.796875 63.125 34.40625 69 23.296875 69 
C 16.5 69 12 67.109375 7.203125 62.328125 
z
" id="URW_Palladio_L_Roman-51"/>
      </defs>
      <g transform="translate(142.375825 330.71647)scale(0.1 -0.1)">
       <use transform="scale(0.996264)" xlink:href="#URW_Palladio_L_Roman-51"/>
      </g>
     </g>
    </g>
    <g id="xtick_4">
     <g id="line2d_4">
      <g>
       <use style="stroke:#000000;stroke-width:0.8;" x="187.385014" xlink:href="#m0dd46999ff" y="316.588233"/>
      </g>
     </g>
     <g id="text_4">
      <!-- $4$ -->
      <defs>
       <path d="M 28 18 
L 28 10.515625 
C 28 4.515625 26.90625 3.109375 22 3.109375 
L 15.796875 3.109375 
L 15.796875 0 
C 29.09375 0 29.09375 0 31.5 0 
C 33.90625 0 33.90625 0 47.203125 0 
L 47.203125 3.109375 
L 42.40625 3.109375 
C 37.5 3.109375 36.40625 4.40625 36.40625 10.453125 
L 36.40625 18 
C 42.296875 18 44.40625 18 47.203125 17.703125 
L 47.203125 24.8125 
C 42.5 24.421875 40.59375 24.421875 39.09375 24.421875 
L 38.796875 24.421875 
L 36.40625 24.421875 
L 36.40625 38.390625 
C 36.40625 56.25 36.59375 64.875 37.09375 69 
L 35.90625 69.5 
L 28.5 66.796875 
L 0.203125 20.296875 
L 1.296875 18 
z
M 28 24.421875 
L 6.5 24.421875 
L 28 59.78125 
z
" id="URW_Palladio_L_Roman-52"/>
      </defs>
      <g transform="translate(184.894354 330.71647)scale(0.1 -0.1)">
       <use transform="scale(0.996264)" xlink:href="#URW_Palladio_L_Roman-52"/>
      </g>
     </g>
    </g>
    <g id="xtick_5">
     <g id="line2d_5">
      <g>
       <use style="stroke:#000000;stroke-width:0.8;" x="229.903543" xlink:href="#m0dd46999ff" y="316.588233"/>
      </g>
     </g>
     <g id="text_5">
      <!-- $5$ -->
      <defs>
       <path d="M 12.703125 60.578125 
C 25.59375 60.578125 31.203125 60.578125 43.203125 60.578125 
L 43.703125 61.046875 
C 43.5 62.75 43.5 63.5 43.5 64.75 
C 43.5 66.078125 43.5 66.828125 43.703125 68.53125 
L 43.203125 69 
C 35.703125 69 31.203125 69 25.796875 69 
C 20.296875 69 15.90625 69 8.40625 69 
L 7.90625 68.796875 
C 8 62.671875 8.09375 58.265625 8.09375 55.046875 
C 8.09375 46.515625 7.796875 36.875 7.5 32.453125 
L 9.5 31.84375 
C 14.203125 36.578125 16.90625 38 21.796875 38 
C 31.40625 38 37.40625 31.140625 37.40625 20.25 
C 37.40625 9.0625 31 2.5 20.09375 2.5 
C 14.703125 2.5 9.703125 4.328125 8.296875 6.9375 
L 3.703125 15.203125 
L 1.296875 13.796875 
C 3.59375 8.0625 4.796875 4.84375 6.203125 0.421875 
C 9 -1.109375 13 -2 17.296875 -2 
C 24 -2 31.09375 0.921875 36.59375 5.75 
C 42.703125 11.1875 45.90625 18.03125 45.90625 25.46875 
C 45.90625 36.859375 37.796875 44.90625 26.40625 44.90625 
C 21.59375 44.90625 18 43.609375 11.796875 39.90625 
z
" id="URW_Palladio_L_Roman-53"/>
      </defs>
      <g transform="translate(227.412883 330.71647)scale(0.1 -0.1)">
       <use transform="scale(0.996264)" xlink:href="#URW_Palladio_L_Roman-53"/>
      </g>
     </g>
    </g>
    <g id="xtick_6">
     <g id="line2d_6">
      <g>
       <use style="stroke:#000000;stroke-width:0.8;" x="272.422072" xlink:href="#m0dd46999ff" y="316.588233"/>
      </g>
     </g>
     <g id="text_6">
      <!-- $6$ -->
      <defs>
       <path d="M 41.59375 67.34375 
L 37.90625 69.046875 
C 28.296875 65.84375 24.203125 63.84375 19.09375 59.4375 
C 8.796875 50.71875 3.203125 38.5 3.203125 24.765625 
C 3.203125 8.21875 11.203125 -2 24.09375 -2 
C 37.09375 -2 46.796875 8.3125 46.796875 21.953125 
C 46.796875 33.484375 39.90625 41 29.296875 41 
C 24.296875 41 21.296875 39.6875 15.40625 34.984375 
C 14.296875 34.078125 14.203125 33.984375 13.09375 33.1875 
C 15.203125 51.3125 23.59375 61.140625 41.59375 66.546875 
z
M 25.5 34.984375 
C 33.09375 34.984375 38.203125 28.375 38.203125 18.453125 
C 38.203125 8.015625 33.09375 1.296875 25.40625 1.296875 
C 16.90625 1.296875 12.296875 8.609375 12.296875 22.0625 
C 12.296875 25.5625 12.703125 27.46875 13.796875 29.171875 
C 16 32.578125 20.703125 34.984375 25.5 34.984375 
z
" id="URW_Palladio_L_Roman-54"/>
      </defs>
      <g transform="translate(269.931412 330.71647)scale(0.1 -0.1)">
       <use transform="scale(0.996264)" xlink:href="#URW_Palladio_L_Roman-54"/>
      </g>
     </g>
    </g>
    <g id="xtick_7">
     <g id="line2d_7">
      <g>
       <use style="stroke:#000000;stroke-width:0.8;" x="314.940601" xlink:href="#m0dd46999ff" y="316.588233"/>
      </g>
     </g>
     <g id="text_7">
      <!-- $7$ -->
      <defs>
       <path d="M 5.59375 0.5 
L 6.5 -0.796875 
C 10.40625 -0.5 10.40625 -0.5 11.09375 -0.5 
C 11.796875 -0.5 11.796875 -0.5 15.703125 -0.796875 
C 19.90625 10.140625 24.796875 20.578125 31.40625 32.609375 
L 49.703125 65.609375 
L 49.703125 68.3125 
C 38.90625 68.3125 35.40625 68.3125 27.296875 68.3125 
C 20 68.3125 15.09375 68.3125 5.40625 68.3125 
L 4.40625 68.109375 
C 4.703125 58.59375 4.703125 58.59375 4.703125 57.578125 
C 4.703125 56.46875 4.703125 56.46875 4.40625 47.359375 
L 7.40625 47.359375 
L 8.09375 52.96875 
C 8.90625 59.203125 9.59375 60 14.203125 60 
L 40.90625 60 
C 36.90625 51.765625 33.796875 45.953125 30 39.828125 
z
" id="URW_Palladio_L_Roman-55"/>
      </defs>
      <g transform="translate(312.449941 330.71647)scale(0.1 -0.1)">
       <use transform="scale(0.996264)" xlink:href="#URW_Palladio_L_Roman-55"/>
      </g>
     </g>
    </g>
    <g id="xtick_8">
     <g id="line2d_8">
      <g>
       <use style="stroke:#000000;stroke-width:0.8;" x="357.45913" xlink:href="#m0dd46999ff" y="316.588233"/>
      </g>
     </g>
     <g id="text_8">
      <!-- $8$ -->
      <defs>
       <path d="M 16.796875 34.546875 
C 12.703125 32.65625 11 31.546875 8.796875 29.4375 
C 5 25.640625 3 21.125 3 15.921875 
C 3 5.609375 11.296875 -2 22.59375 -2 
C 35.59375 -2 46.40625 8.21875 46.40625 20.625 
C 46.40625 28.640625 42.703125 32.953125 31.296875 38.15625 
C 40.40625 44.375 43.59375 48.578125 43.59375 54.578125 
C 43.59375 63.1875 36.5 69 25.90625 69 
C 14 69 5.296875 61.390625 5.296875 50.890625 
C 5.296875 44.078125 8 40.265625 16.796875 34.546875 
z
M 28.40625 29.546875 
C 34.703125 26.734375 38.5 21.828125 38.5 16.4375 
C 38.5 8.015625 32.203125 1.40625 24.09375 1.40625 
C 15.59375 1.40625 10.09375 7.421875 10.09375 16.734375 
C 10.09375 24.03125 13 28.640625 20.40625 33.15625 
z
M 22.296875 42.375 
C 16 45.46875 12.796875 49.484375 12.796875 54.484375 
C 12.796875 61.09375 17.59375 65.59375 24.703125 65.59375 
C 32 65.59375 36.796875 60.796875 36.796875 53.46875 
C 36.796875 47.78125 34.296875 43.875 27.796875 39.65625 
z
" id="URW_Palladio_L_Roman-56"/>
      </defs>
      <g transform="translate(354.96847 330.71647)scale(0.1 -0.1)">
       <use transform="scale(0.996264)" xlink:href="#URW_Palladio_L_Roman-56"/>
      </g>
     </g>
    </g>
    <g id="xtick_9">
     <g id="line2d_9">
      <g>
       <use style="stroke:#000000;stroke-width:0.8;" x="399.977659" xlink:href="#m0dd46999ff" y="316.588233"/>
      </g>
     </g>
     <g id="text_9">
      <!-- $9$ -->
      <defs>
       <path d="M 9.59375 -1.65625 
C 20.703125 1.953125 25.5 4.25 30.90625 8.84375 
C 40.59375 17.15625 45.703125 28.671875 45.703125 42.078125 
C 45.703125 59 37.59375 69.296875 24.40625 69.296875 
C 11.59375 69.296875 2 59.296875 2 45.90625 
C 2 34.390625 9.5 26 19.90625 26 
C 23.296875 26 27.203125 27.09375 29 28.59375 
L 36 34.40625 
C 35.203125 17.578125 24.296875 5.25 6.203125 0.84375 
L 6.203125 0.046875 
z
M 24 66 
C 28.5 66 31.796875 64.09375 34 60.09375 
C 35.796875 56.890625 37 52 37 47.5 
C 37 38.296875 31.703125 32.109375 24 32.109375 
C 16 32.109375 10.59375 39.203125 10.59375 49.59375 
C 10.59375 59.703125 15.796875 66 24 66 
z
" id="URW_Palladio_L_Roman-57"/>
      </defs>
      <g transform="translate(397.486999 330.71647)scale(0.1 -0.1)">
       <use transform="scale(0.996264)" xlink:href="#URW_Palladio_L_Roman-57"/>
      </g>
     </g>
    </g>
    <g id="text_10">
     <!-- Distance of bin centre from Milky Way (Mpc) -->
     <defs>
      <path d="M 5.703125 2.203125 
L 5.703125 0 
C 17.296875 0 17.296875 0 19.59375 0 
C 21.40625 0 23 0 24.796875 0 
C 32.703125 0 32.703125 0 34.09375 0 
C 46.90625 0 56.5 3.265625 63.5 10.125 
C 70.703125 17.171875 75.09375 27.890625 75.09375 38.515625 
C 75.09375 56.984375 61.296875 69 40.203125 69 
C 39.5 69 38.203125 69 36.40625 69 
C 31.40625 69 27.09375 69 22.796875 69 
C 19.09375 69 13.59375 69 2.203125 69 
L 2.203125 66.1875 
L 6.203125 65.6875 
C 10.796875 65.6875 11.296875 64.78125 11.296875 57 
L 11.296875 9.6875 
C 11.296875 6.796875 10.40625 4.59375 8.796875 3.8125 
z
M 20.796875 64.390625 
C 23.40625 64.890625 26.90625 65.1875 31.90625 65.1875 
C 39.203125 65.1875 47.203125 63.90625 51.40625 62 
C 53.59375 61.109375 55.5 59.71875 57.296875 57.921875 
C 62.09375 53.15625 64.40625 45.984375 64.40625 36.03125 
C 64.40625 24.90625 61 16.34375 54.40625 10.96875 
C 48.40625 6.09375 42.40625 4.40625 31.09375 4.40625 
C 26.5 4.40625 23.40625 4.40625 20.796875 5.109375 
z
" id="URW_Palladio_L_Roman-68"/>
      <path d="M 18.796875 46.765625 
L 17.90625 47.171875 
C 12.796875 45.0625 7.59375 43.640625 2.296875 43.046875 
L 2.296875 40.25 
L 6 40.25 
C 10 40.25 10.40625 39.546875 10.40625 32.890625 
L 10.40625 10.171875 
C 10.40625 3.8125 10.09375 3.109375 6.703125 3.109375 
L 2.09375 3.109375 
L 2.09375 0 
C 12.09375 0 12.09375 0 14.59375 0 
C 17.09375 0 17.09375 0 27.09375 0 
L 27.09375 3.109375 
L 22.5 3.109375 
C 19.09375 3.109375 18.796875 3.8125 18.796875 10.171875 
z
M 14.203125 69 
C 11.203125 69 8.59375 66.390625 8.59375 63.375 
C 8.59375 60.46875 11.203125 57.875 14.09375 57.875 
C 17 57.875 19.703125 60.46875 19.703125 63.375 
C 19.703125 66.1875 17 69 14.203125 69 
z
" id="URW_Palladio_L_Roman-105"/>
      <path d="M 4.09375 14.328125 
C 4.09375 7.421875 3.796875 4.40625 3 0.40625 
C 8.203125 -1.296875 12.09375 -2 16.703125 -2 
C 29.796875 -2 39.09375 5.015625 39.09375 14.828125 
C 39.09375 17.9375 38.203125 20.234375 36.296875 22.25 
C 33.703125 24.75 30.40625 25.953125 21.59375 27.65625 
C 13.40625 29.265625 10.703125 31.265625 10.703125 35.875 
C 10.703125 40.875 14.203125 43.6875 20.296875 43.6875 
C 27 43.6875 32.09375 40.1875 32.09375 35.46875 
L 32.09375 33.171875 
L 34.90625 33.171875 
C 35 38.984375 35.09375 41.375 35.40625 44.484375 
C 30.09375 46.296875 26.5 47 22.40625 47 
C 10.796875 47 3.703125 41.484375 3.703125 32.46875 
C 3.703125 27.65625 5.90625 24.25 10.5 22.140625 
C 13.203125 20.9375 18.5 19.34375 25.296875 17.828125 
C 29.796875 16.828125 31.703125 14.734375 31.703125 10.921875 
C 31.703125 5.515625 26.703125 1.703125 19.59375 1.703125 
C 12.296875 1.703125 7.09375 5.203125 7.09375 10.21875 
L 7.09375 14.328125 
z
" id="URW_Palladio_L_Roman-115"/>
      <path d="M 9.796875 38.6875 
L 9.796875 9.671875 
C 9.796875 2.21875 13.09375 -1 20.796875 -1 
C 23.09375 -1 25.5 -0.5 26.09375 0.203125 
L 30.90625 5.515625 
L 29.59375 7.234375 
C 27.09375 5.8125 25.59375 5.3125 23.703125 5.3125 
C 19.796875 5.3125 18.203125 7.34375 18.203125 12.3125 
L 18.203125 38.890625 
L 31 38.890625 
L 31.90625 44 
L 18.203125 44 
L 18.203125 47.75 
C 18.203125 51.890625 18.5 55.421875 19.296875 61.734375 
L 18.09375 62.828125 
C 15.703125 61.328125 12.703125 60.03125 9.59375 59.03125 
C 9.90625 56.015625 10 54.109375 10 51.109375 
L 10 44.09375 
L 2.203125 40.59375 
L 2.203125 38.6875 
z
" id="URW_Palladio_L_Roman-116"/>
      <path d="M 32.40625 8.40625 
L 31.90625 -0.015625 
C 38.40625 -0.015625 38.40625 -0.015625 39.703125 -0.015625 
C 40.203125 -0.015625 42.703125 -0.015625 47.09375 -0.015625 
L 47.09375 3 
L 43.203125 3 
C 40.796875 3 40.40625 3.8125 40.40625 8.71875 
L 40.40625 27.046875 
C 40.40625 41.6875 36.203125 47 24.59375 47 
C 20.296875 47 16.296875 45.890625 12.5 43.609375 
L 7.203125 40.390625 
L 7.203125 33.921875 
L 9.796875 33.21875 
L 11.09375 36.296875 
C 13.203125 40.984375 14.203125 41.6875 18.796875 41.6875 
C 28.203125 41.6875 32.09375 37.984375 32.40625 28.9375 
L 22.5 27.125 
C 8.90625 24.640625 3.203125 19.953125 3.203125 11.28125 
C 3.203125 3.5 7.90625 -1 15.796875 -1 
C 17.59375 -1 19.296875 -0.703125 20 -0.203125 
z
M 32.40625 12.59375 
C 29.5 8.5 23.203125 4.71875 19.296875 4.71875 
C 15.296875 4.71875 11.796875 8.40625 11.796875 12.6875 
C 11.796875 16.375 13.796875 19.859375 16.796875 21.75 
C 19.296875 23.25 24.796875 24.640625 32.40625 25.75 
z
" id="URW_Palladio_L_Roman-97"/>
      <path d="M 41 -0.109375 
C 47.09375 -0.109375 47.203125 -0.109375 48.90625 -0.109375 
C 50.296875 -0.109375 50.296875 -0.109375 57.203125 -0.109375 
L 57.203125 2.796875 
L 53.09375 3.203125 
C 49.703125 3.203125 49.40625 3.8125 49.40625 10.21875 
L 49.40625 29.5625 
C 49.40625 41.28125 43.90625 47 32.703125 47 
C 29 47 26.90625 46.296875 24.796875 44.484375 
L 17.203125 37.875 
L 17.203125 46.59375 
L 16.296875 47 
C 11.203125 44.890625 6 43.484375 0.703125 42.890625 
L 0.703125 40.078125 
L 4.40625 40.078125 
C 8.40625 40.078125 8.796875 39.375 8.796875 32.71875 
L 8.796875 10.046875 
C 8.796875 3.703125 8.5 3 5.09375 3 
L 0.59375 3 
L 0.59375 -0.109375 
C 7.40625 -0.109375 10.09375 -0.109375 13 -0.109375 
C 15.90625 -0.109375 18.59375 -0.109375 25.40625 -0.109375 
L 25.40625 3 
L 20.90625 3 
C 17.5 3 17.203125 3.703125 17.203125 10.046875 
L 17.203125 31.421875 
C 17.203125 35.9375 23.796875 40.875 29.90625 40.875 
C 36.59375 40.875 41 35.890625 41 28.21875 
z
" id="URW_Palladio_L_Roman-110"/>
      <path d="M 39.90625 31.15625 
C 39.90625 35.765625 40.40625 39.875 41.296875 43.484375 
C 37.296875 45.890625 33.796875 47 29.703125 47 
C 24.90625 47 19.296875 45.09375 13.296875 41.28125 
C 6.296875 36.875 2.59375 29.859375 2.59375 21.046875 
C 2.59375 7.515625 12.09375 -2 25.5 -2 
C 30.703125 -2 38.203125 -0.09375 39.203125 1.40625 
L 41.296875 4.609375 
L 40.296875 6.109375 
C 36.59375 4.109375 33.40625 3.203125 29.796875 3.203125 
C 18.703125 3.203125 11.40625 11.828125 11.40625 25.046875 
C 11.40625 35.765625 16.40625 41.78125 25.40625 41.78125 
C 29.796875 41.78125 34.59375 39.78125 36.40625 37.28125 
L 37.09375 31.15625 
z
" id="URW_Palladio_L_Roman-99"/>
      <path d="M 43.703125 6.984375 
L 42.40625 7.984375 
C 36 4.203125 33.703125 3.3125 29.40625 3.3125 
C 22.90625 3.3125 17.5 6.21875 14.703125 11.109375 
C 12.796875 14.390625 12.09375 17.203125 11.90625 23 
L 26.5 23 
C 33.40625 23 37.703125 23 44.59375 24.125 
C 44.703125 25.53125 44.796875 26.453125 44.796875 27.671875 
C 44.796875 39.375 37.40625 47 26.203125 47 
C 22.5 47 18.203125 45.6875 14.09375 43.28125 
C 5.90625 38.578125 2.59375 32.359375 2.59375 21.9375 
C 2.59375 15.625 4.09375 10.21875 6.796875 6.40625 
C 10.796875 1.109375 17.5 -2 25 -2 
C 28.703125 -2 32.40625 -1.203125 36.5 0.578125 
C 39.203125 1.6875 41.296875 2.984375 41.703125 3.59375 
z
M 35.90625 26.40625 
C 30.703125 26.40625 28.296875 26.40625 24.703125 26.40625 
C 20.09375 26.40625 17.5 26.40625 12.09375 26.90625 
C 12.09375 31.671875 12.5 33.890625 13.796875 36.515625 
C 15.90625 40.96875 20.203125 43.6875 25 43.6875 
C 28.296875 43.6875 30.90625 42.359375 32.703125 39.59375 
C 34.90625 36.234375 35.59375 33.265625 35.90625 26.40625 
z
" id="URW_Palladio_L_Roman-101"/>
      <path d="M 27.90625 47 
C 13.296875 47 3.203125 36.671875 3.203125 21.75 
C 3.203125 7.609375 12.09375 -2 25 -2 
C 40.40625 -2 51.40625 8.71875 51.40625 23.75 
C 51.40625 37.28125 41.59375 47 27.90625 47 
z
M 26.09375 43.6875 
C 35.296875 43.6875 42.09375 33.671875 42.09375 20.046875 
C 42.09375 8.515625 37 1.296875 28.90625 1.296875 
C 19.09375 1.296875 12.5 10.921875 12.5 25.15625 
C 12.5 37.171875 17.296875 43.6875 26.09375 43.6875 
z
" id="URW_Palladio_L_Roman-111"/>
      <path d="M 34.09375 71.890625 
C 32 72.6875 30.796875 73 29.5 73 
C 26.296875 73 22.796875 71.296875 20.59375 68.8125 
L 14.796875 62.265625 
C 11.90625 58.984375 10.59375 54.53125 10.59375 47.96875 
L 10.59375 43.796875 
L 3.703125 40.6875 
L 3.703125 38.6875 
L 10.59375 38.6875 
L 10.59375 10.171875 
C 10.59375 3.8125 10.296875 3.109375 6.90625 3.109375 
L 2.296875 3.109375 
L 2.296875 0 
C 12.296875 0 12.296875 0 14.796875 0 
C 17.296875 0 17.296875 0 27.296875 0 
L 27.296875 3.109375 
L 22.703125 3.109375 
C 19.296875 3.109375 19 3.828125 19 10.203125 
L 19 38.890625 
L 31.40625 38.890625 
L 32.09375 44 
L 19 44 
L 19 52.34375 
C 19 63.640625 20.296875 66.375 26 66.375 
C 28.703125 66.375 30.5 65.6875 32.90625 63.609375 
L 34.09375 64.203125 
z
" id="URW_Palladio_L_Roman-102"/>
      <path d="M 15 72.1875 
L 14.09375 73 
C 9.703125 71.296875 6.40625 70.484375 -1.5 69.28125 
L -1.5 66.484375 
L 4.09375 66.484375 
C 5.90625 66.484375 6.59375 65.375 6.59375 62.359375 
L 6.59375 15.453125 
C 6.59375 9.234375 6.5 6.5 5.796875 -0.515625 
L 7.40625 -1.109375 
L 11.40625 2.5 
C 15.40625 -0.109375 19 -1.109375 24.296875 -1.109375 
C 28.203125 -1.109375 30.796875 -0.40625 32.90625 1.09375 
L 42.90625 8.296875 
C 47.296875 11.484375 50.796875 19.78125 50.796875 27.078125 
C 50.796875 38.6875 43.296875 47 32.703125 47 
C 28 47 23.09375 45.1875 20.5 42.578125 
L 15 36.984375 
z
M 15 30.890625 
C 15 32.28125 16 34.078125 17.59375 35.890625 
C 20.40625 38.78125 24.296875 40.484375 28.40625 40.484375 
C 36.796875 40.484375 42.09375 33.6875 42.09375 23 
C 42.09375 11.796875 36.09375 4 27.59375 4 
C 22.40625 4 15 7.1875 15 9.390625 
z
" id="URW_Palladio_L_Roman-98"/>
      <path d="M 2.296875 40.078125 
L 6 40.078125 
C 10 40.078125 10.40625 39.375 10.40625 32.71875 
L 10.40625 10.046875 
C 10.40625 3.703125 10.09375 3 6.703125 3 
L 2.09375 3 
L 2.09375 -0.109375 
C 9.296875 -0.109375 11.90625 -0.109375 14.40625 -0.109375 
C 16.40625 -0.109375 16.40625 -0.109375 28.703125 -0.109375 
L 28.703125 3 
L 23.5 3 
C 19 3 18.796875 3.296875 18.796875 9.96875 
L 18.796875 27.359375 
C 18.796875 33.421875 22.796875 38.484375 27.703125 38.484375 
C 30.703125 38.484375 32.796875 37.078125 34.40625 33.890625 
L 36.5 33.890625 
L 37.40625 45.890625 
C 36.296875 46.59375 34.5 47 32.703125 47 
C 29.703125 47 26.5 45.390625 24.40625 42.890625 
L 18.796875 36.28125 
L 18.796875 46.59375 
L 17.90625 47 
C 12.796875 44.890625 7.59375 43.484375 2.296875 42.890625 
z
" id="URW_Palladio_L_Roman-114"/>
      <path d="M 1.796875 40.078125 
L 5.5 40.078125 
C 9.5 40.078125 9.90625 39.375 9.90625 32.71875 
L 9.90625 10.046875 
C 9.90625 3.703125 9.59375 3 6.203125 3 
L 1.59375 3 
L 1.59375 -0.109375 
C 11.203125 -0.109375 11.5 -0.109375 14.296875 -0.109375 
C 17.09375 -0.109375 19.703125 -0.109375 26.203125 -0.109375 
L 26.203125 2.796875 
L 22 3.203125 
C 18.59375 3.203125 18.296875 3.90625 18.296875 10.21875 
L 18.296875 31.46875 
C 18.296875 35.96875 24.90625 40.875 30.90625 40.875 
C 36.296875 40.875 40 35.734375 40 28.09375 
L 40 10.046875 
C 40 3.703125 39.703125 3 36.296875 3 
L 31.703125 3 
L 31.703125 -0.109375 
C 41.703125 -0.109375 41.703125 -0.109375 44.203125 -0.109375 
C 46.703125 -0.109375 46.703125 -0.109375 56.703125 -0.109375 
L 56.703125 3 
L 52.09375 3 
C 48.703125 3 48.40625 3.703125 48.40625 10.046875 
L 48.40625 31.421875 
C 48.40625 35.9375 55 40.875 61 40.875 
C 66.40625 40.875 70.09375 35.796875 70.09375 28.21875 
L 70.09375 -0.109375 
C 76.203125 -0.109375 76.296875 -0.109375 78 -0.109375 
C 79.296875 -0.109375 79.296875 -0.109375 86.90625 -0.109375 
L 86.90625 3 
L 82.203125 3 
C 78.796875 3 78.5 3.703125 78.5 10.046875 
L 78.5 30.78125 
C 78.5 40.75 72.703125 47 63.5 47 
C 60 47 57.09375 46.09375 55.296875 44.484375 
L 47.703125 37.6875 
C 44.5 44.28125 40.40625 47 33.5 47 
C 29.796875 47 27 46.09375 25.203125 44.484375 
L 18.296875 38.078125 
L 18.296875 46.59375 
L 17.40625 47 
C 12.296875 44.890625 7.09375 43.484375 1.796875 42.890625 
z
" id="URW_Palladio_L_Roman-109"/>
      <path d="M 73.203125 12.234375 
C 73.203125 4.3125 72.796875 3.609375 68.09375 3.203125 
L 64.703125 2.90625 
L 64.703125 0 
C 69.296875 0 72.296875 0 77.5 0 
C 83.09375 0 86.703125 0 92.59375 0 
L 92.59375 3.203125 
L 87.796875 3.203125 
C 83.203125 3.203125 82.703125 4 82.703125 11.96875 
L 82.703125 57.234375 
C 82.703125 65.09375 83.203125 66 87.796875 66 
L 92 66.5 
L 92 69.3125 
C 84.40625 69.3125 84.40625 69.3125 82.703125 69.3125 
C 81.203125 69.3125 81.203125 69.3125 73.203125 69.3125 
L 47 13.8125 
L 20.59375 69.3125 
C 12.59375 69.3125 12.59375 69.3125 11.09375 69.3125 
C 9.59375 69.3125 9.59375 69.3125 1.59375 69.3125 
L 1.59375 66.203125 
L 6 66.203125 
C 10.59375 66.203125 11.09375 65.28125 11.09375 57.40625 
L 11.09375 12 
C 11.09375 4.109375 10.59375 3.203125 6 3.203125 
L 1.59375 3.203125 
L 1.59375 0 
C 11.5 0 11.5 0 13.203125 0 
C 14.703125 0 14.703125 0 25.203125 0 
L 25.203125 3.203125 
L 20.796875 3.203125 
C 16.203125 3.203125 15.703125 4.09375 15.703125 11.96875 
L 15.703125 58.09375 
L 43.59375 -1 
L 45.59375 -1 
C 46.296875 0.5 46.90625 2.09375 47.5 3.59375 
C 49.09375 7.5 50.296875 10.28125 51 11.6875 
L 68.796875 49.484375 
C 70.203125 52.390625 71.40625 54.6875 73.203125 58.09375 
z
" id="URW_Palladio_L_Roman-77"/>
      <path d="M 2.296875 66.5 
L 7.90625 66.5 
C 9.703125 66.5 10.40625 65.390625 10.40625 62.375 
L 10.40625 10.171875 
C 10.40625 3.8125 10.09375 3.109375 6.703125 3.109375 
L 2.09375 3.109375 
L 2.09375 0 
C 12.09375 0 12.09375 0 14.59375 0 
C 17.09375 0 17.09375 0 27.09375 0 
L 27.09375 3.109375 
L 22.5 3.109375 
C 19.09375 3.109375 18.796875 3.8125 18.796875 10.15625 
L 18.796875 72.203125 
L 17.90625 73.015625 
C 13.5 71.3125 10.203125 70.5 2.296875 69.296875 
z
" id="URW_Palladio_L_Roman-108"/>
      <path d="M 2.296875 66.5 
L 7.90625 66.5 
C 9.703125 66.5 10.40625 65.390625 10.40625 62.375 
L 10.40625 10.171875 
C 10.40625 3.8125 10.09375 3.109375 6.703125 3.109375 
L 2.09375 3.109375 
L 2.09375 0 
C 12.09375 0 12.09375 0 14.703125 0 
C 17.5 0 18 0 26.90625 0 
L 26.90625 3.109375 
L 22.5 3.109375 
C 19.09375 3.109375 18.796875 3.8125 18.796875 10.1875 
L 18.796875 24.15625 
L 45.296875 -1 
L 54.90625 1.90625 
L 54.90625 4.21875 
C 52.5 4.21875 49.59375 5.921875 46.40625 9 
L 33.796875 21.46875 
C 30.203125 24.953125 29.09375 26.265625 27.40625 28.25 
L 40.296875 38.265625 
C 45 41.828125 47.703125 43 51.09375 43 
L 51.09375 46 
L 41.09375 46 
C 34.703125 39.625 30 35.234375 26.09375 32.140625 
L 18.796875 26.25 
L 18.796875 72.203125 
L 17.90625 73.015625 
C 13.5 71.3125 10.203125 70.5 2.296875 69.296875 
z
" id="URW_Palladio_L_Roman-107"/>
      <path d="M 29.703125 8.8125 
C 27.5 12.625 26.40625 14.9375 24.59375 19.84375 
L 18.203125 36.671875 
C 17.59375 38.375 17.203125 39.875 17.203125 40.90625 
C 17.203125 42.34375 18.296875 43.1875 20.59375 43.1875 
L 24.40625 43.1875 
L 24.40625 46 
C 14.703125 46 14.703125 46 12.796875 46 
C 10.90625 46 10.90625 46 1.203125 46 
L 1.203125 43.390625 
L 3 43.1875 
C 5.5 42.890625 6.703125 41.78125 8.203125 38.296875 
L 19.09375 12.109375 
C 21.90625 5.3125 22.90625 2.90625 24.703125 -2.09375 
L 22.40625 -8.1875 
C 19.203125 -16.59375 15.296875 -21.28125 11.5 -21.28125 
C 9.90625 -21.28125 8.09375 -20.484375 6.40625 -18.984375 
L 5.09375 -18.984375 
L 2.703125 -26.5 
C 4.59375 -27.5 6.203125 -28 8.09375 -28 
C 14.796875 -28 19.09375 -24.40625 22.90625 -15.703125 
L 43.203125 31.09375 
C 47.203125 40.1875 49.09375 42.890625 51.59375 43.1875 
L 54.40625 43.390625 
L 54.40625 46 
C 46.5 46 46.5 46 44.90625 46 
C 43.296875 46 43.296875 46 35.40625 46 
L 35.40625 43.390625 
L 38 43.1875 
C 40.796875 42.984375 42.203125 42.09375 42.203125 40.6875 
C 42.203125 39.984375 42 39.078125 41.59375 38.078125 
z
" id="URW_Palladio_L_Roman-121"/>
      <path d="M 73.40625 -1 
C 73.796875 0.5 74.09375 1.90625 74.203125 2.40625 
C 74.5 3.40625 75.296875 6.421875 76.09375 9.125 
L 91.40625 63 
C 92 64.796875 93 65.703125 95.203125 65.90625 
L 98.40625 66.203125 
L 98.40625 69 
L 87.90625 69 
C 86.90625 69 86.90625 69 77.40625 69 
L 77.40625 66.203125 
L 81.40625 65.90625 
C 84.90625 65.609375 86 65.109375 86.09375 63.484375 
C 86.09375 63.1875 86.09375 62.890625 86 62.578125 
L 72.796875 13.625 
L 56.40625 59.78125 
C 54.203125 65.796875 53.90625 66.59375 53.09375 70 
L 49.90625 70 
C 47.796875 63.78125 46.09375 59.296875 40.90625 45.859375 
L 28.5 14.328125 
L 18.5 59.296875 
C 18.203125 60.5 18.09375 61.59375 18.09375 62.59375 
C 18.09375 64.796875 19.09375 65.703125 21.796875 65.90625 
L 26 66.203125 
L 26 69 
L 13.40625 69 
C 12.703125 69 8.5 69 0.796875 69 
L 0.796875 66.203125 
L 3.59375 65.90625 
C 6.5 65.609375 7.703125 64.5 8.59375 60.890625 
L 20.5 9.328125 
C 21.796875 3.609375 21.796875 3.515625 22.796875 -1 
L 27.796875 -1 
C 28.703125 2.203125 29.5 4.609375 31.40625 9.328125 
L 48.796875 53.578125 
L 61.296875 19.625 
C 64.59375 10.734375 64.90625 9.921875 68.40625 -1 
z
" id="URW_Palladio_L_Roman-87"/>
      <path d="M 30.09375 -19.4375 
C 22.90625 -10.515625 20.296875 -5.71875 17.703125 3.3125 
C 15.59375 10.515625 14.59375 18.140625 14.59375 26.65625 
C 14.59375 34.96875 15.59375 42.078125 17.5 48.59375 
C 20.09375 56.90625 22.796875 61.625 30.09375 70.140625 
L 28.203125 72.75 
C 17.796875 63.421875 13.703125 57.921875 9.90625 48.09375 
C 7.296875 41.375 6 34.265625 6 26.65625 
C 6 15.9375 8.5 5.8125 13.296875 -3.203125 
C 16.796875 -9.921875 20 -13.828125 28.203125 -21.546875 
z
" id="URW_Palladio_L_Roman-40"/>
      <path d="M 1 40.078125 
L 4.703125 40.078125 
C 8.703125 40.078125 9.09375 39.375 9.09375 32.734375 
L 9.09375 -17.84375 
C 9.09375 -24.1875 8.796875 -24.890625 5.40625 -24.890625 
L 0.796875 -24.890625 
L 0.796875 -28 
C 10.796875 -28 10.796875 -28 13.296875 -28 
C 15.796875 -28 15.796875 -28 25.796875 -28 
L 25.796875 -24.890625 
L 21.203125 -24.890625 
C 17.796875 -24.890625 17.5 -24.171875 17.5 -17.78125 
L 17.5 1.390625 
C 20.5 -0.40625 23.703125 -1.109375 28.203125 -1.109375 
C 31.09375 -1.109375 33.703125 -0.5 35.296875 0.5 
L 46.703125 7.890625 
C 50.703125 10.5 55.40625 20.78125 55.40625 27.1875 
C 55.40625 38.296875 46.203125 47 34.59375 47 
C 30.90625 47 27.296875 45.984375 25.703125 44.484375 
L 17.5 36.984375 
L 17.5 46.59375 
L 16.59375 47 
C 11.5 44.890625 6.296875 43.484375 1 42.890625 
z
M 17.5 30.6875 
C 17.5 32.078125 18 33.1875 19.296875 34.890625 
C 22.203125 38.578125 26.296875 40.484375 31.296875 40.484375 
C 40.703125 40.484375 46.703125 33.890625 46.703125 23.5 
C 46.703125 12.296875 40 4 31 4 
C 25.5 4 21.40625 5.8125 17.5 9.890625 
z
" id="URW_Palladio_L_Roman-112"/>
      <path d="M 5.09375 -21.546875 
C 12 -15.03125 14.90625 -11.71875 18 -6.8125 
C 24.09375 2.90625 27.296875 14.53125 27.296875 26.546875 
C 27.296875 34.265625 26 41.375 23.40625 48.09375 
C 19.59375 57.8125 15.5 63.328125 5.09375 72.75 
L 3.203125 70.140625 
C 10.5 61.515625 13.203125 56.8125 15.703125 48.59375 
C 17.703125 42.078125 18.703125 34.96875 18.703125 26.65625 
C 18.703125 18.140625 17.703125 10.515625 15.59375 3.3125 
C 13 -5.71875 10.40625 -10.515625 3.203125 -19.4375 
z
" id="URW_Palladio_L_Roman-41"/>
     </defs>
     <g transform="translate(128.341504 344.654118)scale(0.1 -0.1)">
      <use transform="scale(0.996264)" xlink:href="#URW_Palladio_L_Roman-68"/>
      <use transform="translate(77.110752 0)scale(0.996264)" xlink:href="#URW_Palladio_L_Roman-105"/>
      <use transform="translate(106.101114 0)scale(0.996264)" xlink:href="#URW_Palladio_L_Roman-115"/>
      <use transform="translate(148.34258 0)scale(0.996264)" xlink:href="#URW_Palladio_L_Roman-116"/>
      <use transform="translate(180.819668 0)scale(0.996264)" xlink:href="#URW_Palladio_L_Roman-97"/>
      <use transform="translate(230.632868 0)scale(0.996264)" xlink:href="#URW_Palladio_L_Roman-110"/>
      <use transform="translate(288.614929 0)scale(0.996264)" xlink:href="#URW_Palladio_L_Roman-99"/>
      <use transform="translate(332.848498 0)scale(0.996264)" xlink:href="#URW_Palladio_L_Roman-101"/>
      <use transform="translate(405.475393 0)scale(0.996264)" xlink:href="#URW_Palladio_L_Roman-111"/>
      <use transform="translate(459.870973 0)scale(0.996264)" xlink:href="#URW_Palladio_L_Roman-102"/>
      <use transform="translate(517.952803 0)scale(0.996264)" xlink:href="#URW_Palladio_L_Roman-98"/>
      <use transform="translate(573.045203 0)scale(0.996264)" xlink:href="#URW_Palladio_L_Roman-105"/>
      <use transform="translate(602.035564 0)scale(0.996264)" xlink:href="#URW_Palladio_L_Roman-110"/>
      <use transform="translate(684.924225 0)scale(0.996264)" xlink:href="#URW_Palladio_L_Roman-99"/>
      <use transform="translate(729.157794 0)scale(0.996264)" xlink:href="#URW_Palladio_L_Roman-101"/>
      <use transform="translate(776.878089 0)scale(0.996264)" xlink:href="#URW_Palladio_L_Roman-110"/>
      <use transform="translate(834.86015 0)scale(0.996264)" xlink:href="#URW_Palladio_L_Roman-116"/>
      <use transform="translate(867.337238 0)scale(0.996264)" xlink:href="#URW_Palladio_L_Roman-114"/>
      <use transform="translate(904.896555 0)scale(0.996264)" xlink:href="#URW_Palladio_L_Roman-101"/>
      <use transform="translate(977.52345 0)scale(0.996264)" xlink:href="#URW_Palladio_L_Roman-102"/>
      <use transform="translate(1010.69868 0)scale(0.996264)" xlink:href="#URW_Palladio_L_Roman-114"/>
      <use transform="translate(1048.257997 0)scale(0.996264)" xlink:href="#URW_Palladio_L_Roman-111"/>
      <use transform="translate(1102.653578 0)scale(0.996264)" xlink:href="#URW_Palladio_L_Roman-109"/>
      <use transform="translate(1215.529852 0)scale(0.996264)" xlink:href="#URW_Palladio_L_Roman-77"/>
      <use transform="translate(1309.776053 0)scale(0.996264)" xlink:href="#URW_Palladio_L_Roman-105"/>
      <use transform="translate(1338.766415 0)scale(0.996264)" xlink:href="#URW_Palladio_L_Roman-108"/>
      <use transform="translate(1367.756776 0)scale(0.996264)" xlink:href="#URW_Palladio_L_Roman-107"/>
      <use transform="translate(1423.148453 0)scale(0.996264)" xlink:href="#URW_Palladio_L_Roman-121"/>
      <use transform="translate(1503.446731 0)scale(0.996264)" xlink:href="#URW_Palladio_L_Roman-87"/>
      <use transform="translate(1593.908251 0)scale(0.996264)" xlink:href="#URW_Palladio_L_Roman-97"/>
      <use transform="translate(1643.721451 0)scale(0.996264)" xlink:href="#URW_Palladio_L_Roman-121"/>
      <use transform="translate(1724.019728 0)scale(0.996264)" xlink:href="#URW_Palladio_L_Roman-40"/>
      <use transform="translate(1757.194958 0)scale(0.996264)" xlink:href="#URW_Palladio_L_Roman-77"/>
      <use transform="translate(1851.441159 0)scale(0.996264)" xlink:href="#URW_Palladio_L_Roman-112"/>
      <use transform="translate(1911.315553 0)scale(0.996264)" xlink:href="#URW_Palladio_L_Roman-99"/>
      <use transform="translate(1955.549122 0)scale(0.996264)" xlink:href="#URW_Palladio_L_Roman-41"/>
     </g>
    </g>
   </g>
   <g id="matplotlib.axis_2">
    <g id="ytick_1">
     <g id="line2d_10">
      <defs>
       <path d="M 0 0 
L -3.5 0 
" id="m759687138f" style="stroke:#000000;stroke-width:0.8;"/>
      </defs>
      <g>
       <use style="stroke:#000000;stroke-width:0.8;" x="43.034608" xlink:href="#m759687138f" y="287.474243"/>
      </g>
     </g>
     <g id="text_11">
      <!-- $20$ -->
      <defs>
       <path d="M 26.296875 69 
C 10.796875 69 2.90625 56.6875 2.90625 32.453125 
C 2.90625 20.71875 5 10.625 8.5 5.71875 
C 12 0.796875 17.59375 -2 23.796875 -2 
C 38.90625 -2 46.5 11.015625 46.5 36.65625 
C 46.5 58.578125 40 69 26.296875 69 
z
M 24.5 65.5 
C 34.203125 65.5 38.09375 55.6875 38.09375 31.640625 
C 38.09375 10.328125 34.296875 1.5 25.09375 1.5 
C 15.40625 1.5 11.296875 11.625 11.296875 36.0625 
C 11.296875 57.1875 15 65.5 24.5 65.5 
z
" id="URW_Palladio_L_Roman-48"/>
      </defs>
      <g transform="translate(26.071968 291.038361)scale(0.1 -0.1)">
       <use transform="scale(0.996264)" xlink:href="#URW_Palladio_L_Roman-50"/>
       <use transform="translate(49.8132 0)scale(0.996264)" xlink:href="#URW_Palladio_L_Roman-48"/>
      </g>
     </g>
    </g>
    <g id="ytick_2">
     <g id="line2d_11">
      <g>
       <use style="stroke:#000000;stroke-width:0.8;" x="43.034608" xlink:href="#m759687138f" y="244.822783"/>
      </g>
     </g>
     <g id="text_12">
      <!-- $40$ -->
      <g transform="translate(26.071968 248.386902)scale(0.1 -0.1)">
       <use transform="scale(0.996264)" xlink:href="#URW_Palladio_L_Roman-52"/>
       <use transform="translate(49.8132 0)scale(0.996264)" xlink:href="#URW_Palladio_L_Roman-48"/>
      </g>
     </g>
    </g>
    <g id="ytick_3">
     <g id="line2d_12">
      <g>
       <use style="stroke:#000000;stroke-width:0.8;" x="43.034608" xlink:href="#m759687138f" y="202.171324"/>
      </g>
     </g>
     <g id="text_13">
      <!-- $60$ -->
      <g transform="translate(26.071968 205.735443)scale(0.1 -0.1)">
       <use transform="scale(0.996264)" xlink:href="#URW_Palladio_L_Roman-54"/>
       <use transform="translate(49.8132 0)scale(0.996264)" xlink:href="#URW_Palladio_L_Roman-48"/>
      </g>
     </g>
    </g>
    <g id="ytick_4">
     <g id="line2d_13">
      <g>
       <use style="stroke:#000000;stroke-width:0.8;" x="43.034608" xlink:href="#m759687138f" y="159.519864"/>
      </g>
     </g>
     <g id="text_14">
      <!-- $80$ -->
      <g transform="translate(26.071968 163.083983)scale(0.1 -0.1)">
       <use transform="scale(0.996264)" xlink:href="#URW_Palladio_L_Roman-56"/>
       <use transform="translate(49.8132 0)scale(0.996264)" xlink:href="#URW_Palladio_L_Roman-48"/>
      </g>
     </g>
    </g>
    <g id="ytick_5">
     <g id="line2d_14">
      <g>
       <use style="stroke:#000000;stroke-width:0.8;" x="43.034608" xlink:href="#m759687138f" y="116.868405"/>
      </g>
     </g>
     <g id="text_15">
      <!-- $100$ -->
      <g transform="translate(21.090648 120.432524)scale(0.1 -0.1)">
       <use transform="scale(0.996264)" xlink:href="#URW_Palladio_L_Roman-49"/>
       <use transform="translate(49.8132 0)scale(0.996264)" xlink:href="#URW_Palladio_L_Roman-48"/>
       <use transform="translate(99.626401 0)scale(0.996264)" xlink:href="#URW_Palladio_L_Roman-48"/>
      </g>
     </g>
    </g>
    <g id="ytick_6">
     <g id="line2d_15">
      <g>
       <use style="stroke:#000000;stroke-width:0.8;" x="43.034608" xlink:href="#m759687138f" y="74.216945"/>
      </g>
     </g>
     <g id="text_16">
      <!-- $120$ -->
      <g transform="translate(21.090648 77.781064)scale(0.1 -0.1)">
       <use transform="scale(0.996264)" xlink:href="#URW_Palladio_L_Roman-49"/>
       <use transform="translate(49.8132 0)scale(0.996264)" xlink:href="#URW_Palladio_L_Roman-50"/>
       <use transform="translate(99.626401 0)scale(0.996264)" xlink:href="#URW_Palladio_L_Roman-48"/>
      </g>
     </g>
    </g>
    <g id="ytick_7">
     <g id="line2d_16">
      <g>
       <use style="stroke:#000000;stroke-width:0.8;" x="43.034608" xlink:href="#m759687138f" y="31.565486"/>
      </g>
     </g>
     <g id="text_17">
      <!-- $140$ -->
      <g transform="translate(21.090648 35.129605)scale(0.1 -0.1)">
       <use transform="scale(0.996264)" xlink:href="#URW_Palladio_L_Roman-49"/>
       <use transform="translate(49.8132 0)scale(0.996264)" xlink:href="#URW_Palladio_L_Roman-52"/>
       <use transform="translate(99.626401 0)scale(0.996264)" xlink:href="#URW_Palladio_L_Roman-48"/>
      </g>
     </g>
    </g>
    <g id="text_18">
     <!-- Mean $H_0$ in 2.0 Mpc bin (km/s/Mpc) -->
     <defs>
      <path d="M 22.09375 38.390625 
L 26.296875 61.125 
C 27 65.015625 27.703125 65.609375 31.40625 65.921875 
L 35.59375 66.21875 
L 35.90625 69 
L 33.5 69 
L 24.5 69 
C 22.90625 69 21.09375 69 16.796875 69 
L 10.40625 69 
L 10.09375 66.21875 
L 14.796875 66.21875 
C 17.203125 66.21875 18.296875 65.421875 18.296875 63.625 
C 18.296875 62.234375 17.90625 59.125 17.40625 56.046875 
L 10 12.765625 
C 8.296875 3.578125 8.203125 3.484375 4.203125 3.078125 
L 0.09375 2.78125 
L -0.296875 0 
L 3.90625 0 
C 8.703125 0 11 0 12.90625 0 
L 22.59375 0 
L 25.203125 0 
L 25.5 2.796875 
L 20.59375 2.796875 
C 17.90625 3 17 3.703125 17 5.8125 
C 17 6.703125 17.09375 7.40625 17.40625 9.3125 
L 21.59375 34 
L 27.703125 34 
C 33.90625 34 38.09375 34 40 34 
C 41.90625 34 46 34 52.296875 34 
L 58.40625 34 
L 54.40625 12.5 
C 53.5 7.59375 52.796875 4.8125 52.296875 4.203125 
C 51.90625 3.40625 50.796875 3 48.59375 2.796875 
L 43.59375 2.796875 
L 43.203125 0 
L 48.796875 0 
C 53.203125 0 56.203125 0 57.296875 0 
C 58.90625 0 62 0 66.296875 0 
L 70.5 0 
L 70.796875 2.796875 
L 65 2.796875 
C 62.40625 2.796875 61.40625 3.59375 61.40625 5.703125 
C 61.40625 6.59375 61.5 7.484375 61.796875 9.1875 
L 71 61.125 
C 71.703125 65 72.296875 65.5 76.09375 65.90625 
L 79.703125 66.203125 
L 80 69 
L 78.40625 69 
L 69.296875 69 
C 67.796875 69 65.703125 69 61.296875 69 
L 55 69 
L 54.703125 66.21875 
L 59.5 66.21875 
C 61.90625 66.21875 63 65.40625 63 63.59375 
C 63 62.1875 62.59375 58.953125 62.09375 55.9375 
L 59.09375 38.390625 
z
" id="URW_Palladio_L_Italic-72"/>
      <path d="M 12.40625 11.625 
C 9.40625 11.625 6.703125 8.8125 6.703125 5.8125 
C 6.703125 2.796875 9.40625 0 12.296875 0 
C 15.5 0 18.296875 2.703125 18.296875 5.8125 
C 18.296875 8.8125 15.5 11.625 12.40625 11.625 
z
" id="URW_Palladio_L_Roman-46"/>
      <path d="M 51.90625 72.5 
L 45.90625 72.5 
L 8.703125 -12 
L 14.703125 -12 
z
" id="URW_Palladio_L_Roman-47"/>
     </defs>
     <g transform="translate(14.281237 247.547246)rotate(-90)scale(0.1 -0.1)">
      <use transform="translate(0 17.441431)scale(0.996264)" xlink:href="#URW_Palladio_L_Roman-77"/>
      <use transform="translate(94.246201 17.441431)scale(0.996264)" xlink:href="#URW_Palladio_L_Roman-101"/>
      <use transform="translate(141.966496 17.441431)scale(0.996264)" xlink:href="#URW_Palladio_L_Roman-97"/>
      <use transform="translate(191.779697 17.441431)scale(0.996264)" xlink:href="#URW_Palladio_L_Roman-110"/>
      <use transform="translate(279.699479 17.441431)scale(0.996264)" xlink:href="#URW_Palladio_L_Italic-72"/>
      <use transform="translate(355.963492 0)scale(0.757155)" xlink:href="#URW_Palladio_L_Roman-48"/>
      <use transform="translate(419.225983 17.441431)scale(0.996264)" xlink:href="#URW_Palladio_L_Roman-105"/>
      <use transform="translate(448.216344 17.441431)scale(0.996264)" xlink:href="#URW_Palladio_L_Roman-110"/>
      <use transform="translate(531.105005 17.441431)scale(0.996264)" xlink:href="#URW_Palladio_L_Roman-50"/>
      <use transform="translate(580.918206 17.441431)scale(0.996264)" xlink:href="#URW_Palladio_L_Roman-46"/>
      <use transform="translate(605.824806 17.441431)scale(0.996264)" xlink:href="#URW_Palladio_L_Roman-48"/>
      <use transform="translate(680.544607 17.441431)scale(0.996264)" xlink:href="#URW_Palladio_L_Roman-77"/>
      <use transform="translate(774.790808 17.441431)scale(0.996264)" xlink:href="#URW_Palladio_L_Roman-112"/>
      <use transform="translate(834.665202 17.441431)scale(0.996264)" xlink:href="#URW_Palladio_L_Roman-99"/>
      <use transform="translate(903.805371 17.441431)scale(0.996264)" xlink:href="#URW_Palladio_L_Roman-98"/>
      <use transform="translate(958.89777 17.441431)scale(0.996264)" xlink:href="#URW_Palladio_L_Roman-105"/>
      <use transform="translate(987.888132 17.441431)scale(0.996264)" xlink:href="#URW_Palladio_L_Roman-110"/>
      <use transform="translate(1070.776793 17.441431)scale(0.996264)" xlink:href="#URW_Palladio_L_Roman-40"/>
      <use transform="translate(1103.952023 17.441431)scale(0.996264)" xlink:href="#URW_Palladio_L_Roman-107"/>
      <use transform="translate(1159.3437 17.441431)scale(0.996264)" xlink:href="#URW_Palladio_L_Roman-109"/>
      <use transform="translate(1247.313374 17.441431)scale(0.996264)" xlink:href="#URW_Palladio_L_Roman-47"/>
      <use transform="translate(1307.686386 17.441431)scale(0.996264)" xlink:href="#URW_Palladio_L_Roman-115"/>
      <use transform="translate(1349.927852 17.441431)scale(0.996264)" xlink:href="#URW_Palladio_L_Roman-47"/>
      <use transform="translate(1410.300865 17.441431)scale(0.996264)" xlink:href="#URW_Palladio_L_Roman-77"/>
      <use transform="translate(1504.547066 17.441431)scale(0.996264)" xlink:href="#URW_Palladio_L_Roman-112"/>
      <use transform="translate(1564.42146 17.441431)scale(0.996264)" xlink:href="#URW_Palladio_L_Roman-99"/>
      <use transform="translate(1608.655028 17.441431)scale(0.996264)" xlink:href="#URW_Palladio_L_Roman-41"/>
     </g>
    </g>
   </g>
   <g id="line2d_17">
    <path clip-path="url(#p50c12b504f)" d="M 59.829427 159.190788 
L 64.08128 141.751176 
L 68.333133 114.410587 
L 72.584986 89.245995 
L 76.836838 65.707811 
L 81.088691 50.342765 
L 85.340544 37.766202 
L 89.592397 29.037222 
L 93.84425 27.634692 
L 98.096103 31.017148 
L 102.347956 36.421976 
L 106.599809 43.421146 
L 110.851662 46.709746 
L 115.103515 52.618137 
L 119.355367 55.715006 
L 123.60722 64.3212 
L 127.859073 68.189556 
L 132.110926 75.737054 
L 136.362779 80.55074 
L 140.614632 84.87211 
L 144.866485 89.581859 
L 149.118338 92.475921 
L 153.370191 96.633914 
L 157.622044 99.021452 
L 161.873896 99.294975 
L 166.125749 96.637428 
L 170.377602 95.204547 
L 174.629455 93.107217 
L 178.881308 95.845175 
L 183.133161 94.666454 
L 187.385014 94.898245 
L 191.636867 94.922028 
L 195.88872 96.676455 
L 200.140573 98.846403 
L 204.392425 100.058108 
L 208.644278 102.742901 
L 212.896131 103.119254 
L 217.147984 104.884414 
L 221.399837 107.908877 
L 225.65169 108.696556 
L 229.903543 108.775333 
L 234.155396 112.131802 
L 238.407249 119.974634 
L 242.659102 119.052777 
L 246.910954 119.832016 
L 251.162807 118.529724 
L 255.41466 118.221334 
L 259.666513 117.662088 
L 263.918366 116.34955 
L 268.170219 111.299876 
L 272.422072 111.105635 
L 276.673925 120.574043 
L 280.925778 116.402008 
L 285.177631 116.516077 
L 289.429483 116.685503 
L 293.681336 119.842627 
L 297.933189 128.073079 
L 302.185042 132.65304 
L 306.436895 135.087682 
L 310.688748 139.044446 
L 314.940601 142.405945 
L 319.192454 144.445506 
L 323.444307 148.729355 
L 327.69616 150.296017 
L 331.948013 154.326656 
L 336.199865 155.85466 
L 340.451718 147.143277 
L 344.703571 142.562932 
L 348.955424 144.582243 
L 353.207277 145.632259 
L 357.45913 137.298156 
L 361.710983 133.204528 
L 365.962836 126.396184 
L 370.214689 123.902705 
L 374.466542 115.032494 
L 378.718394 117.93998 
L 382.970247 119.119873 
L 387.2221 118.259007 
L 391.473953 116.361566 
L 395.725806 114.238937 
" style="fill:none;stroke:#bfbfbf;stroke-linecap:square;stroke-width:2;"/>
   </g>
   <g id="line2d_18">
    <path clip-path="url(#p50c12b504f)" d="M 59.829427 302.82854 
L 64.08128 279.628322 
L 68.333133 256.896429 
L 72.584986 230.513758 
L 76.836838 207.800667 
L 81.088691 185.398976 
L 85.340544 170.828821 
L 89.592397 161.404489 
L 93.84425 154.157933 
L 98.096103 158.222972 
L 102.347956 165.289707 
L 106.599809 168.504948 
L 110.851662 176.502525 
L 115.103515 185.134427 
L 119.355367 193.848106 
L 123.60722 201.922937 
L 127.859073 206.831177 
L 132.110926 209.53434 
L 136.362779 212.090871 
L 140.614632 210.991896 
L 144.866485 208.366186 
L 149.118338 205.938726 
L 153.370191 207.398696 
L 157.622044 205.448142 
L 161.873896 205.192008 
L 166.125749 202.987709 
L 170.377602 205.342498 
L 174.629455 206.540567 
L 178.881308 205.230902 
L 183.133161 206.756423 
L 187.385014 207.227864 
L 191.636867 206.791769 
L 195.88872 204.915487 
L 200.140573 205.584893 
L 204.392425 201.820082 
L 208.644278 199.880799 
L 212.896131 199.935988 
L 217.147984 206.624514 
L 221.399837 205.142754 
L 225.65169 206.579513 
L 229.903543 206.342435 
L 234.155396 210.312847 
L 238.407249 210.199881 
L 242.659102 208.273931 
L 246.910954 214.075773 
L 251.162807 209.9238 
L 255.41466 208.582411 
L 259.666513 205.099539 
L 263.918366 204.691259 
L 268.170219 201.715857 
L 272.422072 199.050812 
L 276.673925 181.351732 
L 280.925778 182.922331 
L 285.177631 184.836513 
L 289.429483 187.269286 
L 293.681336 191.469387 
L 297.933189 193.488859 
L 302.185042 196.455843 
L 306.436895 200.564774 
L 310.688748 201.662809 
L 314.940601 199.607229 
L 319.192454 204.683853 
L 323.444307 203.436112 
L 327.69616 201.239624 
L 331.948013 196.239485 
L 336.199865 199.632019 
L 340.451718 202.433891 
L 344.703571 199.81883 
L 348.955424 198.077035 
L 353.207277 198.987225 
L 357.45913 204.033941 
L 361.710983 202.165521 
L 365.962836 199.166489 
L 370.214689 193.750973 
L 374.466542 202.222176 
L 378.718394 202.516197 
L 382.970247 196.960461 
L 387.2221 193.088275 
L 391.473953 190.571958 
L 395.725806 190.110274 
" style="fill:none;stroke:#bfbfbf;stroke-linecap:square;stroke-width:2;"/>
   </g>
   <g id="line2d_19">
    <path clip-path="url(#p50c12b504f)" d="M 59.829427 231.009664 
L 64.08128 210.689749 
L 68.333133 185.653508 
L 72.584986 159.879877 
L 76.836838 136.754239 
L 81.088691 117.870871 
L 85.340544 104.297512 
L 89.592397 95.220856 
L 93.84425 90.896313 
L 98.096103 94.62006 
L 102.347956 100.855841 
L 106.599809 105.963047 
L 110.851662 111.606135 
L 115.103515 118.876282 
L 119.355367 124.781556 
L 123.60722 133.122068 
L 127.859073 137.510366 
L 132.110926 142.635697 
L 136.362779 146.320805 
L 140.614632 147.932003 
L 144.866485 148.974022 
L 149.118338 149.207324 
L 153.370191 152.016305 
L 157.622044 152.234797 
L 161.873896 152.243491 
L 166.125749 149.812569 
L 170.377602 150.273523 
L 174.629455 149.823892 
L 178.881308 150.538039 
L 183.133161 150.711439 
L 187.385014 151.063055 
L 191.636867 150.856899 
L 195.88872 150.795971 
L 200.140573 152.215648 
L 204.392425 150.939095 
L 208.644278 151.31185 
L 212.896131 151.527621 
L 217.147984 155.754464 
L 221.399837 156.525816 
L 225.65169 157.638034 
L 229.903543 157.558884 
L 234.155396 161.222325 
L 238.407249 165.087257 
L 242.659102 163.663354 
L 246.910954 166.953895 
L 251.162807 164.226762 
L 255.41466 163.401872 
L 259.666513 161.380814 
L 263.918366 160.520404 
L 268.170219 156.507867 
L 272.422072 155.078223 
L 276.673925 150.962888 
L 280.925778 149.66217 
L 285.177631 150.676295 
L 289.429483 151.977394 
L 293.681336 155.656007 
L 297.933189 160.780969 
L 302.185042 164.554442 
L 306.436895 167.826228 
L 310.688748 170.353627 
L 314.940601 171.006587 
L 319.192454 174.56468 
L 323.444307 176.082734 
L 327.69616 175.767821 
L 331.948013 175.28307 
L 336.199865 177.74334 
L 340.451718 174.788584 
L 344.703571 171.190881 
L 348.955424 171.329639 
L 353.207277 172.309742 
L 357.45913 170.666048 
L 361.710983 167.685025 
L 365.962836 162.781336 
L 370.214689 158.826839 
L 374.466542 158.627335 
L 378.718394 160.228088 
L 382.970247 158.040167 
L 387.2221 155.673641 
L 391.473953 153.466762 
L 395.725806 152.174605 
" style="fill:none;stroke:#000000;stroke-linecap:square;stroke-width:2;"/>
   </g>
   <g id="patch_3">
    <path d="M 43.034608 316.588233 
L 43.034608 13.875 
" style="fill:none;stroke:#000000;stroke-linecap:square;stroke-linejoin:miter;stroke-width:0.8;"/>
   </g>
   <g id="patch_4">
    <path d="M 412.520625 316.588233 
L 412.520625 13.875 
" style="fill:none;stroke:#000000;stroke-linecap:square;stroke-linejoin:miter;stroke-width:0.8;"/>
   </g>
   <g id="patch_5">
    <path d="M 43.034608 316.588233 
L 412.520625 316.588233 
" style="fill:none;stroke:#000000;stroke-linecap:square;stroke-linejoin:miter;stroke-width:0.8;"/>
   </g>
   <g id="patch_6">
    <path d="M 43.034608 13.875 
L 412.520625 13.875 
" style="fill:none;stroke:#000000;stroke-linecap:square;stroke-linejoin:miter;stroke-width:0.8;"/>
   </g>
  </g>
 </g>
 <defs>
  <clipPath id="p50c12b504f">
   <rect height="302.713233" width="369.486017" x="43.034608" y="13.875"/>
  </clipPath>
 </defs>
</svg>
