<?xml version="1.0" encoding="utf-8" standalone="no"?>
<!DOCTYPE svg PUBLIC "-//W3C//DTD SVG 1.1//EN"
  "http://www.w3.org/Graphics/SVG/1.1/DTD/svg11.dtd">
<!-- Created with matplotlib (http://matplotlib.org/) -->
<svg height="221pt" version="1.1" viewBox="0 0 340 221" width="340pt" xmlns="http://www.w3.org/2000/svg" xmlns:xlink="http://www.w3.org/1999/xlink">
 <defs>
  <style type="text/css">
*{stroke-linecap:butt;stroke-linejoin:round;}
  </style>
 </defs>
 <g id="figure_1">
  <g id="patch_1">
   <path d="M 0 221.057861 
L 340.246079 221.057861 
L 340.246079 0 
L 0 0 
z
" style="fill:#ffffff;"/>
  </g>
  <g id="axes_1">
   <g id="patch_2">
    <path d="M 50.546079 177.02 
L 329.546079 177.02 
L 329.546079 10.7 
L 50.546079 10.7 
z
" style="fill:#ffffff;"/>
   </g>
   <g id="matplotlib.axis_1">
    <g id="xtick_1">
     <g id="line2d_1">
      <defs>
       <path d="M 0 0 
L 0 3.5 
" id="m52f76186b8" style="stroke:#000000;stroke-width:0.8;"/>
      </defs>
      <g>
       <use style="stroke:#000000;stroke-width:0.8;" x="63.866034" xlink:href="#m52f76186b8" y="177.02"/>
      </g>
     </g>
     <g id="text_1">
      <!-- $2$ -->
      <defs>
       <path d="M 1.59375 2.5 
L 1.59375 0 
C 20.296875 0 20.296875 0 23.90625 0 
C 27.5 0 27.5 0 46.796875 0 
C 46.59375 1.953125 46.59375 2.90625 46.59375 4.203125 
C 46.59375 5.4375 46.59375 6.359375 46.796875 8.421875 
C 35.296875 8.421875 30.703125 8.421875 12.203125 8.421875 
L 30.40625 27.515625 
C 40.09375 37.71875 43.09375 43.171875 43.09375 50.59375 
C 43.09375 61.96875 35.296875 69 22.59375 69 
C 15.40625 69 10.5 67 5.59375 62.015625 
L 3.90625 48.421875 
L 6.796875 48.421875 
L 8.09375 53.015625 
C 9.703125 58.796875 13.296875 61.296875 20 61.296875 
C 28.59375 61.296875 34.09375 55.890625 34.09375 47.421875 
C 34.09375 39.921875 29.90625 32.546875 18.59375 20.5625 
z
" id="URW_Palladio_L_Roman-50"/>
      </defs>
      <g transform="translate(60.628176 193.286703)scale(0.13 -0.13)">
       <use transform="scale(0.996264)" xlink:href="#URW_Palladio_L_Roman-50"/>
      </g>
     </g>
    </g>
    <g id="xtick_2">
     <g id="line2d_2">
      <g>
       <use style="stroke:#000000;stroke-width:0.8;" x="127.272118" xlink:href="#m52f76186b8" y="177.02"/>
      </g>
     </g>
     <g id="text_2">
      <!-- $4$ -->
      <defs>
       <path d="M 28 18 
L 28 10.515625 
C 28 4.515625 26.90625 3.109375 22 3.109375 
L 15.796875 3.109375 
L 15.796875 0 
C 29.09375 0 29.09375 0 31.5 0 
C 33.90625 0 33.90625 0 47.203125 0 
L 47.203125 3.109375 
L 42.40625 3.109375 
C 37.5 3.109375 36.40625 4.40625 36.40625 10.453125 
L 36.40625 18 
C 42.296875 18 44.40625 18 47.203125 17.703125 
L 47.203125 24.8125 
C 42.5 24.421875 40.59375 24.421875 39.09375 24.421875 
L 38.796875 24.421875 
L 36.40625 24.421875 
L 36.40625 38.390625 
C 36.40625 56.25 36.59375 64.875 37.09375 69 
L 35.90625 69.5 
L 28.5 66.796875 
L 0.203125 20.296875 
L 1.296875 18 
z
M 28 24.421875 
L 6.5 24.421875 
L 28 59.78125 
z
" id="URW_Palladio_L_Roman-52"/>
      </defs>
      <g transform="translate(124.03426 193.286703)scale(0.13 -0.13)">
       <use transform="scale(0.996264)" xlink:href="#URW_Palladio_L_Roman-52"/>
      </g>
     </g>
    </g>
    <g id="xtick_3">
     <g id="line2d_3">
      <g>
       <use style="stroke:#000000;stroke-width:0.8;" x="190.678202" xlink:href="#m52f76186b8" y="177.02"/>
      </g>
     </g>
     <g id="text_3">
      <!-- $6$ -->
      <defs>
       <path d="M 41.59375 67.34375 
L 37.90625 69.046875 
C 28.296875 65.84375 24.203125 63.84375 19.09375 59.4375 
C 8.796875 50.71875 3.203125 38.5 3.203125 24.765625 
C 3.203125 8.21875 11.203125 -2 24.09375 -2 
C 37.09375 -2 46.796875 8.3125 46.796875 21.953125 
C 46.796875 33.484375 39.90625 41 29.296875 41 
C 24.296875 41 21.296875 39.6875 15.40625 34.984375 
C 14.296875 34.078125 14.203125 33.984375 13.09375 33.1875 
C 15.203125 51.3125 23.59375 61.140625 41.59375 66.546875 
z
M 25.5 34.984375 
C 33.09375 34.984375 38.203125 28.375 38.203125 18.453125 
C 38.203125 8.015625 33.09375 1.296875 25.40625 1.296875 
C 16.90625 1.296875 12.296875 8.609375 12.296875 22.0625 
C 12.296875 25.5625 12.703125 27.46875 13.796875 29.171875 
C 16 32.578125 20.703125 34.984375 25.5 34.984375 
z
" id="URW_Palladio_L_Roman-54"/>
      </defs>
      <g transform="translate(187.440344 193.286703)scale(0.13 -0.13)">
       <use transform="scale(0.996264)" xlink:href="#URW_Palladio_L_Roman-54"/>
      </g>
     </g>
    </g>
    <g id="xtick_4">
     <g id="line2d_4">
      <g>
       <use style="stroke:#000000;stroke-width:0.8;" x="254.084285" xlink:href="#m52f76186b8" y="177.02"/>
      </g>
     </g>
     <g id="text_4">
      <!-- $8$ -->
      <defs>
       <path d="M 16.796875 34.546875 
C 12.703125 32.65625 11 31.546875 8.796875 29.4375 
C 5 25.640625 3 21.125 3 15.921875 
C 3 5.609375 11.296875 -2 22.59375 -2 
C 35.59375 -2 46.40625 8.21875 46.40625 20.625 
C 46.40625 28.640625 42.703125 32.953125 31.296875 38.15625 
C 40.40625 44.375 43.59375 48.578125 43.59375 54.578125 
C 43.59375 63.1875 36.5 69 25.90625 69 
C 14 69 5.296875 61.390625 5.296875 50.890625 
C 5.296875 44.078125 8 40.265625 16.796875 34.546875 
z
M 28.40625 29.546875 
C 34.703125 26.734375 38.5 21.828125 38.5 16.4375 
C 38.5 8.015625 32.203125 1.40625 24.09375 1.40625 
C 15.59375 1.40625 10.09375 7.421875 10.09375 16.734375 
C 10.09375 24.03125 13 28.640625 20.40625 33.15625 
z
M 22.296875 42.375 
C 16 45.46875 12.796875 49.484375 12.796875 54.484375 
C 12.796875 61.09375 17.59375 65.59375 24.703125 65.59375 
C 32 65.59375 36.796875 60.796875 36.796875 53.46875 
C 36.796875 47.78125 34.296875 43.875 27.796875 39.65625 
z
" id="URW_Palladio_L_Roman-56"/>
      </defs>
      <g transform="translate(250.846427 193.286703)scale(0.13 -0.13)">
       <use transform="scale(0.996264)" xlink:href="#URW_Palladio_L_Roman-56"/>
      </g>
     </g>
    </g>
    <g id="xtick_5">
     <g id="line2d_5">
      <g>
       <use style="stroke:#000000;stroke-width:0.8;" x="317.490369" xlink:href="#m52f76186b8" y="177.02"/>
      </g>
     </g>
     <g id="text_5">
      <!-- $10$ -->
      <defs>
       <path d="M 6.703125 56 
L 7.703125 56 
L 20.59375 61.8125 
C 20.703125 61.90625 20.796875 61.90625 20.90625 61.90625 
C 21.5 61.90625 21.703125 61.015625 21.703125 58.609375 
L 21.703125 9.578125 
C 21.703125 4.3125 20.59375 3.203125 15.203125 3.203125 
L 9.59375 3.203125 
L 9.59375 0 
C 25 0 25 0 26.09375 0 
C 27.40625 0 29.59375 0 33 0 
C 34.203125 0 37.703125 0 41.796875 0 
L 41.796875 3.203125 
L 36.59375 3.203125 
C 31.09375 3.203125 30.09375 4.3125 30.09375 9.5625 
L 30.09375 69.421875 
L 28.703125 69.921875 
C 22.203125 66.515625 15.09375 63.515625 6 60.3125 
z
" id="URW_Palladio_L_Roman-49"/>
       <path d="M 26.296875 69 
C 10.796875 69 2.90625 56.6875 2.90625 32.453125 
C 2.90625 20.71875 5 10.625 8.5 5.71875 
C 12 0.796875 17.59375 -2 23.796875 -2 
C 38.90625 -2 46.5 11.015625 46.5 36.65625 
C 46.5 58.578125 40 69 26.296875 69 
z
M 24.5 65.5 
C 34.203125 65.5 38.09375 55.6875 38.09375 31.640625 
C 38.09375 10.328125 34.296875 1.5 25.09375 1.5 
C 15.40625 1.5 11.296875 11.625 11.296875 36.0625 
C 11.296875 57.1875 15 65.5 24.5 65.5 
z
" id="URW_Palladio_L_Roman-48"/>
      </defs>
      <g transform="translate(311.014653 193.286703)scale(0.13 -0.13)">
       <use transform="scale(0.996264)" xlink:href="#URW_Palladio_L_Roman-49"/>
       <use transform="translate(49.8132 0)scale(0.996264)" xlink:href="#URW_Palladio_L_Roman-48"/>
      </g>
     </g>
    </g>
    <g id="text_6">
     <!-- Range containing only type 1 particles -->
     <defs>
      <path d="M 21.59375 64.796875 
C 25 65.59375 28 66 31.40625 66 
C 41.796875 66 47.59375 61.171875 47.59375 52.609375 
C 47.59375 43.359375 40.296875 37.515625 28.703125 37.515625 
C 28 37.515625 27.09375 37.515625 25.796875 37.609375 
L 25.203125 36.40625 
C 26.296875 35.09375 26.59375 34.703125 27.796875 33.390625 
C 29.203125 31.796875 29.5 31.390625 30.40625 30.1875 
L 48.796875 5.40625 
C 49.40625 4.609375 50 3.796875 50.59375 3.109375 
C 51.296875 2.203125 51.90625 1.296875 52.90625 0 
C 57.59375 0 58.59375 0 59.703125 0 
C 60.59375 0 60.59375 0 66.90625 0 
L 66.90625 2.90625 
C 63.703125 3.203125 62.09375 3.8125 60.796875 5.53125 
L 38.09375 35.296875 
C 43.703125 36.703125 46.296875 37.796875 49.59375 40.09375 
C 54.796875 43.796875 57.59375 48.796875 57.59375 54.609375 
C 57.59375 64.203125 50.59375 69.609375 38.203125 69.609375 
L 36.59375 69.609375 
C 23.59375 69.609375 23.59375 69.609375 20.203125 69.609375 
C 16.90625 69.609375 16.90625 69.609375 2.90625 69.609375 
L 2.90625 66.796875 
L 7 66.296875 
C 11.59375 66.296875 12.09375 65.375 12.09375 57.484375 
L 12.09375 12.015625 
C 12.09375 4.015625 11.59375 3.203125 7 3.203125 
L 2.203125 3.203125 
L 2.203125 0 
C 8.09375 0 11.59375 0 16.796875 0 
C 22 0 25.59375 0 31.5 0 
L 31.5 3.203125 
L 26.703125 3.203125 
C 22.09375 3.203125 21.59375 4 21.59375 12 
z
" id="URW_Palladio_L_Roman-82"/>
      <path d="M 32.40625 8.40625 
L 31.90625 -0.015625 
C 38.40625 -0.015625 38.40625 -0.015625 39.703125 -0.015625 
C 40.203125 -0.015625 42.703125 -0.015625 47.09375 -0.015625 
L 47.09375 3 
L 43.203125 3 
C 40.796875 3 40.40625 3.8125 40.40625 8.71875 
L 40.40625 27.046875 
C 40.40625 41.6875 36.203125 47 24.59375 47 
C 20.296875 47 16.296875 45.890625 12.5 43.609375 
L 7.203125 40.390625 
L 7.203125 33.921875 
L 9.796875 33.21875 
L 11.09375 36.296875 
C 13.203125 40.984375 14.203125 41.6875 18.796875 41.6875 
C 28.203125 41.6875 32.09375 37.984375 32.40625 28.9375 
L 22.5 27.125 
C 8.90625 24.640625 3.203125 19.953125 3.203125 11.28125 
C 3.203125 3.5 7.90625 -1 15.796875 -1 
C 17.59375 -1 19.296875 -0.703125 20 -0.203125 
z
M 32.40625 12.59375 
C 29.5 8.5 23.203125 4.71875 19.296875 4.71875 
C 15.296875 4.71875 11.796875 8.40625 11.796875 12.6875 
C 11.796875 16.375 13.796875 19.859375 16.796875 21.75 
C 19.296875 23.25 24.796875 24.640625 32.40625 25.75 
z
" id="URW_Palladio_L_Roman-97"/>
      <path d="M 41 -0.109375 
C 47.09375 -0.109375 47.203125 -0.109375 48.90625 -0.109375 
C 50.296875 -0.109375 50.296875 -0.109375 57.203125 -0.109375 
L 57.203125 2.796875 
L 53.09375 3.203125 
C 49.703125 3.203125 49.40625 3.8125 49.40625 10.21875 
L 49.40625 29.5625 
C 49.40625 41.28125 43.90625 47 32.703125 47 
C 29 47 26.90625 46.296875 24.796875 44.484375 
L 17.203125 37.875 
L 17.203125 46.59375 
L 16.296875 47 
C 11.203125 44.890625 6 43.484375 0.703125 42.890625 
L 0.703125 40.078125 
L 4.40625 40.078125 
C 8.40625 40.078125 8.796875 39.375 8.796875 32.71875 
L 8.796875 10.046875 
C 8.796875 3.703125 8.5 3 5.09375 3 
L 0.59375 3 
L 0.59375 -0.109375 
C 7.40625 -0.109375 10.09375 -0.109375 13 -0.109375 
C 15.90625 -0.109375 18.59375 -0.109375 25.40625 -0.109375 
L 25.40625 3 
L 20.90625 3 
C 17.5 3 17.203125 3.703125 17.203125 10.046875 
L 17.203125 31.421875 
C 17.203125 35.9375 23.796875 40.875 29.90625 40.875 
C 36.59375 40.875 41 35.890625 41 28.21875 
z
" id="URW_Palladio_L_Roman-110"/>
      <path d="M 51.90625 38 
L 54.40625 42.109375 
L 54 43.109375 
L 39.796875 43.109375 
C 36.09375 45.890625 32.5 47 27.59375 47 
C 23.203125 47 18.09375 45.625 14 43.25 
C 8.40625 40.109375 5.5 35.28125 5.5 29.28125 
C 5.5 22 10.09375 16.984375 17.5 16.1875 
L 9.59375 10 
C 8.59375 8.484375 8.09375 7.171875 8.09375 5.640625 
C 8.09375 2.8125 9.90625 1.1875 14.703125 -0.21875 
L 6 -4.9375 
C 4.59375 -5.734375 3.203125 -9.4375 3.203125 -12.546875 
C 3.203125 -21.6875 12.09375 -28 24.796875 -28 
C 39.90625 -28 51.796875 -18.46875 51.796875 -6.234375 
C 51.796875 0.984375 47 6 40 6 
L 24 6 
C 18.796875 6 16.40625 7.21875 16.40625 9.984375 
C 16.40625 11.3125 17.203125 12.421875 19.796875 14.671875 
C 20.40625 15.1875 20.59375 15.390625 21 15.796875 
C 22 15.6875 22.59375 15.59375 23.40625 15.59375 
C 27.703125 15.59375 33 17.46875 37.09375 20.3125 
C 41.59375 23.546875 43.796875 27.484375 43.796875 32.703125 
C 43.796875 34.65625 43.5 35.9375 42.703125 38 
z
M 24 43.59375 
C 30.796875 43.59375 35.40625 38.09375 35.40625 29.765625 
C 35.40625 23.421875 31.203125 19 25.09375 19 
C 18.40625 19 13.90625 24.09375 13.90625 31.640625 
C 13.90625 39.171875 17.59375 43.59375 24 43.59375 
z
M 28.703125 -1.015625 
C 40 -1.015625 43.90625 -3.3125 43.90625 -9.84375 
C 43.90625 -18.46875 36 -24.890625 25.5 -24.890625 
C 16.796875 -24.890625 10.796875 -19.78125 10.796875 -12.34375 
C 10.796875 -7.84375 13.40625 -3.71875 17.40625 -2.015625 
C 19 -1.21875 21.796875 -1.015625 28.703125 -1.015625 
z
" id="URW_Palladio_L_Roman-103"/>
      <path d="M 43.703125 6.984375 
L 42.40625 7.984375 
C 36 4.203125 33.703125 3.3125 29.40625 3.3125 
C 22.90625 3.3125 17.5 6.21875 14.703125 11.109375 
C 12.796875 14.390625 12.09375 17.203125 11.90625 23 
L 26.5 23 
C 33.40625 23 37.703125 23 44.59375 24.125 
C 44.703125 25.53125 44.796875 26.453125 44.796875 27.671875 
C 44.796875 39.375 37.40625 47 26.203125 47 
C 22.5 47 18.203125 45.6875 14.09375 43.28125 
C 5.90625 38.578125 2.59375 32.359375 2.59375 21.9375 
C 2.59375 15.625 4.09375 10.21875 6.796875 6.40625 
C 10.796875 1.109375 17.5 -2 25 -2 
C 28.703125 -2 32.40625 -1.203125 36.5 0.578125 
C 39.203125 1.6875 41.296875 2.984375 41.703125 3.59375 
z
M 35.90625 26.40625 
C 30.703125 26.40625 28.296875 26.40625 24.703125 26.40625 
C 20.09375 26.40625 17.5 26.40625 12.09375 26.90625 
C 12.09375 31.671875 12.5 33.890625 13.796875 36.515625 
C 15.90625 40.96875 20.203125 43.6875 25 43.6875 
C 28.296875 43.6875 30.90625 42.359375 32.703125 39.59375 
C 34.90625 36.234375 35.59375 33.265625 35.90625 26.40625 
z
" id="URW_Palladio_L_Roman-101"/>
      <path d="M 39.90625 31.15625 
C 39.90625 35.765625 40.40625 39.875 41.296875 43.484375 
C 37.296875 45.890625 33.796875 47 29.703125 47 
C 24.90625 47 19.296875 45.09375 13.296875 41.28125 
C 6.296875 36.875 2.59375 29.859375 2.59375 21.046875 
C 2.59375 7.515625 12.09375 -2 25.5 -2 
C 30.703125 -2 38.203125 -0.09375 39.203125 1.40625 
L 41.296875 4.609375 
L 40.296875 6.109375 
C 36.59375 4.109375 33.40625 3.203125 29.796875 3.203125 
C 18.703125 3.203125 11.40625 11.828125 11.40625 25.046875 
C 11.40625 35.765625 16.40625 41.78125 25.40625 41.78125 
C 29.796875 41.78125 34.59375 39.78125 36.40625 37.28125 
L 37.09375 31.15625 
z
" id="URW_Palladio_L_Roman-99"/>
      <path d="M 27.90625 47 
C 13.296875 47 3.203125 36.671875 3.203125 21.75 
C 3.203125 7.609375 12.09375 -2 25 -2 
C 40.40625 -2 51.40625 8.71875 51.40625 23.75 
C 51.40625 37.28125 41.59375 47 27.90625 47 
z
M 26.09375 43.6875 
C 35.296875 43.6875 42.09375 33.671875 42.09375 20.046875 
C 42.09375 8.515625 37 1.296875 28.90625 1.296875 
C 19.09375 1.296875 12.5 10.921875 12.5 25.15625 
C 12.5 37.171875 17.296875 43.6875 26.09375 43.6875 
z
" id="URW_Palladio_L_Roman-111"/>
      <path d="M 9.796875 38.6875 
L 9.796875 9.671875 
C 9.796875 2.21875 13.09375 -1 20.796875 -1 
C 23.09375 -1 25.5 -0.5 26.09375 0.203125 
L 30.90625 5.515625 
L 29.59375 7.234375 
C 27.09375 5.8125 25.59375 5.3125 23.703125 5.3125 
C 19.796875 5.3125 18.203125 7.34375 18.203125 12.3125 
L 18.203125 38.890625 
L 31 38.890625 
L 31.90625 44 
L 18.203125 44 
L 18.203125 47.75 
C 18.203125 51.890625 18.5 55.421875 19.296875 61.734375 
L 18.09375 62.828125 
C 15.703125 61.328125 12.703125 60.03125 9.59375 59.03125 
C 9.90625 56.015625 10 54.109375 10 51.109375 
L 10 44.09375 
L 2.203125 40.59375 
L 2.203125 38.6875 
z
" id="URW_Palladio_L_Roman-116"/>
      <path d="M 18.796875 46.765625 
L 17.90625 47.171875 
C 12.796875 45.0625 7.59375 43.640625 2.296875 43.046875 
L 2.296875 40.25 
L 6 40.25 
C 10 40.25 10.40625 39.546875 10.40625 32.890625 
L 10.40625 10.171875 
C 10.40625 3.8125 10.09375 3.109375 6.703125 3.109375 
L 2.09375 3.109375 
L 2.09375 0 
C 12.09375 0 12.09375 0 14.59375 0 
C 17.09375 0 17.09375 0 27.09375 0 
L 27.09375 3.109375 
L 22.5 3.109375 
C 19.09375 3.109375 18.796875 3.8125 18.796875 10.171875 
z
M 14.203125 69 
C 11.203125 69 8.59375 66.390625 8.59375 63.375 
C 8.59375 60.46875 11.203125 57.875 14.09375 57.875 
C 17 57.875 19.703125 60.46875 19.703125 63.375 
C 19.703125 66.1875 17 69 14.203125 69 
z
" id="URW_Palladio_L_Roman-105"/>
      <path d="M 2.296875 66.5 
L 7.90625 66.5 
C 9.703125 66.5 10.40625 65.390625 10.40625 62.375 
L 10.40625 10.171875 
C 10.40625 3.8125 10.09375 3.109375 6.703125 3.109375 
L 2.09375 3.109375 
L 2.09375 0 
C 12.09375 0 12.09375 0 14.59375 0 
C 17.09375 0 17.09375 0 27.09375 0 
L 27.09375 3.109375 
L 22.5 3.109375 
C 19.09375 3.109375 18.796875 3.8125 18.796875 10.15625 
L 18.796875 72.203125 
L 17.90625 73.015625 
C 13.5 71.3125 10.203125 70.5 2.296875 69.296875 
z
" id="URW_Palladio_L_Roman-108"/>
      <path d="M 29.703125 8.8125 
C 27.5 12.625 26.40625 14.9375 24.59375 19.84375 
L 18.203125 36.671875 
C 17.59375 38.375 17.203125 39.875 17.203125 40.90625 
C 17.203125 42.34375 18.296875 43.1875 20.59375 43.1875 
L 24.40625 43.1875 
L 24.40625 46 
C 14.703125 46 14.703125 46 12.796875 46 
C 10.90625 46 10.90625 46 1.203125 46 
L 1.203125 43.390625 
L 3 43.1875 
C 5.5 42.890625 6.703125 41.78125 8.203125 38.296875 
L 19.09375 12.109375 
C 21.90625 5.3125 22.90625 2.90625 24.703125 -2.09375 
L 22.40625 -8.1875 
C 19.203125 -16.59375 15.296875 -21.28125 11.5 -21.28125 
C 9.90625 -21.28125 8.09375 -20.484375 6.40625 -18.984375 
L 5.09375 -18.984375 
L 2.703125 -26.5 
C 4.59375 -27.5 6.203125 -28 8.09375 -28 
C 14.796875 -28 19.09375 -24.40625 22.90625 -15.703125 
L 43.203125 31.09375 
C 47.203125 40.1875 49.09375 42.890625 51.59375 43.1875 
L 54.40625 43.390625 
L 54.40625 46 
C 46.5 46 46.5 46 44.90625 46 
C 43.296875 46 43.296875 46 35.40625 46 
L 35.40625 43.390625 
L 38 43.1875 
C 40.796875 42.984375 42.203125 42.09375 42.203125 40.6875 
C 42.203125 39.984375 42 39.078125 41.59375 38.078125 
z
" id="URW_Palladio_L_Roman-121"/>
      <path d="M 1 40.078125 
L 4.703125 40.078125 
C 8.703125 40.078125 9.09375 39.375 9.09375 32.734375 
L 9.09375 -17.84375 
C 9.09375 -24.1875 8.796875 -24.890625 5.40625 -24.890625 
L 0.796875 -24.890625 
L 0.796875 -28 
C 10.796875 -28 10.796875 -28 13.296875 -28 
C 15.796875 -28 15.796875 -28 25.796875 -28 
L 25.796875 -24.890625 
L 21.203125 -24.890625 
C 17.796875 -24.890625 17.5 -24.171875 17.5 -17.78125 
L 17.5 1.390625 
C 20.5 -0.40625 23.703125 -1.109375 28.203125 -1.109375 
C 31.09375 -1.109375 33.703125 -0.5 35.296875 0.5 
L 46.703125 7.890625 
C 50.703125 10.5 55.40625 20.78125 55.40625 27.1875 
C 55.40625 38.296875 46.203125 47 34.59375 47 
C 30.90625 47 27.296875 45.984375 25.703125 44.484375 
L 17.5 36.984375 
L 17.5 46.59375 
L 16.59375 47 
C 11.5 44.890625 6.296875 43.484375 1 42.890625 
z
M 17.5 30.6875 
C 17.5 32.078125 18 33.1875 19.296875 34.890625 
C 22.203125 38.578125 26.296875 40.484375 31.296875 40.484375 
C 40.703125 40.484375 46.703125 33.890625 46.703125 23.5 
C 46.703125 12.296875 40 4 31 4 
C 25.5 4 21.40625 5.8125 17.5 9.890625 
z
" id="URW_Palladio_L_Roman-112"/>
      <path d="M 2.296875 40.078125 
L 6 40.078125 
C 10 40.078125 10.40625 39.375 10.40625 32.71875 
L 10.40625 10.046875 
C 10.40625 3.703125 10.09375 3 6.703125 3 
L 2.09375 3 
L 2.09375 -0.109375 
C 9.296875 -0.109375 11.90625 -0.109375 14.40625 -0.109375 
C 16.40625 -0.109375 16.40625 -0.109375 28.703125 -0.109375 
L 28.703125 3 
L 23.5 3 
C 19 3 18.796875 3.296875 18.796875 9.96875 
L 18.796875 27.359375 
C 18.796875 33.421875 22.796875 38.484375 27.703125 38.484375 
C 30.703125 38.484375 32.796875 37.078125 34.40625 33.890625 
L 36.5 33.890625 
L 37.40625 45.890625 
C 36.296875 46.59375 34.5 47 32.703125 47 
C 29.703125 47 26.5 45.390625 24.40625 42.890625 
L 18.796875 36.28125 
L 18.796875 46.59375 
L 17.90625 47 
C 12.796875 44.890625 7.59375 43.484375 2.296875 42.890625 
z
" id="URW_Palladio_L_Roman-114"/>
      <path d="M 4.09375 14.328125 
C 4.09375 7.421875 3.796875 4.40625 3 0.40625 
C 8.203125 -1.296875 12.09375 -2 16.703125 -2 
C 29.796875 -2 39.09375 5.015625 39.09375 14.828125 
C 39.09375 17.9375 38.203125 20.234375 36.296875 22.25 
C 33.703125 24.75 30.40625 25.953125 21.59375 27.65625 
C 13.40625 29.265625 10.703125 31.265625 10.703125 35.875 
C 10.703125 40.875 14.203125 43.6875 20.296875 43.6875 
C 27 43.6875 32.09375 40.1875 32.09375 35.46875 
L 32.09375 33.171875 
L 34.90625 33.171875 
C 35 38.984375 35.09375 41.375 35.40625 44.484375 
C 30.09375 46.296875 26.5 47 22.40625 47 
C 10.796875 47 3.703125 41.484375 3.703125 32.46875 
C 3.703125 27.65625 5.90625 24.25 10.5 22.140625 
C 13.203125 20.9375 18.5 19.34375 25.296875 17.828125 
C 29.796875 16.828125 31.703125 14.734375 31.703125 10.921875 
C 31.703125 5.515625 26.703125 1.703125 19.59375 1.703125 
C 12.296875 1.703125 7.09375 5.203125 7.09375 10.21875 
L 7.09375 14.328125 
z
" id="URW_Palladio_L_Roman-115"/>
     </defs>
     <g transform="translate(80.458953 210.205633)scale(0.13 -0.13)">
      <use transform="scale(0.996264)" xlink:href="#URW_Palladio_L_Roman-82"/>
      <use transform="translate(66.549694 0)scale(0.996264)" xlink:href="#URW_Palladio_L_Roman-97"/>
      <use transform="translate(116.362895 0)scale(0.996264)" xlink:href="#URW_Palladio_L_Roman-110"/>
      <use transform="translate(174.344955 0)scale(0.996264)" xlink:href="#URW_Palladio_L_Roman-103"/>
      <use transform="translate(229.736632 0)scale(0.996264)" xlink:href="#URW_Palladio_L_Roman-101"/>
      <use transform="translate(302.363528 0)scale(0.996264)" xlink:href="#URW_Palladio_L_Roman-99"/>
      <use transform="translate(346.597096 0)scale(0.996264)" xlink:href="#URW_Palladio_L_Roman-111"/>
      <use transform="translate(400.992676 0)scale(0.996264)" xlink:href="#URW_Palladio_L_Roman-110"/>
      <use transform="translate(458.974737 0)scale(0.996264)" xlink:href="#URW_Palladio_L_Roman-116"/>
      <use transform="translate(491.451825 0)scale(0.996264)" xlink:href="#URW_Palladio_L_Roman-97"/>
      <use transform="translate(541.265025 0)scale(0.996264)" xlink:href="#URW_Palladio_L_Roman-105"/>
      <use transform="translate(570.255387 0)scale(0.996264)" xlink:href="#URW_Palladio_L_Roman-110"/>
      <use transform="translate(628.237448 0)scale(0.996264)" xlink:href="#URW_Palladio_L_Roman-105"/>
      <use transform="translate(657.227809 0)scale(0.996264)" xlink:href="#URW_Palladio_L_Roman-110"/>
      <use transform="translate(715.20987 0)scale(0.996264)" xlink:href="#URW_Palladio_L_Roman-103"/>
      <use transform="translate(795.508147 0)scale(0.996264)" xlink:href="#URW_Palladio_L_Roman-111"/>
      <use transform="translate(849.903727 0)scale(0.996264)" xlink:href="#URW_Palladio_L_Roman-110"/>
      <use transform="translate(907.885788 0)scale(0.996264)" xlink:href="#URW_Palladio_L_Roman-108"/>
      <use transform="translate(936.876149 0)scale(0.996264)" xlink:href="#URW_Palladio_L_Roman-121"/>
      <use transform="translate(1017.174426 0)scale(0.996264)" xlink:href="#URW_Palladio_L_Roman-116"/>
      <use transform="translate(1049.651514 0)scale(0.996264)" xlink:href="#URW_Palladio_L_Roman-121"/>
      <use transform="translate(1105.043191 0)scale(0.996264)" xlink:href="#URW_Palladio_L_Roman-112"/>
      <use transform="translate(1164.917585 0)scale(0.996264)" xlink:href="#URW_Palladio_L_Roman-101"/>
      <use transform="translate(1237.54448 0)scale(0.996264)" xlink:href="#URW_Palladio_L_Roman-49"/>
      <use transform="translate(1312.264281 0)scale(0.996264)" xlink:href="#URW_Palladio_L_Roman-112"/>
      <use transform="translate(1372.138675 0)scale(0.996264)" xlink:href="#URW_Palladio_L_Roman-97"/>
      <use transform="translate(1421.951875 0)scale(0.996264)" xlink:href="#URW_Palladio_L_Roman-114"/>
      <use transform="translate(1461.303772 0)scale(0.996264)" xlink:href="#URW_Palladio_L_Roman-116"/>
      <use transform="translate(1493.78086 0)scale(0.996264)" xlink:href="#URW_Palladio_L_Roman-105"/>
      <use transform="translate(1522.771221 0)scale(0.996264)" xlink:href="#URW_Palladio_L_Roman-99"/>
      <use transform="translate(1567.00479 0)scale(0.996264)" xlink:href="#URW_Palladio_L_Roman-108"/>
      <use transform="translate(1595.995151 0)scale(0.996264)" xlink:href="#URW_Palladio_L_Roman-101"/>
      <use transform="translate(1643.715446 0)scale(0.996264)" xlink:href="#URW_Palladio_L_Roman-115"/>
     </g>
    </g>
   </g>
   <g id="matplotlib.axis_2">
    <g id="ytick_1">
     <g id="line2d_6">
      <defs>
       <path d="M 0 0 
L -3.5 0 
" id="m1c6a40f1f1" style="stroke:#000000;stroke-width:0.8;"/>
      </defs>
      <g>
       <use style="stroke:#000000;stroke-width:0.8;" x="50.546079" xlink:href="#m1c6a40f1f1" y="177.02"/>
      </g>
     </g>
     <g id="text_7">
      <!-- $0$ -->
      <g transform="translate(37.070363 181.653351)scale(0.13 -0.13)">
       <use transform="scale(0.996264)" xlink:href="#URW_Palladio_L_Roman-48"/>
      </g>
     </g>
    </g>
    <g id="ytick_2">
     <g id="line2d_7">
      <g>
       <use style="stroke:#000000;stroke-width:0.8;" x="50.546079" xlink:href="#m1c6a40f1f1" y="125.045"/>
      </g>
     </g>
     <g id="text_8">
      <!-- $50$ -->
      <defs>
       <path d="M 12.703125 60.578125 
C 25.59375 60.578125 31.203125 60.578125 43.203125 60.578125 
L 43.703125 61.046875 
C 43.5 62.75 43.5 63.5 43.5 64.75 
C 43.5 66.078125 43.5 66.828125 43.703125 68.53125 
L 43.203125 69 
C 35.703125 69 31.203125 69 25.796875 69 
C 20.296875 69 15.90625 69 8.40625 69 
L 7.90625 68.796875 
C 8 62.671875 8.09375 58.265625 8.09375 55.046875 
C 8.09375 46.515625 7.796875 36.875 7.5 32.453125 
L 9.5 31.84375 
C 14.203125 36.578125 16.90625 38 21.796875 38 
C 31.40625 38 37.40625 31.140625 37.40625 20.25 
C 37.40625 9.0625 31 2.5 20.09375 2.5 
C 14.703125 2.5 9.703125 4.328125 8.296875 6.9375 
L 3.703125 15.203125 
L 1.296875 13.796875 
C 3.59375 8.0625 4.796875 4.84375 6.203125 0.421875 
C 9 -1.109375 13 -2 17.296875 -2 
C 24 -2 31.09375 0.921875 36.59375 5.75 
C 42.703125 11.1875 45.90625 18.03125 45.90625 25.46875 
C 45.90625 36.859375 37.796875 44.90625 26.40625 44.90625 
C 21.59375 44.90625 18 43.609375 11.796875 39.90625 
z
" id="URW_Palladio_L_Roman-53"/>
      </defs>
      <g transform="translate(30.594647 129.678351)scale(0.13 -0.13)">
       <use transform="scale(0.996264)" xlink:href="#URW_Palladio_L_Roman-53"/>
       <use transform="translate(49.8132 0)scale(0.996264)" xlink:href="#URW_Palladio_L_Roman-48"/>
      </g>
     </g>
    </g>
    <g id="ytick_3">
     <g id="line2d_8">
      <g>
       <use style="stroke:#000000;stroke-width:0.8;" x="50.546079" xlink:href="#m1c6a40f1f1" y="73.07"/>
      </g>
     </g>
     <g id="text_9">
      <!-- $100$ -->
      <g transform="translate(24.118931 77.703351)scale(0.13 -0.13)">
       <use transform="scale(0.996264)" xlink:href="#URW_Palladio_L_Roman-49"/>
       <use transform="translate(49.8132 0)scale(0.996264)" xlink:href="#URW_Palladio_L_Roman-48"/>
       <use transform="translate(99.626401 0)scale(0.996264)" xlink:href="#URW_Palladio_L_Roman-48"/>
      </g>
     </g>
    </g>
    <g id="ytick_4">
     <g id="line2d_9">
      <g>
       <use style="stroke:#000000;stroke-width:0.8;" x="50.546079" xlink:href="#m1c6a40f1f1" y="21.095"/>
      </g>
     </g>
     <g id="text_10">
      <!-- $150$ -->
      <g transform="translate(24.118931 25.728351)scale(0.13 -0.13)">
       <use transform="scale(0.996264)" xlink:href="#URW_Palladio_L_Roman-49"/>
       <use transform="translate(49.8132 0)scale(0.996264)" xlink:href="#URW_Palladio_L_Roman-53"/>
       <use transform="translate(99.626401 0)scale(0.996264)" xlink:href="#URW_Palladio_L_Roman-48"/>
      </g>
     </g>
    </g>
    <g id="text_11">
     <!-- Number of simulations -->
     <defs>
      <path d="M 13.703125 69.109375 
C 8.09375 69.109375 7.203125 69.109375 1.703125 69.109375 
L 1.703125 66 
L 6.09375 66 
C 10.703125 66 11.203125 65.09375 11.203125 57.234375 
L 11.203125 11.96875 
C 11.203125 4.09375 10.703125 3.203125 6.09375 3.203125 
L 1.703125 3.203125 
L 1.703125 0 
C 11.59375 0 11.59375 0 13.296875 0 
C 14.796875 0 14.796875 0 25.296875 0 
L 25.296875 3.203125 
L 20.90625 3.203125 
C 16.296875 3.203125 15.796875 4.09375 15.796875 11.9375 
L 15.796875 58.40625 
L 63.09375 -0.203125 
L 72.09375 -1.796875 
C 72.09375 -1.40625 72.09375 -1.296875 72 -0.59375 
C 71.90625 0.5 71.796875 1.3125 71.796875 1.90625 
L 71.796875 57.265625 
C 71.796875 65.09375 72.296875 66 76.90625 66 
L 81.296875 66 
L 81.296875 69.109375 
C 70.796875 69.109375 70.796875 69.109375 69.296875 69.109375 
C 67.59375 69.109375 67.59375 69.109375 57.703125 69.109375 
L 57.703125 66 
L 62.09375 66 
C 66.703125 66 67.203125 65.09375 67.203125 57.265625 
L 67.203125 9.984375 
L 19.09375 69.109375 
z
" id="URW_Palladio_L_Roman-78"/>
      <path d="M 50.296875 47.015625 
L 49.40625 47.421875 
C 44.296875 45.3125 39.09375 43.90625 33.796875 43.3125 
L 33.796875 40.5 
L 37.5 40.5 
C 41.5 40.5 41.90625 39.796875 41.90625 33.140625 
L 41.90625 16.71875 
C 41.90625 14.5 40.5 11.671875 38.203125 9.359375 
C 35.40625 6.53125 32.203125 5.109375 28.296875 5.109375 
C 24.796875 5.109375 22 6.21875 20.40625 8.140625 
C 19 9.75 18.296875 12.875 18.296875 17.296875 
L 18.296875 47.015625 
L 17.40625 47.421875 
C 12.296875 45.3125 7.09375 43.90625 1.796875 43.3125 
L 1.796875 40.5 
L 5.5 40.5 
C 9.5 40.5 9.90625 39.796875 9.90625 33.15625 
L 9.90625 16.234375 
C 9.90625 9.171875 10.5 6.046875 12.296875 3.546875 
C 14.5 0.515625 18.296875 -1 24 -1 
C 28.5 -1 32.5 0.40625 35.203125 2.90625 
L 41.90625 9.140625 
C 41.90625 6.265625 41.796875 4.65625 41.5 0 
C 48.203125 0 48.296875 0 49.796875 0 
C 51.203125 0 51.203125 0 58.09375 0 
L 58.09375 2.90625 
L 54 3.3125 
C 50.59375 3.3125 50.296875 3.921875 50.296875 10.375 
z
" id="URW_Palladio_L_Roman-117"/>
      <path d="M 1.796875 40.078125 
L 5.5 40.078125 
C 9.5 40.078125 9.90625 39.375 9.90625 32.71875 
L 9.90625 10.046875 
C 9.90625 3.703125 9.59375 3 6.203125 3 
L 1.59375 3 
L 1.59375 -0.109375 
C 11.203125 -0.109375 11.5 -0.109375 14.296875 -0.109375 
C 17.09375 -0.109375 19.703125 -0.109375 26.203125 -0.109375 
L 26.203125 2.796875 
L 22 3.203125 
C 18.59375 3.203125 18.296875 3.90625 18.296875 10.21875 
L 18.296875 31.46875 
C 18.296875 35.96875 24.90625 40.875 30.90625 40.875 
C 36.296875 40.875 40 35.734375 40 28.09375 
L 40 10.046875 
C 40 3.703125 39.703125 3 36.296875 3 
L 31.703125 3 
L 31.703125 -0.109375 
C 41.703125 -0.109375 41.703125 -0.109375 44.203125 -0.109375 
C 46.703125 -0.109375 46.703125 -0.109375 56.703125 -0.109375 
L 56.703125 3 
L 52.09375 3 
C 48.703125 3 48.40625 3.703125 48.40625 10.046875 
L 48.40625 31.421875 
C 48.40625 35.9375 55 40.875 61 40.875 
C 66.40625 40.875 70.09375 35.796875 70.09375 28.21875 
L 70.09375 -0.109375 
C 76.203125 -0.109375 76.296875 -0.109375 78 -0.109375 
C 79.296875 -0.109375 79.296875 -0.109375 86.90625 -0.109375 
L 86.90625 3 
L 82.203125 3 
C 78.796875 3 78.5 3.703125 78.5 10.046875 
L 78.5 30.78125 
C 78.5 40.75 72.703125 47 63.5 47 
C 60 47 57.09375 46.09375 55.296875 44.484375 
L 47.703125 37.6875 
C 44.5 44.28125 40.40625 47 33.5 47 
C 29.796875 47 27 46.09375 25.203125 44.484375 
L 18.296875 38.078125 
L 18.296875 46.59375 
L 17.40625 47 
C 12.296875 44.890625 7.09375 43.484375 1.796875 42.890625 
z
" id="URW_Palladio_L_Roman-109"/>
      <path d="M 15 72.1875 
L 14.09375 73 
C 9.703125 71.296875 6.40625 70.484375 -1.5 69.28125 
L -1.5 66.484375 
L 4.09375 66.484375 
C 5.90625 66.484375 6.59375 65.375 6.59375 62.359375 
L 6.59375 15.453125 
C 6.59375 9.234375 6.5 6.5 5.796875 -0.515625 
L 7.40625 -1.109375 
L 11.40625 2.5 
C 15.40625 -0.109375 19 -1.109375 24.296875 -1.109375 
C 28.203125 -1.109375 30.796875 -0.40625 32.90625 1.09375 
L 42.90625 8.296875 
C 47.296875 11.484375 50.796875 19.78125 50.796875 27.078125 
C 50.796875 38.6875 43.296875 47 32.703125 47 
C 28 47 23.09375 45.1875 20.5 42.578125 
L 15 36.984375 
z
M 15 30.890625 
C 15 32.28125 16 34.078125 17.59375 35.890625 
C 20.40625 38.78125 24.296875 40.484375 28.40625 40.484375 
C 36.796875 40.484375 42.09375 33.6875 42.09375 23 
C 42.09375 11.796875 36.09375 4 27.59375 4 
C 22.40625 4 15 7.1875 15 9.390625 
z
" id="URW_Palladio_L_Roman-98"/>
      <path d="M 34.09375 71.890625 
C 32 72.6875 30.796875 73 29.5 73 
C 26.296875 73 22.796875 71.296875 20.59375 68.8125 
L 14.796875 62.265625 
C 11.90625 58.984375 10.59375 54.53125 10.59375 47.96875 
L 10.59375 43.796875 
L 3.703125 40.6875 
L 3.703125 38.6875 
L 10.59375 38.6875 
L 10.59375 10.171875 
C 10.59375 3.8125 10.296875 3.109375 6.90625 3.109375 
L 2.296875 3.109375 
L 2.296875 0 
C 12.296875 0 12.296875 0 14.796875 0 
C 17.296875 0 17.296875 0 27.296875 0 
L 27.296875 3.109375 
L 22.703125 3.109375 
C 19.296875 3.109375 19 3.828125 19 10.203125 
L 19 38.890625 
L 31.40625 38.890625 
L 32.09375 44 
L 19 44 
L 19 52.34375 
C 19 63.640625 20.296875 66.375 26 66.375 
C 28.703125 66.375 30.5 65.6875 32.90625 63.609375 
L 34.09375 64.203125 
z
" id="URW_Palladio_L_Roman-102"/>
     </defs>
     <g transform="translate(16.466703 160.455451)rotate(-90)scale(0.13 -0.13)">
      <use transform="scale(0.996264)" xlink:href="#URW_Palladio_L_Roman-78"/>
      <use transform="translate(82.788907 0)scale(0.996264)" xlink:href="#URW_Palladio_L_Roman-117"/>
      <use transform="translate(142.862642 0)scale(0.996264)" xlink:href="#URW_Palladio_L_Roman-109"/>
      <use transform="translate(230.832316 0)scale(0.996264)" xlink:href="#URW_Palladio_L_Roman-98"/>
      <use transform="translate(285.924715 0)scale(0.996264)" xlink:href="#URW_Palladio_L_Roman-101"/>
      <use transform="translate(333.64501 0)scale(0.996264)" xlink:href="#URW_Palladio_L_Roman-114"/>
      <use transform="translate(397.903507 0)scale(0.996264)" xlink:href="#URW_Palladio_L_Roman-111"/>
      <use transform="translate(452.299087 0)scale(0.996264)" xlink:href="#URW_Palladio_L_Roman-102"/>
      <use transform="translate(510.380917 0)scale(0.996264)" xlink:href="#URW_Palladio_L_Roman-115"/>
      <use transform="translate(552.622383 0)scale(0.996264)" xlink:href="#URW_Palladio_L_Roman-105"/>
      <use transform="translate(581.612745 0)scale(0.996264)" xlink:href="#URW_Palladio_L_Roman-109"/>
      <use transform="translate(669.582419 0)scale(0.996264)" xlink:href="#URW_Palladio_L_Roman-117"/>
      <use transform="translate(729.656154 0)scale(0.996264)" xlink:href="#URW_Palladio_L_Roman-108"/>
      <use transform="translate(758.646515 0)scale(0.996264)" xlink:href="#URW_Palladio_L_Roman-97"/>
      <use transform="translate(808.459716 0)scale(0.996264)" xlink:href="#URW_Palladio_L_Roman-116"/>
      <use transform="translate(840.936804 0)scale(0.996264)" xlink:href="#URW_Palladio_L_Roman-105"/>
      <use transform="translate(869.927165 0)scale(0.996264)" xlink:href="#URW_Palladio_L_Roman-111"/>
      <use transform="translate(924.322745 0)scale(0.996264)" xlink:href="#URW_Palladio_L_Roman-110"/>
      <use transform="translate(982.304806 0)scale(0.996264)" xlink:href="#URW_Palladio_L_Roman-115"/>
     </g>
    </g>
   </g>
   <g id="line2d_10">
    <path clip-path="url(#pd80a4d10ea)" d="M 329.546079 177.02 
L 318.717454 175.9805 
L 269.979236 174.941 
L 269.863532 173.9015 
L 266.426914 172.862 
L 261.571308 171.8225 
L 255.948727 170.783 
L 252.10532 169.7435 
L 251.729883 168.704 
L 248.317208 167.6645 
L 248.113042 166.625 
L 246.279553 165.5855 
L 245.094875 164.546 
L 240.362629 163.5065 
L 238.72014 162.467 
L 235.926835 161.4275 
L 234.249158 160.388 
L 232.818441 159.3485 
L 229.686079 158.309 
L 223.793424 157.2695 
L 221.103963 156.23 
L 220.692283 155.1905 
L 217.373924 154.151 
L 217.356699 153.1115 
L 217.097444 151.0325 
L 216.171815 149.993 
L 215.505179 148.9535 
L 214.359698 147.914 
L 213.729248 146.8745 
L 211.82833 144.7955 
L 211.628457 142.7165 
L 211.265599 141.677 
L 209.783369 140.6375 
L 209.373517 139.598 
L 208.672285 138.5585 
L 208.670229 137.519 
L 206.239753 136.4795 
L 205.454798 135.44 
L 204.470339 134.4005 
L 200.967016 132.3215 
L 200.84843 131.282 
L 196.364587 130.2425 
L 195.756538 129.203 
L 194.204051 128.1635 
L 193.125462 127.124 
L 192.871456 126.0845 
L 192.740599 125.045 
L 192.302155 124.0055 
L 192.16888 122.966 
L 191.818261 121.9265 
L 190.346268 120.887 
L 190.085217 119.8475 
L 187.822284 118.808 
L 186.016338 114.65 
L 185.859886 113.6105 
L 184.393804 111.5315 
L 184.167266 110.492 
L 184.039214 108.413 
L 183.992749 107.3735 
L 183.151606 106.334 
L 181.55112 105.2945 
L 180.501078 104.255 
L 177.208532 102.176 
L 175.238579 101.1365 
L 174.945114 100.097 
L 174.348543 99.0575 
L 174.264192 98.018 
L 174.056015 96.9785 
L 173.323695 95.939 
L 170.022089 94.8995 
L 169.530186 93.86 
L 168.878059 92.8205 
L 167.731212 91.781 
L 167.548291 89.702 
L 166.839459 88.6625 
L 166.424067 86.5835 
L 165.923883 85.544 
L 165.597798 84.5045 
L 165.499687 83.465 
L 164.782159 82.4255 
L 164.564993 81.386 
L 163.63638 80.3465 
L 163.560701 78.2675 
L 163.325025 77.228 
L 162.963131 76.1885 
L 161.893403 74.1095 
L 161.678319 73.07 
L 161.662902 72.0305 
L 160.6066 70.991 
L 160.334123 69.9515 
L 158.682528 68.912 
L 157.705787 67.8725 
L 157.245327 66.833 
L 152.690711 65.7935 
L 151.931557 64.754 
L 149.861754 63.7145 
L 149.76265 62.675 
L 149.391012 61.6355 
L 148.391455 60.596 
L 147.68097 58.517 
L 146.2462 57.4775 
L 145.421102 56.438 
L 144.274886 55.3985 
L 142.848076 54.359 
L 142.293888 53.3195 
L 142.263336 52.28 
L 141.612046 51.2405 
L 140.662743 50.201 
L 140.289856 49.1615 
L 140.097711 48.122 
L 139.16609 47.0825 
L 139.14407 46.043 
L 137.682401 45.0035 
L 135.921273 43.964 
L 135.187472 42.9245 
L 135.039029 41.885 
L 133.484718 39.806 
L 133.427251 38.7665 
L 133.002723 37.727 
L 131.973505 36.6875 
L 131.247525 35.648 
L 129.958071 34.6085 
L 129.314093 33.569 
L 128.988573 31.49 
L 127.155617 30.4505 
L 124.935684 29.411 
L 124.843305 28.3715 
L 124.451752 27.332 
L 123.669521 26.2925 
L 121.629889 25.253 
L 120.521043 24.2135 
L 118.984546 23.174 
L 117.825447 21.095 
L 117.512239 19.016 
L 114.631877 17.9765 
L 109.947207 16.937 
L 104.62291 15.8975 
L 103.352665 14.858 
L 91.077268 13.8185 
L 50.546079 12.779 
L 50.546079 12.779 
" style="fill:none;stroke:#000000;stroke-linecap:square;stroke-width:1.5;"/>
   </g>
   <g id="patch_3">
    <path d="M 50.546079 177.02 
L 50.546079 10.7 
" style="fill:none;stroke:#000000;stroke-linecap:square;stroke-linejoin:miter;stroke-width:0.8;"/>
   </g>
   <g id="patch_4">
    <path d="M 329.546079 177.02 
L 329.546079 10.7 
" style="fill:none;stroke:#000000;stroke-linecap:square;stroke-linejoin:miter;stroke-width:0.8;"/>
   </g>
   <g id="patch_5">
    <path d="M 50.546079 177.02 
L 329.546079 177.02 
" style="fill:none;stroke:#000000;stroke-linecap:square;stroke-linejoin:miter;stroke-width:0.8;"/>
   </g>
   <g id="patch_6">
    <path d="M 50.546079 10.7 
L 329.546079 10.7 
" style="fill:none;stroke:#000000;stroke-linecap:square;stroke-linejoin:miter;stroke-width:0.8;"/>
   </g>
  </g>
 </g>
 <defs>
  <clipPath id="pd80a4d10ea">
   <rect height="166.32" width="279" x="50.546079" y="10.7"/>
  </clipPath>
 </defs>
</svg>
