<?xml version="1.0" encoding="utf-8" standalone="no"?>
<!DOCTYPE svg PUBLIC "-//W3C//DTD SVG 1.1//EN"
  "http://www.w3.org/Graphics/SVG/1.1/DTD/svg11.dtd">
<!-- Created with matplotlib (http://matplotlib.org/) -->
<svg height="432pt" version="1.1" viewBox="0 0 576 432" width="576pt" xmlns="http://www.w3.org/2000/svg" xmlns:xlink="http://www.w3.org/1999/xlink">
 <defs>
  <style type="text/css">
*{stroke-linecap:butt;stroke-linejoin:round;stroke-miterlimit:100000;}
  </style>
 </defs>
 <g id="figure_1">
  <g id="patch_1">
   <path d="M 0 432 
L 576 432 
L 576 0 
L 0 0 
z
" style="fill:#ffffff;"/>
  </g>
  <g id="axes_1">
   <g id="patch_2">
    <path d="M 72 388.8 
L 518.4 388.8 
L 518.4 43.2 
L 72 43.2 
z
" style="fill:#ffffff;"/>
   </g>
   <g id="line2d_1">
    <path clip-path="url(#pa8024833c6)" d="M 72 373.149087 
L 127.8 240.350887 
L 183.6 273.262459 
L 239.4 245.049879 
L 295.2 124.231174 
L 351 83.522605 
L 406.8 76.122455 
L 462.6 58.573588 
L 518.4 54.165768 
" style="fill:none;stroke:#000000;stroke-linecap:square;stroke-width:2.0;"/>
    <defs>
     <path d="M 0 3 
C 0.795609 3 1.55874 2.683901 2.12132 2.12132 
C 2.683901 1.55874 3 0.795609 3 0 
C 3 -0.795609 2.683901 -1.55874 2.12132 -2.12132 
C 1.55874 -2.683901 0.795609 -3 0 -3 
C -0.795609 -3 -1.55874 -2.683901 -2.12132 -2.12132 
C -2.683901 -1.55874 -3 -0.795609 -3 0 
C -3 0.795609 -2.683901 1.55874 -2.12132 2.12132 
C -1.55874 2.683901 -0.795609 3 0 3 
z
" id="md5f0c1658d" style="stroke:#000000;stroke-width:0.5;"/>
    </defs>
    <g clip-path="url(#pa8024833c6)">
     <use style="stroke:#000000;stroke-width:0.5;" x="72.0" xlink:href="#md5f0c1658d" y="373.149087155"/>
     <use style="stroke:#000000;stroke-width:0.5;" x="127.8" xlink:href="#md5f0c1658d" y="240.350887373"/>
     <use style="stroke:#000000;stroke-width:0.5;" x="183.6" xlink:href="#md5f0c1658d" y="273.262458507"/>
     <use style="stroke:#000000;stroke-width:0.5;" x="239.4" xlink:href="#md5f0c1658d" y="245.049878666"/>
     <use style="stroke:#000000;stroke-width:0.5;" x="295.2" xlink:href="#md5f0c1658d" y="124.231173991"/>
     <use style="stroke:#000000;stroke-width:0.5;" x="351.0" xlink:href="#md5f0c1658d" y="83.5226051954"/>
     <use style="stroke:#000000;stroke-width:0.5;" x="406.8" xlink:href="#md5f0c1658d" y="76.1224548451"/>
     <use style="stroke:#000000;stroke-width:0.5;" x="462.6" xlink:href="#md5f0c1658d" y="58.573588295"/>
     <use style="stroke:#000000;stroke-width:0.5;" x="518.4" xlink:href="#md5f0c1658d" y="54.165767915"/>
    </g>
   </g>
   <g id="patch_3">
    <path d="M 72 43.2 
L 518.4 43.2 
" style="fill:none;stroke:#000000;stroke-linecap:square;stroke-linejoin:miter;"/>
   </g>
   <g id="patch_4">
    <path d="M 518.4 388.8 
L 518.4 43.2 
" style="fill:none;stroke:#000000;stroke-linecap:square;stroke-linejoin:miter;"/>
   </g>
   <g id="patch_5">
    <path d="M 72 388.8 
L 518.4 388.8 
" style="fill:none;stroke:#000000;stroke-linecap:square;stroke-linejoin:miter;"/>
   </g>
   <g id="patch_6">
    <path d="M 72 388.8 
L 72 43.2 
" style="fill:none;stroke:#000000;stroke-linecap:square;stroke-linejoin:miter;"/>
   </g>
   <g id="matplotlib.axis_1">
    <g id="xtick_1">
     <g id="line2d_2">
      <defs>
       <path d="M 0 0 
L 0 -4 
" id="mfb994242b9" style="stroke:#000000;stroke-width:0.5;"/>
      </defs>
      <g>
       <use style="stroke:#000000;stroke-width:0.5;" x="72.0" xlink:href="#mfb994242b9" y="388.8"/>
      </g>
     </g>
     <g id="line2d_3">
      <defs>
       <path d="M 0 0 
L 0 4 
" id="m6bf6390457" style="stroke:#000000;stroke-width:0.5;"/>
      </defs>
      <g>
       <use style="stroke:#000000;stroke-width:0.5;" x="72.0" xlink:href="#m6bf6390457" y="43.2"/>
      </g>
     </g>
     <g id="text_1">
      <!-- $1$ -->
      <defs>
       <path d="M 6.703125 56 
L 7.703125 56 
L 20.59375 61.8125 
C 20.703125 61.90625 20.796875 61.90625 20.90625 61.90625 
C 21.5 61.90625 21.703125 61.015625 21.703125 58.609375 
L 21.703125 9.578125 
C 21.703125 4.3125 20.59375 3.203125 15.203125 3.203125 
L 9.59375 3.203125 
L 9.59375 0 
C 25 0 25 0 26.09375 0 
C 27.40625 0 29.59375 0 33 0 
C 34.203125 0 37.703125 0 41.796875 0 
L 41.796875 3.203125 
L 36.59375 3.203125 
C 31.09375 3.203125 30.09375 4.3125 30.09375 9.5625 
L 30.09375 69.421875 
L 28.703125 69.921875 
C 22.203125 66.515625 15.09375 63.515625 6 60.3125 
z
" id="URW_Palladio_L_Roman-49"/>
      </defs>
      <g transform="translate(69.0112079701 401.353875725)scale(0.12 -0.12)">
       <use transform="scale(0.996264009963)" xlink:href="#URW_Palladio_L_Roman-49"/>
      </g>
     </g>
    </g>
    <g id="xtick_2">
     <g id="line2d_4">
      <g>
       <use style="stroke:#000000;stroke-width:0.5;" x="127.8" xlink:href="#mfb994242b9" y="388.8"/>
      </g>
     </g>
     <g id="line2d_5">
      <g>
       <use style="stroke:#000000;stroke-width:0.5;" x="127.8" xlink:href="#m6bf6390457" y="43.2"/>
      </g>
     </g>
     <g id="text_2">
      <!-- $2$ -->
      <defs>
       <path d="M 1.59375 2.5 
L 1.59375 0 
C 20.296875 0 20.296875 0 23.90625 0 
C 27.5 0 27.5 0 46.796875 0 
C 46.59375 1.953125 46.59375 2.90625 46.59375 4.203125 
C 46.59375 5.4375 46.59375 6.359375 46.796875 8.421875 
C 35.296875 8.421875 30.703125 8.421875 12.203125 8.421875 
L 30.40625 27.515625 
C 40.09375 37.71875 43.09375 43.171875 43.09375 50.59375 
C 43.09375 61.96875 35.296875 69 22.59375 69 
C 15.40625 69 10.5 67 5.59375 62.015625 
L 3.90625 48.421875 
L 6.796875 48.421875 
L 8.09375 53.015625 
C 9.703125 58.796875 13.296875 61.296875 20 61.296875 
C 28.59375 61.296875 34.09375 55.890625 34.09375 47.421875 
C 34.09375 39.921875 29.90625 32.546875 18.59375 20.5625 
z
" id="URW_Palladio_L_Roman-50"/>
      </defs>
      <g transform="translate(124.81120797 401.353875725)scale(0.12 -0.12)">
       <use transform="scale(0.996264009963)" xlink:href="#URW_Palladio_L_Roman-50"/>
      </g>
     </g>
    </g>
    <g id="xtick_3">
     <g id="line2d_6">
      <g>
       <use style="stroke:#000000;stroke-width:0.5;" x="183.6" xlink:href="#mfb994242b9" y="388.8"/>
      </g>
     </g>
     <g id="line2d_7">
      <g>
       <use style="stroke:#000000;stroke-width:0.5;" x="183.6" xlink:href="#m6bf6390457" y="43.2"/>
      </g>
     </g>
     <g id="text_3">
      <!-- $3$ -->
      <defs>
       <path d="M 4.296875 49.953125 
L 7.40625 49.953125 
L 9.203125 55.53125 
C 10.296875 58.90625 16.59375 62.296875 21.796875 62.296875 
C 28.296875 62.296875 33.59375 57.015625 33.59375 50.75 
C 33.59375 43.28125 27.703125 37 20.59375 37 
C 19.796875 37 18.703125 37 17.40625 37.203125 
L 15.90625 37.203125 
L 14.703125 31.984375 
L 15.40625 31.375 
C 19.203125 33.09375 21.09375 33.59375 23.796875 33.59375 
C 32.09375 33.59375 36.90625 28.265625 36.90625 19.09375 
C 36.90625 8.84375 30.796875 2.109375 21.5 2.109375 
C 16.90625 2.109375 12.796875 3.609375 9.796875 6.421875 
C 7.40625 8.640625 6.09375 10.953125 4.203125 16.390625 
L 1.5 15.390625 
C 3.59375 9.265625 4.40625 5.640625 5 0.609375 
C 10.296875 -1.203125 14.703125 -2 18.40625 -2 
C 26.40625 -2 35.59375 2.515625 41.09375 9.265625 
C 44.5 13.390625 46.203125 17.8125 46.203125 22.53125 
C 46.203125 27.359375 44.203125 31.59375 40.59375 34.09375 
C 38.09375 35.90625 35.796875 36.71875 30.796875 37.609375 
C 38.796875 43.796875 41.796875 48.375 41.796875 54.25 
C 41.796875 63.125 34.40625 69 23.296875 69 
C 16.5 69 12 67.109375 7.203125 62.328125 
z
" id="URW_Palladio_L_Roman-51"/>
      </defs>
      <g transform="translate(180.61120797 401.353875725)scale(0.12 -0.12)">
       <use transform="scale(0.996264009963)" xlink:href="#URW_Palladio_L_Roman-51"/>
      </g>
     </g>
    </g>
    <g id="xtick_4">
     <g id="line2d_8">
      <g>
       <use style="stroke:#000000;stroke-width:0.5;" x="239.4" xlink:href="#mfb994242b9" y="388.8"/>
      </g>
     </g>
     <g id="line2d_9">
      <g>
       <use style="stroke:#000000;stroke-width:0.5;" x="239.4" xlink:href="#m6bf6390457" y="43.2"/>
      </g>
     </g>
     <g id="text_4">
      <!-- $4$ -->
      <defs>
       <path d="M 28 18 
L 28 10.515625 
C 28 4.515625 26.90625 3.109375 22 3.109375 
L 15.796875 3.109375 
L 15.796875 0 
C 29.09375 0 29.09375 0 31.5 0 
C 33.90625 0 33.90625 0 47.203125 0 
L 47.203125 3.109375 
L 42.40625 3.109375 
C 37.5 3.109375 36.40625 4.40625 36.40625 10.453125 
L 36.40625 18 
C 42.296875 18 44.40625 18 47.203125 17.703125 
L 47.203125 24.8125 
C 42.5 24.421875 40.59375 24.421875 39.09375 24.421875 
L 38.796875 24.421875 
L 36.40625 24.421875 
L 36.40625 38.390625 
C 36.40625 56.25 36.59375 64.875 37.09375 69 
L 35.90625 69.5 
L 28.5 66.796875 
L 0.203125 20.296875 
L 1.296875 18 
z
M 28 24.421875 
L 6.5 24.421875 
L 28 59.78125 
z
" id="URW_Palladio_L_Roman-52"/>
      </defs>
      <g transform="translate(236.41120797 401.353875725)scale(0.12 -0.12)">
       <use transform="scale(0.996264009963)" xlink:href="#URW_Palladio_L_Roman-52"/>
      </g>
     </g>
    </g>
    <g id="xtick_5">
     <g id="line2d_10">
      <g>
       <use style="stroke:#000000;stroke-width:0.5;" x="295.2" xlink:href="#mfb994242b9" y="388.8"/>
      </g>
     </g>
     <g id="line2d_11">
      <g>
       <use style="stroke:#000000;stroke-width:0.5;" x="295.2" xlink:href="#m6bf6390457" y="43.2"/>
      </g>
     </g>
     <g id="text_5">
      <!-- $5$ -->
      <defs>
       <path d="M 12.703125 60.578125 
C 25.59375 60.578125 31.203125 60.578125 43.203125 60.578125 
L 43.703125 61.046875 
C 43.5 62.75 43.5 63.5 43.5 64.75 
C 43.5 66.078125 43.5 66.828125 43.703125 68.53125 
L 43.203125 69 
C 35.703125 69 31.203125 69 25.796875 69 
C 20.296875 69 15.90625 69 8.40625 69 
L 7.90625 68.796875 
C 8 62.671875 8.09375 58.265625 8.09375 55.046875 
C 8.09375 46.515625 7.796875 36.875 7.5 32.453125 
L 9.5 31.84375 
C 14.203125 36.578125 16.90625 38 21.796875 38 
C 31.40625 38 37.40625 31.140625 37.40625 20.25 
C 37.40625 9.0625 31 2.5 20.09375 2.5 
C 14.703125 2.5 9.703125 4.328125 8.296875 6.9375 
L 3.703125 15.203125 
L 1.296875 13.796875 
C 3.59375 8.0625 4.796875 4.84375 6.203125 0.421875 
C 9 -1.109375 13 -2 17.296875 -2 
C 24 -2 31.09375 0.921875 36.59375 5.75 
C 42.703125 11.1875 45.90625 18.03125 45.90625 25.46875 
C 45.90625 36.859375 37.796875 44.90625 26.40625 44.90625 
C 21.59375 44.90625 18 43.609375 11.796875 39.90625 
z
" id="URW_Palladio_L_Roman-53"/>
      </defs>
      <g transform="translate(292.21120797 401.353875725)scale(0.12 -0.12)">
       <use transform="scale(0.996264009963)" xlink:href="#URW_Palladio_L_Roman-53"/>
      </g>
     </g>
    </g>
    <g id="xtick_6">
     <g id="line2d_12">
      <g>
       <use style="stroke:#000000;stroke-width:0.5;" x="351.0" xlink:href="#mfb994242b9" y="388.8"/>
      </g>
     </g>
     <g id="line2d_13">
      <g>
       <use style="stroke:#000000;stroke-width:0.5;" x="351.0" xlink:href="#m6bf6390457" y="43.2"/>
      </g>
     </g>
     <g id="text_6">
      <!-- $6$ -->
      <defs>
       <path d="M 41.59375 67.34375 
L 37.90625 69.046875 
C 28.296875 65.84375 24.203125 63.84375 19.09375 59.4375 
C 8.796875 50.71875 3.203125 38.5 3.203125 24.765625 
C 3.203125 8.21875 11.203125 -2 24.09375 -2 
C 37.09375 -2 46.796875 8.3125 46.796875 21.953125 
C 46.796875 33.484375 39.90625 41 29.296875 41 
C 24.296875 41 21.296875 39.6875 15.40625 34.984375 
C 14.296875 34.078125 14.203125 33.984375 13.09375 33.1875 
C 15.203125 51.3125 23.59375 61.140625 41.59375 66.546875 
z
M 25.5 34.984375 
C 33.09375 34.984375 38.203125 28.375 38.203125 18.453125 
C 38.203125 8.015625 33.09375 1.296875 25.40625 1.296875 
C 16.90625 1.296875 12.296875 8.609375 12.296875 22.0625 
C 12.296875 25.5625 12.703125 27.46875 13.796875 29.171875 
C 16 32.578125 20.703125 34.984375 25.5 34.984375 
" id="URW_Palladio_L_Roman-54"/>
      </defs>
      <g transform="translate(348.01120797 401.353875725)scale(0.12 -0.12)">
       <use transform="scale(0.996264009963)" xlink:href="#URW_Palladio_L_Roman-54"/>
      </g>
     </g>
    </g>
    <g id="xtick_7">
     <g id="line2d_14">
      <g>
       <use style="stroke:#000000;stroke-width:0.5;" x="406.8" xlink:href="#mfb994242b9" y="388.8"/>
      </g>
     </g>
     <g id="line2d_15">
      <g>
       <use style="stroke:#000000;stroke-width:0.5;" x="406.8" xlink:href="#m6bf6390457" y="43.2"/>
      </g>
     </g>
     <g id="text_7">
      <!-- $7$ -->
      <defs>
       <path d="M 5.59375 0.5 
L 6.5 -0.796875 
C 10.40625 -0.5 10.40625 -0.5 11.09375 -0.5 
C 11.796875 -0.5 11.796875 -0.5 15.703125 -0.796875 
C 19.90625 10.140625 24.796875 20.578125 31.40625 32.609375 
L 49.703125 65.609375 
L 49.703125 68.3125 
C 38.90625 68.3125 35.40625 68.3125 27.296875 68.3125 
C 20 68.3125 15.09375 68.3125 5.40625 68.3125 
L 4.40625 68.109375 
C 4.703125 58.59375 4.703125 58.59375 4.703125 57.578125 
C 4.703125 56.46875 4.703125 56.46875 4.40625 47.359375 
L 7.40625 47.359375 
L 8.09375 52.96875 
C 8.90625 59.203125 9.59375 60 14.203125 60 
L 40.90625 60 
C 36.90625 51.765625 33.796875 45.953125 30 39.828125 
z
" id="URW_Palladio_L_Roman-55"/>
      </defs>
      <g transform="translate(403.81120797 401.353875725)scale(0.12 -0.12)">
       <use transform="scale(0.996264009963)" xlink:href="#URW_Palladio_L_Roman-55"/>
      </g>
     </g>
    </g>
    <g id="xtick_8">
     <g id="line2d_16">
      <g>
       <use style="stroke:#000000;stroke-width:0.5;" x="462.6" xlink:href="#mfb994242b9" y="388.8"/>
      </g>
     </g>
     <g id="line2d_17">
      <g>
       <use style="stroke:#000000;stroke-width:0.5;" x="462.6" xlink:href="#m6bf6390457" y="43.2"/>
      </g>
     </g>
     <g id="text_8">
      <!-- $8$ -->
      <defs>
       <path d="M 16.796875 34.546875 
C 12.703125 32.65625 11 31.546875 8.796875 29.4375 
C 5 25.640625 3 21.125 3 15.921875 
C 3 5.609375 11.296875 -2 22.59375 -2 
C 35.59375 -2 46.40625 8.21875 46.40625 20.625 
C 46.40625 28.640625 42.703125 32.953125 31.296875 38.15625 
C 40.40625 44.375 43.59375 48.578125 43.59375 54.578125 
C 43.59375 63.1875 36.5 69 25.90625 69 
C 14 69 5.296875 61.390625 5.296875 50.890625 
C 5.296875 44.078125 8 40.265625 16.796875 34.546875 
M 28.40625 29.546875 
C 34.703125 26.734375 38.5 21.828125 38.5 16.4375 
C 38.5 8.015625 32.203125 1.40625 24.09375 1.40625 
C 15.59375 1.40625 10.09375 7.421875 10.09375 16.734375 
C 10.09375 24.03125 13 28.640625 20.40625 33.15625 
z
M 22.296875 42.375 
C 16 45.46875 12.796875 49.484375 12.796875 54.484375 
C 12.796875 61.09375 17.59375 65.59375 24.703125 65.59375 
C 32 65.59375 36.796875 60.796875 36.796875 53.46875 
C 36.796875 47.78125 34.296875 43.875 27.796875 39.65625 
z
" id="URW_Palladio_L_Roman-56"/>
      </defs>
      <g transform="translate(459.61120797 401.353875725)scale(0.12 -0.12)">
       <use transform="scale(0.996264009963)" xlink:href="#URW_Palladio_L_Roman-56"/>
      </g>
     </g>
    </g>
    <g id="xtick_9">
     <g id="line2d_18">
      <g>
       <use style="stroke:#000000;stroke-width:0.5;" x="518.4" xlink:href="#mfb994242b9" y="388.8"/>
      </g>
     </g>
     <g id="line2d_19">
      <g>
       <use style="stroke:#000000;stroke-width:0.5;" x="518.4" xlink:href="#m6bf6390457" y="43.2"/>
      </g>
     </g>
     <g id="text_9">
      <!-- $9$ -->
      <defs>
       <path d="M 9.59375 -1.65625 
C 20.703125 1.953125 25.5 4.25 30.90625 8.84375 
C 40.59375 17.15625 45.703125 28.671875 45.703125 42.078125 
C 45.703125 59 37.59375 69.296875 24.40625 69.296875 
C 11.59375 69.296875 2 59.296875 2 45.90625 
C 2 34.390625 9.5 26 19.90625 26 
C 23.296875 26 27.203125 27.09375 29 28.59375 
L 36 34.40625 
C 35.203125 17.578125 24.296875 5.25 6.203125 0.84375 
L 6.203125 0.046875 
z
M 24 66 
C 28.5 66 31.796875 64.09375 34 60.09375 
C 35.796875 56.890625 37 52 37 47.5 
C 37 38.296875 31.703125 32.109375 24 32.109375 
C 16 32.109375 10.59375 39.203125 10.59375 49.59375 
C 10.59375 59.703125 15.796875 66 24 66 
" id="URW_Palladio_L_Roman-57"/>
      </defs>
      <g transform="translate(515.41120797 401.353875725)scale(0.12 -0.12)">
       <use transform="scale(0.996264009963)" xlink:href="#URW_Palladio_L_Roman-57"/>
      </g>
     </g>
    </g>
    <g id="text_10">
     <!-- Number of principal components in PLS regression -->
     <defs>
      <path d="M 2.296875 66.5 
L 7.90625 66.5 
C 9.703125 66.5 10.40625 65.390625 10.40625 62.375 
L 10.40625 10.171875 
C 10.40625 3.8125 10.09375 3.109375 6.703125 3.109375 
L 2.09375 3.109375 
L 2.09375 0 
C 12.09375 0 12.09375 0 14.59375 0 
C 17.09375 0 17.09375 0 27.09375 0 
L 27.09375 3.109375 
L 22.5 3.109375 
C 19.09375 3.109375 18.796875 3.8125 18.796875 10.15625 
L 18.796875 72.203125 
L 17.90625 73.015625 
C 13.5 71.3125 10.203125 70.5 2.296875 69.296875 
z
" id="URW_Palladio_L_Roman-108"/>
      <path d="M 1.796875 40.078125 
L 5.5 40.078125 
C 9.5 40.078125 9.90625 39.375 9.90625 32.71875 
L 9.90625 10.046875 
C 9.90625 3.703125 9.59375 3 6.203125 3 
L 1.59375 3 
L 1.59375 -0.109375 
C 11.203125 -0.109375 11.5 -0.109375 14.296875 -0.109375 
C 17.09375 -0.109375 19.703125 -0.109375 26.203125 -0.109375 
L 26.203125 2.796875 
L 22 3.203125 
C 18.59375 3.203125 18.296875 3.90625 18.296875 10.21875 
L 18.296875 31.46875 
C 18.296875 35.96875 24.90625 40.875 30.90625 40.875 
C 36.296875 40.875 40 35.734375 40 28.09375 
L 40 10.046875 
C 40 3.703125 39.703125 3 36.296875 3 
L 31.703125 3 
L 31.703125 -0.109375 
C 41.703125 -0.109375 41.703125 -0.109375 44.203125 -0.109375 
C 46.703125 -0.109375 46.703125 -0.109375 56.703125 -0.109375 
L 56.703125 3 
L 52.09375 3 
C 48.703125 3 48.40625 3.703125 48.40625 10.046875 
L 48.40625 31.421875 
C 48.40625 35.9375 55 40.875 61 40.875 
C 66.40625 40.875 70.09375 35.796875 70.09375 28.21875 
L 70.09375 -0.109375 
C 76.203125 -0.109375 76.296875 -0.109375 78 -0.109375 
C 79.296875 -0.109375 79.296875 -0.109375 86.90625 -0.109375 
L 86.90625 3 
L 82.203125 3 
C 78.796875 3 78.5 3.703125 78.5 10.046875 
L 78.5 30.78125 
C 78.5 40.75 72.703125 47 63.5 47 
C 60 47 57.09375 46.09375 55.296875 44.484375 
L 47.703125 37.6875 
C 44.5 44.28125 40.40625 47 33.5 47 
C 29.796875 47 27 46.09375 25.203125 44.484375 
L 18.296875 38.078125 
L 18.296875 46.59375 
L 17.40625 47 
C 12.296875 44.890625 7.09375 43.484375 1.796875 42.890625 
z
" id="URW_Palladio_L_Roman-109"/>
      <path d="M 27.90625 47 
C 13.296875 47 3.203125 36.671875 3.203125 21.75 
C 3.203125 7.609375 12.09375 -2 25 -2 
C 40.40625 -2 51.40625 8.71875 51.40625 23.75 
C 51.40625 37.28125 41.59375 47 27.90625 47 
M 26.09375 43.6875 
C 35.296875 43.6875 42.09375 33.671875 42.09375 20.046875 
C 42.09375 8.515625 37 1.296875 28.90625 1.296875 
C 19.09375 1.296875 12.5 10.921875 12.5 25.15625 
C 12.5 37.171875 17.296875 43.6875 26.09375 43.6875 
" id="URW_Palladio_L_Roman-111"/>
      <path d="M 41 -0.109375 
C 47.09375 -0.109375 47.203125 -0.109375 48.90625 -0.109375 
C 50.296875 -0.109375 50.296875 -0.109375 57.203125 -0.109375 
L 57.203125 2.796875 
L 53.09375 3.203125 
C 49.703125 3.203125 49.40625 3.8125 49.40625 10.21875 
L 49.40625 29.5625 
C 49.40625 41.28125 43.90625 47 32.703125 47 
C 29 47 26.90625 46.296875 24.796875 44.484375 
L 17.203125 37.875 
L 17.203125 46.59375 
L 16.296875 47 
C 11.203125 44.890625 6 43.484375 0.703125 42.890625 
L 0.703125 40.078125 
L 4.40625 40.078125 
C 8.40625 40.078125 8.796875 39.375 8.796875 32.71875 
L 8.796875 10.046875 
C 8.796875 3.703125 8.5 3 5.09375 3 
L 0.59375 3 
L 0.59375 -0.109375 
C 7.40625 -0.109375 10.09375 -0.109375 13 -0.109375 
C 15.90625 -0.109375 18.59375 -0.109375 25.40625 -0.109375 
L 25.40625 3 
L 20.90625 3 
C 17.5 3 17.203125 3.703125 17.203125 10.046875 
L 17.203125 31.421875 
C 17.203125 35.9375 23.796875 40.875 29.90625 40.875 
C 36.59375 40.875 41 35.890625 41 28.21875 
z
" id="URW_Palladio_L_Roman-110"/>
      <path d="M 34.09375 71.890625 
C 32 72.6875 30.796875 73 29.5 73 
C 26.296875 73 22.796875 71.296875 20.59375 68.8125 
L 14.796875 62.265625 
C 11.90625 58.984375 10.59375 54.53125 10.59375 47.96875 
L 10.59375 43.796875 
L 3.703125 40.6875 
L 3.703125 38.6875 
L 10.59375 38.6875 
L 10.59375 10.171875 
C 10.59375 3.8125 10.296875 3.109375 6.90625 3.109375 
L 2.296875 3.109375 
L 2.296875 0 
C 12.296875 0 12.296875 0 14.796875 0 
C 17.296875 0 17.296875 0 27.296875 0 
L 27.296875 3.109375 
L 22.703125 3.109375 
C 19.296875 3.109375 19 3.828125 19 10.203125 
L 19 38.890625 
L 31.40625 38.890625 
L 32.09375 44 
L 19 44 
L 19 52.34375 
C 19 63.640625 20.296875 66.375 26 66.375 
C 28.703125 66.375 30.5 65.6875 32.90625 63.609375 
L 34.09375 64.203125 
z
" id="URW_Palladio_L_Roman-102"/>
      <path d="M 43.703125 6.984375 
L 42.40625 7.984375 
C 36 4.203125 33.703125 3.3125 29.40625 3.3125 
C 22.90625 3.3125 17.5 6.21875 14.703125 11.109375 
C 12.796875 14.390625 12.09375 17.203125 11.90625 23 
L 26.5 23 
C 33.40625 23 37.703125 23 44.59375 24.125 
C 44.703125 25.53125 44.796875 26.453125 44.796875 27.671875 
C 44.796875 39.375 37.40625 47 26.203125 47 
C 22.5 47 18.203125 45.6875 14.09375 43.28125 
C 5.90625 38.578125 2.59375 32.359375 2.59375 21.9375 
C 2.59375 15.625 4.09375 10.21875 6.796875 6.40625 
C 10.796875 1.109375 17.5 -2 25 -2 
C 28.703125 -2 32.40625 -1.203125 36.5 0.578125 
C 39.203125 1.6875 41.296875 2.984375 41.703125 3.59375 
z
M 35.90625 26.40625 
C 30.703125 26.40625 28.296875 26.40625 24.703125 26.40625 
C 20.09375 26.40625 17.5 26.40625 12.09375 26.90625 
C 12.09375 31.671875 12.5 33.890625 13.796875 36.515625 
C 15.90625 40.96875 20.203125 43.6875 25 43.6875 
C 28.296875 43.6875 30.90625 42.359375 32.703125 39.59375 
C 34.90625 36.234375 35.59375 33.265625 35.90625 26.40625 
" id="URW_Palladio_L_Roman-101"/>
      <path d="M 4.09375 14.328125 
C 4.09375 7.421875 3.796875 4.40625 3 0.40625 
C 8.203125 -1.296875 12.09375 -2 16.703125 -2 
C 29.796875 -2 39.09375 5.015625 39.09375 14.828125 
C 39.09375 17.9375 38.203125 20.234375 36.296875 22.25 
C 33.703125 24.75 30.40625 25.953125 21.59375 27.65625 
C 13.40625 29.265625 10.703125 31.265625 10.703125 35.875 
C 10.703125 40.875 14.203125 43.6875 20.296875 43.6875 
C 27 43.6875 32.09375 40.1875 32.09375 35.46875 
L 32.09375 33.171875 
L 34.90625 33.171875 
C 35 38.984375 35.09375 41.375 35.40625 44.484375 
C 30.09375 46.296875 26.5 47 22.40625 47 
C 10.796875 47 3.703125 41.484375 3.703125 32.46875 
C 3.703125 27.65625 5.90625 24.25 10.5 22.140625 
C 13.203125 20.9375 18.5 19.34375 25.296875 17.828125 
C 29.796875 16.828125 31.703125 14.734375 31.703125 10.921875 
C 31.703125 5.515625 26.703125 1.703125 19.59375 1.703125 
C 12.296875 1.703125 7.09375 5.203125 7.09375 10.21875 
L 7.09375 14.328125 
z
" id="URW_Palladio_L_Roman-115"/>
      <path d="M 2.296875 40.078125 
L 6 40.078125 
C 10 40.078125 10.40625 39.375 10.40625 32.71875 
L 10.40625 10.046875 
C 10.40625 3.703125 10.09375 3 6.703125 3 
L 2.09375 3 
L 2.09375 -0.109375 
C 9.296875 -0.109375 11.90625 -0.109375 14.40625 -0.109375 
C 16.40625 -0.109375 16.40625 -0.109375 28.703125 -0.109375 
L 28.703125 3 
L 23.5 3 
C 19 3 18.796875 3.296875 18.796875 9.96875 
L 18.796875 27.359375 
C 18.796875 33.421875 22.796875 38.484375 27.703125 38.484375 
C 30.703125 38.484375 32.796875 37.078125 34.40625 33.890625 
L 36.5 33.890625 
L 37.40625 45.890625 
C 36.296875 46.59375 34.5 47 32.703125 47 
C 29.703125 47 26.5 45.390625 24.40625 42.890625 
L 18.796875 36.28125 
L 18.796875 46.59375 
L 17.90625 47 
C 12.796875 44.890625 7.59375 43.484375 2.296875 42.890625 
z
" id="URW_Palladio_L_Roman-114"/>
      <path d="M 50.296875 47.015625 
L 49.40625 47.421875 
C 44.296875 45.3125 39.09375 43.90625 33.796875 43.3125 
L 33.796875 40.5 
L 37.5 40.5 
C 41.5 40.5 41.90625 39.796875 41.90625 33.140625 
L 41.90625 16.71875 
C 41.90625 14.5 40.5 11.671875 38.203125 9.359375 
C 35.40625 6.53125 32.203125 5.109375 28.296875 5.109375 
C 24.796875 5.109375 22 6.21875 20.40625 8.140625 
C 19 9.75 18.296875 12.875 18.296875 17.296875 
L 18.296875 47.015625 
L 17.40625 47.421875 
C 12.296875 45.3125 7.09375 43.90625 1.796875 43.3125 
L 1.796875 40.5 
L 5.5 40.5 
C 9.5 40.5 9.90625 39.796875 9.90625 33.15625 
L 9.90625 16.234375 
C 9.90625 9.171875 10.5 6.046875 12.296875 3.546875 
C 14.5 0.515625 18.296875 -1 24 -1 
C 28.5 -1 32.5 0.40625 35.203125 2.90625 
L 41.90625 9.140625 
C 41.90625 6.265625 41.796875 4.65625 41.5 0 
C 48.203125 0 48.296875 0 49.796875 0 
C 51.203125 0 51.203125 0 58.09375 0 
L 58.09375 2.90625 
L 54 3.3125 
C 50.59375 3.3125 50.296875 3.921875 50.296875 10.375 
z
" id="URW_Palladio_L_Roman-117"/>
      <path d="M 18.796875 46.765625 
L 17.90625 47.171875 
C 12.796875 45.0625 7.59375 43.640625 2.296875 43.046875 
L 2.296875 40.25 
L 6 40.25 
C 10 40.25 10.40625 39.546875 10.40625 32.890625 
L 10.40625 10.171875 
C 10.40625 3.8125 10.09375 3.109375 6.703125 3.109375 
L 2.09375 3.109375 
L 2.09375 0 
C 12.09375 0 12.09375 0 14.59375 0 
C 17.09375 0 17.09375 0 27.09375 0 
L 27.09375 3.109375 
L 22.5 3.109375 
C 19.09375 3.109375 18.796875 3.8125 18.796875 10.171875 
z
M 14.203125 69 
C 11.203125 69 8.59375 66.390625 8.59375 63.375 
C 8.59375 60.46875 11.203125 57.875 14.09375 57.875 
C 17 57.875 19.703125 60.46875 19.703125 63.375 
C 19.703125 66.1875 17 69 14.203125 69 
" id="URW_Palladio_L_Roman-105"/>
      <path d="M 39.90625 31.15625 
C 39.90625 35.765625 40.40625 39.875 41.296875 43.484375 
C 37.296875 45.890625 33.796875 47 29.703125 47 
C 24.90625 47 19.296875 45.09375 13.296875 41.28125 
C 6.296875 36.875 2.59375 29.859375 2.59375 21.046875 
C 2.59375 7.515625 12.09375 -2 25.5 -2 
C 30.703125 -2 38.203125 -0.09375 39.203125 1.40625 
L 41.296875 4.609375 
L 40.296875 6.109375 
C 36.59375 4.109375 33.40625 3.203125 29.796875 3.203125 
C 18.703125 3.203125 11.40625 11.828125 11.40625 25.046875 
C 11.40625 35.765625 16.40625 41.78125 25.40625 41.78125 
C 29.796875 41.78125 34.59375 39.78125 36.40625 37.28125 
L 37.09375 31.15625 
z
" id="URW_Palladio_L_Roman-99"/>
      <path d="M 15 72.1875 
L 14.09375 73 
C 9.703125 71.296875 6.40625 70.484375 -1.5 69.28125 
L -1.5 66.484375 
L 4.09375 66.484375 
C 5.90625 66.484375 6.59375 65.375 6.59375 62.359375 
L 6.59375 15.453125 
C 6.59375 9.234375 6.5 6.5 5.796875 -0.515625 
L 7.40625 -1.109375 
L 11.40625 2.5 
C 15.40625 -0.109375 19 -1.109375 24.296875 -1.109375 
C 28.203125 -1.109375 30.796875 -0.40625 32.90625 1.09375 
L 42.90625 8.296875 
C 47.296875 11.484375 50.796875 19.78125 50.796875 27.078125 
C 50.796875 38.6875 43.296875 47 32.703125 47 
C 28 47 23.09375 45.1875 20.5 42.578125 
L 15 36.984375 
z
M 15 30.890625 
C 15 32.28125 16 34.078125 17.59375 35.890625 
C 20.40625 38.78125 24.296875 40.484375 28.40625 40.484375 
C 36.796875 40.484375 42.09375 33.6875 42.09375 23 
C 42.09375 11.796875 36.09375 4 27.59375 4 
C 22.40625 4 15 7.1875 15 9.390625 
z
" id="URW_Palladio_L_Roman-98"/>
      <path d="M 13.703125 69.109375 
C 8.09375 69.109375 7.203125 69.109375 1.703125 69.109375 
L 1.703125 66 
L 6.09375 66 
C 10.703125 66 11.203125 65.09375 11.203125 57.234375 
L 11.203125 11.96875 
C 11.203125 4.09375 10.703125 3.203125 6.09375 3.203125 
L 1.703125 3.203125 
L 1.703125 0 
C 11.59375 0 11.59375 0 13.296875 0 
C 14.796875 0 14.796875 0 25.296875 0 
L 25.296875 3.203125 
L 20.90625 3.203125 
C 16.296875 3.203125 15.796875 4.09375 15.796875 11.9375 
L 15.796875 58.40625 
L 63.09375 -0.203125 
L 72.09375 -1.796875 
C 72.09375 -1.40625 72.09375 -1.296875 72 -0.59375 
C 71.90625 0.5 71.796875 1.3125 71.796875 1.90625 
L 71.796875 57.265625 
C 71.796875 65.09375 72.296875 66 76.90625 66 
L 81.296875 66 
L 81.296875 69.109375 
C 70.796875 69.109375 70.796875 69.109375 69.296875 69.109375 
C 67.59375 69.109375 67.59375 69.109375 57.703125 69.109375 
L 57.703125 66 
L 62.09375 66 
C 66.703125 66 67.203125 65.09375 67.203125 57.265625 
L 67.203125 9.984375 
L 19.09375 69.109375 
z
" id="URW_Palladio_L_Roman-78"/>
      <path d="M 1 40.078125 
L 4.703125 40.078125 
C 8.703125 40.078125 9.09375 39.375 9.09375 32.734375 
L 9.09375 -17.84375 
C 9.09375 -24.1875 8.796875 -24.890625 5.40625 -24.890625 
L 0.796875 -24.890625 
L 0.796875 -28 
C 10.796875 -28 10.796875 -28 13.296875 -28 
C 15.796875 -28 15.796875 -28 25.796875 -28 
L 25.796875 -24.890625 
L 21.203125 -24.890625 
C 17.796875 -24.890625 17.5 -24.171875 17.5 -17.78125 
L 17.5 1.390625 
C 20.5 -0.40625 23.703125 -1.109375 28.203125 -1.109375 
C 31.09375 -1.109375 33.703125 -0.5 35.296875 0.5 
L 46.703125 7.890625 
C 50.703125 10.5 55.40625 20.78125 55.40625 27.1875 
C 55.40625 38.296875 46.203125 47 34.59375 47 
C 30.90625 47 27.296875 45.984375 25.703125 44.484375 
L 17.5 36.984375 
L 17.5 46.59375 
L 16.59375 47 
C 11.5 44.890625 6.296875 43.484375 1 42.890625 
z
M 17.5 30.6875 
C 17.5 32.078125 18 33.1875 19.296875 34.890625 
C 22.203125 38.578125 26.296875 40.484375 31.296875 40.484375 
C 40.703125 40.484375 46.703125 33.890625 46.703125 23.5 
C 46.703125 12.296875 40 4 31 4 
C 25.5 4 21.40625 5.8125 17.5 9.890625 
z
" id="URW_Palladio_L_Roman-112"/>
      <path d="M 51.90625 38 
L 54.40625 42.109375 
L 54 43.109375 
L 39.796875 43.109375 
C 36.09375 45.890625 32.5 47 27.59375 47 
C 23.203125 47 18.09375 45.625 14 43.25 
C 8.40625 40.109375 5.5 35.28125 5.5 29.28125 
C 5.5 22 10.09375 16.984375 17.5 16.1875 
L 9.59375 10 
C 8.59375 8.484375 8.09375 7.171875 8.09375 5.640625 
C 8.09375 2.8125 9.90625 1.1875 14.703125 -0.21875 
L 6 -4.9375 
C 4.59375 -5.734375 3.203125 -9.4375 3.203125 -12.546875 
C 3.203125 -21.6875 12.09375 -28 24.796875 -28 
C 39.90625 -28 51.796875 -18.46875 51.796875 -6.234375 
C 51.796875 0.984375 47 6 40 6 
L 24 6 
C 18.796875 6 16.40625 7.21875 16.40625 9.984375 
C 16.40625 11.3125 17.203125 12.421875 19.796875 14.671875 
C 20.40625 15.1875 20.59375 15.390625 21 15.796875 
C 22 15.6875 22.59375 15.59375 23.40625 15.59375 
C 27.703125 15.59375 33 17.46875 37.09375 20.3125 
C 41.59375 23.546875 43.796875 27.484375 43.796875 32.703125 
C 43.796875 34.65625 43.5 35.9375 42.703125 38 
z
M 24 43.59375 
C 30.796875 43.59375 35.40625 38.09375 35.40625 29.765625 
C 35.40625 23.421875 31.203125 19 25.09375 19 
C 18.40625 19 13.90625 24.09375 13.90625 31.640625 
C 13.90625 39.171875 17.59375 43.59375 24 43.59375 
M 28.703125 -1.015625 
C 40 -1.015625 43.90625 -3.3125 43.90625 -9.84375 
C 43.90625 -18.46875 36 -24.890625 25.5 -24.890625 
C 16.796875 -24.890625 10.796875 -19.78125 10.796875 -12.34375 
C 10.796875 -7.84375 13.40625 -3.71875 17.40625 -2.015625 
C 19 -1.21875 21.796875 -1.015625 28.703125 -1.015625 
" id="URW_Palladio_L_Roman-103"/>
      <path d="M 44.703125 52.671875 
C 44.703125 57.984375 45.09375 61.375 46.09375 66.78125 
C 38.09375 70 33.59375 71 28.09375 71 
C 13.203125 71 2.40625 61.578125 2.40625 48.46875 
C 2.40625 43.5625 3.703125 39.953125 6.59375 37.25 
C 10 34.15625 14.59375 32.546875 24.296875 31.25 
C 32 30.140625 35.5 29.046875 38.09375 26.734375 
C 40.703125 24.640625 41.90625 21.734375 41.90625 17.921875 
C 41.90625 8.921875 34.40625 2.40625 24 2.40625 
C 16 2.40625 8.203125 6.3125 7.703125 10.40625 
L 6.90625 17.125 
L 3.703125 17.125 
C 3.796875 15.3125 3.796875 13.71875 3.796875 13.125 
C 3.796875 8.515625 3.59375 6.3125 3 1.8125 
C 8.703125 -0.703125 14.5 -2 20.296875 -2 
C 37.703125 -2 50.296875 8.515625 50.296875 23.03125 
C 50.296875 27.734375 49 31.046875 46.203125 33.640625 
C 42.703125 36.9375 38.5 38.25 27.296875 39.75 
C 15.09375 41.34375 10.796875 44.65625 10.796875 52.375 
C 10.796875 60.78125 17.09375 66.78125 25.90625 66.78125 
C 29.796875 66.78125 33.5 65.984375 36.203125 64.484375 
C 39.5 62.78125 40.59375 61.28125 40.90625 58.390625 
L 41.5 52.671875 
z
" id="URW_Palladio_L_Roman-83"/>
      <path d="M 21.59375 64.3125 
C 25.09375 65.09375 28 65.5 31.40625 65.5 
C 42.203125 65.5 48 60.546875 48 51.140625 
C 48 42.234375 41.90625 36 33.203125 36 
C 31.09375 36 29.59375 36.203125 27 36.984375 
L 28 33.390625 
C 30.40625 32.890625 31.796875 32.796875 33.796875 32.796875 
C 47.5 32.796875 58 42.0625 58 54.046875 
C 58 63.609375 50.203125 69.5 37.5 69.5 
C 37 69.5 36 69.5 34.703125 69.109375 
C 31 69.109375 23.40625 69.109375 20.5 69.109375 
C 18.296875 69.109375 18.296875 69.109375 2.296875 69.109375 
L 2.296875 66 
L 6.796875 66 
C 11.296875 66 12.09375 64.6875 12.09375 57.234375 
L 12.09375 11.96875 
C 12.09375 4 11.59375 3.203125 7 3.203125 
L 2.203125 3.203125 
L 2.203125 0 
C 8.09375 0 11.59375 0 16.796875 0 
C 22 0 25.59375 0 31.5 0 
L 31.5 3.203125 
L 26.703125 3.203125 
C 22.09375 3.203125 21.59375 4 21.59375 11.9375 
z
" id="URW_Palladio_L_Roman-80"/>
      <path d="M 9.796875 38.6875 
L 9.796875 9.671875 
C 9.796875 2.21875 13.09375 -1 20.796875 -1 
C 23.09375 -1 25.5 -0.5 26.09375 0.203125 
L 30.90625 5.515625 
L 29.59375 7.234375 
C 27.09375 5.8125 25.59375 5.3125 23.703125 5.3125 
C 19.796875 5.3125 18.203125 7.34375 18.203125 12.3125 
L 18.203125 38.890625 
L 31 38.890625 
L 31.90625 44 
L 18.203125 44 
L 18.203125 47.75 
C 18.203125 51.890625 18.5 55.421875 19.296875 61.734375 
L 18.09375 62.828125 
C 15.703125 61.328125 12.703125 60.03125 9.59375 59.03125 
C 9.90625 56.015625 10 54.109375 10 51.109375 
L 10 44.09375 
L 2.203125 40.59375 
L 2.203125 38.6875 
z
" id="URW_Palladio_L_Roman-116"/>
      <path d="M 21.59375 57.265625 
C 21.59375 65.1875 22.09375 66 26.703125 66 
L 31.5 66 
L 31.5 69.109375 
C 24.203125 69.109375 22 69.109375 16.796875 69.109375 
C 11.796875 69.109375 9.40625 69.109375 2.203125 69.109375 
L 2.203125 66 
L 7 66 
C 11.59375 66 12.09375 65.1875 12.09375 57.265625 
L 12.09375 9.71875 
C 12.09375 6.8125 11.203125 4.609375 9.59375 3.8125 
L 6.5 2.203125 
L 6.5 0 
C 13.09375 0 13.796875 0 16.40625 0 
C 17.296875 0 18.90625 0 21.09375 0 
C 26 0 36.90625 0 39.703125 0 
C 42.90625 0 42.90625 0 56.5 0 
C 57.203125 4.359375 57.59375 7.578125 58.59375 17.390625 
L 55.40625 17.390625 
L 54.203125 12.390625 
C 54.09375 12.09375 54 11.390625 53.90625 11.296875 
C 53.296875 8.40625 52.59375 6.40625 52 5.921875 
C 50.703125 4.8125 42 4.109375 30.09375 4.109375 
C 26.5 4.109375 24.203125 4.3125 21.59375 4.90625 
z
" id="URW_Palladio_L_Roman-76"/>
      <path d="M 32.40625 8.40625 
L 31.90625 -0.015625 
C 38.40625 -0.015625 38.40625 -0.015625 39.703125 -0.015625 
C 40.203125 -0.015625 42.703125 -0.015625 47.09375 -0.015625 
L 47.09375 3 
L 43.203125 3 
C 40.796875 3 40.40625 3.8125 40.40625 8.71875 
L 40.40625 27.046875 
C 40.40625 41.6875 36.203125 47 24.59375 47 
C 20.296875 47 16.296875 45.890625 12.5 43.609375 
L 7.203125 40.390625 
L 7.203125 33.921875 
L 9.796875 33.21875 
L 11.09375 36.296875 
C 13.203125 40.984375 14.203125 41.6875 18.796875 41.6875 
C 28.203125 41.6875 32.09375 37.984375 32.40625 28.9375 
L 22.5 27.125 
C 8.90625 24.640625 3.203125 19.953125 3.203125 11.28125 
C 3.203125 3.5 7.90625 -1 15.796875 -1 
C 17.59375 -1 19.296875 -0.703125 20 -0.203125 
z
M 32.40625 12.59375 
C 29.5 8.5 23.203125 4.71875 19.296875 4.71875 
C 15.296875 4.71875 11.796875 8.40625 11.796875 12.6875 
C 11.796875 16.375 13.796875 19.859375 16.796875 21.75 
C 19.296875 23.25 24.796875 24.640625 32.40625 25.75 
z
" id="URW_Palladio_L_Roman-97"/>
     </defs>
     <g transform="translate(159.629919479 418.279035526)scale(0.12 -0.12)">
      <use transform="scale(0.996264009963)" xlink:href="#URW_Palladio_L_Roman-78"/>
      <use transform="translate(82.7889068337 0.0)scale(0.996264009963)" xlink:href="#URW_Palladio_L_Roman-117"/>
      <use transform="translate(142.862641559 0.0)scale(0.996264009963)" xlink:href="#URW_Palladio_L_Roman-109"/>
      <use transform="translate(230.832315827 0.0)scale(0.996264009963)" xlink:href="#URW_Palladio_L_Roman-98"/>
      <use transform="translate(285.924715301 0.0)scale(0.996264009963)" xlink:href="#URW_Palladio_L_Roman-101"/>
      <use transform="translate(333.64501041 0.0)scale(0.996264009963)" xlink:href="#URW_Palladio_L_Roman-114"/>
      <use transform="translate(397.90350699 0.0)scale(0.996264009963)" xlink:href="#URW_Palladio_L_Roman-111"/>
      <use transform="translate(452.299087163 0.0)scale(0.996264009963)" xlink:href="#URW_Palladio_L_Roman-102"/>
      <use transform="translate(510.380917142 0.0)scale(0.996264009963)" xlink:href="#URW_Palladio_L_Roman-112"/>
      <use transform="translate(570.255310895 0.0)scale(0.996264009963)" xlink:href="#URW_Palladio_L_Roman-114"/>
      <use transform="translate(609.607207226 0.0)scale(0.996264009963)" xlink:href="#URW_Palladio_L_Roman-105"/>
      <use transform="translate(638.597568688 0.0)scale(0.996264009963)" xlink:href="#URW_Palladio_L_Roman-110"/>
      <use transform="translate(696.579629368 0.0)scale(0.996264009963)" xlink:href="#URW_Palladio_L_Roman-99"/>
      <use transform="translate(740.813198066 0.0)scale(0.996264009963)" xlink:href="#URW_Palladio_L_Roman-105"/>
      <use transform="translate(769.803559528 0.0)scale(0.996264009963)" xlink:href="#URW_Palladio_L_Roman-112"/>
      <use transform="translate(829.677953281 0.0)scale(0.996264009963)" xlink:href="#URW_Palladio_L_Roman-97"/>
      <use transform="translate(879.491153779 0.0)scale(0.996264009963)" xlink:href="#URW_Palladio_L_Roman-108"/>
      <use transform="translate(933.38811549 0.0)scale(0.996264009963)" xlink:href="#URW_Palladio_L_Roman-99"/>
      <use transform="translate(977.621684187 0.0)scale(0.996264009963)" xlink:href="#URW_Palladio_L_Roman-111"/>
      <use transform="translate(1032.01726436 0.0)scale(0.996264009963)" xlink:href="#URW_Palladio_L_Roman-109"/>
      <use transform="translate(1119.98693863 0.0)scale(0.996264009963)" xlink:href="#URW_Palladio_L_Roman-112"/>
      <use transform="translate(1179.86133238 0.0)scale(0.996264009963)" xlink:href="#URW_Palladio_L_Roman-111"/>
      <use transform="translate(1234.25691255 0.0)scale(0.996264009963)" xlink:href="#URW_Palladio_L_Roman-110"/>
      <use transform="translate(1292.23897324 0.0)scale(0.996264009963)" xlink:href="#URW_Palladio_L_Roman-101"/>
      <use transform="translate(1339.95926834 0.0)scale(0.996264009963)" xlink:href="#URW_Palladio_L_Roman-110"/>
      <use transform="translate(1397.94132902 0.0)scale(0.996264009963)" xlink:href="#URW_Palladio_L_Roman-116"/>
      <use transform="translate(1430.4184169 0.0)scale(0.996264009963)" xlink:href="#URW_Palladio_L_Roman-115"/>
      <use transform="translate(1497.56648348 0.0)scale(0.996264009963)" xlink:href="#URW_Palladio_L_Roman-105"/>
      <use transform="translate(1526.55684494 0.0)scale(0.996264009963)" xlink:href="#URW_Palladio_L_Roman-110"/>
      <use transform="translate(1609.44550587 0.0)scale(0.996264009963)" xlink:href="#URW_Palladio_L_Roman-80"/>
      <use transform="translate(1669.6191011 0.0)scale(0.996264009963)" xlink:href="#URW_Palladio_L_Roman-76"/>
      <use transform="translate(1730.49073178 0.0)scale(0.996264009963)" xlink:href="#URW_Palladio_L_Roman-83"/>
      <use transform="translate(1807.70114694 0.0)scale(0.996264009963)" xlink:href="#URW_Palladio_L_Roman-114"/>
      <use transform="translate(1845.2604643 0.0)scale(0.996264009963)" xlink:href="#URW_Palladio_L_Roman-101"/>
      <use transform="translate(1892.98075941 0.0)scale(0.996264009963)" xlink:href="#URW_Palladio_L_Roman-103"/>
      <use transform="translate(1948.37243637 0.0)scale(0.996264009963)" xlink:href="#URW_Palladio_L_Roman-114"/>
      <use transform="translate(1985.93175373 0.0)scale(0.996264009963)" xlink:href="#URW_Palladio_L_Roman-101"/>
      <use transform="translate(2033.65204884 0.0)scale(0.996264009963)" xlink:href="#URW_Palladio_L_Roman-115"/>
      <use transform="translate(2075.89351516 0.0)scale(0.996264009963)" xlink:href="#URW_Palladio_L_Roman-115"/>
      <use transform="translate(2118.13498149 0.0)scale(0.996264009963)" xlink:href="#URW_Palladio_L_Roman-105"/>
      <use transform="translate(2147.12534295 0.0)scale(0.996264009963)" xlink:href="#URW_Palladio_L_Roman-111"/>
      <use transform="translate(2201.52092313 0.0)scale(0.996264009963)" xlink:href="#URW_Palladio_L_Roman-110"/>
     </g>
    </g>
   </g>
   <g id="matplotlib.axis_2">
    <g id="ytick_1">
     <g id="line2d_20">
      <defs>
       <path d="M 0 0 
L 4 0 
" id="m9385eb7d33" style="stroke:#000000;stroke-width:0.5;"/>
      </defs>
      <g>
       <use style="stroke:#000000;stroke-width:0.5;" x="72.0" xlink:href="#m9385eb7d33" y="350.4"/>
      </g>
     </g>
     <g id="line2d_21">
      <defs>
       <path d="M 0 0 
L -4 0 
" id="m5c305297cb" style="stroke:#000000;stroke-width:0.5;"/>
      </defs>
      <g>
       <use style="stroke:#000000;stroke-width:0.5;" x="518.4" xlink:href="#m5c305297cb" y="350.4"/>
      </g>
     </g>
     <g id="text_11">
      <!-- $1.3$ -->
      <defs>
       <path d="M 12.40625 11.625 
C 9.40625 11.625 6.703125 8.8125 6.703125 5.8125 
C 6.703125 2.796875 9.40625 0 12.296875 0 
C 15.5 0 18.296875 2.703125 18.296875 5.8125 
C 18.296875 8.8125 15.5 11.625 12.40625 11.625 
" id="URW_Palladio_L_Roman-46"/>
      </defs>
      <g transform="translate(53.0560398506 352.991295824)scale(0.12 -0.12)">
       <use transform="scale(0.996264009963)" xlink:href="#URW_Palladio_L_Roman-49"/>
       <use transform="translate(49.8132004981 0.0)scale(0.996264009963)" xlink:href="#URW_Palladio_L_Roman-46"/>
       <use transform="translate(74.7198007472 0.0)scale(0.996264009963)" xlink:href="#URW_Palladio_L_Roman-51"/>
      </g>
     </g>
    </g>
    <g id="ytick_2">
     <g id="line2d_22">
      <g>
       <use style="stroke:#000000;stroke-width:0.5;" x="72.0" xlink:href="#m9385eb7d33" y="273.6"/>
      </g>
     </g>
     <g id="line2d_23">
      <g>
       <use style="stroke:#000000;stroke-width:0.5;" x="518.4" xlink:href="#m5c305297cb" y="273.6"/>
      </g>
     </g>
     <g id="text_12">
      <!-- $1.4$ -->
      <g transform="translate(53.0560398506 276.191295824)scale(0.12 -0.12)">
       <use transform="scale(0.996264009963)" xlink:href="#URW_Palladio_L_Roman-49"/>
       <use transform="translate(49.8132004981 0.0)scale(0.996264009963)" xlink:href="#URW_Palladio_L_Roman-46"/>
       <use transform="translate(74.7198007472 0.0)scale(0.996264009963)" xlink:href="#URW_Palladio_L_Roman-52"/>
      </g>
     </g>
    </g>
    <g id="ytick_3">
     <g id="line2d_24">
      <g>
       <use style="stroke:#000000;stroke-width:0.5;" x="72.0" xlink:href="#m9385eb7d33" y="196.8"/>
      </g>
     </g>
     <g id="line2d_25">
      <g>
       <use style="stroke:#000000;stroke-width:0.5;" x="518.4" xlink:href="#m5c305297cb" y="196.8"/>
      </g>
     </g>
     <g id="text_13">
      <!-- $1.5$ -->
      <g transform="translate(53.0560398506 199.391295824)scale(0.12 -0.12)">
       <use transform="scale(0.996264009963)" xlink:href="#URW_Palladio_L_Roman-49"/>
       <use transform="translate(49.8132004981 0.0)scale(0.996264009963)" xlink:href="#URW_Palladio_L_Roman-46"/>
       <use transform="translate(74.7198007472 0.0)scale(0.996264009963)" xlink:href="#URW_Palladio_L_Roman-53"/>
      </g>
     </g>
    </g>
    <g id="ytick_4">
     <g id="line2d_26">
      <g>
       <use style="stroke:#000000;stroke-width:0.5;" x="72.0" xlink:href="#m9385eb7d33" y="120.0"/>
      </g>
     </g>
     <g id="line2d_27">
      <g>
       <use style="stroke:#000000;stroke-width:0.5;" x="518.4" xlink:href="#m5c305297cb" y="120.0"/>
      </g>
     </g>
     <g id="text_14">
      <!-- $1.6$ -->
      <g transform="translate(53.0560398506 122.591295824)scale(0.12 -0.12)">
       <use transform="scale(0.996264009963)" xlink:href="#URW_Palladio_L_Roman-49"/>
       <use transform="translate(49.8132004981 0.0)scale(0.996264009963)" xlink:href="#URW_Palladio_L_Roman-46"/>
       <use transform="translate(74.7198007472 0.0)scale(0.996264009963)" xlink:href="#URW_Palladio_L_Roman-54"/>
      </g>
     </g>
    </g>
    <g id="ytick_5">
     <g id="text_15">
      <!-- $1.7$ -->
      <g transform="translate(53.0560398506 45.7912958243)scale(0.12 -0.12)">
       <use transform="scale(0.996264009963)" xlink:href="#URW_Palladio_L_Roman-49"/>
       <use transform="translate(49.8132004981 0.0)scale(0.996264009963)" xlink:href="#URW_Palladio_L_Roman-46"/>
       <use transform="translate(74.7198007472 0.0)scale(0.996264009963)" xlink:href="#URW_Palladio_L_Roman-55"/>
      </g>
     </g>
    </g>
    <g id="text_16">
     <!-- MSE -->
     <defs>
      <path d="M 73.203125 12.234375 
C 73.203125 4.3125 72.796875 3.609375 68.09375 3.203125 
L 64.703125 2.90625 
L 64.703125 0 
C 69.296875 0 72.296875 0 77.5 0 
C 83.09375 0 86.703125 0 92.59375 0 
L 92.59375 3.203125 
L 87.796875 3.203125 
C 83.203125 3.203125 82.703125 4 82.703125 11.96875 
L 82.703125 57.234375 
C 82.703125 65.09375 83.203125 66 87.796875 66 
L 92 66.5 
L 92 69.3125 
C 84.40625 69.3125 84.40625 69.3125 82.703125 69.3125 
C 81.203125 69.3125 81.203125 69.3125 73.203125 69.3125 
L 47 13.8125 
L 20.59375 69.3125 
C 12.59375 69.3125 12.59375 69.3125 11.09375 69.3125 
C 9.59375 69.3125 9.59375 69.3125 1.59375 69.3125 
L 1.59375 66.203125 
L 6 66.203125 
C 10.59375 66.203125 11.09375 65.28125 11.09375 57.40625 
L 11.09375 12 
C 11.09375 4.109375 10.59375 3.203125 6 3.203125 
L 1.59375 3.203125 
L 1.59375 0 
C 11.5 0 11.5 0 13.203125 0 
C 14.703125 0 14.703125 0 25.203125 0 
L 25.203125 3.203125 
L 20.796875 3.203125 
C 16.203125 3.203125 15.703125 4.09375 15.703125 11.96875 
L 15.703125 58.09375 
L 43.59375 -1 
L 45.59375 -1 
C 46.296875 0.5 46.90625 2.09375 47.5 3.59375 
C 49.09375 7.5 50.296875 10.28125 51 11.6875 
L 68.796875 49.484375 
C 70.203125 52.390625 71.40625 54.6875 73.203125 58.09375 
z
" id="URW_Palladio_L_Roman-77"/>
      <path d="M 2.203125 66 
L 7 66 
C 11.59375 66 12.09375 65.1875 12.09375 57.265625 
L 12.09375 12.25 
C 12.09375 4.3125 11.703125 3.609375 7 3.203125 
L 3.40625 2.90625 
L 3.40625 0 
C 10 0 12.90625 0 15.703125 0 
C 16.203125 0 19 0 22.796875 0 
C 36.703125 0 36.703125 0 38.90625 0 
C 42 0 42 0 55.59375 0 
C 55.59375 5.96875 56.203125 11.5 57.203125 16.859375 
L 53.703125 16.859375 
C 53.5 15.1875 53.296875 13.71875 53.203125 13.3125 
C 52.59375 8.8125 51.296875 5.5625 49.90625 5.046875 
C 47.796875 4.3125 40.5 4.3125 31.5 4.3125 
C 26.296875 4.3125 24.5 4.46875 21.59375 4.921875 
L 21.59375 32.8125 
C 24.40625 33 27.40625 33 31.90625 33 
C 39.296875 33 42 32.71875 43.796875 31.875 
L 44.59375 29.53125 
L 45.09375 24 
L 48.09375 24 
C 47.796875 33.3125 47.796875 33.3125 47.796875 35.109375 
C 47.796875 36.71875 47.796875 36.71875 48.09375 46.734375 
L 45.09375 46.734375 
L 44.59375 41.28125 
C 44.5 40.328125 44.203125 39.390625 43.796875 38.546875 
C 42 37.71875 39.203125 37.40625 32.59375 37.40625 
C 28.40625 37.40625 25 37.40625 21.59375 37.40625 
L 21.59375 64.328125 
C 24.703125 65 26.40625 65 33.296875 65 
C 39 65 44.59375 64.53125 47.796875 63.6875 
C 50.203125 63.109375 50.5 62.625 50.5 60.4375 
L 50.5 54.140625 
L 54 54.140625 
C 54 60.046875 54.5 64.78125 55.59375 69.109375 
C 50.703125 69.109375 47.59375 69.109375 43.203125 69.109375 
C 40.703125 69.109375 37.40625 69.109375 33.296875 69.109375 
C 27 69.109375 22.703125 69.109375 20 69.109375 
C 16.59375 69.109375 12.09375 69.109375 2.203125 69.109375 
z
" id="URW_Palladio_L_Roman-69"/>
     </defs>
     <g transform="translate(44.6847557742 228.445288785)rotate(-90.0)scale(0.12 -0.12)">
      <use transform="scale(0.996264009963)" xlink:href="#URW_Palladio_L_Roman-77"/>
      <use transform="translate(94.2462013786 0.0)scale(0.996264009963)" xlink:href="#URW_Palladio_L_Roman-83"/>
      <use transform="translate(146.550016296 0.0)scale(0.996264009963)" xlink:href="#URW_Palladio_L_Roman-69"/>
     </g>
    </g>
    <g id="text_17">
     <!-- $\times10^{24}$ -->
     <defs>
      <path d="M 38.90625 27.890625 
L 18.90625 47.796875 
C 17.703125 49 17.5 49.1875 16.703125 49.1875 
C 15.703125 49.1875 14.703125 48.296875 14.703125 47.1875 
C 14.703125 46.5 14.90625 46.296875 16 45.1875 
L 36 25.09375 
L 16 5 
C 14.90625 3.890625 14.703125 3.6875 14.703125 3 
C 14.703125 1.890625 15.703125 1 16.703125 1 
C 17.5 1 17.703125 1.1875 18.90625 2.390625 
L 38.796875 22.296875 
L 59.5 1.59375 
C 59.703125 1.5 60.40625 1 61 1 
C 62.203125 1 63 1.890625 63 3 
C 63 3.1875 63 3.59375 62.703125 4.09375 
C 62.59375 4.296875 46.703125 20 41.703125 25.09375 
L 60 43.390625 
C 60.5 44 62 45.296875 62.5 45.890625 
C 62.59375 46.09375 63 46.5 63 47.1875 
C 63 48.296875 62.203125 49.1875 61 49.1875 
C 60.203125 49.1875 59.796875 48.796875 58.703125 47.6875 
z
" id="CMSY10-2"/>
      <path d="M 26.296875 69 
C 10.796875 69 2.90625 56.6875 2.90625 32.453125 
C 2.90625 20.71875 5 10.625 8.5 5.71875 
C 12 0.796875 17.59375 -2 23.796875 -2 
C 38.90625 -2 46.5 11.015625 46.5 36.65625 
C 46.5 58.578125 40 69 26.296875 69 
M 24.5 65.5 
C 34.203125 65.5 38.09375 55.6875 38.09375 31.640625 
C 38.09375 10.328125 34.296875 1.5 25.09375 1.5 
C 15.40625 1.5 11.296875 11.625 11.296875 36.0625 
C 11.296875 57.1875 15 65.5 24.5 65.5 
" id="URW_Palladio_L_Roman-48"/>
     </defs>
     <g transform="translate(72.0 40.2)scale(0.12 -0.12)">
      <use transform="scale(1.03810691596)" xlink:href="#CMSY10-2"/>
      <use transform="translate(81.9416963 0.0)scale(0.996264009963)" xlink:href="#URW_Palladio_L_Roman-49"/>
      <use transform="translate(131.754896798 0.0)scale(0.996264009963)" xlink:href="#URW_Palladio_L_Roman-48"/>
      <use transform="translate(181.568097296 36.1643714002)scale(0.75715517493)" xlink:href="#URW_Palladio_L_Roman-50"/>
      <use transform="translate(219.425856043 36.1643714002)scale(0.75715517493)" xlink:href="#URW_Palladio_L_Roman-52"/>
     </g>
    </g>
   </g>
   <g id="text_18">
    <!-- MSE of the points from the fit using PLSRegression -->
    <defs>
     <path d="M 21.59375 64.796875 
C 25 65.59375 28 66 31.40625 66 
C 41.796875 66 47.59375 61.171875 47.59375 52.609375 
C 47.59375 43.359375 40.296875 37.515625 28.703125 37.515625 
C 28 37.515625 27.09375 37.515625 25.796875 37.609375 
L 25.203125 36.40625 
C 26.296875 35.09375 26.59375 34.703125 27.796875 33.390625 
C 29.203125 31.796875 29.5 31.390625 30.40625 30.1875 
L 48.796875 5.40625 
C 49.40625 4.609375 50 3.796875 50.59375 3.109375 
C 51.296875 2.203125 51.90625 1.296875 52.90625 0 
C 57.59375 0 58.59375 0 59.703125 0 
C 60.59375 0 60.59375 0 66.90625 0 
L 66.90625 2.90625 
C 63.703125 3.203125 62.09375 3.8125 60.796875 5.53125 
L 38.09375 35.296875 
C 43.703125 36.703125 46.296875 37.796875 49.59375 40.09375 
C 54.796875 43.796875 57.59375 48.796875 57.59375 54.609375 
C 57.59375 64.203125 50.59375 69.609375 38.203125 69.609375 
L 36.59375 69.609375 
C 23.59375 69.609375 23.59375 69.609375 20.203125 69.609375 
C 16.90625 69.609375 16.90625 69.609375 2.90625 69.609375 
L 2.90625 66.796875 
L 7 66.296875 
C 11.59375 66.296875 12.09375 65.375 12.09375 57.484375 
L 12.09375 12.015625 
C 12.09375 4.015625 11.59375 3.203125 7 3.203125 
L 2.203125 3.203125 
L 2.203125 0 
C 8.09375 0 11.59375 0 16.796875 0 
C 22 0 25.59375 0 31.5 0 
L 31.5 3.203125 
L 26.703125 3.203125 
C 22.09375 3.203125 21.59375 4 21.59375 12 
z
" id="URW_Palladio_L_Roman-82"/>
     <path d="M 34.09375 71.921875 
C 32 72.703125 30.796875 73 29.5 73 
C 26.296875 73 22.796875 71.296875 20.59375 68.8125 
L 14.796875 62.265625 
C 11.90625 58.984375 10.59375 54.53125 10.59375 47.96875 
L 10.59375 43.796875 
L 3.703125 40.6875 
L 3.703125 38.6875 
L 10.59375 38.6875 
L 10.59375 10.171875 
C 10.59375 3.8125 10.296875 3.109375 6.90625 3.109375 
L 2.296875 3.109375 
L 2.296875 0 
C 12.296875 0 12.296875 0 14.90625 0 
C 17.296875 0 20.09375 0 27.90625 0 
L 27.90625 3.109375 
L 22.703125 3.109375 
C 19.296875 3.109375 19 3.828125 19 10.203125 
L 19 38.890625 
L 30.40625 38.890625 
L 31.09375 44 
L 19 44 
L 19 52.34375 
C 19 63.640625 20.296875 66.375 26 66.375 
C 28.703125 66.375 30.5 65.6875 32.90625 63.609375 
L 34.09375 64.203125 
z
M 50.40625 46.578125 
L 49.5 47.28125 
C 45.09375 45.09375 39.796875 43.703125 33.90625 43 
L 33.90625 40.1875 
L 37.59375 40.1875 
C 41.59375 40.1875 42 39.484375 42 32.796875 
L 42 10.203125 
C 42 3.8125 41.703125 3.109375 38.296875 3.109375 
L 33.703125 3.109375 
L 33.703125 0 
C 43.703125 0 43.703125 0 46.203125 0 
C 48.703125 0 48.703125 0 58.703125 0 
L 58.703125 3.109375 
L 54.09375 3.109375 
C 50.703125 3.109375 50.40625 3.8125 50.40625 10.1875 
z
M 46.703125 69 
C 43.703125 69 41.09375 66.390625 41.09375 63.375 
C 41.09375 60.46875 43.703125 57.875 46.59375 57.875 
C 49.5 57.875 52.203125 60.46875 52.203125 63.375 
C 52.203125 66.1875 49.5 69 46.703125 69 
" id="URW_Palladio_L_Roman-2"/>
     <path d="M 0.703125 66.375 
L 6.296875 66.375 
C 8.09375 66.375 8.796875 65.265625 8.796875 62.25 
L 8.796875 10.046875 
C 8.796875 3.703125 8.5 3 5.09375 3 
L 0.59375 3 
L 0.59375 -0.109375 
C 7.40625 -0.109375 10.09375 -0.109375 13 -0.109375 
C 15.90625 -0.109375 18.59375 -0.109375 25.40625 -0.109375 
L 25.40625 3 
L 20.90625 3 
C 17.5 3 17.203125 3.703125 17.203125 10.046875 
L 17.203125 31.421875 
C 17.203125 35.9375 23.796875 40.875 29.90625 40.875 
C 36.59375 40.875 41 35.890625 41 28.21875 
L 41 -0.109375 
C 47.09375 -0.109375 47.203125 -0.109375 48.90625 -0.109375 
C 50.296875 -0.109375 50.296875 -0.109375 57.203125 -0.109375 
L 57.203125 2.796875 
L 53.09375 3.203125 
C 49.703125 3.203125 49.40625 3.8125 49.40625 10.21875 
L 49.40625 29.5625 
C 49.40625 41.28125 43.90625 47 32.703125 47 
C 29 47 26.90625 46.296875 24.796875 44.484375 
L 17.203125 37.875 
L 17.203125 72.078125 
L 16.296875 72.890625 
C 11.90625 71.1875 8.59375 70.375 0.703125 69.171875 
z
" id="URW_Palladio_L_Roman-104"/>
    </defs>
    <g transform="translate(133.111291823 38.2)scale(0.144 -0.144)">
     <use transform="scale(0.996264009963)" xlink:href="#URW_Palladio_L_Roman-77"/>
     <use transform="translate(94.2462013786 0.0)scale(0.996264009963)" xlink:href="#URW_Palladio_L_Roman-83"/>
     <use transform="translate(146.550016296 0.0)scale(0.996264009963)" xlink:href="#URW_Palladio_L_Roman-69"/>
     <use transform="translate(232.328247222 0.0)scale(0.996264009963)" xlink:href="#URW_Palladio_L_Roman-111"/>
     <use transform="translate(286.723827395 0.0)scale(0.996264009963)" xlink:href="#URW_Palladio_L_Roman-102"/>
     <use transform="translate(344.805657374 0.0)scale(0.996264009963)" xlink:href="#URW_Palladio_L_Roman-116"/>
     <use transform="translate(377.282745247 0.0)scale(0.996264009963)" xlink:href="#URW_Palladio_L_Roman-104"/>
     <use transform="translate(435.264805928 0.0)scale(0.996264009963)" xlink:href="#URW_Palladio_L_Roman-101"/>
     <use transform="translate(507.891701286 0.0)scale(0.996264009963)" xlink:href="#URW_Palladio_L_Roman-112"/>
     <use transform="translate(567.766095039 0.0)scale(0.996264009963)" xlink:href="#URW_Palladio_L_Roman-111"/>
     <use transform="translate(622.161675212 0.0)scale(0.996264009963)" xlink:href="#URW_Palladio_L_Roman-105"/>
     <use transform="translate(651.152036674 0.0)scale(0.996264009963)" xlink:href="#URW_Palladio_L_Roman-110"/>
     <use transform="translate(709.134097355 0.0)scale(0.996264009963)" xlink:href="#URW_Palladio_L_Roman-116"/>
     <use transform="translate(741.611185228 0.0)scale(0.996264009963)" xlink:href="#URW_Palladio_L_Roman-115"/>
     <use transform="translate(808.759251805 0.0)scale(0.996264009963)" xlink:href="#URW_Palladio_L_Roman-102"/>
     <use transform="translate(841.934481534 0.0)scale(0.996264009963)" xlink:href="#URW_Palladio_L_Roman-114"/>
     <use transform="translate(879.493798889 0.0)scale(0.996264009963)" xlink:href="#URW_Palladio_L_Roman-111"/>
     <use transform="translate(933.889379062 0.0)scale(0.996264009963)" xlink:href="#URW_Palladio_L_Roman-109"/>
     <use transform="translate(1046.76565358 0.0)scale(0.996264009963)" xlink:href="#URW_Palladio_L_Roman-116"/>
     <use transform="translate(1079.24274145 0.0)scale(0.996264009963)" xlink:href="#URW_Palladio_L_Roman-104"/>
     <use transform="translate(1137.22480213 0.0)scale(0.996264009963)" xlink:href="#URW_Palladio_L_Roman-101"/>
     <use transform="translate(1209.85169749 0.0)scale(0.996264009963)" xlink:href="#URW_Palladio_L_Roman-2"/>
     <use transform="translate(1270.12495561 0.0)scale(0.996264009963)" xlink:href="#URW_Palladio_L_Roman-116"/>
     <use transform="translate(1327.50864373 0.0)scale(0.996264009963)" xlink:href="#URW_Palladio_L_Roman-117"/>
     <use transform="translate(1387.58237846 0.0)scale(0.996264009963)" xlink:href="#URW_Palladio_L_Roman-115"/>
     <use transform="translate(1429.82384479 0.0)scale(0.996264009963)" xlink:href="#URW_Palladio_L_Roman-105"/>
     <use transform="translate(1458.81420625 0.0)scale(0.996264009963)" xlink:href="#URW_Palladio_L_Roman-110"/>
     <use transform="translate(1516.79626693 0.0)scale(0.996264009963)" xlink:href="#URW_Palladio_L_Roman-103"/>
     <use transform="translate(1597.09454414 0.0)scale(0.996264009963)" xlink:href="#URW_Palladio_L_Roman-80"/>
     <use transform="translate(1657.26813937 0.0)scale(0.996264009963)" xlink:href="#URW_Palladio_L_Roman-76"/>
     <use transform="translate(1718.13977005 0.0)scale(0.996264009963)" xlink:href="#URW_Palladio_L_Roman-83"/>
     <use transform="translate(1770.44358497 0.0)scale(0.996264009963)" xlink:href="#URW_Palladio_L_Roman-82"/>
     <use transform="translate(1836.99327899 0.0)scale(0.996264009963)" xlink:href="#URW_Palladio_L_Roman-101"/>
     <use transform="translate(1884.7135741 0.0)scale(0.996264009963)" xlink:href="#URW_Palladio_L_Roman-103"/>
     <use transform="translate(1940.10525106 0.0)scale(0.996264009963)" xlink:href="#URW_Palladio_L_Roman-114"/>
     <use transform="translate(1977.66456842 0.0)scale(0.996264009963)" xlink:href="#URW_Palladio_L_Roman-101"/>
     <use transform="translate(2025.38486352 0.0)scale(0.996264009963)" xlink:href="#URW_Palladio_L_Roman-115"/>
     <use transform="translate(2067.62632985 0.0)scale(0.996264009963)" xlink:href="#URW_Palladio_L_Roman-115"/>
     <use transform="translate(2109.86779618 0.0)scale(0.996264009963)" xlink:href="#URW_Palladio_L_Roman-105"/>
     <use transform="translate(2138.85815764 0.0)scale(0.996264009963)" xlink:href="#URW_Palladio_L_Roman-111"/>
     <use transform="translate(2193.25373781 0.0)scale(0.996264009963)" xlink:href="#URW_Palladio_L_Roman-110"/>
    </g>
   </g>
  </g>
 </g>
 <defs>
  <clipPath id="pa8024833c6">
   <rect height="345.6" width="446.4" x="72.0" y="43.2"/>
  </clipPath>
 </defs>
</svg>
